<?xml version="1.0" encoding="UTF-8"?>
<!DOCTYPE svg PUBLIC "-//W3C//DTD SVG 1.1//EN" "http://www.w3.org/Graphics/SVG/1.1/DTD/svg11.dtd">
<!-- Creator: CorelDRAW X6 -->
<svg xmlns="http://www.w3.org/2000/svg" xml:space="preserve" width="0.452803in" height="0.542724in" version="1.1" style="shape-rendering:geometricPrecision; text-rendering:geometricPrecision; image-rendering:optimizeQuality; fill-rule:evenodd; clip-rule:evenodd"
viewBox="0 0 140 168"
 xmlns:xlink="http://www.w3.org/1999/xlink">
 <defs>
  <style type="text/css">
   <![CDATA[
    .fil0 {fill:#FEFEFE}
   ]]>
  </style>
 </defs>
 <g id="Layer_x0020_1">
  <metadata id="CorelCorpID_0Corel-Layer"/>
  <path class="fil0" d="M65 55l-16 1c-2,-13 4,-29 -6,-28 -5,0 -4,6 -4,12 0,5 0,11 0,17 -6,0 -16,2 -21,3 -5,1 -14,3 -14,9l0 48c5,-6 12,-14 21,-17 16,-5 27,23 38,13 2,-3 5,-8 7,-11 3,-4 6,-8 10,-10 16,-8 22,25 33,19 6,-3 14,-13 19,-19 1,-2 2,-4 3,-6 1,-1 2,-1 2,-3l0 -14c0,-3 -2,-4 -4,-6 -6,-3 -23,-6 -31,-6 0,-6 0,-12 0,-17 0,-5 0,-12 -5,-12 -3,0 -4,1 -5,3 -1,2 -1,6 -1,8 0,4 1,13 0,17l-16 -1c0,-6 0,-12 0,-18 0,-4 2,-13 -5,-13 -6,0 -5,9 -5,13 0,6 0,12 0,18zm36 -52c-7,3 -11,7 -11,15 0,9 15,8 13,-1 0,-3 -1,-4 -2,-6 -1,-4 0,-5 0,-8zm-26 -3c-4,0 -12,6 -12,15 0,3 2,4 4,5 5,2 11,-1 10,-7 -1,-2 -2,-4 -3,-6 0,-2 0,-6 1,-7zm-26 3c-5,2 -8,4 -10,8 -6,11 3,15 9,12 2,-1 3,-2 3,-6 -1,-5 -5,-7 -2,-14zm-45 165l132 0c2,0 4,-1 4,-3 0,-3 -2,-3 -5,-3l-130 0c-6,0 -6,6 -1,6zm3 -37l0 27c28,0 58,0 86,0l40 0 0 -54c-1,4 -9,13 -11,16 -16,16 -22,-2 -32,-13 -12,-13 -19,17 -31,19 -6,1 -15,-6 -19,-9 -7,-4 -12,-7 -21,-2 -3,2 -5,4 -7,6 -6,5 -5,5 -5,10z"/>
 </g>
</svg>
