<?xml version="1.0" encoding="UTF-8"?>
<!DOCTYPE svg PUBLIC "-//W3C//DTD SVG 1.1//EN" "http://www.w3.org/Graphics/SVG/1.1/DTD/svg11.dtd">
<!-- Creator: CorelDRAW X6 -->
<svg xmlns="http://www.w3.org/2000/svg" xml:space="preserve" width="3.31359in" height="0.680563in" version="1.1" style="shape-rendering:geometricPrecision; text-rendering:geometricPrecision; image-rendering:optimizeQuality; fill-rule:evenodd; clip-rule:evenodd"
viewBox="0 0 31269 6422"
 xmlns:xlink="http://www.w3.org/1999/xlink">
 <defs>
  <style type="text/css">
   <![CDATA[
    .fil1 {fill:none}
    .fil0 {fill:white}
    .fil2 {fill:white;fill-rule:nonzero}
   ]]>
  </style>
 </defs>
 <g id="Layer_x0020_1">
  <metadata id="CorelCorpID_0Corel-Layer"/>
  <path class="fil0" d="M4186 3541l-840 485 -833 481c-93,45 -186,6 -200,-114l0 -964 0 -974c18,-106 102,-142 190,-109l843 487 846 488c79,75 70,156 -6,220z"/>
  <path class="fil0" d="M4186 3541l-840 485 -833 481c-93,45 -186,6 -200,-114l0 -964 0 -974c18,-106 102,-142 190,-109l843 487 846 488c79,75 70,156 -6,220z"/>
  <path class="fil1" d="M1449 808c27,-17 55,-33 83,-49l0 -1c7,-3 13,-7 20,-10l4 -3c5,-3 10,-5 15,-8l8 -4c4,-3 8,-5 12,-7l10 -5c3,-2 6,-4 10,-5 4,-2 7,-4 11,-6l8 -4c4,-3 9,-5 14,-8l4 -2c273,-139 561,-234 854,-285l0 0c110,-19 221,-32 335,-39 607,-38 1184,106 1677,385l-1772 831 -22 -374c-138,19 -273,52 -401,95l-1 0c-17,6 -34,12 -51,18l-2 1c-4,1 -8,3 -11,4l-4 1c-3,2 -7,3 -10,4l-3 1c-7,3 -15,6 -22,9l-2 1c-3,1 -7,2 -10,4l-4 2 -10 3 -5 3 -9 3 -7 3c-4,2 -7,3 -11,5l-10 4 -5 3 -10 4 -5 2 -10 5 -5 2c-5,2 -10,4 -15,7"/>
  <path class="fil1" d="M1449 808c27,-17 55,-33 83,-49l0 -1c7,-3 13,-7 20,-10l4 -3c5,-3 10,-5 15,-8l8 -4c4,-3 8,-5 12,-7l10 -5c3,-2 6,-4 10,-5 4,-2 7,-4 11,-6l8 -4c4,-3 9,-5 14,-8l4 -2c273,-139 561,-234 854,-285l0 0c110,-19 221,-32 335,-39 607,-38 1184,106 1677,385l-1772 831 -22 -374c-138,19 -273,52 -401,95l-1 0c-17,6 -34,12 -51,18l-2 1c-4,1 -8,3 -11,4l-4 1c-3,2 -7,3 -10,4l-3 1c-7,3 -15,6 -22,9l-2 1c-3,1 -7,2 -10,4l-4 2 -10 3 -5 3 -9 3 -7 3c-4,2 -7,3 -11,5l-10 4 -5 3 -10 4 -5 2 -10 5 -5 2c-5,2 -10,4 -15,7"/>
  <path class="fil0" d="M2744 1471l-28 -260c-70,10 -138,22 -205,38 -289,67 -563,193 -803,368l-20 15c-285,215 -514,495 -666,816l0 0c-137,289 -210,605 -213,924l-787 -471c87,-530 314,-1035 668,-1457l1 1c412,-491 981,-854 1643,-1005 261,-60 531,-85 803,-74l0 0c484,20 945,156 1351,384l-1565 814c-79,42 -172,-14 -179,-93z"/>
  <path class="fil0" d="M2744 1471l-28 -260c-70,10 -138,22 -205,38 -289,67 -563,193 -803,368l-20 15c-285,215 -514,495 -666,816l0 0c-137,289 -210,605 -213,924l-787 -471c87,-530 314,-1035 668,-1457l1 1c412,-491 981,-854 1643,-1005 261,-60 531,-85 803,-74l0 0c484,20 945,156 1351,384l-1565 814c-79,42 -172,-14 -179,-93z"/>
  <path class="fil0" d="M4833 4232l239 101c26,-65 48,-131 67,-197 82,-286 106,-586 70,-881l-3 -25c-49,-353 -182,-689 -388,-979l0 0c-169,-238 -384,-440 -632,-594l814 -426c377,325 675,742 856,1220l-1 0c228,600 268,1273 77,1924 -75,257 -184,506 -327,738l0 0c-254,413 -597,749 -994,993l53 -1770c17,-91 95,-130 169,-104z"/>
  <path class="fil0" d="M4833 4232l239 101c26,-65 48,-131 67,-197 82,-286 106,-586 70,-881l-3 -25c-49,-353 -182,-689 -388,-979l0 0c-169,-238 -384,-440 -632,-594l814 -426c377,325 675,742 856,1220l-1 0c228,600 268,1273 77,1924 -75,257 -184,506 -327,738l0 0c-254,413 -597,749 -994,993l53 -1770c17,-91 95,-130 169,-104z"/>
  <path class="fil0" d="M1528 4635l-202 157c129,157 276,291 434,403l0 0c140,98 293,181 458,246 66,26 133,49 200,68 297,85 609,107 914,64l1 0c261,-37 513,-121 743,-246l-27 916c-85,31 -172,58 -260,81l0 0c-75,20 -151,36 -227,50 -10,1 -20,3 -30,5l-8 1c-440,74 -900,52 -1351,-81 -7,-2 -14,-4 -21,-6 -4,-1 -8,-2 -12,-3 -304,-93 -596,-234 -862,-422l-4 -4c-10,-7 -20,-13 -30,-21 -10,-7 -21,-15 -31,-23l-6 -4c-69,-52 -136,-107 -200,-164l0 0c-113,-101 -220,-213 -320,-334 -433,-526 -659,-1156 -687,-1789l1517 902c66,50 81,145 11,204z"/>
  <path class="fil0" d="M1528 4635l-202 157c129,157 276,291 434,403l0 0c140,98 293,181 458,246 66,26 133,49 200,68 297,85 609,107 914,64l1 0c261,-37 513,-121 743,-246l-27 916c-85,31 -172,58 -260,81l0 0c-75,20 -151,36 -227,50 -10,1 -20,3 -30,5l-8 1c-440,74 -900,52 -1351,-81 -7,-2 -14,-4 -21,-6 -4,-1 -8,-2 -12,-3 -304,-93 -596,-234 -862,-422l-4 -4c-10,-7 -20,-13 -30,-21 -10,-7 -21,-15 -31,-23l-6 -4c-69,-52 -136,-107 -200,-164l0 0c-113,-101 -220,-213 -320,-334 -433,-526 -659,-1156 -687,-1789l1517 902c66,50 81,145 11,204z"/>
  <path class="fil2" d="M11177 4147l0 -245c0,-1241 -676,-1940 -1672,-1940 -1078,0 -1940,751 -1940,1873 0,1123 862,1873 1940,1873 565,0 1093,-200 1509,-713l-639 -483c-223,275 -513,483 -959,483 -498,0 -900,-320 -959,-848l2720 0zm-2720 -669c67,-512 394,-847 922,-847 557,0 899,327 906,847l-1828 0z"/>
  <path id="1" class="fil2" d="M14130 5619l802 0 0 -2051c0,-506 0,-1606 -1523,-1606 -565,0 -1123,171 -1517,573l469 468c237,-223 579,-372 951,-372 476,0 818,231 818,669l0 97 -223 0c-892,0 -2245,81 -2245,1241 0,706 639,1070 1301,1070 475,0 892,-178 1144,-579l23 0 0 490zm-53 -1397c0,498 -289,817 -899,817 -290,0 -624,-141 -624,-468 0,-513 847,-550 1338,-550l185 0 0 201z"/>
  <path id="2" class="fil2" d="M15781 5619l892 0 0 -1910c0,-193 119,-899 959,-899 141,0 282,29 431,66l0 -862c-104,-29 -208,-52 -320,-52 -468,0 -862,246 -1055,654l-15 0 0 -565 -892 0 0 3568z"/>
  <path id="3" class="fil2" d="M21253 5619l847 0 0 -5619 -892 0 0 2505 -22 0c-186,-231 -543,-543 -1211,-543 -1019,0 -1725,818 -1725,1873 0,1056 662,1873 1762,1873 498,0 966,-193 1226,-624l15 0 0 535zm-2111 -1784c0,-557 394,-1070 1048,-1070 654,0 1048,513 1048,1070 0,558 -394,1071 -1048,1071 -654,0 -1048,-513 -1048,-1071z"/>
  <path id="4" class="fil2" d="M23016 5619l892 0 0 -3568 -892 0 0 3568zm-126 -4779c0,282 237,535 564,535 327,0 580,-230 580,-535 0,-305 -253,-535 -580,-535 -327,0 -564,252 -564,535z"/>
  <path id="5" class="fil2" d="M27321 2505c-290,-394 -795,-543 -1271,-543 -721,0 -1435,357 -1435,1152 0,1360 1925,781 1925,1517 0,282 -334,408 -594,408 -379,0 -617,-185 -847,-438l-595 557c364,409 840,550 1390,550 728,0 1538,-297 1538,-1144 0,-1390 -1925,-870 -1925,-1509 0,-268 283,-379 521,-379 304,0 527,126 698,364l595 -535z"/>
  <path id="6" class="fil2" d="M28906 0l-892 0 0 5619 892 0 0 -1947c0,-476 230,-907 817,-907 624,0 654,654 654,1048l0 1806 892 0 0 -2252c0,-728 -342,-1405 -1301,-1405 -550,0 -906,290 -1048,587l-14 0 0 -2549z"/>
 </g>
</svg>
