<?xml version="1.0" encoding="UTF-8"?>
<!DOCTYPE svg PUBLIC "-//W3C//DTD SVG 1.1//EN" "http://www.w3.org/Graphics/SVG/1.1/DTD/svg11.dtd">
<!-- Creator: CorelDRAW X6 -->
<svg xmlns="http://www.w3.org/2000/svg" xml:space="preserve" width="0.579654in" height="0.579791in" version="1.1" style="shape-rendering:geometricPrecision; text-rendering:geometricPrecision; image-rendering:optimizeQuality; fill-rule:evenodd; clip-rule:evenodd"
viewBox="0 0 347 347"
 xmlns:xlink="http://www.w3.org/1999/xlink">
 <defs>
  <style type="text/css">
   <![CDATA[
    .fil0 {fill:#1E142D}
   ]]>
  </style>
 </defs>
 <g id="Layer_x0020_1">
  <metadata id="CorelCorpID_0Corel-Layer"/>
  <path class="fil0" d="M160 1c-8,1 -13,-1 -16,8 -8,25 -2,19 -37,34 -8,3 -11,4 -18,0 -22,-12 -18,-11 -44,15 -13,13 -13,12 -3,31 5,8 4,11 0,18 -16,39 -8,28 -35,38 -7,3 -6,8 -7,17 0,8 0,16 0,24 1,8 0,13 8,16 4,2 15,4 18,6 7,5 12,22 16,32 4,8 5,10 0,18 -10,19 -10,18 4,32 4,4 8,8 12,12 14,14 13,12 32,2 10,-5 18,1 35,8 17,7 13,11 20,28 2,6 10,6 18,6 8,1 16,1 24,0 9,0 12,0 15,-8 9,-25 3,-19 38,-34 9,-4 11,-3 19,1 20,11 15,11 43,-17 14,-13 11,-13 2,-31 -4,-8 -2,-12 1,-19 4,-11 9,-26 17,-30 17,-8 23,1 24,-25 1,-7 1,-17 0,-24 -1,-8 -1,-12 -9,-14 -25,-9 -19,-4 -34,-39 -7,-17 11,-24 8,-37 -1,-4 -19,-21 -24,-25 -13,-13 -14,-10 -31,-1 -9,5 -20,-2 -35,-8 -19,-8 -13,-12 -20,-28 -2,-6 -10,-6 -17,-7 -8,0 -17,0 -24,1zm-79 170l0 6c1,46 43,88 89,88l8 0c44,0 87,-42 87,-87l0 -8c0,-44 -42,-88 -89,-88l-6 0c-46,0 -89,43 -89,89z"/>
 </g>
</svg>
