<?xml version="1.0" encoding="UTF-8"?>
<!DOCTYPE svg PUBLIC "-//W3C//DTD SVG 1.1//EN" "http://www.w3.org/Graphics/SVG/1.1/DTD/svg11.dtd">
<!-- Creator: CorelDRAW X6 -->
<svg xmlns="http://www.w3.org/2000/svg" xml:space="preserve" width="0.411303in" height="0.549563in" version="1.1" style="shape-rendering:geometricPrecision; text-rendering:geometricPrecision; image-rendering:optimizeQuality; fill-rule:evenodd; clip-rule:evenodd"
viewBox="0 0 116 155"
 xmlns:xlink="http://www.w3.org/1999/xlink">
 <defs>
  <style type="text/css">
   <![CDATA[
    .fil0 {fill:white}
   ]]>
  </style>
 </defs>
 <g id="Layer_x0020_1">
  <metadata id="CorelCorpID_0Corel-Layer"/>
  <path class="fil0" d="M55 39c-10,2 -18,10 -16,22 1,10 11,18 22,16 10,-1 18,-11 16,-22 -1,-9 -11,-18 -22,-16zm0 -39c-37,2 -65,37 -52,78 7,21 20,41 34,58l12 14c3,3 6,6 12,4 4,-1 10,-9 13,-12 1,-1 3,-3 4,-5 14,-18 30,-40 36,-65 10,-39 -21,-74 -59,-72zm-1 20c-6,0 -11,2 -15,4 -5,3 -8,6 -11,9 -6,8 -10,18 -9,29 3,20 21,37 43,35 20,-3 37,-20 34,-43 -2,-20 -20,-37 -42,-34z"/>
 </g>
</svg>
