<?xml version="1.0" encoding="utf-8"?>
<!-- Generator: Adobe Illustrator 15.0.0, SVG Export Plug-In . SVG Version: 6.00 Build 0)  -->
<!DOCTYPE svg PUBLIC "-//W3C//DTD SVG 1.1//EN" "http://www.w3.org/Graphics/SVG/1.1/DTD/svg11.dtd">
<svg version="1.1" xmlns="http://www.w3.org/2000/svg" xmlns:xlink="http://www.w3.org/1999/xlink" x="0px" y="0px" width="100px"
	 height="100px" viewBox="0 0 100 100" enable-background="new 0 0 100 100" xml:space="preserve">
<g id="primary">
	<rect fill="#30273A" width="100" height="100"/>
</g>
<g id="secondary">
	<path fill="#453D4C" d="M46.457,10.259c-12.491,1.829-23.294,13.197-21.189,28.095c1.751,12.399,13.43,23.203,28.072,21.095
		c12.42-1.788,23.204-13.271,21.135-28.061C72.738,19.001,61.08,8.12,46.457,10.259 M98.289,100
		c-0.337-1.025-1.014-2.533-2.125-4.91c-1.114-2.384-2.303-4.574-3.486-6.697C88.426,80.764,80.789,72.4,73.104,67.93
		c-14.85-8.636-31.02-9.285-46.515,0.19c-7.962,4.869-14.853,12.5-19.455,20.585C5.589,91.418,3.082,96.174,1.698,100H98.289z"/>
</g>
</svg>
