<?xml version="1.0" encoding="utf-8"?>
<!-- Generator: Adobe Illustrator 15.0.0, SVG Export Plug-In . SVG Version: 6.00 Build 0)  -->
<!DOCTYPE svg PUBLIC "-//W3C//DTD SVG 1.1//EN" "http://www.w3.org/Graphics/SVG/1.1/DTD/svg11.dtd">
<svg version="1.1" xmlns="http://www.w3.org/2000/svg" xmlns:xlink="http://www.w3.org/1999/xlink" x="0px" y="0px" width="100px"
	 height="100px" viewBox="0 0 100 100" enable-background="new 0 0 100 100" xml:space="preserve">
<g id="primary_1_">
	<rect fill="#30273A" width="100" height="100"/>
</g>
<g id="secondary_1_">
	<path fill="#453D4C" d="M40.283,36.726c-3.725,0.38-21.568,0.675-23.221,1.244c-1.957,0.672-3.086,3.051-1.822,5.117
		c0.663,1.083,11.064,9.261,13.483,11.25c5.683,4.675,5.264,1.783,2.93,10.576l-1.209,5.124c-0.269,0.633-0.441,0.818-0.664,1.55
		c-0.633,2.088-1.223,4.577-1.814,6.769c-0.306,1.135-0.675,2.584-0.104,3.809c2.042,4.375,7.43-0.154,8.484-0.822
		c2.22-1.404,13.533-9.113,15.349-9.947c0.936,0.558,1.668,1.013,2.609,1.443c0.439,0.202,0.209,0.04,0.652,0.303
		c0.91,0.535,0.027-0.033,0.715,0.561c0.613,0.527,0.502,0.451,1.229,0.979l6.365,4.092c0.057,0.037,0.135,0.088,0.189,0.127
		l1.898,1.279c0.396,0.229,0.396,0.206,0.814,0.439c1.92,1.07,4.691,4.421,7.464,3.145c2.507-1.154,2.281-3.137,1.735-5.351
		c-0.701-2.839-5.285-18.72-5.313-20.401l9.861-7.921c1.671-1.308,3.208-2.624,4.884-3.987c2.923-2.378,3.869-3.594,3.992-4.349
		c0.308-1.874-0.519-3.062-1.478-3.399c-2.668-1.073-8.162-0.69-11.797-1.003c-4.127-0.355-8.39-0.208-12.414-0.646
		c-1.437-1.918-7.305-19.977-8.762-21.945c-0.688-0.927-1.799-1.347-3.087-1.112c-0.918,0.168-1.223,0.058-2.038,0.973
		c-0.81,0.911-1.013,1.617-1.522,2.934C46.627,20.337,41.12,35.527,40.283,36.726"/>
</g>
</svg>
