<?xml version="1.0" encoding="utf-8"?>
<!-- Generator: Adobe Illustrator 15.0.0, SVG Export Plug-In . SVG Version: 6.00 Build 0)  -->
<!DOCTYPE svg PUBLIC "-//W3C//DTD SVG 1.1//EN" "http://www.w3.org/Graphics/SVG/1.1/DTD/svg11.dtd">
<svg version="1.1" xmlns="http://www.w3.org/2000/svg" xmlns:xlink="http://www.w3.org/1999/xlink" x="0px" y="0px"
	 width="100px" height="100px" viewBox="0 0 100 100" enable-background="new 0 0 100 100" xml:space="preserve">
<path id="primary" d="M46.531,33.092l-9.464,0.314c-1.078-7.203,2.276-16.674-3.304-16.333c-3.219,0.195-2.806,3.744-2.795,6.891
	c0.013,3.321-0.027,6.653,0.028,9.97c-3.35-0.023-9.104,1.155-12.146,1.821c-3.148,0.689-8.43,2.057-8.541,5.377l0.042,28.137
	c3.222-3.284,7.077-8.188,12.334-9.7c9.511-2.736,16.151,13.297,22.355,7.407c1.627-1.544,3.306-4.457,4.655-6.445
	c1.451-2.139,3.068-4.563,5.449-5.692c9.513-4.517,13.121,14.565,19.758,11.263c3.447-1.717,8.336-8.072,10.719-11.49
	c0.756-1.084,1.477-2.108,2.215-3.232c0.476-0.725,0.831-0.995,0.904-1.937l-0.004-8.31c-0.073-1.834-1.107-2.491-2.4-3.229
	c-3.092-1.766-13.303-3.943-18.261-3.996c-0.101-3.137-0.044-6.588-0.001-9.741c0.041-3.165,0.463-6.897-2.788-7.092
	c-1.513-0.091-2.591,0.916-2.983,1.853c-0.385,0.92-0.247,3.354-0.247,4.633c0,2.594,0.282,7.508-0.071,9.829l-9.482-0.343
	c-0.039-3.454,0.012-6.991,0.014-10.498c0.002-2.508,0.877-7.586-2.996-7.612c-3.921-0.027-2.965,5.288-2.969,7.409
	C46.545,25.929,46.533,29.511,46.531,33.092z M67.913,2.572c-4.161,1.445-6.79,4.004-6.868,8.659
	c-0.084,5.148,8.818,4.529,7.978-0.509c-0.267-1.597-1.007-2.321-1.457-3.812C66.993,5.021,67.626,4.147,67.913,2.572z M52.43,0.641
	c-2.668-0.243-6.904,3.637-6.923,8.569c-0.007,1.802,0.771,2.612,2.101,3.115c3.05,1.152,6.513-0.372,5.855-3.844
	c-0.295-1.564-1.162-2.468-1.488-3.788C51.66,3.428,51.896,1.345,52.43,0.641z M36.96,2.579c-2.949,0.836-4.603,1.947-5.873,4.344
	c-3.579,6.75,1.698,8.943,5.127,7.356c1.342-0.62,1.957-1.522,1.738-3.435C37.621,7.952,35.042,6.503,36.96,2.579z M10.716,99.576
	l77.416,0.002c1.573,0,2.692-0.41,2.632-2.033c-0.06-1.665-1.391-1.842-3.036-1.842l-76.811,0.001
	C7.355,95.701,7.34,99.578,10.716,99.576z M12.374,77.73l0.021,15.719c16.292,0.234,34.17-0.023,50.671,0.008l23.609-0.006
	l-0.018-31.575c-0.705,2.07-5.328,7.868-6.916,9.489c-9.04,9.22-12.504-1.471-18.417-7.859c-7.036-7.6-11.074,10.025-18.112,11.375
	c-4.09,0.786-9.071-3.561-11.484-5.213c-4.003-2.742-7.084-4.271-12.066-1.371c-1.811,1.054-3.31,2.359-4.613,3.662
	C11.938,75.068,12.373,74.672,12.374,77.73z"/>
</svg>
