<?xml version="1.0" encoding="utf-8"?>
<!-- Generator: Adobe Illustrator 15.0.0, SVG Export Plug-In . SVG Version: 6.00 Build 0)  -->
<!DOCTYPE svg PUBLIC "-//W3C//DTD SVG 1.1//EN" "http://www.w3.org/Graphics/SVG/1.1/DTD/svg11.dtd">
<svg version="1.1" id="Layer_1" xmlns="http://www.w3.org/2000/svg" xmlns:xlink="http://www.w3.org/1999/xlink" x="0px" y="0px"
	 width="32.602px" height="39.076px" viewBox="0 0 32.602 39.076" enable-background="new 0 0 32.602 39.076" xml:space="preserve">
<g id="Layer_x0020_1">
	<path d="M15.138,12.793l-3.722,0.232c-0.465-3.024,0.931-6.745-1.396-6.513c-1.163,0-0.931,1.396-0.931,2.791
		c0,1.163,0,2.559,0,3.954c-1.396,0-3.722,0.465-4.884,0.698c-1.163,0.233-3.257,0.698-3.257,2.094v11.165
		c1.163-1.396,2.791-3.256,4.885-3.954c3.722-1.163,6.28,5.35,8.839,3.023c0.465-0.698,1.163-1.86,1.628-2.559
		c0.697-0.931,1.396-1.86,2.326-2.325c3.722-1.861,5.117,5.814,7.676,4.419c1.396-0.698,3.256-3.024,4.419-4.419
		c0.232-0.466,0.465-0.932,0.697-1.396c0.233-0.233,0.466-0.233,0.466-0.698v-3.256c0-0.698-0.466-0.931-0.931-1.396
		c-1.396-0.698-5.35-1.396-7.21-1.396c0-1.396,0-2.791,0-3.954s0-2.791-1.163-2.791c-0.698,0-0.931,0.232-1.163,0.698
		s-0.232,1.396-0.232,1.861c0,0.93,0.232,3.023,0,3.954l-3.722-0.232c0-1.396,0-2.792,0-4.187c0-0.93,0.465-3.024-1.163-3.024
		c-1.396,0-1.163,2.094-1.163,3.024C15.138,10.001,15.138,11.397,15.138,12.793z M23.511,0.698
		c-1.628,0.698-2.559,1.628-2.559,3.489c0,2.094,3.489,1.861,3.024-0.232c0-0.698-0.232-0.93-0.466-1.396
		C23.279,1.628,23.511,1.396,23.511,0.698z M17.464,0c-0.931,0-2.791,1.396-2.791,3.489c0,0.698,0.465,0.931,0.93,1.163
		c1.163,0.465,2.559-0.232,2.326-1.628c-0.232-0.465-0.465-0.931-0.697-1.396C17.232,1.163,17.232,0.232,17.464,0z M11.416,0.698
		c-1.163,0.465-1.86,0.93-2.326,1.861C7.695,5.117,9.788,6.047,11.184,5.35c0.465-0.232,0.697-0.465,0.697-1.396
		C11.649,2.791,10.719,2.326,11.416,0.698z M0.949,39.076h30.703c0.465,0,0.93-0.232,0.93-0.698c0-0.697-0.465-0.697-1.163-0.697
		H1.182C-0.214,37.681-0.214,39.076,0.949,39.076z M1.648,30.47v6.28c6.513,0,13.49,0,20.003,0h9.304V24.19
		c-0.232,0.93-2.093,3.023-2.559,3.721c-3.722,3.722-5.117-0.465-7.443-3.023c-2.791-3.023-4.419,3.954-7.21,4.42
		c-1.396,0.232-3.489-1.396-4.419-2.094c-1.629-0.931-2.792-1.629-4.885-0.465c-0.698,0.465-1.163,0.93-1.628,1.395
		C1.414,29.308,1.648,29.308,1.648,30.47z"/>
</g>
</svg>
