<?xml version="1.0" encoding="UTF-8"?>
<!DOCTYPE svg PUBLIC "-//W3C//DTD SVG 1.1//EN" "http://www.w3.org/Graphics/SVG/1.1/DTD/svg11.dtd">
<!-- Creator: CorelDRAW X6 -->
<svg xmlns="http://www.w3.org/2000/svg" xml:space="preserve" width="100px" height="100px" version="1.1" style="shape-rendering:geometricPrecision; text-rendering:geometricPrecision; image-rendering:optimizeQuality; fill-rule:evenodd; clip-rule:evenodd"
viewBox="0 0 1000000 1000000"
 xmlns:xlink="http://www.w3.org/1999/xlink">
 <defs>
  <style type="text/css">
   <![CDATA[
    .fil0 {fill:none}
    .fil1 {fill:black}
   ]]>
  </style>
 </defs>
 <g id="Layer_x0020_1">
  <metadata id="CorelCorpID_0Corel-Layer"/>
  <rect class="fil0" x="1649" y="1425" width="1000000" height="999653"/>
  <path class="fil1" d="M465308 330916l-94643 3145c-10781,-72029 22756,-166735 -33036,-163334 -32190,1951 -28057,37438 -27954,68909 128,33216 -270,66535 282,99700 -33498,-231 -91036,11551 -121467,18212 -31484,6892 -84298,20574 -85402,53777l424 281375c32215,-32844 70770,-81873 123341,-97005 95105,-27363 161511,132967 223554,74069 16274,-15440 33062,-44575 46551,-64456 14503,-21382 30675,-45614 54483,-56921 95131,-45165 131222,145660 197577,112624 34474,-17160 83361,-80717 107195,-114896 7560,-10845 14760,-21087 22153,-32331 4749,-7238 8304,-9946 9035,-19367l-38 -83092c-732,-18340 -11076,-24912 -24001,-32292 -30919,-17660 -133031,-39428 -182611,-39954 -1002,-31368 -437,-65880 -13,-97415 410,-31650 4633,-68974 -27877,-70924 -15132,-912 -25901,9163 -29828,18533 -3850,9202 -2477,33537 -2477,46333 0,25939 2824,75083 -719,98288l-94822 -3427c-385,-34538 115,-69910 141,-104975 26,-25079 8766,-75865 -29956,-76122 -39210,-270 -29648,52879 -29687,74094 -64,35822 -179,71643 -205,107452zm213825 -305195c-41610,14451 -67908,40044 -68678,86595 -847,51480 88174,45294 79768,-5095 -2670,-15967 -10063,-23205 -14568,-38119 -5724,-18893 603,-27633 3478,-43381zm-154837 -19317c-26683,-2425 -69038,36374 -69230,85698 -64,18019 7713,26118 21010,31149 30495,11526 65123,-3722 58552,-38440 -2952,-15645 -11615,-24681 -14888,-37875 -3145,-12655 -783,-33485 4556,-40532zm-154696 19381c-29494,8368 -46025,19470 -58732,43445 -35783,67498 16981,89432 51275,73556 13425,-6200 19573,-15222 17378,-34346 -3311,-28916 -29096,-43407 -9921,-82655zm-262443 969980l774161 12c15735,0 26927,-4094 26324,-20330 -603,-16646 -13913,-18417 -30367,-18417l-768103 12c-35617,-25 -35771,38735 -2015,38723zm16582 -218459l218 157186c162911,2349 341697,-231 506713,77l236093 -51 -179 -315759c-7059,20702 -53277,78689 -69166,94887 -90395,92204 -125036,-14696 -184165,-78587 -70360,-75994 -110737,100252 -181123,113754 -40904,7855 -90715,-35604 -114844,-52135 -40032,-27414 -70848,-42713 -120659,-13707 -18110,10537 -33101,23590 -46128,36617 -31124,31099 -26773,27133 -26760,57718z"/>
 </g>
</svg>
