<?xml version="1.0" encoding="utf-8"?>
<!-- Generator: Adobe Illustrator 15.0.0, SVG Export Plug-In . SVG Version: 6.00 Build 0)  -->
<!DOCTYPE svg PUBLIC "-//W3C//DTD SVG 1.1//EN" "http://www.w3.org/Graphics/SVG/1.1/DTD/svg11.dtd">
<svg version="1.1" xmlns="http://www.w3.org/2000/svg" xmlns:xlink="http://www.w3.org/1999/xlink" x="0px" y="0px"
	 width="100px" height="100px" viewBox="0 0 100 100" enable-background="new 0 0 100 100" xml:space="preserve">
<path id="primary" fill-rule="evenodd" clip-rule="evenodd" d="M39.583,13.702c-8.52,2.316-13.376,9.209-10.698,18.236
	c2.34,7.883,11.938,8.921,21.274,8.921c7.78,0,18.553-0.351,21.267-8.925c2.757-8.713-2.078-15.89-10.693-18.231
	C60,10.508,59.479,9.49,57.347,7.316C53.661,3.557,46.72,3.53,43.065,7.218C40.875,9.429,40.335,10.432,39.583,13.702"/>
<path id="primary" fill-rule="evenodd" clip-rule="evenodd" d="M20.675,46.116l-0.075,6.8c-3.903,0-7.818,0-11.733,0
	c-1.578,0-4.25-0.227-5.597,0.357c-1.27,0.55-2.324,1.911-2.229,3.661c0.24,4.397,5.602,3.543,8.401,3.543
	c3.945,0,7.919,0.048,11.861-0.003l1.487,5.45c-5.574,2.284-9.36,4.138-13.147,9.09c-1.563,2.043-2.816,4.439-3.719,7.419
	c-0.675,2.226-1.721,7.563-0.807,9.763c1.288,3.101,5.511,2.944,6.834,0.1c0.92-1.978-0.109-4.804,1.8-9.333
	c1.214-2.879,2.892-4.826,4.809-6.332c1.51-1.186,5.021-3.371,7.564-3.713c1.399,3.046,5.732,7.896,8.271,9.973
	c3.129,2.562,7.002,5.198,11.907,6.479V60.714c0.101-5.205,2.057-7.797,3.863-7.857c1.562-0.051,3.392,2.222,3.819,7.857v28.664
	c4.848-1.259,8.789-3.886,11.834-6.397c1.042-0.861,1.354-1.186,2.366-2.241c2.209-2.299,4.607-4.772,6.009-7.821
	c4.508,0.605,10.226,4.994,12.316,9.909c0.596,1.405,0.969,2.757,1.209,4.364c0.226,1.516,0.06,3.705,0.579,4.987
	c1.25,3.083,5.547,2.969,6.851,0.159c1.714-3.699-1.262-13.166-4.39-17.217c-1.646-2.128-3.377-3.832-5.693-5.448
	c-2.466-1.719-4.528-2.514-7.573-3.759l1.522-5.439c1.917,0.023,16.171,0.178,17.517-0.163c3.145-0.795,3.896-5.376,0.655-6.98
	c-1.416-0.702-3.841-0.415-5.543-0.415c-3.979,0-7.958,0.005-11.938-0.002c-0.009-1.2-0.442-6.175,0.119-6.824
	c0,0,2.709-1.914,4.011-3.477c5.464-6.556,7.444-12.487,7.847-21.771c0.122-2.808-0.112-4.423-2.161-5.373
	c-1.735-0.806-3.937-0.188-4.908,1.804c-0.948,1.944-0.078,6.935-2.067,12.717c-1.157,3.363-3.113,6.917-5.904,9.074
	c-4.911,3.793-14.986,6.455-22.825,6.923c-10.146,0.607-17.02-1.099-25.232-4.533c-1.623-0.679-3.709-1.448-4.912-2.388
	c-1.164-0.909-2.664-2.631-3.505-3.979c-4.939-7.92-3.375-15.495-4.445-17.837c-0.744-1.631-2.91-2.647-4.901-1.766
	c-2.053,0.908-2.308,2.528-2.186,5.357c0.31,7.219,2.315,15.653,7.037,20.851c0.337,0.371,0.563,0.625,0.898,1.027
	C17.267,43.556,19.559,45.63,20.675,46.116"/>
</svg>
