<?xml version="1.0" encoding="utf-8"?>
<!-- Generator: Adobe Illustrator 15.0.0, SVG Export Plug-In . SVG Version: 6.00 Build 0)  -->
<!DOCTYPE svg PUBLIC "-//W3C//DTD SVG 1.1//EN" "http://www.w3.org/Graphics/SVG/1.1/DTD/svg11.dtd">
<svg version="1.1" id="Layer_1" xmlns="http://www.w3.org/2000/svg" xmlns:xlink="http://www.w3.org/1999/xlink" x="0px" y="0px"
	 width="39.83px" height="35.482px" viewBox="0 0 39.83 35.482" enable-background="new 0 0 39.83 35.482" xml:space="preserve">
<g id="Layer_x0020_1">
	<path d="M13.246,14.218c0.252,0.504,0.126,18.999,0.126,21.265h13.589V13.337H13.246V14.218z"/>
	<polygon points="0.035,35.482 0.161,35.482 12.115,35.482 12.115,21.012 0.035,21.012 	"/>
	<polygon points="27.968,35.482 28.094,35.482 39.795,35.482 39.795,23.654 27.968,23.654 	"/>
	<path d="M31.365,11.198l0.755,1.51c0.503-0.251,1.132-0.503,1.762-0.629c2.013-0.126,2.013,2.139,0,2.139h-1.007v1.762
		c0.881,0,1.636,0,2.265,0.252c0.755,0.377,1.384,2.391-1.51,2.391c-0.881,0-1.259-0.252-2.014-0.504
		c0,0.504-0.251,1.259-0.377,1.762c2.013,1.007,6.668,0.881,6.668-2.265c0-0.629,0-0.629-0.251-1.258
		c-0.126-0.63-0.504-0.881-1.007-1.259l-0.252-0.126c1.51-0.881,1.51-3.02,0-4.026C35.014,9.94,32.623,10.443,31.365,11.198z"/>
	<path d="M3.055,9.311c0.378,0.755,0.881,1.258,1.007,1.51c0.252,0,0.503-0.378,0.755-0.504c1.007-0.503,2.643-0.629,2.643,0.755
		c0,1.888-4.152,2.895-4.152,6.417v0.504h6.417v-1.762H5.698c0.378-1.384,4.152-3.02,3.774-5.914
		C9.095,7.801,5.698,7.676,3.81,8.807C3.433,9.059,3.433,9.185,3.055,9.311z"/>
	<path d="M18.154,2.013c0.126,0.503,0.378,1.132,0.63,1.636c0.629-0.378,1.006-0.378,1.887-0.881v6.794h2.014V0
		c-2.769,0-0.63,0-3.649,1.636C18.657,1.761,18.406,1.887,18.154,2.013z"/>
	<path d="M13.372,35.482c0-2.266,0.126-20.761-0.126-21.265v19.88C13.246,34.601,13.121,35.23,13.372,35.482z"/>
</g>
</svg>
