<?xml version="1.0" encoding="UTF-8"?>
<!DOCTYPE svg PUBLIC "-//W3C//DTD SVG 1.1//EN" "http://www.w3.org/Graphics/SVG/1.1/DTD/svg11.dtd">
<!-- Creator: CorelDRAW X6 -->
<svg xmlns="http://www.w3.org/2000/svg" xml:space="preserve" width="0.553205in" height="0.492803in" version="1.1" style="shape-rendering:geometricPrecision; text-rendering:geometricPrecision; image-rendering:optimizeQuality; fill-rule:evenodd; clip-rule:evenodd"
viewBox="0 0 316 282"
 xmlns:xlink="http://www.w3.org/1999/xlink">
 <defs>
  <style type="text/css">
   <![CDATA[
    .fil0 {fill:#1E132D}
    .fil1 {fill:#3E3747}
   ]]>
  </style>
 </defs>
 <g id="Layer_x0020_1">
  <metadata id="CorelCorpID_0Corel-Layer"/>
  <path class="fil0" d="M105 113c2,4 1,151 1,169l108 0 0 -176 -109 0 0 7z"/>
  <polygon class="fil0" points="0,282 1,282 96,282 96,167 0,167 "/>
  <polygon class="fil0" points="222,282 223,282 316,282 316,188 222,188 "/>
  <path class="fil0" d="M249 89l6 12c4,-2 9,-4 14,-5 16,-1 16,17 0,17l-8 0 0 14c7,0 13,0 18,2 6,3 11,19 -12,19 -7,0 -10,-2 -16,-4 0,4 -2,10 -3,14 16,8 53,7 53,-18 0,-5 0,-5 -2,-10 -1,-5 -4,-7 -8,-10l-2 -1c12,-7 12,-24 0,-32 -11,-8 -30,-4 -40,2z"/>
  <path class="fil0" d="M24 74c3,6 7,10 8,12 2,0 4,-3 6,-4 8,-4 21,-5 21,6 0,15 -33,23 -33,51l0 4 51 0 0 -14 -32 0c3,-11 33,-24 30,-47 -3,-20 -30,-21 -45,-12 -3,2 -3,3 -6,4z"/>
  <path class="fil0" d="M144 16c1,4 3,9 5,13 5,-3 8,-3 15,-7l0 54 16 0 0 -76c-22,0 -5,0 -29,13 -3,1 -5,2 -7,3z"/>
  <path class="fil1" d="M106 282c0,-18 1,-165 -1,-169l0 158c0,4 -1,9 1,11z"/>
 </g>
</svg>
