<?xml version="1.0" encoding="utf-8"?>
<!-- Generator: Adobe Illustrator 15.0.0, SVG Export Plug-In . SVG Version: 6.00 Build 0)  -->
<!DOCTYPE svg PUBLIC "-//W3C//DTD SVG 1.1//EN" "http://www.w3.org/Graphics/SVG/1.1/DTD/svg11.dtd">
<svg version="1.1" xmlns="http://www.w3.org/2000/svg" xmlns:xlink="http://www.w3.org/1999/xlink" x="0px" y="0px"
	 width="100px" height="100px" viewBox="0 0 100 100" enable-background="new 0 0 100 100" xml:space="preserve">
<path id="primary" d="M33.298,41.714c0.698,1.237,0.239,47.566,0.292,53.321l34.073,0.003l-0.001-55.457l-34.336,0.004
	L33.298,41.714z"/>
<polygon points="0.121,95.043 0.359,95.041 30.459,95.038 30.457,58.78 0.127,58.791 "/>
<polygon points="70.268,95.043 70.506,95.041 99.894,95.038 99.891,65.413 70.27,65.413 "/>
<path id="primary" d="M78.803,34.371l1.801,3.602c1.254-0.652,2.737-1.341,4.377-1.467c5.071-0.387,5.131,5.443-0.02,5.444
	l-2.371,0.002l0.002,4.269c2.135-0.001,4.047-0.085,5.529,0.631c2.041,0.984,3.305,6.127-3.64,6.013
	c-2.328-0.038-3.383-0.761-5.211-1.198c-0.09,1.142-0.681,3.133-0.948,4.271c4.939,2.609,16.582,2.216,16.594-5.689
	c0.003-1.411,0.063-1.634-0.436-3.12c-0.531-1.597-1.418-2.255-2.652-3.035l-0.699-0.479c3.85-2.037,3.77-7.545,0.105-10.063
	C87.648,31.087,81.715,32.407,78.803,34.371z"/>
<path id="primary" d="M7.706,29.63c0.872,1.657,2.125,2.874,2.369,3.801c0.77-0.213,1.387-1,2.136-1.428
	c2.446-1.394,6.399-1.609,6.396,1.894c-0.004,4.646-10.191,7.168-10.191,16.115v1.185h16.118l0.002-4.268H14.343
	c0.983-3.483,10.523-7.762,9.394-14.842c-1.02-6.388-9.273-6.801-14.188-3.695C8.753,28.894,8.538,29.188,7.706,29.63z"/>
<path id="primary" d="M45.382,11.143c0.598,1.249,1.046,2.771,1.662,4.031c1.74-0.827,2.674-0.726,4.741-2.134l-0.002,17.066
	h5.219L57,6.165c-7.008,0.039-1.656,0.151-9.319,3.959C46.854,10.535,46.112,10.751,45.382,11.143z"/>
<path id="primary" d="M33.591,95.035c-0.054-5.755,0.406-52.084-0.292-53.321l0.002,50.007
	C33.294,92.968,33.072,94.479,33.591,95.035z"/>
</svg>
