<?xml version="1.0" encoding="UTF-8"?>
<!DOCTYPE svg PUBLIC "-//W3C//DTD SVG 1.1//EN" "http://www.w3.org/Graphics/SVG/1.1/DTD/svg11.dtd">
<!-- Creator: CorelDRAW X6 -->
<svg xmlns="http://www.w3.org/2000/svg" xml:space="preserve" width="100px" height="100px" version="1.1" style="shape-rendering:geometricPrecision; text-rendering:geometricPrecision; image-rendering:optimizeQuality; fill-rule:evenodd; clip-rule:evenodd"
viewBox="0 0 1000000 1000000"
 xmlns:xlink="http://www.w3.org/1999/xlink">
 <defs>
  <style type="text/css">
   <![CDATA[
    .fil0 {fill:none}
    .fil1 {fill:#1E132D}
    .fil2 {fill:#3E3747}
   ]]>
  </style>
 </defs>
 <g id="Layer_x0020_1">
  <metadata id="CorelCorpID_0Corel-Layer"/>
  <rect class="fil0" x="1649" y="1425" width="1000000" height="999653"/>
  <path class="fil1" d="M332983 417139c6982,12373 2387,475666 2926,533217l340734 25 -12 -554573 -343366 39 -282 21292z"/>
  <polygon class="fil1" points="1206,950433 3594,950407 304592,950381 304567,587802 1271,587905 "/>
  <polygon class="fil1" points="702672,950433 705059,950407 998935,950381 998909,654131 702698,654131 "/>
  <path class="fil1" d="M788023 343712l18007 36014c12539,-6520 27376,-13412 43779,-14670 50710,-3863 51300,54432 -193,54445l-23718 26 13 42688c21357,-13 40480,-847 55304,6314 20407,9845 33049,61273 -36399,60131 -23282,-372 -33832,-7611 -52109,-11975 -898,11410 -6802,31317 -9484,42701 49387,26093 165823,22153 165939,-56896 26,-14105 616,-16339 -4351,-31201 -5314,-15966 -14182,-22551 -26529,-30354l-6995 -4787c38491,-20369 37695,-75455 1052,-100637 -35860,-24643 -95194,-11436 -124316,8201z"/>
  <path class="fil1" d="M77059 296301c8715,16570 21255,28737 23693,38003 7701,-2130 13874,-9998 21357,-14272 24463,-13938 63994,-16094 63955,18931 -38,46462 -101907,71682 -101907,161153l0 11846 161178 0 25 -42675 -101933 0c9832,-34834 105232,-77624 93937,-148420 -10203,-63879 -92730,-68011 -141887,-36951 -7945,5018 -10101,7970 -18418,12385z"/>
  <path class="fil1" d="M453821 111431c5981,12488 10460,27710 16621,40313 17404,-8265 26747,-7264 47411,-21344l-26 170663 52186 0 -13 -239418c-70077,385 -16556,1514 -93192,39595 -8266,4107 -15684,6276 -22987,10191z"/>
  <path class="fil2" d="M335909 950356c-539,-57551 4056,-520844 -2926,-533217l25 500065c-64,12475 -2284,27581 2901,33152z"/>
 </g>
</svg>
