<?xml version="1.0" encoding="utf-8"?>
<!-- Generator: Adobe Illustrator 15.0.0, SVG Export Plug-In . SVG Version: 6.00 Build 0)  -->
<!DOCTYPE svg PUBLIC "-//W3C//DTD SVG 1.0//EN" "http://www.w3.org/TR/2001/REC-SVG-20010904/DTD/svg10.dtd">
<svg version="1.0" xmlns:x="&ns_extend;" xmlns:i="&ns_ai;" xmlns:graph="&ns_graphs;"
	 xmlns="http://www.w3.org/2000/svg" xmlns:xlink="http://www.w3.org/1999/xlink" x="0px" y="0px" width="100px" height="100px"
	 viewBox="0 0 100 100" enable-background="new 0 0 100 100" xml:space="preserve">
	<g id="primary">
		<path fill-rule="evenodd" clip-rule="evenodd" fill="#21142E" d="M14.87,2.016l35.15,35.259L85.148,2.016
			c1.305-1.304,3.479-1.304,4.783,0l7.564,7.608c1.326,1.304,1.326,3.435,0,4.782l-35.15,35.216L98.277,85.62
			c1.305,1.304,1.305,3.478,0,4.782l-7.563,7.565c-1.328,1.304-3.48,1.347-4.805,0L50.02,61.969L14.109,97.968
			c-1.326,1.347-3.478,1.304-4.782,0l-7.586-7.565c-1.304-1.305-1.304-3.479,0-4.782l35.932-35.998L2.523,14.406
			c-1.326-1.347-1.326-3.478,0-4.782l7.565-7.608C11.392,0.712,13.566,0.712,14.87,2.016"/>
	</g>
</svg>
