<?xml version="1.0" encoding="utf-8"?>
<!-- Generator: Adobe Illustrator 15.0.0, SVG Export Plug-In . SVG Version: 6.00 Build 0)  -->
<!DOCTYPE svg PUBLIC "-//W3C//DTD SVG 1.1//EN" "http://www.w3.org/Graphics/SVG/1.1/DTD/svg11.dtd">
<svg version="1.1" id="primary" xmlns="http://www.w3.org/2000/svg" xmlns:xlink="http://www.w3.org/1999/xlink" x="0px" y="0px"
	 width="100px" height="100px" viewBox="0 0 100 100" enable-background="new 0 0 100 100" xml:space="preserve">
<path fill="#1E142D" d="M18.78,87.602c0.301-10.543,0.004-21.493,0.018-32.084c0.006-4.752-1.852-7.83-0.578-14.984
	c0.537-3,0.576-4.205,0.576-7.422c0-2.833-0.215-4.932,0.752-7.372c1.219-3.069,5.084-6.806,8.145-7.988
	c2.818-1.092,11.936-0.645,15.568-0.645c10.742,0,21.484-0.009,32.225,0c0.023-1.205-2.018-8.17-2.594-9.224
	c-1.32-2.416-3.41-4.506-6.828-5.121c-3.166-0.568-6.896,0.842-9.85,1.631L8.819,17.083c-2.998,0.821-5.424,2.352-6.809,5.143
	c-1.818,3.667-0.961,6.06,0.021,9.811c1.652,6.3,3.367,12.662,5.092,18.993c0.779,2.861,8.172,31.2,9,33.095
	C16.724,85.497,17.825,87.155,18.78,87.602L18.78,87.602z"/>
<path fill="#1E142D" d="M85.229,54.518c0.588-1.956-4.137-12.807-6.434-11.864l-9.572,9.521c-0.492,0.993,0.373,1.699,0.842,2.501
	c0.65,1.112,0.334,1.894,1.84,1.84c1.941-0.065,4.697-0.586,6.738-0.827C80.017,55.524,84.495,55.396,85.229,54.518L85.229,54.518z"
	/>
<path fill="#1E142D" d="M42.259,75.533c1.15,0.074,1.574-0.583,2.246-1.183c0.65-0.577,1.363-1.137,2.07-1.701
	c1.416-1.136,2.67-2.192,4.012-3.313c2.404-2.011,3.543-2.395,2.791-3.809c-2.072-3.908,0.59-3.127-11.582-2.866
	c-3.277,0.07-4.84-0.845-4.135,2.63C38.308,68.471,40.437,74.104,42.259,75.533L42.259,75.533L42.259,75.533z"/>
<path fill="#1E142D" d="M31.993,22.575c-5.076,0.953-7.973,4.847-7.961,10.744c0.01,4.942-0.307,53.524,0.182,55.901
	c1.051,5.119,4.748,8.073,10.672,8.058c2.379-0.008,14.227,0.06,26.445,0.084V86.894c-8.875-0.059-16.088-3.523-20.957-9.846
	c-0.852-1.103-1.875-2.729-2.568-4.136c-5.029-10.205-3.529-23.249,3.363-31.211c4.613-5.326,10.334-8.436,18.047-8.875l0,0
	c37.535-2.146,38.154,51.651,4.887,53.979c-0.92,0.064-1.822,0.095-2.711,0.089v10.469c13.955,0.026,28.379-0.002,29.729-0.262
	c5.596-1.072,7.857-5.46,7.85-10.798c-0.01-4.951,0.266-53.605-0.133-55.984c-0.443-2.643-2-4.61-3.426-5.796
	c-1.961-1.634-4.102-2.185-7.334-2.185C82.685,22.338,35.015,22.005,31.993,22.575L31.993,22.575z"/>
<path fill="#1E142D" d="M59.479,52.152c-2.396,0.607-3.615,1.58-4.602,3.258c-3.221,5.478,0.188,12.459,6.619,12.401v-2.668
	c-6.24,0.032-7.084-9.325-1.035-10.537c7.219-1.45,8.617,9.298,2.203,10.429c-0.389,0.067-0.756,0.103-1.107,0.108v2.667
	c0.719-0.012,1.477-0.109,2.268-0.311C72.925,65.206,70.362,49.377,59.479,52.152L59.479,52.152L59.479,52.152z"/>
</svg>
