<?xml version="1.0" encoding="UTF-8"?>
<!DOCTYPE svg PUBLIC "-//W3C//DTD SVG 1.1//EN" "http://www.w3.org/Graphics/SVG/1.1/DTD/svg11.dtd">
<!-- Creator: CorelDRAW X6 -->
<svg xmlns="http://www.w3.org/2000/svg" xml:space="preserve" width="100px" height="100px" version="1.1" style="shape-rendering:geometricPrecision; text-rendering:geometricPrecision; image-rendering:optimizeQuality; fill-rule:evenodd; clip-rule:evenodd"
viewBox="0 0 1000000 1000000"
 xmlns:xlink="http://www.w3.org/1999/xlink">
 <defs>
  <style type="text/css">
   <![CDATA[
    .fil0 {fill:none}
    .fil1 {fill:#1E142D}
   ]]>
  </style>
 </defs>
 <g id="Layer_x0020_1">
  <metadata id="CorelCorpID_0Corel-Layer"/>
  <rect class="fil0" x="1649" y="1425" width="1000000" height="999653"/>
  <path class="fil1" d="M321573 220769c-51185,9613 -80410,48887 -80281,108376 90,49863 -3093,539890 1822,563878 10602,51647 47899,81449 107657,81282 51429,-154 541662,3106 567241,-1797 56421,-10819 79241,-55073 79152,-108915 -90,-49952 2695,-540724 -1335,-564725 -4480,-26658 -20151,-46487 -34538,-58462 -19791,-16467 -41392,-22011 -73979,-22011 -54406,0 -535244,-3363 -565739,2374zm274610 103409c-77817,4441 -135496,35796 -182021,89522 -69538,80306 -84658,211887 -33935,314821 6982,14182 17314,30598 25900,41739 54150,70269 136985,105565 239354,98403 335575,-23475 329337,-566124 -49298,-544485z"/>
  <path class="fil1" d="M188310 876710c3042,-106348 39,-216803 193,-323639 64,-47937 -18700,-78984 -5827,-151154 5403,-30264 5814,-42405 5814,-74864 0,-28583 -2169,-49734 7585,-74364 12270,-30957 51275,-68640 82129,-80576 28429,-11012 120389,-6507 157058,-6507 108350,0 216700,-90 325038,0 231,-12142 -20356,-82399 -26170,-93026 -13322,-24373 -34397,-45460 -68871,-51659 -31933,-5738 -69551,8483 -99353,16454l-478078 128012c-30239,8279 -54702,23706 -68666,51853 -18353,37002 -9703,61131 218,98968 16647,63557 33935,127717 51352,191583 7867,28852 82450,314718 90792,333816 6045,13862 17147,30598 26786,35103z"/>
  <path class="fil1" d="M858588 542983c5929,-19739 -41713,-129181 -64867,-119670l-96581 96042c-4979,10024 3748,17147 8497,25233 6571,11217 3376,19085 18533,18559 19599,-681 47399,-5917 67973,-8356 13848,-1643 59026,-2939 66445,-11808z"/>
  <path class="fil1" d="M425135 754973c11616,732 15877,-5878 22666,-11936 6559,-5827 13759,-11461 20882,-17173 14273,-11435 26940,-22101 40468,-33408 24270,-20279 35732,-24155 28159,-38427 -20920,-39415 5956,-31522 -116834,-28904 -33049,706 -48823,-8522 -41699,26529 6520,32074 27992,88893 46358,103319z"/>
  <path class="fil1" d="M598840 519111c-24155,6148 -36451,15953 -46385,32869 -36232,61581 10602,142054 90228,121968 91793,-23154 65932,-182817 -43843,-154837zm9921 24758c-64623,12963 -51262,118130 22204,105206 64725,-11398 50607,-119825 -22204,-105206z"/>
 </g>
</svg>
