<?xml version="1.0" encoding="UTF-8"?>
<!DOCTYPE svg PUBLIC "-//W3C//DTD SVG 1.1//EN" "http://www.w3.org/Graphics/SVG/1.1/DTD/svg11.dtd">
<!-- Creator: CorelDRAW X6 -->
<svg xmlns="http://www.w3.org/2000/svg" xml:space="preserve" width="0.615575in" height="0.594449in" version="1.1" style="shape-rendering:geometricPrecision; text-rendering:geometricPrecision; image-rendering:optimizeQuality; fill-rule:evenodd; clip-rule:evenodd"
viewBox="0 0 398 384"
 xmlns:xlink="http://www.w3.org/1999/xlink">
 <defs>
  <style type="text/css">
   <![CDATA[
    .fil0 {fill:#1E142D}
   ]]>
  </style>
 </defs>
 <g id="Layer_x0020_1">
  <metadata id="CorelCorpID_0Corel-Layer"/>
  <path class="fil0" d="M126 81c-21,4 -32,19 -32,43 0,20 -2,217 0,227 5,21 20,33 44,33 20,-1 217,1 227,-1 23,-5 32,-22 32,-44 0,-20 1,-217 0,-227 -2,-11 -8,-18 -14,-23 -8,-7 -17,-9 -30,-9 -22,0 -215,-1 -227,1zm110 41c-31,2 -54,15 -73,36 -28,33 -34,85 -14,127 3,5 7,12 11,17 22,28 55,42 96,39 135,-9 132,-227 -20,-219z"/>
  <path class="fil0" d="M72 344c1,-42 0,-87 0,-130 0,-19 -7,-31 -2,-60 2,-13 2,-17 2,-30 0,-12 -1,-20 3,-30 5,-13 21,-28 33,-33 12,-4 49,-2 63,-2 44,0 88,0 131,0 0,-5 -8,-33 -10,-38 -6,-10 -14,-18 -28,-20 -13,-3 -28,3 -40,6l-192 52c-12,3 -22,9 -28,20 -7,15 -4,25 0,40 7,26 14,51 21,77 3,12 33,127 37,134 2,6 6,13 10,14z"/>
  <path class="fil0" d="M342 210c2,-8 -17,-52 -27,-48l-38 39c-2,4 1,7 3,10 3,4 1,8 8,7 7,0 19,-2 27,-3 5,-1 24,-1 27,-5z"/>
  <path class="fil0" d="M167 295c5,1 7,-2 10,-4 2,-3 5,-5 8,-7 6,-5 11,-9 16,-14 10,-8 15,-9 11,-15 -8,-16 3,-13 -46,-12 -14,1 -20,-3 -17,11 2,13 11,36 18,41z"/>
  <path class="fil0" d="M237 201c-10,2 -14,6 -18,13 -15,25 4,57 36,49 37,-9 26,-74 -18,-62zm4 10c-26,5 -20,47 9,42 26,-5 20,-48 -9,-42z"/>
 </g>
</svg>
