<?xml version="1.0" encoding="UTF-8"?>
<!DOCTYPE svg PUBLIC "-//W3C//DTD SVG 1.1//EN" "http://www.w3.org/Graphics/SVG/1.1/DTD/svg11.dtd">
<!-- Creator: CorelDRAW X6 -->
<svg xmlns="http://www.w3.org/2000/svg" xml:space="preserve" width="0.461276in" height="0.445236in" version="1.1" style="shape-rendering:geometricPrecision; text-rendering:geometricPrecision; image-rendering:optimizeQuality; fill-rule:evenodd; clip-rule:evenodd"
viewBox="0 0 4604 4444"
 xmlns:xlink="http://www.w3.org/1999/xlink">
 <defs>
  <style type="text/css">
   <![CDATA[
    .fil0 {fill:black}
   ]]>
  </style>
 </defs>
 <g id="Layer_x0020_1">
  <metadata id="CorelCorpID_0Corel-Layer"/>
  <g id="Layer_x0020_1_0">
   <path class="fil0" d="M1461 936c-243,46 -370,220 -370,498 0,231 -23,2512 0,2628 58,243 231,382 509,382 232,-12 2513,11 2628,-12 267,-58 371,-254 371,-509 0,-232 11,-2512 0,-2628 -23,-128 -93,-209 -162,-266 -93,-82 -197,-105 -348,-105 -254,0 -2489,-11 -2628,12zm1274 475c-359,23 -625,173 -845,416 -325,382 -394,984 -162,1471 34,58 81,139 127,197 255,324 637,486 1111,451 1563,-104 1529,-2628 -231,-2535z"/>
   <path class="fil0" d="M836 3981c12,-486 0,-1007 0,-1505 0,-220 -81,-359 -23,-695 23,-151 23,-197 23,-347 0,-139 -12,-232 35,-348 58,-150 243,-324 382,-382 139,-46 567,-23 729,-23 510,0 1019,0 1517,0 0,-58 -93,-382 -116,-440 -69,-116 -162,-208 -324,-232 -150,-34 -324,35 -463,70l-2223 602c-139,35 -255,104 -324,232 -81,173 -47,289 0,463 81,301 162,590 243,891 35,139 382,1471 428,1552 23,69 70,150 116,162z"/>
   <path class="fil0" d="M3962 2429c23,-92 -197,-602 -313,-555l-440 451c-23,46 12,81 35,116 35,46 12,93 93,81 81,0 220,-23 313,-35 57,-11 277,-11 312,-58z"/>
   <path class="fil0" d="M1936 3413c58,12 81,-23 116,-46 23,-34 58,-58 92,-81 70,-58 128,-104 186,-162 115,-93 173,-104 127,-174 -93,-185 35,-150 -533,-138 -162,11 -231,-35 -196,127 23,150 127,417 208,474z"/>
   <path class="fil0" d="M2746 2325c-115,23 -162,70 -208,151 -174,289 46,660 417,567 428,-104 301,-857 -209,-718zm47 116c-301,58 -232,544 104,486 301,-58 231,-556 -104,-486z"/>
  </g>
 </g>
</svg>
