<?xml version="1.0" encoding="utf-8"?>
<!-- Generator: Adobe Illustrator 15.0.0, SVG Export Plug-In . SVG Version: 6.00 Build 0)  -->
<!DOCTYPE svg PUBLIC "-//W3C//DTD SVG 1.1//EN" "http://www.w3.org/Graphics/SVG/1.1/DTD/svg11.dtd">
<svg version="1.1" id="primary" xmlns="http://www.w3.org/2000/svg" xmlns:xlink="http://www.w3.org/1999/xlink" x="0px" y="0px"
	 width="100px" height="100px" viewBox="1225 1600 100 100" enable-background="new 1225 1600 100 100" xml:space="preserve">
<path fill="#1E142D" d="M1243.605,1687.611c0.302-10.543,0.004-21.493,0.018-32.084c0.007-4.752-1.852-7.83-0.577-14.984
	c0.536-3,0.576-4.205,0.576-7.422c0-2.833-0.215-4.932,0.752-7.372c1.218-3.069,5.084-6.806,8.144-7.988
	c2.818-1.092,11.935-0.645,15.569-0.645c10.741,0,21.483-0.009,32.224,0c0.023-1.205-2.018-8.17-2.594-9.223
	c-1.321-2.416-3.41-4.506-6.828-5.122c-3.166-0.568-6.896,0.842-9.849,1.631l-47.396,12.691c-2.998,0.821-5.423,2.351-6.807,5.142
	c-1.82,3.667-0.962,6.06,0.021,9.811c1.651,6.3,3.366,12.662,5.092,18.993c0.779,2.861,8.172,31.2,9,33.095
	C1241.549,1685.507,1242.65,1687.165,1243.605,1687.611L1243.605,1687.611z"/>
<path fill="#1E142D" d="M1310.054,1654.527c0.589-1.956-4.135-12.806-6.432-11.864l-9.574,9.522
	c-0.491,0.993,0.373,1.699,0.842,2.501c0.652,1.112,0.335,1.893,1.84,1.839c1.942-0.065,4.698-0.585,6.738-0.827
	C1304.841,1655.534,1309.321,1655.406,1310.054,1654.527L1310.054,1654.527z"/>
<path fill="#1E142D" d="M1267.084,1675.543c1.15,0.074,1.574-0.583,2.246-1.183c0.651-0.577,1.364-1.136,2.07-1.701
	c1.416-1.135,2.67-2.192,4.013-3.313c2.404-2.011,3.542-2.395,2.79-3.809c-2.072-3.908,0.591-3.127-11.582-2.866
	c-3.277,0.07-4.84-0.845-4.135,2.63C1263.133,1668.481,1265.262,1674.113,1267.084,1675.543L1267.084,1675.543L1267.084,1675.543z"
	/>
<path fill="#1E142D" d="M1256.818,1622.585c-5.076,0.953-7.973,4.847-7.96,10.744c0.01,4.943-0.307,53.524,0.181,55.901
	c1.05,5.12,4.748,8.074,10.672,8.058c2.378-0.008,14.226,0.06,26.445,0.084v-10.469c-8.874-0.058-16.087-3.523-20.957-9.845
	c-0.852-1.103-1.875-2.73-2.568-4.136c-5.029-10.205-3.53-23.249,3.364-31.211c4.613-5.326,10.333-8.435,18.046-8.875l0,0
	c37.536-2.146,38.154,51.651,4.886,53.978c-0.92,0.065-1.821,0.095-2.71,0.089v10.469c13.955,0.026,28.379-0.002,29.729-0.262
	c5.595-1.072,7.857-5.46,7.848-10.797c-0.009-4.952,0.267-53.606-0.132-55.985c-0.444-2.643-1.999-4.61-3.425-5.796
	c-1.962-1.633-4.103-2.184-7.334-2.184C1307.509,1622.348,1259.84,1622.015,1256.818,1622.585L1256.818,1622.585z"/>
<path fill="#1E142D" d="M1284.305,1652.162c-2.396,0.608-3.615,1.58-4.601,3.258c-3.221,5.477,0.187,12.459,6.618,12.401v-2.668
	c-6.24,0.032-7.083-9.325-1.035-10.537c7.219-1.45,8.618,9.298,2.203,10.429c-0.388,0.067-0.755,0.102-1.108,0.108v2.667
	c0.72-0.012,1.478-0.109,2.268-0.31C1297.751,1665.216,1295.187,1649.387,1284.305,1652.162L1284.305,1652.162L1284.305,1652.162z"
	/>
</svg>
