<?xml version="1.0" encoding="utf-8"?>
<!-- Generator: Adobe Illustrator 15.0.0, SVG Export Plug-In . SVG Version: 6.00 Build 0)  -->
<!DOCTYPE svg PUBLIC "-//W3C//DTD SVG 1.1//EN" "http://www.w3.org/Graphics/SVG/1.1/DTD/svg11.dtd">
<svg version="1.1" xmlns="http://www.w3.org/2000/svg" xmlns:xlink="http://www.w3.org/1999/xlink" x="0px" y="0px"
	 width="100px" height="100px" viewBox="0 0 100 100" enable-background="new 0 0 100 100" xml:space="preserve">
<path id="primary" d="M68.884,52.458l-13.72,7.921L41.55,68.238c-1.512,0.744-3.038,0.102-3.265-1.849V50.634V34.71
	c0.301-1.721,1.673-2.322,3.1-1.775l13.78,7.955l13.82,7.979C70.276,50.096,70.131,51.412,68.884,52.458z"/>
<path id="primary" d="M24.167,7.792c0.444-0.272,0.895-0.537,1.349-0.794l0.013-0.008c0.104-0.059,0.208-0.117,0.312-0.176
	l0.08-0.043c0.081-0.045,0.162-0.09,0.243-0.134l0.123-0.068c0.068-0.037,0.137-0.075,0.206-0.11l0.15-0.081
	c0.055-0.029,0.112-0.059,0.167-0.088c0.063-0.033,0.125-0.067,0.188-0.099l0.121-0.063c0.076-0.04,0.152-0.08,0.228-0.118
	l0.068-0.035c4.458-2.282,9.169-3.833,13.964-4.668l0.001,0.002c1.788-0.311,3.61-0.527,5.464-0.643
	c9.931-0.619,19.356,1.74,27.415,6.302L45.291,20.541l-0.353-6.104c-2.267,0.314-4.46,0.838-6.563,1.55l-0.009,0.002
	c-0.28,0.095-0.558,0.194-0.835,0.295l-0.036,0.013c-0.062,0.022-0.122,0.045-0.184,0.068l-0.051,0.02
	c-0.058,0.022-0.117,0.043-0.174,0.067l-0.044,0.017c-0.121,0.045-0.24,0.092-0.359,0.139l-0.033,0.014
	c-0.053,0.021-0.105,0.042-0.158,0.063l-0.077,0.031l-0.151,0.062l-0.093,0.038l-0.136,0.057l-0.126,0.053
	c-0.058,0.026-0.117,0.05-0.174,0.076l-0.158,0.068l-0.095,0.041l-0.15,0.065l-0.093,0.042l-0.155,0.069l-0.086,0.04
	c-0.08,0.036-0.159,0.073-0.239,0.109"/>
<path id="primary" d="M24.167,7.792c0.444-0.272,0.895-0.537,1.349-0.794l0.013-0.008c0.104-0.059,0.208-0.117,0.312-0.176
	l0.08-0.043c0.081-0.045,0.162-0.09,0.243-0.134l0.123-0.068c0.068-0.037,0.137-0.075,0.206-0.11l0.15-0.081
	c0.055-0.029,0.112-0.059,0.167-0.088c0.063-0.033,0.125-0.067,0.188-0.099l0.121-0.063c0.076-0.04,0.152-0.08,0.228-0.118
	l0.068-0.035c4.458-2.282,9.169-3.833,13.964-4.668l0.001,0.002c1.788-0.311,3.61-0.527,5.464-0.643
	c9.931-0.619,19.356,1.74,27.415,6.302L45.291,20.541l-0.353-6.104c-2.267,0.314-4.46,0.838-6.563,1.55l-0.009,0.002
	c-0.28,0.095-0.558,0.194-0.835,0.295l-0.036,0.013c-0.062,0.022-0.122,0.045-0.184,0.068l-0.051,0.02
	c-0.058,0.022-0.117,0.043-0.174,0.067l-0.044,0.017c-0.121,0.045-0.24,0.092-0.359,0.139l-0.033,0.014
	c-0.053,0.021-0.105,0.042-0.158,0.063l-0.077,0.031l-0.151,0.062l-0.093,0.038l-0.136,0.057l-0.126,0.053
	c-0.058,0.026-0.117,0.05-0.174,0.076l-0.158,0.068l-0.095,0.041l-0.15,0.065l-0.093,0.042l-0.155,0.069l-0.086,0.04
	c-0.08,0.036-0.159,0.073-0.239,0.109"/>
<path id="primary" d="M45.334,18.627l-0.466-4.238c-1.14,0.154-2.257,0.359-3.354,0.614c-4.726,1.104-9.192,3.153-13.113,6.022l-0.335,0.248
	c-4.653,3.502-8.392,8.087-10.885,13.329h-0.002c-2.233,4.719-3.42,9.88-3.473,15.097L0.845,42.004
	C2.269,33.347,5.979,25.085,11.763,18.2l0.014,0.007c6.738-8.029,16.029-13.951,26.844-16.416c4.264-0.98,8.68-1.401,13.133-1.213
	L51.75,0.582c7.912,0.326,15.443,2.543,22.082,6.265l-25.588,13.3C46.962,20.834,45.44,19.924,45.334,18.627z"/>
<path id="primary" d="M79.462,63.752l3.911,1.652c0.42-1.069,0.785-2.147,1.098-3.229c1.341-4.662,1.729-9.563,1.135-14.386l-0.053-0.412
	c-0.789-5.769-2.973-11.268-6.332-16.001l0.002-0.001c-2.768-3.884-6.285-7.184-10.324-9.699l13.285-6.963
	c6.172,5.308,11.039,12.126,13.998,19.927l-0.012,0.008c3.725,9.797,4.367,20.796,1.246,31.439
	c-1.223,4.202-3.007,8.262-5.342,12.059l-0.001-0.004c-4.141,6.751-9.749,12.246-16.233,16.226l0.863-28.918
	C76.982,63.964,78.246,63.328,79.462,63.752z"/>
<path id="primary" d="M25.449,70.33l-3.29,2.577c2.11,2.563,4.5,4.758,7.091,6.578l0,0c2.278,1.597,4.781,2.954,7.484,4.02
	c1.082,0.427,2.173,0.797,3.268,1.111c4.844,1.385,9.941,1.744,14.939,1.045l0.002,0.001c4.27-0.607,8.385-1.975,12.15-4.02
	l-0.441,14.969c-1.396,0.504-2.816,0.943-4.258,1.32l0.005,0.008c-1.226,0.318-2.46,0.587-3.702,0.811
	c-0.164,0.028-0.326,0.058-0.49,0.086l-0.129,0.021c-7.188,1.21-14.719,0.845-22.08-1.321c-0.117-0.034-0.232-0.07-0.348-0.104
	c-0.063-0.019-0.125-0.038-0.188-0.056c-4.972-1.514-9.738-3.819-14.089-6.896l-0.076-0.052c-0.159-0.114-0.319-0.228-0.478-0.343
	c-0.17-0.125-0.341-0.25-0.511-0.376l-0.094-0.071c-1.134-0.85-2.226-1.744-3.271-2.678l0.005-0.003
	c-1.851-1.658-3.602-3.476-5.229-5.453C4.633,72.896,0.942,62.61,0.486,52.27l24.795,14.74
	C26.351,67.816,26.597,69.365,25.449,70.33z"/>
</svg>
