<?xml version="1.0" encoding="UTF-8"?>
<!DOCTYPE svg PUBLIC "-//W3C//DTD SVG 1.1//EN" "http://www.w3.org/Graphics/SVG/1.1/DTD/svg11.dtd">
<!-- Creator: CorelDRAW X6 -->
<svg xmlns="http://www.w3.org/2000/svg" xml:space="preserve" width="100px" height="100px" version="1.1" style="shape-rendering:geometricPrecision; text-rendering:geometricPrecision; image-rendering:optimizeQuality; fill-rule:evenodd; clip-rule:evenodd"
viewBox="0 0 1000000 1000000"
 xmlns:xlink="http://www.w3.org/1999/xlink">
 <defs>
  <style type="text/css">
   <![CDATA[
    .fil0 {fill:none}
    .fil1 {fill:black}
    .fil2 {fill:black;fill-rule:nonzero}
   ]]>
  </style>
 </defs>
 <g id="Layer_x0020_1">
  <metadata id="CorelCorpID_0Corel-Layer"/>
  <rect class="fil0" x="1649" y="1425" width="1000000" height="999653"/>
  <path class="fil1" d="M137049 481172l-26709 15427 -26504 15299c-2939,1450 -5904,192 -6353,-3607l0 -30675 0 -30995c590,-3350 3260,-4518 6032,-3453l26825 15479 26914 15542c2515,2388 2233,4942 -205,6983z"/>
  <path class="fil1" d="M137049 481172l-26709 15427 -26504 15299c-2939,1450 -5904,192 -6353,-3607l0 -30675 0 -30995c590,-3350 3260,-4518 6032,-3453l26825 15479 26914 15542c2515,2388 2233,4942 -205,6983z"/>
  <path class="fil0" d="M50004 394217c860,-527 1733,-1053 2618,-1553l26 -13c205,-116 411,-231 616,-347l154 -77c154,-90 308,-179 462,-269l244 -129c128,-64 269,-141 398,-218l295 -154c103,-51 218,-115 321,-167 128,-64 244,-128 372,-192l231 -128c154,-77 295,-154 449,-231l129 -65c8676,-4440 17853,-7457 27183,-9087l0 0c3491,-603 7034,-1026 10640,-1245 19342,-1206 37683,3389 53380,12270l-56396 26427 -693 -11885c-4415,603 -8676,1630 -12770,3016l-26 0c-539,193 -1078,385 -1617,578l-77 25c-116,39 -231,90 -347,129l-103 38c-115,39 -231,90 -346,129l-77 38c-244,90 -475,180 -706,270l-64 25c-103,39 -205,77 -308,129l-154 51 -295 128 -180 65 -257 115 -244 103c-115,51 -231,102 -346,141l-308 141 -180 77 -295 128 -180 77 -295 142 -180 77c-154,64 -308,141 -462,205"/>
  <path class="fil0" d="M50004 394217c860,-527 1733,-1053 2618,-1553l26 -13c205,-116 411,-231 616,-347l154 -77c154,-90 308,-179 462,-269l244 -129c128,-64 269,-141 398,-218l295 -154c103,-51 218,-115 321,-167 128,-64 244,-128 372,-192l231 -128c154,-77 295,-154 449,-231l129 -65c8676,-4440 17853,-7457 27183,-9087l0 0c3491,-603 7034,-1026 10640,-1245 19342,-1206 37683,3389 53380,12270l-56396 26427 -693 -11885c-4415,603 -8676,1630 -12770,3016l-26 0c-539,193 -1078,385 -1617,578l-77 25c-116,39 -231,90 -347,129l-103 38c-115,39 -231,90 -346,129l-77 38c-244,90 -475,180 -706,270l-64 25c-103,39 -205,77 -308,129l-154 51 -295 128 -180 65 -257 115 -244 103c-115,51 -231,102 -346,141l-308 141 -180 77 -295 128 -180 77 -295 142 -180 77c-154,64 -308,141 -462,205"/>
  <path class="fil1" d="M91203 415304l-898 -8253c-2221,308 -4403,706 -6533,1194 -9203,2156 -17892,6148 -25528,11731l-655 488c-9061,6815 -16338,15735 -21190,25938l0 0c-4351,9190 -6661,19240 -6764,29392l-25040 -14978c2772,-16852 9998,-32934 21254,-46346l26 25c13117,-15632 31214,-27171 52262,-31958 8304,-1912 16904,-2734 25567,-2361l-13 0c15415,628 30072,4954 42996,12193l-49811 25900c-2503,1335 -5468,-437 -5673,-2965z"/>
  <path class="fil1" d="M91203 415304l-898 -8253c-2221,308 -4403,706 -6533,1194 -9203,2156 -17892,6148 -25528,11731l-655 488c-9061,6815 -16338,15735 -21190,25938l0 0c-4351,9190 -6661,19240 -6764,29392l-25040 -14978c2772,-16852 9998,-32934 21254,-46346l26 25c13117,-15632 31214,-27171 52262,-31958 8304,-1912 16904,-2734 25567,-2361l-13 0c15415,628 30072,4954 42996,12193l-49811 25900c-2503,1335 -5468,-437 -5673,-2965z"/>
  <path class="fil1" d="M157648 503157l7611 3222c822,-2079 1540,-4184 2144,-6289 2605,-9074 3362,-18610 2207,-28005l-103 -796c-1540,-11243 -5788,-21947 -12321,-31163l0 0c-5390,-7559 -12231,-13989 -20099,-18879l25862 -13554c12013,10332 21485,23603 27248,38786l-26 26c7265,19072 8510,40481 2439,61209 -2387,8175 -5853,16081 -10409,23474l0 -13c-8060,13143 -18983,23847 -31599,31587l1681 -56293c539,-2901 3004,-4133 5365,-3312z"/>
  <path class="fil1" d="M157648 503157l7611 3222c822,-2079 1540,-4184 2144,-6289 2605,-9074 3362,-18610 2207,-28005l-103 -796c-1540,-11243 -5788,-21947 -12321,-31163l0 0c-5390,-7559 -12231,-13989 -20099,-18879l25862 -13554c12013,10332 21485,23603 27248,38786l-26 26c7265,19072 8510,40481 2439,61209 -2387,8175 -5853,16081 -10409,23474l0 -13c-8060,13143 -18983,23847 -31599,31587l1681 -56293c539,-2901 3004,-4133 5365,-3312z"/>
  <path class="fil1" d="M52494 515966l-6405 5019c4107,4992 8766,9266 13810,12809l0 0c4428,3106 9306,5750 14568,7816 2105,834 4222,1553 6366,2169 9420,2695 19354,3401 29083,2028l0 13c8304,-1181 16326,-3851 23654,-7829l-860 29147c-2721,976 -5480,1835 -8291,2567l13 13c-2387,616 -4787,1142 -7213,1579 -308,51 -629,115 -950,166l-256 39c-13990,2361 -28647,1643 -42984,-2567 -218,-77 -449,-141 -680,-205 -116,-39 -231,-77 -359,-116 -9678,-2939 -18957,-7431 -27428,-13425l-154 -103c-308,-218 -616,-436 -924,-667 -334,-231 -668,-488 -1001,-732l-180 -128c-2208,-1656 -4325,-3401 -6366,-5224l13 0c-3607,-3234 -7008,-6764 -10178,-10614 -13797,-16762 -20985,-36784 -21870,-56922l48271 28699c2079,1578 2554,4594 321,6468z"/>
  <path class="fil1" d="M52494 515966l-6405 5019c4107,4992 8766,9266 13810,12809l0 0c4428,3106 9306,5750 14568,7816 2105,834 4222,1553 6366,2169 9420,2695 19354,3401 29083,2028l0 13c8304,-1181 16326,-3851 23654,-7829l-860 29147c-2721,976 -5480,1835 -8291,2567l13 13c-2387,616 -4787,1142 -7213,1579 -308,51 -629,115 -950,166l-256 39c-13990,2361 -28647,1643 -42984,-2567 -218,-77 -449,-141 -680,-205 -116,-39 -231,-77 -359,-116 -9678,-2939 -18957,-7431 -27428,-13425l-154 -103c-308,-218 -616,-436 -924,-667 -334,-231 -668,-488 -1001,-732l-180 -128c-2208,-1656 -4325,-3401 -6366,-5224l13 0c-3607,-3234 -7008,-6764 -10178,-10614 -13797,-16762 -20985,-36784 -21870,-56922l48271 28699c2079,1578 2554,4594 321,6468z"/>
  <path class="fil2" d="M359486 500462l0 -7791c0,-39492 -21524,-61721 -53200,-61721 -34281,0 -61709,23885 -61709,59591 0,35693 27428,59578 61709,59578 17969,0 34757,-6378 47989,-22691l-20330 -15376c-7097,8753 -16313,15376 -30495,15376 -15851,0 -28609,-10178 -30508,-26966l86544 0zm-86544 -21280c2131,-16313 12539,-26953 29327,-26953 17725,0 28609,10409 28840,26953l-58167 0z"/>
  <path id="1" class="fil2" d="M453385 547283l25540 0 0 -65252c0,-16081 0,-51081 -48476,-51081 -17969,0 -35693,5441 -48233,18212l14901 14888c7560,-7085 18444,-11821 30264,-11821 15133,0 26004,7329 26004,21280l0 3081 -7085 0c-28378,0 -71412,2592 -71412,39479 0,22461 20330,34050 41379,34050 15132,0 28377,-5673 36412,-18443l706 0 0 15607zm-1656 -44447c0,15838 -9215,26003 -28609,26003 -9215,0 -19855,-4492 -19855,-14901 0,-16312 26953,-17493 42560,-17493l5904 0 0 6391z"/>
  <path id="2" class="fil2" d="M505930 547283l28364 0 0 -60759c0,-6148 3786,-28622 30508,-28622 4492,0 8984,950 13708,2131l0 -27428c-3312,-937 -6623,-1655 -10165,-1655 -14889,0 -27428,7803 -33576,20817l-475 0 0 -17981 -28364 0 0 113497z"/>
  <path id="3" class="fil2" d="M679993 547283l26953 0 0 -178748 -28364 0 0 79677 -719 0c-5904,-7328 -17263,-17262 -38543,-17262 -32382,0 -54842,26015 -54842,59591 0,33575 21036,59578 56036,59578 15838,0 30726,-6147 39004,-19855l475 0 0 17019zm-67151 -56742c0,-17738 12540,-34051 33345,-34051 20805,0 33331,16313 33331,34051 0,17725 -12526,34037 -33331,34037 -20805,0 -33345,-16312 -33345,-34037z"/>
  <path id="4" class="fil2" d="M736081 547283l28364 0 0 -113497 -28364 0 0 113497zm-4030 -152027c0,8985 7572,17019 17968,17019 10409,0 18444,-7329 18444,-17019 0,-9703 -8035,-17031 -18444,-17031 -10396,0 -17968,8047 -17968,17031z"/>
  <path id="5" class="fil2" d="M873014 448212c-9215,-12527 -25297,-17262 -40429,-17262 -22936,0 -45628,11358 -45628,36655 0,43266 61235,24823 61235,48233 0,8984 -10640,13001 -18919,13001 -12051,0 -19624,-5903 -26952,-13951l-18906 17738c11577,13001 26709,17493 44203,17493 23179,0 48951,-9459 48951,-36412 0,-44215 -61234,-27658 -61234,-48001 0,-8510 8984,-12052 16544,-12052 9690,0 16787,4017 22229,11590l18906 -17032z"/>
  <path id="6" class="fil2" d="M923416 368535l-28365 0 0 178748 28365 0 0 -61953c0,-15132 7328,-28840 26015,-28840 19856,0 20805,20805 20805,33332l0 57461 28378 0 0 -71643c0,-23167 -10884,-44690 -41379,-44690 -17507,0 -28852,9228 -33345,18687l-474 0 0 -81102z"/>
 </g>
</svg>
