<?xml version="1.0" encoding="utf-8"?>
<!-- Generator: Adobe Illustrator 15.0.0, SVG Export Plug-In . SVG Version: 6.00 Build 0)  -->
<!DOCTYPE svg PUBLIC "-//W3C//DTD SVG 1.1//EN" "http://www.w3.org/Graphics/SVG/1.1/DTD/svg11.dtd">
<svg version="1.1" id="Layer_1" xmlns="http://www.w3.org/2000/svg" xmlns:xlink="http://www.w3.org/1999/xlink" x="0px" y="0px"
	 width="238.578px" height="49px" viewBox="0 0 238.578 49" enable-background="new 0 0 238.578 49" xml:space="preserve">
<g id="Layer_x0020_1">
	<path d="M31.939,27.018l-6.409,3.701l-6.355,3.67c-0.71,0.343-1.419,0.046-1.526-0.87v-7.355v-7.432
		c0.138-0.809,0.778-1.083,1.45-0.831l6.432,3.716l6.455,3.723C32.587,25.911,32.519,26.53,31.939,27.018z"/>
	<path d="M31.939,27.018l-6.409,3.701l-6.355,3.67c-0.71,0.343-1.419,0.046-1.526-0.87v-7.355v-7.432
		c0.138-0.809,0.778-1.083,1.45-0.831l6.432,3.716l6.455,3.723C32.587,25.911,32.519,26.53,31.939,27.018z"/>
	<path d="M11.056,6.165c0.206-0.129,0.419-0.251,0.633-0.373V5.784c0.054-0.023,0.1-0.054,0.153-0.076l0.03-0.023
		c0.038-0.022,0.076-0.038,0.114-0.061l0.061-0.031c0.031-0.022,0.062-0.038,0.092-0.053l0.076-0.038
		c0.023-0.016,0.046-0.031,0.076-0.038c0.031-0.016,0.054-0.031,0.084-0.046l0.062-0.03c0.03-0.023,0.068-0.039,0.106-0.062
		l0.031-0.016c2.083-1.061,4.28-1.785,6.516-2.174l0,0c0.839-0.146,1.687-0.244,2.556-0.298c4.632-0.29,9.034,0.809,12.796,2.938
		l-13.521,6.341l-0.168-2.854C19.7,9.408,18.67,9.66,17.694,9.989h-0.008c-0.13,0.046-0.259,0.091-0.389,0.137l-0.016,0.008
		c-0.03,0.008-0.061,0.023-0.084,0.03l-0.03,0.008c-0.022,0.016-0.054,0.023-0.076,0.03l-0.023,0.008
		c-0.053,0.023-0.114,0.046-0.167,0.069l-0.016,0.007c-0.023,0.008-0.054,0.016-0.076,0.031l-0.03,0.015l-0.077,0.023l-0.038,0.022
		l-0.068,0.023l-0.054,0.022c-0.03,0.016-0.053,0.023-0.084,0.038l-0.076,0.03l-0.038,0.023l-0.076,0.03l-0.038,0.016l-0.076,0.038
		l-0.038,0.015c-0.038,0.016-0.076,0.031-0.114,0.054"/>
	<path d="M11.056,6.165c0.206-0.129,0.419-0.251,0.633-0.373V5.784c0.054-0.023,0.1-0.054,0.153-0.076l0.03-0.023
		c0.038-0.022,0.076-0.038,0.114-0.061l0.061-0.031c0.031-0.022,0.062-0.038,0.092-0.053l0.076-0.038
		c0.023-0.016,0.046-0.031,0.076-0.038c0.031-0.016,0.054-0.031,0.084-0.046l0.062-0.03c0.03-0.023,0.068-0.039,0.106-0.062
		l0.031-0.016c2.083-1.061,4.28-1.785,6.516-2.174l0,0c0.839-0.146,1.687-0.244,2.556-0.298c4.632-0.29,9.034,0.809,12.796,2.938
		l-13.521,6.341l-0.168-2.854C19.7,9.408,18.67,9.66,17.694,9.989h-0.008c-0.13,0.046-0.259,0.091-0.389,0.137l-0.016,0.008
		c-0.03,0.008-0.061,0.023-0.084,0.03l-0.03,0.008c-0.022,0.016-0.054,0.023-0.076,0.03l-0.023,0.008
		c-0.053,0.023-0.114,0.046-0.167,0.069l-0.016,0.007c-0.023,0.008-0.054,0.016-0.076,0.031l-0.03,0.015l-0.077,0.023l-0.038,0.022
		l-0.068,0.023l-0.054,0.022c-0.03,0.016-0.053,0.023-0.084,0.038l-0.076,0.03l-0.038,0.023l-0.076,0.03l-0.038,0.016l-0.076,0.038
		l-0.038,0.015c-0.038,0.016-0.076,0.031-0.114,0.054"/>
	<path d="M20.937,11.224L20.723,9.24c-0.534,0.076-1.053,0.168-1.564,0.29c-2.205,0.511-4.296,1.473-6.127,2.808l-0.152,0.114
		c-2.175,1.641-3.922,3.777-5.081,6.227l0,0c-1.046,2.205-1.603,4.616-1.626,7.05l-6.004-3.594
		c0.663-4.044,2.396-7.896,5.097-11.117l0.008,0.008C8.415,7.28,12.757,4.51,17.808,3.358c1.991-0.458,4.052-0.648,6.127-0.564l0,0
		c3.693,0.152,7.21,1.19,10.308,2.93l-11.94,6.211C21.699,12.254,20.99,11.827,20.937,11.224z"/>
	<path d="M20.937,11.224L20.723,9.24c-0.534,0.076-1.053,0.168-1.564,0.29c-2.205,0.511-4.296,1.473-6.127,2.808l-0.152,0.114
		c-2.175,1.641-3.922,3.777-5.081,6.227l0,0c-1.046,2.205-1.603,4.616-1.626,7.05l-6.004-3.594
		c0.663-4.044,2.396-7.896,5.097-11.117l0.008,0.008C8.415,7.28,12.757,4.51,17.808,3.358c1.991-0.458,4.052-0.648,6.127-0.564l0,0
		c3.693,0.152,7.21,1.19,10.308,2.93l-11.94,6.211C21.699,12.254,20.99,11.827,20.937,11.224z"/>
	<path d="M36.875,32.29l1.823,0.771c0.198-0.496,0.366-0.999,0.512-1.503c0.625-2.182,0.809-4.471,0.534-6.722l-0.023-0.191
		c-0.374-2.692-1.389-5.257-2.96-7.469l0,0c-1.29-1.816-2.93-3.357-4.822-4.532l6.211-3.251c2.876,2.48,5.149,5.662,6.531,9.309
		h-0.008c1.739,4.578,2.045,9.713,0.587,14.68c-0.572,1.961-1.403,3.861-2.494,5.631l0,0c-1.938,3.151-4.556,5.715-7.585,7.577
		l0.405-13.505C35.715,32.39,36.311,32.092,36.875,32.29z"/>
	<path d="M36.875,32.29l1.823,0.771c0.198-0.496,0.366-0.999,0.512-1.503c0.625-2.182,0.809-4.471,0.534-6.722l-0.023-0.191
		c-0.374-2.692-1.389-5.257-2.96-7.469l0,0c-1.29-1.816-2.93-3.357-4.822-4.532l6.211-3.251c2.876,2.48,5.149,5.662,6.531,9.309
		h-0.008c1.739,4.578,2.045,9.713,0.587,14.68c-0.572,1.961-1.403,3.861-2.494,5.631l0,0c-1.938,3.151-4.556,5.715-7.585,7.577
		l0.405-13.505C35.715,32.39,36.311,32.092,36.875,32.29z"/>
	<path d="M11.658,35.365l-1.541,1.197c0.984,1.198,2.105,2.221,3.312,3.075l0,0c1.067,0.748,2.235,1.381,3.494,1.877
		c0.504,0.198,1.015,0.374,1.526,0.519c2.266,0.648,4.646,0.816,6.974,0.488h0.007c1.992-0.282,3.915-0.923,5.669-1.877
		l-0.205,6.989c-0.649,0.236-1.313,0.442-1.984,0.618l0,0c-0.572,0.152-1.152,0.274-1.731,0.382
		c-0.077,0.007-0.153,0.022-0.229,0.038l-0.061,0.007c-3.357,0.565-6.867,0.397-10.309-0.617c-0.053-0.016-0.106-0.031-0.16-0.046
		c-0.03-0.008-0.061-0.016-0.091-0.023c-2.32-0.709-4.548-1.785-6.577-3.22l-0.031-0.03c-0.076-0.054-0.152-0.1-0.229-0.16
		c-0.076-0.054-0.16-0.114-0.236-0.176l-0.046-0.03c-0.526-0.396-1.038-0.816-1.526-1.251l0,0c-0.861-0.771-1.678-1.626-2.441-2.549
		C1.938,36.563,0.214,31.756,0,26.927l11.574,6.882C12.078,34.191,12.193,34.915,11.658,35.365z"/>
	<path d="M11.658,35.365l-1.541,1.197c0.984,1.198,2.105,2.221,3.312,3.075l0,0c1.067,0.748,2.235,1.381,3.494,1.877
		c0.504,0.198,1.015,0.374,1.526,0.519c2.266,0.648,4.646,0.816,6.974,0.488h0.007c1.992-0.282,3.915-0.923,5.669-1.877
		l-0.205,6.989c-0.649,0.236-1.313,0.442-1.984,0.618l0,0c-0.572,0.152-1.152,0.274-1.731,0.382
		c-0.077,0.007-0.153,0.022-0.229,0.038l-0.061,0.007c-3.357,0.565-6.867,0.397-10.309-0.617c-0.053-0.016-0.106-0.031-0.16-0.046
		c-0.03-0.008-0.061-0.016-0.091-0.023c-2.32-0.709-4.548-1.785-6.577-3.22l-0.031-0.03c-0.076-0.054-0.152-0.1-0.229-0.16
		c-0.076-0.054-0.16-0.114-0.236-0.176l-0.046-0.03c-0.526-0.396-1.038-0.816-1.526-1.251l0,0c-0.861-0.771-1.678-1.626-2.441-2.549
		C1.938,36.563,0.214,31.756,0,26.927l11.574,6.882C12.078,34.191,12.193,34.915,11.658,35.365z"/>
	<path d="M85.28,31.642v-1.869c0-9.469-5.158-14.802-12.758-14.802c-8.225,0-14.802,5.729-14.802,14.29
		c0,8.568,6.577,14.291,14.802,14.291c4.312,0,8.34-1.526,11.514-5.44l-4.875-3.685c-1.702,2.098-3.915,3.685-7.317,3.685
		c-3.8,0-6.867-2.441-7.317-6.47H85.28z M64.526,26.537c0.512-3.906,3.007-6.462,7.035-6.462c4.25,0,6.859,2.494,6.912,6.462H64.526
		z"/>
	<path id="_x31_" d="M107.81,42.873h6.119V27.224c0-3.86,0-12.253-11.62-12.253c-4.311,0-8.568,1.305-11.574,4.371l3.578,3.571
		c1.809-1.701,4.418-2.838,7.256-2.838c3.632,0,6.241,1.762,6.241,5.104v0.74h-1.701c-6.806,0-17.129,0.618-17.129,9.469
		c0,5.387,4.875,8.164,9.927,8.164c3.624,0,6.806-1.358,8.729-4.418h0.175V42.873z M107.406,32.214c0,3.8-2.205,6.233-6.859,6.233
		c-2.212,0-4.761-1.075-4.761-3.57c0-3.914,6.463-4.196,10.209-4.196h1.411V32.214z"/>
	<path id="_x32_" d="M120.407,42.873h6.806V28.3c0-1.473,0.907-6.859,7.316-6.859c1.076,0,2.152,0.222,3.289,0.504v-6.577
		c-0.794-0.222-1.587-0.396-2.441-0.396c-3.571,0-6.577,1.877-8.05,4.989h-0.114V15.65h-6.806V42.873z"/>
	<path id="_x33_" d="M162.157,42.873h6.463V0.001h-6.806v19.112h-0.168c-1.419-1.763-4.144-4.143-9.24-4.143
		c-7.774,0-13.161,6.241-13.161,14.29c0,8.058,5.051,14.291,13.443,14.291c3.8,0,7.371-1.473,9.354-4.761h0.114V42.873z
		 M146.051,29.261c0-4.249,3.006-8.164,7.996-8.164s7.996,3.915,7.996,8.164c0,4.258-3.006,8.172-7.996,8.172
		S146.051,33.519,146.051,29.261z"/>
	<path id="_x34_" d="M175.61,42.873h6.806V15.65h-6.806V42.873z M174.648,6.409c0,2.152,1.809,4.082,4.304,4.082
		c2.494,0,4.425-1.755,4.425-4.082s-1.931-4.082-4.425-4.082C176.456,2.327,174.648,4.25,174.648,6.409z"/>
	<path id="_x35_" d="M208.455,19.114c-2.212-3.006-6.065-4.143-9.697-4.143c-5.501,0-10.949,2.724-10.949,8.789
		c0,10.377,14.688,5.959,14.688,11.574c0,2.152-2.548,3.113-4.531,3.113c-2.893,0-4.708-1.411-6.463-3.342l-4.54,4.25
		c2.777,3.12,6.409,4.196,10.605,4.196c5.555,0,11.735-2.266,11.735-8.729c0-10.605-14.688-6.638-14.688-11.514
		c0-2.045,2.159-2.892,3.975-2.892c2.319,0,4.021,0.962,5.326,2.777L208.455,19.114z"/>
	<path id="_x36_" d="M220.549,0.001h-6.806v42.872h6.806V28.018c0-3.632,1.755-6.921,6.233-6.921c4.762,0,4.99,4.99,4.99,7.996
		v13.78h6.806V25.691c0-5.555-2.609-10.72-9.927-10.72c-4.196,0-6.912,2.212-7.996,4.479h-0.106V0.001z"/>
</g>
</svg>
