<?xml version="1.0" encoding="UTF-8"?>
<!DOCTYPE svg PUBLIC "-//W3C//DTD SVG 1.1//EN" "http://www.w3.org/Graphics/SVG/1.1/DTD/svg11.dtd">
<!-- Creator: CorelDRAW X6 -->
<svg xmlns="http://www.w3.org/2000/svg" xml:space="preserve" width="100px" height="100px" version="1.1" style="shape-rendering:geometricPrecision; text-rendering:geometricPrecision; image-rendering:optimizeQuality; fill-rule:evenodd; clip-rule:evenodd"
viewBox="0 0 1000000 1000000"
 xmlns:xlink="http://www.w3.org/1999/xlink">
 <defs>
  <style type="text/css">
   <![CDATA[
    .fil0 {fill:none}
    .fil1 {fill:black}
   ]]>
  </style>
 </defs>
 <g id="Layer_x0020_1">
  <metadata id="CorelCorpID_0Corel-Layer"/>
  <rect class="fil0" x="1649" y="1425" width="1000000" height="999653"/>
  <path class="fil1" d="M688836 524578l-137202 79216 -136137 78587c-15120,7444 -30380,1014 -32652,-18482l0 -157559 0 -159239c3016,-17212 16737,-23218 30996,-17751l137793 79550 138216 79793c12912,12270 11462,25425 -1014,35885z"/>
  <path class="fil0" d="M241677 77919c4441,-2721 8945,-5365 13489,-7944l128 -77c1040,-591 2080,-1168 3119,-1759l796 -436c808,-449 1617,-899 2426,-1335l1232 -680c680,-372 1373,-745 2053,-1104l1502 -809c552,-295 1117,-590 1668,-885 629,-334 1258,-668 1887,-988l1207 -629c757,-398 1514,-796 2271,-1181l681 -347c44587,-22820 91690,-38324 139641,-46679l13 25c17878,-3106 36103,-5275 54637,-6430 99302,-6186 193572,17404 274148,63018l-289665 135727 -3530 -61042c-22666,3145 -44600,8381 -65624,15505l-89 25c-2798,950 -5583,1938 -8356,2952l-359 129c-616,218 -1219,449 -1835,680l-514 192c-577,219 -1168,437 -1745,668l-437 167c-1206,449 -2400,924 -3593,1386l-334 141c-526,205 -1053,423 -1579,629l-770 308 -1514 616 -925 385 -1360 565 -1258 526c-577,257 -1168,500 -1745,757l-1579 680 -950 411 -1501 655 -924 423 -1553 693 -860 398c-796,359 -1592,732 -2388,1091"/>
  <path class="fil0" d="M241677 77919c4441,-2721 8945,-5365 13489,-7944l128 -77c1040,-591 2080,-1168 3119,-1759l796 -436c808,-449 1617,-899 2426,-1335l1232 -680c680,-372 1373,-745 2053,-1104l1502 -809c552,-295 1117,-590 1668,-885 629,-334 1258,-668 1887,-988l1207 -629c757,-398 1514,-796 2271,-1181l681 -347c44587,-22820 91690,-38324 139641,-46679l13 25c17878,-3106 36103,-5275 54637,-6430 99302,-6186 193572,17404 274148,63018l-289665 135727 -3530 -61042c-22666,3145 -44600,8381 -65624,15505l-89 25c-2798,950 -5583,1938 -8356,2952l-359 129c-616,218 -1219,449 -1835,680l-514 192c-577,219 -1168,437 -1745,668l-437 167c-1206,449 -2400,924 -3593,1386l-334 141c-526,205 -1053,423 -1579,629l-770 308 -1514 616 -925 385 -1360 565 -1258 526c-577,257 -1168,500 -1745,757l-1579 680 -950 411 -1501 655 -924 423 -1553 693 -860 398c-796,359 -1592,732 -2388,1091"/>
  <path class="fil1" d="M453346 186269l-4659 -42380c-11397,1541 -22576,3594 -33537,6135 -47257,11038 -91922,31535 -131132,60221l-3350 2477c-46525,35026 -83913,80871 -108850,133288l-26 0c-22332,47193 -34204,98801 -34731,150974l-128616 -76944c14247,-86570 51339,-169186 109185,-238044l141 77c67382,-80294 160292,-139513 268437,-164156 42637,-9805 86801,-14015 131324,-12129l-38 26c79125,3260 154439,25438 220820,62646l-255872 133006c-12822,6879 -28044,-2221 -29096,-15197z"/>
  <path class="fil1" d="M794620 637523l39107 16519c4197,-10692 7855,-21473 10986,-32280 13400,-46628 17289,-95631 11346,-143863l-526 -4120c-7893,-57692 -29725,-112676 -63326,-160010l13 -13c-27672,-38838 -62839,-71835 -103242,-96991l132864 -69628c61709,53084 110378,121261 139975,199271l-116 77c37247,97967 43677,207960 12463,314398 -12232,42020 -30072,82616 -53418,120581l-13 -38c-41405,67510 -97492,122455 -162333,162255l8625 -289177c2798,-14863 15440,-21229 27595,-16981z"/>
  <path class="fil1" d="M254486 703301l-32896 25772c21101,25631 44999,47578 70912,65778l0 0c22782,15966 47809,29545 74839,40198 10820,4261 21729,7970 32677,11115 48438,13848 99417,17442 149395,10447l26 13c42688,-6071 83836,-19753 121493,-40198l-4402 149690c-13977,5032 -28172,9434 -42586,13207l52 65c-12257,3195 -24604,5878 -37028,8111 -1630,282 -3260,578 -4903,860l-1284 205c-71874,12103 -147188,8446 -220794,-13219 -1168,-334 -2323,-693 -3479,-1040 -628,-180 -1245,-385 -1886,-552 -49722,-15145 -97377,-38196 -140886,-68961l-758 -526c-1591,-1142 -3195,-2271 -4774,-3427 -1707,-1245 -3414,-2502 -5108,-3760l-937 -706c-11346,-8497 -22256,-17442 -32716,-26786l52 -26c-18508,-16582 -36014,-34756 -52289,-54534 -70873,-86069 -107785,-188926 -112342,-292335l247953 147406c10691,8060 13156,23551 1669,33203z"/>
 </g>
</svg>
