<?xml version="1.0" encoding="UTF-8"?>
<!DOCTYPE svg PUBLIC "-//W3C//DTD SVG 1.1//EN" "http://www.w3.org/Graphics/SVG/1.1/DTD/svg11.dtd">
<!-- Creator: CorelDRAW X6 -->
<svg xmlns="http://www.w3.org/2000/svg" xml:space="preserve" width="20.1285in" height="20.1456in" version="1.1" style="shape-rendering:geometricPrecision; text-rendering:geometricPrecision; image-rendering:optimizeQuality; fill-rule:evenodd; clip-rule:evenodd"
viewBox="0 0 181527 181682"
 xmlns:xlink="http://www.w3.org/1999/xlink">
 <defs>
  <style type="text/css">
   <![CDATA[
    .fil1 {fill:none}
    .fil0 {fill:black}
   ]]>
  </style>
 </defs>
 <g id="Layer_x0020_1">
  <metadata id="CorelCorpID_0Corel-Layer"/>
  <path class="fil0" d="M125511 95281l-25177 14535 -24980 14423c-2776,1365 -5576,186 -5992,-3392l0 -28912 0 -29223c552,-3157 3070,-4260 5686,-3257l25286 14599 25363 14643c2370,2250 2104,4664 -186,6584z"/>
  <path class="fil1" d="M43455 13317c817,-498 1642,-984 2476,-1457l24 -14c191,-108 382,-216 573,-323l145 -80c148,-82 297,-164 446,-246l225 -123c126,-69 251,-137 378,-205l275 -148c102,-54 204,-108 305,-161 116,-61 231,-122 346,-183l222 -115c139,-73 279,-145 419,-217l124 -63c8183,-4187 16826,-7031 25625,-8564l0 4c3281,-571 6627,-969 10028,-1180 18223,-1135 35521,3192 50306,11563l-53155 24908 -647 -11202c-4159,577 -8185,1538 -12043,2844l-15 5c-514,174 -1026,355 -1534,541l-66 24c-112,42 -224,83 -335,125l-94 35c-108,41 -215,81 -323,122l-79 31c-220,84 -440,169 -659,256l-63 25c-96,38 -193,77 -289,116l-141 57 -277 113 -170 70 -249 103 -230 98c-108,45 -216,91 -323,137l-288 124 -174 76 -276 122 -171 76 -283 128 -160 72c-146,67 -291,134 -437,202"/>
  <path class="fil0" d="M82298 33201l-856 -7777c-2089,281 -4141,659 -6154,1125 -8671,2025 -16868,5788 -24062,11051l-616 454c-8537,6427 -15397,14840 -19974,24458l-3 0c-4100,8660 -6277,18131 -6374,27705l-23603 -14119c2614,-15886 9422,-31046 20036,-43682l27 15c12364,-14735 29413,-25602 49259,-30123 7824,-1800 15927,-2573 24098,-2228l-6 6c14520,598 28341,4669 40520,11497l-46953 24405c-2353,1263 -5146,-407 -5339,-2787z"/>
  <path class="fil0" d="M144923 116007l7177 3030c771,-1960 1442,-3938 2016,-5922 2459,-8558 3171,-17548 2081,-26399l-97 -756c-1448,-10588 -5454,-20677 -11619,-29363l3 -3c-5079,-7127 -11532,-13182 -18946,-17797l24382 -12778c11323,9742 20252,22252 25686,36567l-24 15c6837,17976 8015,38161 2289,57693 -2245,7711 -5518,15160 -9803,22126l-3 -6c-7598,12387 -17890,22471 -29788,29774l1582 -53066c513,-2725 2834,-3895 5064,-3115z"/>
  <path class="fil0" d="M45807 128077l-6037 4730c3871,4703 8258,8730 13012,12071l0 0c4181,2930 8774,5421 13735,7376 1984,782 3985,1462 5996,2039 8888,2541 18242,3201 27415,1917l3 3c7833,-1114 15385,-3625 22295,-7376l-809 27468c-2564,923 -5169,1731 -7812,2423l8 12c-2250,586 -4516,1078 -6795,1488 -299,53 -598,106 -900,159l-235 38c-13190,2221 -27010,1550 -40517,-2427 -214,-61 -425,-126 -639,-190 -114,-32 -228,-70 -346,-103 -9122,-2778 -17867,-7007 -25853,-12654l-137 -96c-293,-208 -587,-417 -877,-628 -313,-228 -627,-460 -937,-691l-173 -129c-2081,-1559 -4083,-3200 -6002,-4915l9 -5c-3397,-3042 -6609,-6377 -9595,-10008 -13005,-15793 -19781,-34668 -20616,-53643l45499 27048c1964,1480 2415,4323 308,6093z"/>
 </g>
</svg>
