<?xml version="1.0" encoding="utf-8"?>
<!-- Generator: Adobe Illustrator 15.0.0, SVG Export Plug-In . SVG Version: 6.00 Build 0)  -->
<!DOCTYPE svg PUBLIC "-//W3C//DTD SVG 1.1//EN" "http://www.w3.org/Graphics/SVG/1.1/DTD/svg11.dtd">
<svg version="1.1" id="primary" xmlns="http://www.w3.org/2000/svg" xmlns:xlink="http://www.w3.org/1999/xlink" x="0px" y="0px"
	 width="100px" height="30px" viewBox="0 35 100 30" enable-background="new 0 35 100 30" xml:space="preserve">
<path d="M13.421,48.729l-2.679,1.546l-2.658,1.536c-0.295,0.145-0.593,0.019-0.638-0.361v-3.076v-3.11
	c0.059-0.336,0.327-0.453,0.606-0.347l2.69,1.553l2.699,1.558C13.693,48.268,13.665,48.524,13.421,48.729z"/>
<path d="M13.421,48.729l-2.679,1.546l-2.658,1.536c-0.295,0.145-0.593,0.019-0.638-0.361v-3.076v-3.11
	c0.059-0.336,0.327-0.453,0.606-0.347l2.69,1.553l2.699,1.558C13.693,48.268,13.665,48.524,13.421,48.729z"/>
<path fill="none" d="M4.69,40.007c0.087-0.053,0.176-0.105,0.264-0.155l0.002-0.001c0.02-0.011,0.04-0.023,0.061-0.035l0.016-0.007
	c0.015-0.009,0.032-0.018,0.047-0.027l0.024-0.013c0.013-0.008,0.027-0.014,0.04-0.022l0.03-0.015
	c0.01-0.006,0.021-0.012,0.032-0.018c0.013-0.006,0.024-0.013,0.038-0.019l0.023-0.012c0.016-0.008,0.029-0.016,0.045-0.023
	l0.013-0.006c0.872-0.447,1.791-0.749,2.728-0.912l0,0c0.349-0.06,0.705-0.103,1.066-0.125c1.939-0.121,3.78,0.34,5.354,1.23
	l-5.656,2.65l-0.069-1.192c-0.443,0.062-0.87,0.163-1.281,0.303H7.463c-0.055,0.019-0.109,0.039-0.164,0.058l-0.007,0.002
	c-0.011,0.004-0.024,0.009-0.036,0.013l-0.01,0.004c-0.01,0.005-0.022,0.009-0.034,0.013l-0.009,0.004
	c-0.023,0.009-0.046,0.018-0.069,0.027l-0.008,0.002c-0.01,0.004-0.021,0.009-0.031,0.013L7.082,41.75l-0.029,0.012L7.035,41.77
	l-0.027,0.01l-0.024,0.01c-0.012,0.005-0.023,0.01-0.035,0.016l-0.031,0.013L6.9,41.826l-0.029,0.013l-0.018,0.009L6.822,41.86
	l-0.017,0.008c-0.015,0.008-0.031,0.014-0.046,0.022"/>
<path fill="none" d="M4.69,40.007c0.087-0.053,0.176-0.105,0.264-0.155l0.002-0.001c0.02-0.011,0.04-0.023,0.061-0.035l0.016-0.007
	c0.015-0.009,0.032-0.018,0.047-0.027l0.024-0.013c0.013-0.008,0.027-0.014,0.04-0.022l0.03-0.015
	c0.01-0.006,0.021-0.012,0.032-0.018c0.013-0.006,0.024-0.013,0.038-0.019l0.023-0.012c0.016-0.008,0.029-0.016,0.045-0.023
	l0.013-0.006c0.872-0.447,1.791-0.749,2.728-0.912l0,0c0.349-0.06,0.705-0.103,1.066-0.125c1.939-0.121,3.78,0.34,5.354,1.23
	l-5.656,2.65l-0.069-1.192c-0.443,0.062-0.87,0.163-1.281,0.303H7.463c-0.055,0.019-0.109,0.039-0.164,0.058l-0.007,0.002
	c-0.011,0.004-0.024,0.009-0.036,0.013l-0.01,0.004c-0.01,0.005-0.022,0.009-0.034,0.013l-0.009,0.004
	c-0.023,0.009-0.046,0.018-0.069,0.027l-0.008,0.002c-0.01,0.004-0.021,0.009-0.031,0.013L7.082,41.75l-0.029,0.012L7.035,41.77
	l-0.027,0.01l-0.024,0.01c-0.012,0.005-0.023,0.01-0.035,0.016l-0.031,0.013L6.9,41.826l-0.029,0.013l-0.018,0.009L6.822,41.86
	l-0.017,0.008c-0.015,0.008-0.031,0.014-0.046,0.022"/>
<path d="M8.824,42.124l-0.091-0.828c-0.224,0.029-0.442,0.069-0.655,0.119c-0.923,0.216-1.795,0.616-2.561,1.176L5.452,42.64
	c-0.909,0.684-1.639,1.579-2.125,2.603H3.326c-0.435,0.92-0.667,1.929-0.678,2.947l-2.512-1.502c0.278-1.69,1.002-3.303,2.132-4.648
	l0.002,0.002c1.317-1.568,3.13-2.725,5.242-3.206c0.833-0.191,1.695-0.273,2.564-0.236l0,0c1.544,0.064,3.015,0.497,4.311,1.223
	L9.391,42.42C9.141,42.554,8.844,42.376,8.824,42.124z"/>
<path d="M8.824,42.124l-0.091-0.828c-0.224,0.029-0.442,0.069-0.655,0.119c-0.923,0.216-1.795,0.616-2.561,1.176L5.452,42.64
	c-0.909,0.684-1.639,1.579-2.125,2.603H3.326c-0.435,0.92-0.667,1.929-0.678,2.947l-2.512-1.502c0.278-1.69,1.002-3.303,2.132-4.648
	l0.002,0.002c1.317-1.568,3.13-2.725,5.242-3.206c0.833-0.191,1.695-0.273,2.564-0.236l0,0c1.544,0.064,3.015,0.497,4.311,1.223
	L9.391,42.42C9.141,42.554,8.844,42.376,8.824,42.124z"/>
<path d="M15.488,50.934l0.764,0.323c0.081-0.209,0.152-0.419,0.214-0.63c0.262-0.912,0.337-1.868,0.221-2.81l-0.01-0.081
	c-0.154-1.125-0.58-2.2-1.236-3.124l0,0c-0.54-0.758-1.227-1.403-2.016-1.895l2.595-1.359c1.205,1.037,2.155,2.368,2.732,3.892
	l-0.002,0.001c0.728,1.913,0.854,4.061,0.244,6.139c-0.239,0.82-0.586,1.613-1.043,2.354l0,0c-0.809,1.318-1.903,2.391-3.169,3.168
	l0.168-5.646C15.002,50.976,15.25,50.852,15.488,50.934z"/>
<path d="M15.488,50.934l0.764,0.323c0.081-0.209,0.152-0.419,0.214-0.63c0.262-0.912,0.337-1.868,0.221-2.81l-0.01-0.081
	c-0.154-1.125-0.58-2.2-1.236-3.124l0,0c-0.54-0.758-1.227-1.403-2.016-1.895l2.595-1.359c1.205,1.037,2.155,2.368,2.732,3.892
	l-0.002,0.001c0.728,1.913,0.854,4.061,0.244,6.139c-0.239,0.82-0.586,1.613-1.043,2.354l0,0c-0.809,1.318-1.903,2.391-3.169,3.168
	l0.168-5.646C15.002,50.976,15.25,50.852,15.488,50.934z"/>
<path d="M4.94,52.219l-0.642,0.502c0.412,0.501,0.879,0.93,1.385,1.285l0,0c0.444,0.313,0.933,0.576,1.461,0.784
	c0.211,0.083,0.424,0.157,0.638,0.218c0.946,0.27,1.942,0.341,2.917,0.203v0.002c0.834-0.119,1.638-0.387,2.373-0.786l-0.086,2.923
	c-0.273,0.099-0.551,0.185-0.832,0.258l0.001,0.002c-0.24,0.063-0.481,0.115-0.724,0.158c-0.031,0.006-0.063,0.011-0.095,0.018
	l-0.026,0.004C9.908,58.024,8.438,57.953,7,57.53c-0.022-0.007-0.045-0.015-0.068-0.021c-0.012-0.004-0.024-0.008-0.036-0.012
	c-0.972-0.295-1.902-0.744-2.751-1.346L4.13,56.142C4.1,56.12,4.067,56.098,4.037,56.075c-0.034-0.024-0.067-0.049-0.099-0.073
	l-0.019-0.014c-0.221-0.166-0.434-0.341-0.638-0.523v-0.001c-0.36-0.323-0.702-0.678-1.02-1.063
	c-1.384-1.681-2.105-3.689-2.193-5.708l4.841,2.878C5.117,51.729,5.165,52.029,4.94,52.219z"/>
<path d="M4.94,52.219l-0.642,0.502c0.412,0.501,0.879,0.93,1.385,1.285l0,0c0.444,0.313,0.933,0.576,1.461,0.784
	c0.211,0.083,0.424,0.157,0.638,0.218c0.946,0.27,1.942,0.341,2.917,0.203v0.002c0.834-0.119,1.638-0.387,2.373-0.786l-0.086,2.923
	c-0.273,0.099-0.551,0.185-0.832,0.258l0.001,0.002c-0.24,0.063-0.481,0.115-0.724,0.158c-0.031,0.006-0.063,0.011-0.095,0.018
	l-0.026,0.004C9.908,58.024,8.438,57.953,7,57.53c-0.022-0.007-0.045-0.015-0.068-0.021c-0.012-0.004-0.024-0.008-0.036-0.012
	c-0.972-0.295-1.902-0.744-2.751-1.346L4.13,56.142C4.1,56.12,4.067,56.098,4.037,56.075c-0.034-0.024-0.067-0.049-0.099-0.073
	l-0.019-0.014c-0.221-0.166-0.434-0.341-0.638-0.523v-0.001c-0.36-0.323-0.702-0.678-1.02-1.063
	c-1.384-1.681-2.105-3.689-2.193-5.708l4.841,2.878C5.117,51.729,5.165,52.029,4.94,52.219z"/>
<path d="M35.729,50.664v-0.783c0-3.959-2.157-6.189-5.335-6.189c-3.438,0-6.189,2.395-6.189,5.976s2.75,5.976,6.189,5.976
	c1.802,0,3.486-0.64,4.813-2.276l-2.04-1.542c-0.711,0.878-1.635,1.542-3.059,1.542c-1.589,0-2.869-1.02-3.059-2.703H35.729z
	 M27.05,48.529c0.213-1.636,1.257-2.703,2.94-2.703c1.778,0,2.869,1.043,2.893,2.703H27.05z M45.148,55.359h2.561v-6.545
	c0-1.612,0-5.123-4.86-5.123c-1.802,0-3.581,0.546-4.837,1.827l1.494,1.494c0.759-0.711,1.85-1.186,3.036-1.186
	c1.517,0,2.608,0.735,2.608,2.134v0.308h-0.711c-2.846,0-7.162,0.26-7.162,3.959c0,2.252,2.039,3.415,4.149,3.415
	c1.518,0,2.845-0.569,3.651-1.849h0.072V55.359z M44.981,50.901c0,1.589-0.924,2.608-2.868,2.608c-0.926,0-1.992-0.451-1.992-1.494
	c0-1.637,2.703-1.755,4.269-1.755h0.591V50.901z M50.417,55.359h2.846v-6.095c0-0.616,0.38-2.87,3.06-2.87
	c0.451,0,0.9,0.095,1.375,0.214v-2.75c-0.333-0.095-0.664-0.167-1.02-0.167c-1.494,0-2.75,0.783-3.367,2.087h-0.048v-1.802h-2.846
	V55.359z M67.875,55.359h2.703V37.433h-2.846v7.991h-0.07c-0.594-0.735-1.732-1.731-3.866-1.731c-3.249,0-5.501,2.609-5.501,5.976
	c0,3.367,2.11,5.976,5.619,5.976c1.589,0,3.083-0.617,3.913-1.991h0.048V55.359z M61.141,49.668c0-1.779,1.256-3.414,3.344-3.414
	c2.086,0,3.343,1.635,3.343,3.414c0,1.779-1.257,3.414-3.343,3.414C62.396,53.082,61.141,51.447,61.141,49.668z M73.499,55.359
	h2.845V43.977h-2.845V55.359z M73.096,40.112c0,0.901,0.759,1.707,1.803,1.707c1.043,0,1.85-0.735,1.85-1.707
	c0-0.973-0.807-1.708-1.85-1.708C73.854,38.404,73.096,39.211,73.096,40.112z M87.234,45.423c-0.926-1.256-2.537-1.731-4.055-1.731
	c-2.299,0-4.576,1.139-4.576,3.676c0,4.339,6.141,2.49,6.141,4.837c0,0.901-1.066,1.305-1.896,1.305
	c-1.209,0-1.967-0.594-2.703-1.399l-1.896,1.778c1.161,1.305,2.68,1.755,4.434,1.755c2.324,0,4.908-0.948,4.908-3.651
	c0-4.434-6.141-2.775-6.141-4.814c0-0.853,0.9-1.209,1.659-1.209c0.973,0,1.684,0.403,2.229,1.162L87.234,45.423z M92.29,37.433
	h-2.845v17.927h2.845v-6.212c0-1.519,0.735-2.893,2.609-2.893c1.991,0,2.085,2.086,2.085,3.344v5.762h2.846v-7.186
	c0-2.323-1.09-4.482-4.148-4.482c-1.755,0-2.894,0.926-3.344,1.874H92.29V37.433z"/>
<path d="M51.904,59.34h-0.33v1.947c0,0.303-0.083,0.597-0.459,0.597c-0.232,0-0.373-0.138-0.417-0.356l-0.33,0.066
	c0.071,0.396,0.351,0.597,0.743,0.597c0.594,0,0.793-0.415,0.793-0.789V59.34z M54.336,62.19c0.844,0,1.453-0.62,1.453-1.46
	c0-0.841-0.609-1.462-1.453-1.462c-0.845,0-1.453,0.621-1.453,1.462C52.883,61.57,53.491,62.19,54.336,62.19z M54.336,61.884
	c-0.652,0-1.1-0.513-1.1-1.153s0.447-1.155,1.1-1.155s1.1,0.515,1.1,1.155S54.988,61.884,54.336,61.884z M56.767,62.12h0.329v-2.78
	h-0.329V62.12z M58.236,62.12h0.33v-2.31h0.008l1.609,2.31H60.6v-2.78h-0.329v2.309h-0.008l-1.609-2.309h-0.417V62.12z
	 M65.594,59.34h-2.168v0.306h0.92v2.475h0.33v-2.475h0.918V59.34z M66.43,62.12h0.33v-1.296h1.484v1.296h0.33v-2.78h-0.33v1.179
	H66.76V59.34h-0.33V62.12z M69.713,62.12h1.818v-0.307h-1.488v-0.989h1.324v-0.306h-1.324v-0.873h1.418V59.34h-1.748V62.12z
	 M74.479,62.12h1.818v-0.307h-1.488v-0.989h1.324v-0.306h-1.324v-0.873h1.418V59.34h-1.748V62.12z M77.939,62.12h0.318l1.088-2.78
	h-0.35l-0.885,2.285h-0.008l-0.855-2.285h-0.373L77.939,62.12z M81.396,62.19c0.844,0,1.453-0.62,1.453-1.46
	c0-0.841-0.609-1.462-1.453-1.462c-0.845,0-1.453,0.621-1.453,1.462C79.943,61.57,80.552,62.19,81.396,62.19z M81.396,61.884
	c-0.652,0-1.1-0.513-1.1-1.153s0.447-1.155,1.1-1.155s1.1,0.515,1.1,1.155S82.049,61.884,81.396,61.884z M83.827,62.12h1.603v-0.307
	h-1.273V59.34h-0.329V62.12z M88.324,59.34h-0.33v1.673c0,0.448-0.164,0.871-0.719,0.871c-0.553,0-0.719-0.423-0.719-0.871V59.34
	h-0.33v1.721c0,0.604,0.283,1.13,1.049,1.13c0.767,0,1.049-0.526,1.049-1.13V59.34z M91.317,59.34h-2.168v0.306h0.919v2.475h0.33
	v-2.475h0.919V59.34z M92.152,62.12h0.33v-2.78h-0.33V62.12z M94.915,62.19c0.845,0,1.452-0.62,1.452-1.46
	c0-0.841-0.607-1.462-1.452-1.462s-1.453,0.621-1.453,1.462C93.462,61.57,94.07,62.19,94.915,62.19z M94.915,61.884
	c-0.652,0-1.101-0.513-1.101-1.153s0.448-1.155,1.101-1.155c0.651,0,1.1,0.515,1.1,1.155S95.566,61.884,94.915,61.884z
	 M97.346,62.12h0.33v-2.31h0.008l1.61,2.31h0.416v-2.78h-0.33v2.309h-0.007l-1.61-2.309h-0.417V62.12z"/>
</svg>
