<?xml version="1.0" encoding="UTF-8"?>
<!DOCTYPE svg PUBLIC "-//W3C//DTD SVG 1.1//EN" "http://www.w3.org/Graphics/SVG/1.1/DTD/svg11.dtd">
<!-- Creator: CorelDRAW X6 -->
<svg xmlns="http://www.w3.org/2000/svg" xml:space="preserve" width="100px" height="100px" version="1.1" style="shape-rendering:geometricPrecision; text-rendering:geometricPrecision; image-rendering:optimizeQuality; fill-rule:evenodd; clip-rule:evenodd"
viewBox="0 0 1000000 1000000"
 xmlns:xlink="http://www.w3.org/1999/xlink">
 <defs>
  <style type="text/css">
   <![CDATA[
    .fil0 {fill:none}
    .fil1 {fill:black}
    .fil2 {fill:black;fill-rule:nonzero}
   ]]>
  </style>
 </defs>
 <g id="Layer_x0020_1">
  <metadata id="CorelCorpID_0Corel-Layer"/>
  <rect class="fil0" x="1649" y="1425" width="1000000" height="999653"/>
  <path class="fil1" d="M134212 467284l-26786 15466 -26580 15350c-2952,1451 -5930,193 -6379,-3606l0 -30765 0 -31098c590,-3363 3273,-4531 6058,-3466l26901 15530 26991 15582c2516,2400 2234,4967 -205,7007z"/>
  <path class="fil1" d="M134212 467284l-26786 15466 -26580 15350c-2952,1451 -5930,193 -6379,-3606l0 -30765 0 -31098c590,-3363 3273,-4531 6058,-3466l26901 15530 26991 15582c2516,2400 2234,4967 -205,7007z"/>
  <path class="fil0" d="M46898 380073c873,-526 1758,-1053 2644,-1553l25 -13c193,-115 398,-231 604,-346l154 -77c154,-90 321,-180 475,-270l243 -128c129,-77 270,-142 398,-219l296 -154c102,-64 218,-115 320,-179 129,-64 244,-129 373,-193l231 -115c154,-77 295,-154 449,-231l128 -64c8715,-4467 17905,-7483 27274,-9113l0 0c3491,-603 7046,-1027 10665,-1258 19394,-1206 37799,3401 53534,12309l-56563 26503 -693 -11923c-4428,616 -8702,1630 -12809,3029l-12 0c-552,192 -1091,385 -1643,577l-64 26c-116,38 -244,90 -360,128l-102 39c-103,51 -219,90 -334,128l-90 39c-231,89 -462,179 -693,269l-77 26c-103,38 -205,90 -308,128l-141 64 -296 116 -179 77 -270 103 -244 102c-115,52 -231,103 -346,154l-308 129 -180 77 -295 128 -180 90 -308 128 -167 77c-154,77 -308,141 -462,218"/>
  <path class="fil0" d="M46898 380073c873,-526 1758,-1053 2644,-1553l25 -13c193,-115 398,-231 604,-346l154 -77c154,-90 321,-180 475,-270l243 -128c129,-77 270,-142 398,-219l296 -154c102,-64 218,-115 320,-179 129,-64 244,-129 373,-193l231 -115c154,-77 295,-154 449,-231l128 -64c8715,-4467 17905,-7483 27274,-9113l0 0c3491,-603 7046,-1027 10665,-1258 19394,-1206 37799,3401 53534,12309l-56563 26503 -693 -11923c-4428,616 -8702,1630 -12809,3029l-12 0c-552,192 -1091,385 -1643,577l-64 26c-116,38 -244,90 -360,128l-102 39c-103,51 -219,90 -334,128l-90 39c-231,89 -462,179 -693,269l-77 26c-103,38 -205,90 -308,128l-141 64 -296 116 -179 77 -270 103 -244 102c-115,52 -231,103 -346,154l-308 129 -180 77 -295 128 -180 90 -308 128 -167 77c-154,77 -308,141 -462,218"/>
  <path class="fil1" d="M88238 401237l-911 -8278c-2233,295 -4415,693 -6546,1194 -9228,2156 -17955,6160 -25605,11756l-654 488c-9087,6841 -16390,15786 -21255,26028l-12 0c-4351,9203 -6674,19291 -6777,29469l-25118 -15017c2786,-16903 10024,-33036 21319,-46487l26 26c13168,-15684 31303,-27248 52416,-32061 8330,-1913 16955,-2734 25644,-2362l0 0c15440,642 30149,4967 43112,12232l-49966 25977c-2503,1335 -5467,-436 -5673,-2965z"/>
  <path class="fil1" d="M88238 401237l-911 -8278c-2233,295 -4415,693 -6546,1194 -9228,2156 -17955,6160 -25605,11756l-654 488c-9087,6841 -16390,15786 -21255,26028l-12 0c-4351,9203 -6674,19291 -6777,29469l-25118 -15017c2786,-16903 10024,-33036 21319,-46487l26 26c13168,-15684 31303,-27248 52416,-32061 8330,-1913 16955,-2734 25644,-2362l0 0c15440,642 30149,4967 43112,12232l-49966 25977c-2503,1335 -5467,-436 -5673,-2965z"/>
  <path class="fil1" d="M154876 489334l7637 3235c808,-2092 1527,-4197 2143,-6302 2618,-9113 3375,-18675 2207,-28095l-102 -809c-1540,-11256 -5801,-21998 -12360,-31239l0 0c-5403,-7586 -12270,-14029 -20163,-18944l25951 -13592c12052,10370 21550,23680 27325,38915l-25 12c7277,19124 8535,40609 2438,61389 -2387,8201 -5865,16133 -10434,23538l0 0c-8086,13182 -19034,23911 -31689,31676l1681 -56459c539,-2901 3016,-4146 5391,-3325z"/>
  <path class="fil1" d="M154876 489334l7637 3235c808,-2092 1527,-4197 2143,-6302 2618,-9113 3375,-18675 2207,-28095l-102 -809c-1540,-11256 -5801,-21998 -12360,-31239l0 0c-5403,-7586 -12270,-14029 -20163,-18944l25951 -13592c12052,10370 21550,23680 27325,38915l-25 12c7277,19124 8535,40609 2438,61389 -2387,8201 -5865,16133 -10434,23538l0 0c-8086,13182 -19034,23911 -31689,31676l1681 -56459c539,-2901 3016,-4146 5391,-3325z"/>
  <path class="fil1" d="M49401 502182l-6418 5031c4120,5006 8792,9292 13849,12848l0 0c4441,3118 9331,5762 14606,7842 2117,834 4248,1565 6379,2181 9459,2696 19418,3402 29173,2028l0 13c8342,-1193 16377,-3863 23731,-7855l-860 29225c-2734,988 -5506,1848 -8317,2580l13 12c-2400,629 -4813,1156 -7239,1592 -308,51 -629,103 -949,167l-257 38c-14028,2362 -28737,1643 -43112,-2579 -218,-65 -449,-142 -680,-206 -115,-38 -244,-77 -359,-115 -9716,-2952 -19021,-7444 -27518,-13464l-141 -103c-308,-218 -629,-436 -937,-667 -334,-244 -667,-488 -988,-732l-193 -141c-2207,-1655 -4338,-3401 -6379,-5223l0 -13c-3606,-3235 -7020,-6777 -10203,-10640 -13836,-16801 -21049,-36887 -21935,-57076l48413 28775c2092,1579 2567,4595 321,6482z"/>
  <path class="fil1" d="M49401 502182l-6418 5031c4120,5006 8792,9292 13849,12848l0 0c4441,3118 9331,5762 14606,7842 2117,834 4248,1565 6379,2181 9459,2696 19418,3402 29173,2028l0 13c8342,-1193 16377,-3863 23731,-7855l-860 29225c-2734,988 -5506,1848 -8317,2580l13 12c-2400,629 -4813,1156 -7239,1592 -308,51 -629,103 -949,167l-257 38c-14028,2362 -28737,1643 -43112,-2579 -218,-65 -449,-142 -680,-206 -115,-38 -244,-77 -359,-115 -9716,-2952 -19021,-7444 -27518,-13464l-141 -103c-308,-218 -629,-436 -937,-667 -334,-244 -667,-488 -988,-732l-193 -141c-2207,-1655 -4338,-3401 -6379,-5223l0 -13c-3606,-3235 -7020,-6777 -10203,-10640 -13836,-16801 -21049,-36887 -21935,-57076l48413 28775c2092,1579 2567,4595 321,6482z"/>
  <path class="fil2" d="M357291 486639l0 -7829c0,-39595 -21575,-61889 -53353,-61889 -34384,0 -61889,23950 -61889,59758 0,35809 27505,59759 61889,59759 18020,0 34859,-6405 48130,-22769l-20395 -15415c-7110,8779 -16351,15415 -30585,15415 -15889,0 -28685,-10191 -30585,-27030l86788 0zm-86788 -21344c2131,-16364 12566,-27030 29405,-27030 17776,0 28685,10435 28929,27030l-58334 0zm180982 68293l25605 0 0 -65444c0,-16120 0,-51223 -48605,-51223 -18020,0 -35808,5455 -48374,18264l14940 14939c7585,-7110 18495,-11859 30354,-11859 15171,0 26080,7355 26080,21344l0 3081 -7110 0c-28455,0 -71618,2605 -71618,39595 0,22524 20394,34153 41495,34153 15183,0 28454,-5699 36514,-18495l719 0 0 15645zm-1669 -44574c0,15889 -9240,26080 -28685,26080 -9254,0 -19919,-4505 -19919,-14940 0,-16364 27029,-17545 42688,-17545l5916 0 0 6405zm54355 44574l28455 0 0 -60939c0,-6160 3799,-28698 30598,-28698 4505,0 9009,950 13745,2143l0 -27504c-3324,-950 -6635,-1669 -10190,-1669 -14940,0 -27505,7829 -33678,20869l-475 0 0 -18019 -28455 0 0 113817zm174577 0l27030 0 0 -179261 -28454 0 0 79908 -706 0c-5930,-7354 -17314,-17314 -38658,-17314 -32485,0 -55010,26093 -55010,59758 0,33666 21101,59759 56191,59759 15889,0 30828,-6174 39132,-19920l475 0 0 17070zm-67343 -56909c0,-17788 12565,-34140 33434,-34140 20869,0 33434,16352 33434,34140 0,17789 -12565,34141 -33434,34141 -20869,0 -33434,-16352 -33434,-34141zm123585 56909l28454 0 0 -113817 -28454 0 0 113817zm-4030 -152463c0,9010 7585,17070 18020,17070 10434,0 18494,-7354 18494,-17070 0,-9728 -8060,-17083 -18494,-17083 -10435,0 -18020,8073 -18020,17083zm141386 53110c-9253,-12565 -25374,-17314 -40544,-17314 -23000,0 -45769,11385 -45769,36759 0,43394 61414,24899 61414,48374 0,9009 -10665,13040 -18969,13040 -12091,0 -19676,-5930 -27030,-13990l-18970 17789c11615,13040 26799,17545 44344,17545 23231,0 49080,-9485 49080,-36515 0,-44344 -61414,-27749 -61414,-48143 0,-8535 9010,-12090 16595,-12090 9729,0 16839,4030 22294,11615l18969 -17070zm50556 -79908l-28454 0 0 179261 28454 0 0 -62119c0,-15184 7354,-28930 26093,-28930 19907,0 20856,20857 20856,33435l0 57614 28455 0 0 -71848c0,-23231 -10897,-44819 -41495,-44819 -17545,0 -28929,9254 -33434,18739l-475 0 0 -81333z"/>
  <path class="fil2" d="M519047 573401l-3299 0 0 19471c0,3029 -834,5968 -4595,5968 -2323,0 -3735,-1374 -4171,-3568l-3298 667c705,3966 3503,5968 7431,5968 5929,0 7932,-4158 7932,-7893l0 -20613zm24308 28506c8446,0 14529,-6199 14529,-14606 0,-8406 -6083,-14618 -14529,-14618 -8445,0 -14528,6212 -14528,14618 0,8407 6083,14606 14528,14606zm0 -3067c-6520,0 -10999,-5134 -10999,-11539 0,-6404 4479,-11551 10999,-11551 6521,0 11000,5147 11000,11551 0,6405 -4479,11539 -11000,11539zm24309 2361l3299 0 0 -27800 -3299 0 0 27800zm14696 0l3299 0 0 -23089 77 0 16107 23089 4158 0 0 -27800 -3298 0 0 23090 -77 0 -16095 -23090 -4171 0 0 27800zm73581 -27800l-21678 0 0 3055 9190 0 0 24745 3299 0 0 -24745 9189 0 0 -3055zm8356 27800l3298 0 0 -12963 14850 0 0 12963 3298 0 0 -27800 -3298 0 0 11783 -14850 0 0 -11783 -3298 0 0 27800zm32831 0l18186 0 0 -3067 -14888 0 0 -9896 13245 0 0 -3054 -13245 0 0 -8728 14182 0 0 -3055 -17480 0 0 27800zm47655 0l18186 0 0 -3067 -14888 0 0 -9896 13246 0 0 -3054 -13246 0 0 -8728 14183 0 0 -3055 -17481 0 0 27800zm34615 0l3183 0 10871 -27800 -3491 0 -8843 22846 -77 0 -8561 -22846 -3735 0 10653 27800zm34564 706c8445,0 14528,-6199 14528,-14606 0,-8406 -6083,-14618 -14528,-14618 -8446,0 -14529,6212 -14529,14618 0,8407 6083,14606 14529,14606zm0 -3067c-6520,0 -11000,-5134 -11000,-11539 0,-6404 4480,-11551 11000,-11551 6520,0 10999,5147 10999,11551 0,6405 -4479,11539 -10999,11539zm24308 2361l16031 0 0 -3067 -12732 0 0 -24733 -3299 0 0 27800zm44973 -27800l-3298 0 0 16724c0,4479 -1643,8715 -7188,8715 -5532,0 -7187,-4236 -7187,-8715l0 -16724 -3299 0 0 17199c0,6045 2824,11307 10486,11307 7662,0 10486,-5262 10486,-11307l0 -17199zm29930 0l-21677 0 0 3055 9189 0 0 24745 3299 0 0 -24745 9189 0 0 -3055zm8356 27800l3298 0 0 -27800 -3298 0 0 27800zm27620 706c8445,0 14529,-6199 14529,-14606 0,-8406 -6084,-14618 -14529,-14618 -8445,0 -14529,6212 -14529,14618 0,8407 6084,14606 14529,14606zm0 -3067c-6520,0 -10999,-5134 -10999,-11539 0,-6404 4479,-11551 10999,-11551 6520,0 10999,5147 10999,11551 0,6405 -4479,11539 -10999,11539zm24309 2361l3298 0 0 -23089 77 0 16108 23089 4158 0 0 -27800 -3298 0 0 23090 -77 0 -16095 -23090 -4171 0 0 27800z"/>
 </g>
</svg>
