<?xml version="1.0" encoding="utf-8"?>
<!-- Generator: Adobe Illustrator 15.0.0, SVG Export Plug-In . SVG Version: 6.00 Build 0)  -->
<!DOCTYPE svg PUBLIC "-//W3C//DTD SVG 1.1//EN" "http://www.w3.org/Graphics/SVG/1.1/DTD/svg11.dtd">
<svg version="1.1" xmlns="http://www.w3.org/2000/svg" xmlns:xlink="http://www.w3.org/1999/xlink" x="0px" y="0px" width="100px"
	 height="100px" viewBox="0 0 100 100" enable-background="new 0 0 100 100" xml:space="preserve">
<g id="primary">
	<polygon points="0.045,99.244 99.931,99.244 99.931,0.09 0.045,0.09"/>
</g>
<g id="secondary" fill="#ffffff">
	<path d="M66.572,51.948l-11.891,6.864l-11.796,6.811c-1.311,0.645-2.632,0.088-2.83-1.602V50.368V36.567
		c0.262-1.49,1.45-2.011,2.687-1.538l11.939,6.895l11.979,6.914C67.779,49.901,67.654,51.041,66.572,51.948L66.572,51.948z"/>
	<path d="M27.822,13.242c0.386-0.235,0.775-0.465,1.169-0.688l0.012-0.006c0.09-0.052,0.18-0.102,0.271-0.153
		l0.068-0.037c0.071-0.04,0.141-0.079,0.212-0.117l0.105-0.058c0.061-0.033,0.12-0.064,0.179-0.098l0.131-0.069
		c0.047-0.025,0.095-0.051,0.144-0.077c0.054-0.028,0.109-0.057,0.163-0.086l0.104-0.054c0.067-0.035,0.132-0.068,0.199-0.103
		l0.059-0.03c3.863-1.978,7.945-3.32,12.101-4.044v0.001c1.549-0.27,3.129-0.457,4.736-0.557c8.605-0.535,16.773,1.508,23.755,5.461
		L46.126,24.29L45.821,19c-1.963,0.272-3.864,0.727-5.687,1.342l-0.006,0.003c-0.244,0.082-0.485,0.168-0.725,0.255l-0.031,0.011
		c-0.053,0.02-0.105,0.04-0.158,0.059l-0.045,0.017c-0.051,0.02-0.102,0.038-0.151,0.057l-0.039,0.016
		c-0.104,0.04-0.208,0.08-0.311,0.121l-0.03,0.011c-0.046,0.018-0.091,0.038-0.136,0.055l-0.068,0.027l-0.129,0.052l-0.081,0.034
		l-0.118,0.05l-0.107,0.045c-0.052,0.022-0.102,0.044-0.153,0.065l-0.136,0.058l-0.082,0.037l-0.131,0.056l-0.08,0.036l-0.135,0.061
		l-0.075,0.034c-0.069,0.032-0.138,0.063-0.207,0.095"/>
	<path d="M46.165,22.631l-0.404-3.673c-0.986,0.134-1.955,0.312-2.906,0.533c-4.094,0.956-7.965,2.732-11.363,5.217
		l-0.291,0.216c-4.031,3.035-7.271,7.008-9.434,11.55l0,0c-1.937,4.089-2.965,8.562-3.011,13.083L7.611,42.89
		c1.235-7.502,4.45-14.661,9.462-20.629l0.013,0.008c5.838-6.959,13.89-12.09,23.262-14.226c3.695-0.85,7.522-1.214,11.38-1.051
		l-0.003,0.002c6.857,0.282,13.383,2.205,19.136,5.429L48.687,23.947C47.576,24.544,46.256,23.756,46.165,22.631L46.165,22.631z"/>
	<path d="M75.738,61.736l3.391,1.431c0.363-0.927,0.68-1.86,0.951-2.798c1.162-4.041,1.498-8.286,0.983-12.465
		l-0.046-0.358c-0.684-5-2.574-9.765-5.486-13.867l0.001-0.001c-2.399-3.365-5.446-6.225-8.947-8.404L78.1,19.24
		c5.346,4.6,9.563,10.508,12.129,17.268l-0.012,0.007c3.23,8.489,3.785,18.021,1.082,27.244c-1.061,3.642-2.605,7.159-4.629,10.449
		l-0.002-0.003c-3.588,5.849-8.448,10.612-14.067,14.061l0.747-25.06C73.59,61.92,74.686,61.367,75.738,61.736z"/>
	<path d="M28.933,67.436l-2.851,2.233c1.828,2.222,3.899,4.122,6.144,5.7l0,0c1.975,1.385,4.143,2.561,6.487,3.483
		c0.937,0.37,1.881,0.69,2.831,0.964c4.197,1.199,8.615,1.51,12.946,0.904l0.002,0.002c3.699-0.525,7.266-1.713,10.529-3.483
		L64.639,90.21c-1.211,0.437-2.44,0.819-3.689,1.145l0.004,0.007c-1.063,0.275-2.132,0.508-3.209,0.703
		c-0.141,0.024-0.282,0.049-0.424,0.073l-0.111,0.019c-6.229,1.049-12.756,0.732-19.134-1.146c-0.101-0.03-0.201-0.061-0.301-0.09
		c-0.054-0.016-0.108-0.034-0.165-0.049c-4.307-1.312-8.436-3.31-12.208-5.976l-0.065-0.047c-0.137-0.098-0.276-0.195-0.413-0.295
		c-0.147-0.107-0.296-0.219-0.443-0.327l-0.082-0.061c-0.982-0.736-1.927-1.512-2.834-2.32l0.004-0.004
		c-1.603-1.437-3.12-3.011-4.531-4.726c-6.141-7.459-9.341-16.372-9.735-25.332l21.485,12.773
		C29.715,65.258,29.928,66.601,28.933,67.436L28.933,67.436z"/>
</g>
</svg>
