<?xml version="1.0" encoding="UTF-8"?>
<!DOCTYPE svg PUBLIC "-//W3C//DTD SVG 1.1//EN" "http://www.w3.org/Graphics/SVG/1.1/DTD/svg11.dtd">
<!-- Creator: CorelDRAW X6 -->
<svg xmlns="http://www.w3.org/2000/svg" xml:space="preserve" width="22.7983in" height="22.6316in" version="1.1" style="shape-rendering:geometricPrecision; text-rendering:geometricPrecision; image-rendering:optimizeQuality; fill-rule:evenodd; clip-rule:evenodd"
viewBox="0 0 176112 174823"
 xmlns:xlink="http://www.w3.org/1999/xlink">
 <defs>
  <style type="text/css">
   <![CDATA[
    .fil2 {fill:none}
    .fil1 {fill:white}
    .fil0 {fill:#5E0C7B;fill-rule:nonzero}
   ]]>
  </style>
 </defs>
 <g id="Layer_x0020_1">
  <metadata id="CorelCorpID_0Corel-Layer"/>
  <polygon class="fil0" points="0,174823 176112,174823 176112,0 0,0 "/>
  <path class="fil1" d="M117296 91434l-20963 12102 -20798 12009c-2312,1136 -4643,155 -4990,-2824l0 -24073 0 -24332c460,-2628 2557,-3547 4735,-2712l21053 12156 21119 12192c1973,1873 1751,3883 -156,5482z"/>
  <path class="fil2" d="M48975 23189c680,-415 1367,-819 2061,-1213l21 -12c158,-90 317,-179 477,-268l120 -67c124,-69 248,-137 372,-205l187 -103c105,-57 209,-113 315,-170l229 -123c85,-45 169,-90 254,-135 96,-51 192,-101 288,-152l184 -96c117,-60 233,-120 349,-180l104 -53c6813,-3486 14009,-5854 21335,-7131l1 4c2732,-476 5517,-807 8350,-983 15172,-944 29574,2658 41885,9628l-44258 20739 -539 -9327c-3463,481 -6814,1281 -10027,2368l-12 4c-429,145 -855,296 -1278,451l-55 20c-93,34 -186,69 -279,103l-78 30c-90,34 -179,67 -268,101l-67 26c-183,70 -366,141 -548,213l-52 21c-81,32 -161,64 -241,97l-118 47 -230 94 -142 58 -207 87 -192 80c-90,38 -179,76 -269,115l-239 103 -145 64 -230 101 -142 64 -236 106 -133 60c-121,56 -243,111 -364,168"/>
  <path class="fil1" d="M81316 39745l-712 -6476c-1740,234 -3448,549 -5124,937 -7220,1686 -14045,4819 -20035,9201l-512 379c-7108,5351 -12820,12356 -16632,20364l-2 0c-3414,7210 -5226,15096 -5307,23068l-19652 -11756c2177,-13227 7845,-25850 16682,-36371l22 12c10295,-12268 24491,-21316 41015,-25081 6514,-1498 13261,-2142 20064,-1854l-5 5c12090,498 23597,3887 33738,9572l-39094 20320c-1959,1052 -4285,-339 -4446,-2320z"/>
  <path class="fil1" d="M133459 108691l5976 2523c642,-1633 1200,-3280 1679,-4932 2047,-7125 2640,-14610 1732,-21979l-80 -630c-1206,-8816 -4541,-17216 -9675,-24449l2 -2c-4228,-5934 -9601,-10975 -15774,-14818l20301 -10639c9428,8111 16862,18527 21386,30447l-19 12c5692,14967 6673,31774 1905,48036 -1869,6420 -4594,12623 -8161,18422l-3 -4c-6327,10313 -14896,18710 -24803,24790l1318 -44184c427,-2269 2360,-3242 4216,-2593z"/>
  <path class="fil1" d="M50933 118740l-5026 3938c3223,3917 6876,7269 10834,10051l0 0c3482,2440 7305,4514 11436,6141 1652,652 3318,1218 4992,1699 7401,2115 15189,2664 22826,1595l3 3c6522,-927 12810,-3018 18564,-6142l-674 22870c-2135,769 -4304,1443 -6505,2018l7 10c-1874,488 -3760,898 -5658,1240 -249,44 -498,88 -749,131l-195 32c-10983,1850 -22490,1291 -33736,-2020 -178,-51 -354,-105 -532,-159 -95,-27 -190,-58 -288,-85 -7595,-2313 -14876,-5834 -21526,-10536l-114 -81c-244,-173 -488,-346 -730,-522 -261,-190 -522,-383 -781,-576l-144 -107c-1732,-1298 -3398,-2665 -4997,-4092l8 -5c-2828,-2533 -5503,-5309 -7989,-8332 -10829,-13150 -16470,-28866 -17165,-44665l37883 22522c1635,1232 2011,3599 256,5072z"/>
 </g>
</svg>
