<?xml version="1.0" encoding="utf-8"?>
<!-- Generator: Adobe Illustrator 15.0.0, SVG Export Plug-In . SVG Version: 6.00 Build 0)  -->
<!DOCTYPE svg PUBLIC "-//W3C//DTD SVG 1.1//EN" "http://www.w3.org/Graphics/SVG/1.1/DTD/svg11.dtd">
<svg version="1.1" id="Layer_1" xmlns="http://www.w3.org/2000/svg" xmlns:xlink="http://www.w3.org/1999/xlink" x="0px" y="0px"
	 width="238.578px" height="59.133px" viewBox="0 0 238.578 59.133" enable-background="new 0 0 238.578 59.133"
	 xml:space="preserve">
<g id="Layer_x0020_1">
	<path d="M31.937,27.018l-6.403,3.692l-6.356,3.67c-0.707,0.354-1.421,0.047-1.521-0.859v-7.355v-7.439
		c0.138-0.799,0.775-1.083,1.443-0.829l6.434,3.716l6.449,3.731C32.589,25.912,32.521,26.527,31.937,27.018z"/>
	<path d="M31.937,27.018l-6.403,3.692l-6.356,3.67c-0.707,0.354-1.421,0.047-1.521-0.859v-7.355v-7.439
		c0.138-0.799,0.775-1.083,1.443-0.829l6.434,3.716l6.449,3.731C32.589,25.912,32.521,26.527,31.937,27.018z"/>
	<path d="M11.062,6.165c0.207-0.131,0.414-0.254,0.629-0.376h0.008c0.046-0.031,0.1-0.054,0.146-0.085l0.039-0.022
		c0.038-0.016,0.076-0.039,0.107-0.062l0.062-0.031c0.03-0.015,0.062-0.03,0.092-0.054l0.077-0.03
		c0.022-0.016,0.046-0.031,0.076-0.046c0.023-0.016,0.054-0.031,0.085-0.047l0.054-0.03c0.038-0.016,0.076-0.038,0.107-0.054
		l0.03-0.016c2.089-1.067,4.284-1.789,6.526-2.181l0,0c0.829-0.146,1.682-0.245,2.549-0.299c4.638-0.284,9.037,0.813,12.799,2.94
		l-13.521,6.342l-0.169-2.849c-1.06,0.146-2.08,0.392-3.063,0.722l0,0c-0.138,0.046-0.261,0.092-0.392,0.139l-0.022,0.008
		c-0.023,0.007-0.054,0.022-0.085,0.03l-0.022,0.008c-0.023,0.008-0.054,0.022-0.077,0.03l-0.023,0.008
		c-0.054,0.023-0.115,0.046-0.169,0.069h-0.015c-0.023,0.016-0.046,0.022-0.077,0.03l-0.03,0.016l-0.069,0.03l-0.046,0.016
		l-0.062,0.031l-0.062,0.022c-0.023,0.008-0.054,0.023-0.085,0.031l-0.068,0.038l-0.046,0.016l-0.069,0.03l-0.046,0.023l-0.069,0.03
		l-0.038,0.016c-0.039,0.016-0.077,0.038-0.115,0.054"/>
	<path d="M11.062,6.165c0.207-0.131,0.414-0.254,0.629-0.376h0.008c0.046-0.031,0.1-0.054,0.146-0.085l0.039-0.022
		c0.038-0.016,0.076-0.039,0.107-0.062l0.062-0.031c0.03-0.015,0.062-0.03,0.092-0.054l0.077-0.03
		c0.022-0.016,0.046-0.031,0.076-0.046c0.023-0.016,0.054-0.031,0.085-0.047l0.054-0.03c0.038-0.016,0.076-0.038,0.107-0.054
		l0.03-0.016c2.089-1.067,4.284-1.789,6.526-2.181l0,0c0.829-0.146,1.682-0.245,2.549-0.299c4.638-0.284,9.037,0.813,12.799,2.94
		l-13.521,6.342l-0.169-2.849c-1.06,0.146-2.08,0.392-3.063,0.722l0,0c-0.138,0.046-0.261,0.092-0.392,0.139l-0.022,0.008
		c-0.023,0.007-0.054,0.022-0.085,0.03l-0.022,0.008c-0.023,0.008-0.054,0.022-0.077,0.03l-0.023,0.008
		c-0.054,0.023-0.115,0.046-0.169,0.069h-0.015c-0.023,0.016-0.046,0.022-0.077,0.03l-0.03,0.016l-0.069,0.03l-0.046,0.016
		l-0.062,0.031l-0.062,0.022c-0.023,0.008-0.054,0.023-0.085,0.031l-0.068,0.038l-0.046,0.016l-0.069,0.03l-0.046,0.023l-0.069,0.03
		l-0.038,0.016c-0.039,0.016-0.077,0.038-0.115,0.054"/>
	<path d="M20.943,11.217l-0.215-1.973c-0.53,0.068-1.052,0.168-1.566,0.283c-2.204,0.515-4.292,1.475-6.119,2.811l-0.161,0.115
		c-2.173,1.635-3.916,3.777-5.083,6.227l0,0c-1.044,2.203-1.597,4.614-1.62,7.048l-6.004-3.593c0.66-4.039,2.396-7.9,5.099-11.117
		l0.007,0.007c3.141-3.746,7.479-6.51,12.53-7.662c1.988-0.46,4.054-0.66,6.135-0.567h-0.008c3.7,0.153,7.217,1.189,10.311,2.925
		l-11.946,6.211C21.702,12.253,20.996,11.823,20.943,11.217z"/>
	<path d="M20.943,11.217l-0.215-1.973c-0.53,0.068-1.052,0.168-1.566,0.283c-2.204,0.515-4.292,1.475-6.119,2.811l-0.161,0.115
		c-2.173,1.635-3.916,3.777-5.083,6.227l0,0c-1.044,2.203-1.597,4.614-1.62,7.048l-6.004-3.593c0.66-4.039,2.396-7.9,5.099-11.117
		l0.007,0.007c3.141-3.746,7.479-6.51,12.53-7.662c1.988-0.46,4.054-0.66,6.135-0.567h-0.008c3.7,0.153,7.217,1.189,10.311,2.925
		l-11.946,6.211C21.702,12.253,20.996,11.823,20.943,11.217z"/>
	<path d="M36.881,32.292L38.7,33.06c0.2-0.499,0.369-1.006,0.515-1.505c0.63-2.181,0.807-4.468,0.53-6.718l-0.023-0.191
		c-0.368-2.695-1.39-5.26-2.956-7.471l0,0c-1.29-1.819-2.933-3.355-4.821-4.53l6.203-3.255c2.88,2.479,5.152,5.666,6.534,9.306
		v0.007c1.735,4.568,2.034,9.705,0.575,14.68c-0.567,1.958-1.396,3.854-2.487,5.628h-0.008c-1.927,3.148-4.545,5.712-7.577,7.57
		l0.406-13.497C35.722,32.384,36.313,32.093,36.881,32.292z"/>
	<path d="M36.881,32.292L38.7,33.06c0.2-0.499,0.369-1.006,0.515-1.505c0.63-2.181,0.807-4.468,0.53-6.718l-0.023-0.191
		c-0.368-2.695-1.39-5.26-2.956-7.471l0,0c-1.29-1.819-2.933-3.355-4.821-4.53l6.203-3.255c2.88,2.479,5.152,5.666,6.534,9.306
		v0.007c1.735,4.568,2.034,9.705,0.575,14.68c-0.567,1.958-1.396,3.854-2.487,5.628h-0.008c-1.927,3.148-4.545,5.712-7.577,7.57
		l0.406-13.497C35.722,32.384,36.313,32.093,36.881,32.292z"/>
	<path d="M11.66,35.364l-1.536,1.197c0.983,1.198,2.104,2.227,3.31,3.071l0,0c1.067,0.745,2.234,1.382,3.493,1.881
		c0.507,0.2,1.014,0.369,1.528,0.515c2.265,0.645,4.645,0.813,6.971,0.491h0.008c1.988-0.284,3.908-0.921,5.666-1.881l-0.199,6.994
		c-0.653,0.23-1.321,0.438-1.989,0.614l0,0c-0.575,0.153-1.151,0.276-1.727,0.384c-0.077,0.008-0.154,0.023-0.23,0.038l-0.062,0.008
		c-3.355,0.568-6.872,0.399-10.304-0.614c-0.062-0.015-0.115-0.03-0.169-0.046c-0.022-0.016-0.054-0.022-0.084-0.03
		c-2.319-0.707-4.546-1.781-6.58-3.217l-0.03-0.023c-0.077-0.054-0.154-0.107-0.223-0.161c-0.085-0.062-0.162-0.115-0.246-0.177
		l-0.038-0.03c-0.53-0.399-1.045-0.814-1.528-1.252l0,0c-0.859-0.775-1.682-1.628-2.441-2.549c-3.309-4.016-5.029-8.821-5.244-13.65
		l11.578,6.887C12.082,34.189,12.198,34.91,11.66,35.364z"/>
	<path d="M11.66,35.364l-1.536,1.197c0.983,1.198,2.104,2.227,3.31,3.071l0,0c1.067,0.745,2.234,1.382,3.493,1.881
		c0.507,0.2,1.014,0.369,1.528,0.515c2.265,0.645,4.645,0.813,6.971,0.491h0.008c1.988-0.284,3.908-0.921,5.666-1.881l-0.199,6.994
		c-0.653,0.23-1.321,0.438-1.989,0.614l0,0c-0.575,0.153-1.151,0.276-1.727,0.384c-0.077,0.008-0.154,0.023-0.23,0.038l-0.062,0.008
		c-3.355,0.568-6.872,0.399-10.304-0.614c-0.062-0.015-0.115-0.03-0.169-0.046c-0.022-0.016-0.054-0.022-0.084-0.03
		c-2.319-0.707-4.546-1.781-6.58-3.217l-0.03-0.023c-0.077-0.054-0.154-0.107-0.223-0.161c-0.085-0.062-0.162-0.115-0.246-0.177
		l-0.038-0.03c-0.53-0.399-1.045-0.814-1.528-1.252l0,0c-0.859-0.775-1.682-1.628-2.441-2.549c-3.309-4.016-5.029-8.821-5.244-13.65
		l11.578,6.887C12.082,34.189,12.198,34.91,11.66,35.364z"/>
	<path d="M85.281,31.64v-1.866c0-9.474-5.16-14.802-12.761-14.802c-8.223,0-14.795,5.727-14.795,14.288
		c0,8.561,6.572,14.288,14.795,14.288c4.314,0,8.338-1.528,11.517-5.444l-4.883-3.685c-1.697,2.104-3.908,3.685-7.31,3.685
		c-3.8,0-6.863-2.434-7.316-6.464H85.281z M64.529,26.541c0.507-3.915,3.002-6.464,7.032-6.464c4.254,0,6.856,2.495,6.918,6.464
		H64.529z"/>
	<path id="_x31_" d="M107.807,42.872h6.119V27.217c0-3.854,0-12.245-11.624-12.245c-4.307,0-8.561,1.305-11.563,4.368l3.57,3.57
		c1.813-1.705,4.423-2.833,7.256-2.833c3.631,0,6.241,1.758,6.241,5.098v0.737h-1.704c-6.803,0-17.121,0.629-17.121,9.474
		c0,5.39,4.875,8.162,9.92,8.162c3.631,0,6.81-1.359,8.736-4.423h0.169V42.872z M107.408,32.207c0,3.801-2.212,6.242-6.864,6.242
		c-2.211,0-4.76-1.082-4.76-3.577c0-3.908,6.464-4.192,10.203-4.192h1.421V32.207z"/>
	<path id="_x32_" d="M120.406,42.872h6.802V28.3c0-1.475,0.906-6.864,7.317-6.864c1.075,0,2.157,0.223,3.286,0.507V15.37
		c-0.791-0.23-1.582-0.398-2.434-0.398c-3.57,0-6.58,1.873-8.055,4.99h-0.115v-4.308h-6.802V42.872z"/>
	<path id="_x33_" d="M162.15,42.872h6.465V0h-6.803V19.11h-0.169c-1.42-1.758-4.138-4.138-9.244-4.138
		c-7.77,0-13.151,6.233-13.151,14.288c0,8.054,5.044,14.288,13.436,14.288c3.801,0,7.371-1.475,9.359-4.761h0.107V42.872z
		 M146.05,29.26c0-4.254,3.002-8.162,7.992-8.162s8,3.908,8,8.162c0,4.253-3.01,8.169-8,8.169S146.05,33.513,146.05,29.26z"/>
	<path id="_x34_" d="M175.601,42.872h6.811V15.655h-6.811V42.872z M174.641,6.41c0,2.15,1.813,4.077,4.308,4.077
		s4.422-1.758,4.422-4.077c0-2.326-1.927-4.084-4.422-4.084S174.641,4.253,174.641,6.41z"/>
	<path id="_x35_" d="M208.446,19.11c-2.211-3.002-6.065-4.138-9.696-4.138c-5.497,0-10.94,2.718-10.94,8.79
		c0,10.373,14.687,5.95,14.687,11.563c0,2.158-2.557,3.125-4.537,3.125c-2.895,0-4.706-1.42-6.465-3.348l-4.537,4.254
		c2.779,3.117,6.411,4.192,10.603,4.192c5.559,0,11.739-2.266,11.739-8.729c0-10.604-14.688-6.634-14.688-11.509
		c0-2.043,2.157-2.895,3.97-2.895c2.326,0,4.03,0.967,5.328,2.779L208.446,19.11z"/>
	<path id="_x36_" d="M220.538,0h-6.803v42.872h6.803V28.016c0-3.632,1.758-6.918,6.234-6.918c4.768,0,4.99,4.991,4.99,7.993v13.781
		h6.811V25.69c0-5.559-2.611-10.718-9.928-10.718c-4.192,0-6.918,2.211-7.992,4.476h-0.115V0z"/>
	<path d="M123.923,52.377h-0.783v4.614c0,0.714-0.192,1.412-1.091,1.412c-0.545,0-0.883-0.322-0.982-0.844l-0.783,0.153
		c0.169,0.944,0.829,1.42,1.758,1.42c1.405,0,1.882-0.99,1.882-1.873V52.377z"/>
	<path id="_x31__1_" d="M129.681,59.133c1.996,0,3.439-1.474,3.439-3.463c0-1.988-1.443-3.462-3.439-3.462
		c-2.004,0-3.447,1.474-3.447,3.462C126.234,57.659,127.677,59.133,129.681,59.133z M129.681,58.404c-1.543,0-2.61-1.221-2.61-2.733
		c0-1.512,1.067-2.732,2.61-2.732s2.603,1.221,2.603,2.732C132.283,57.183,131.224,58.404,129.681,58.404z"/>
	<polygon id="_x32__1_" points="135.432,58.964 136.215,58.964 136.215,52.377 135.432,52.377 	"/>
	<polygon id="_x33__1_" points="138.909,58.964 139.693,58.964 139.693,53.498 139.716,53.498 143.524,58.964 144.514,58.964 
		144.514,52.377 143.731,52.377 143.731,57.843 143.708,57.843 139.9,52.377 138.909,52.377 	"/>
	<polygon id="_x34__1_" points="156.33,52.377 151.194,52.377 151.194,53.107 153.374,53.107 153.374,58.964 154.157,58.964 
		154.157,53.107 156.33,53.107 	"/>
	<polygon id="_x35__1_" points="158.311,58.964 159.094,58.964 159.094,55.893 162.611,55.893 162.611,58.964 163.386,58.964 
		163.386,52.377 162.611,52.377 162.611,55.171 159.094,55.171 159.094,52.377 158.311,52.377 	"/>
	<polygon id="_x36__1_" points="166.088,58.964 170.388,58.964 170.388,58.235 166.864,58.235 166.864,55.893 169.996,55.893 
		169.996,55.171 166.864,55.171 166.864,53.107 170.227,53.107 170.227,52.377 166.088,52.377 	"/>
	<polygon id="_x37_" points="177.366,58.964 181.674,58.964 181.674,58.235 178.142,58.235 178.142,55.893 181.282,55.893 
		181.282,55.171 178.142,55.171 178.142,53.107 181.505,53.107 181.505,52.377 177.366,52.377 	"/>
	<polygon id="_x38_" points="185.559,58.964 186.311,58.964 188.883,52.377 188.062,52.377 185.966,57.789 185.95,57.789 
		183.923,52.377 183.04,52.377 	"/>
	<path id="_x39_" d="M193.743,59.133c1.996,0,3.439-1.474,3.439-3.463c0-1.988-1.443-3.462-3.439-3.462
		c-2.004,0-3.439,1.474-3.439,3.462C190.304,57.659,191.74,59.133,193.743,59.133z M193.743,58.404
		c-1.543,0-2.603-1.221-2.603-2.733c0-1.512,1.06-2.732,2.603-2.732s2.603,1.221,2.603,2.732
		C196.346,57.183,195.286,58.404,193.743,58.404z"/>
	<polygon id="_x31_0" points="199.493,58.964 203.294,58.964 203.294,58.235 200.277,58.235 200.277,52.377 199.493,52.377 	"/>
	<path id="_x31_1" d="M210.143,52.377h-0.775v3.961c0,1.06-0.392,2.065-1.705,2.065c-1.313,0-1.704-1.006-1.704-2.065v-3.961h-0.775
		v4.076c0,1.429,0.668,2.68,2.479,2.68c1.813,0,2.48-1.251,2.48-2.68V52.377z"/>
	<polygon id="_x31_2" points="217.229,52.377 212.101,52.377 212.101,53.107 214.274,53.107 214.274,58.964 215.056,58.964 
		215.056,53.107 217.229,53.107 	"/>
	<polygon id="_x31_3" points="219.21,58.964 219.993,58.964 219.993,52.377 219.21,52.377 	"/>
	<path id="_x31_4" d="M225.751,59.133c1.996,0,3.439-1.474,3.439-3.463c0-1.988-1.443-3.462-3.439-3.462
		c-2.004,0-3.439,1.474-3.439,3.462C222.312,57.659,223.747,59.133,225.751,59.133z M225.751,58.404
		c-1.543,0-2.603-1.221-2.603-2.733c0-1.512,1.06-2.732,2.603-2.732s2.603,1.221,2.603,2.732
		C228.354,57.183,227.294,58.404,225.751,58.404z"/>
	<polygon id="_x31_5" points="231.502,58.964 232.285,58.964 232.285,53.498 232.308,53.498 236.116,58.964 237.107,58.964 
		237.107,52.377 236.323,52.377 236.323,57.843 236.3,57.843 232.492,52.377 231.502,52.377 	"/>
</g>
</svg>
