<?xml version="1.0" encoding="utf-8"?>
<!-- Generator: Adobe Illustrator 15.0.0, SVG Export Plug-In . SVG Version: 6.00 Build 0)  -->
<!DOCTYPE svg PUBLIC "-//W3C//DTD SVG 1.1//EN" "http://www.w3.org/Graphics/SVG/1.1/DTD/svg11.dtd">
<svg version="1.1" xmlns="http://www.w3.org/2000/svg" xmlns:xlink="http://www.w3.org/1999/xlink" x="0px" y="0px"
	 width="100px" height="30px" viewBox="0 0 100 30" enable-background="new 0 0 100 30" xml:space="preserve">
<g id="primary">
	<path d="M13.761,15.951l-2.664,1.537l-2.644,1.526c-0.293,0.146-0.589,0.019-0.633-0.36v-3.059v-3.091
		c0.059-0.334,0.324-0.451,0.602-0.344l2.676,1.543l2.685,1.551C14.033,15.492,14.004,15.747,13.761,15.951"/>
	<path d="M9.188,9.38L9.099,8.557C8.877,8.588,8.66,8.628,8.447,8.676C7.528,8.891,6.662,9.29,5.9,9.847L5.834,9.895
		c-0.902,0.68-1.629,1.57-2.112,2.587c-0.435,0.917-0.666,1.919-0.676,2.933L0.549,13.92c0.277-1.681,0.998-3.285,2.121-4.622
		L2.671,9.3C3.98,7.74,5.786,6.59,7.884,6.112c0.828-0.191,1.687-0.273,2.551-0.236h-0.001c1.537,0.062,3,0.494,4.288,1.217
		L9.754,9.676C9.504,9.81,9.208,9.632,9.188,9.38"/>
	<path d="M15.816,18.143l0.759,0.321c0.082-0.206,0.153-0.417,0.213-0.626c0.26-0.905,0.336-1.856,0.221-2.794l-0.011-0.079
		c-0.153-1.122-0.576-2.189-1.229-3.108c-0.538-0.754-1.22-1.396-2.005-1.884l2.58-1.352c1.198,1.031,2.143,2.354,2.718,3.869
		l-0.002,0.002c0.724,1.902,0.849,4.039,0.243,6.105c-0.238,0.816-0.584,1.604-1.039,2.342l0,0
		c-0.803,1.309-1.894,2.377-3.152,3.149l0.168-5.615C15.334,18.185,15.581,18.061,15.816,18.143"/>
	<path d="M5.328,19.423l-0.64,0.499c0.41,0.497,0.875,0.924,1.378,1.277c0.442,0.311,0.928,0.575,1.453,0.78
		c0.21,0.083,0.421,0.154,0.635,0.216c0.939,0.269,1.93,0.339,2.901,0.201v0.002c0.827-0.116,1.627-0.383,2.359-0.78l-0.085,2.906
		c-0.271,0.098-0.546,0.184-0.828,0.258h0.001c-0.238,0.062-0.477,0.114-0.72,0.159c-0.031,0.004-0.062,0.011-0.094,0.015
		l-0.026,0.004c-1.395,0.237-2.856,0.165-4.287-0.256c-0.021-0.009-0.045-0.015-0.068-0.021c-0.011-0.002-0.023-0.006-0.035-0.01
		c-0.966-0.294-1.891-0.74-2.737-1.339L4.52,23.323c-0.03-0.021-0.062-0.045-0.092-0.068c-0.034-0.021-0.067-0.048-0.1-0.071
		L4.31,23.171c-0.22-0.165-0.431-0.339-0.635-0.521h0.002c-0.36-0.323-0.7-0.675-1.016-1.06c-1.376-1.671-2.094-3.669-2.182-5.678
		l4.815,2.862C5.502,18.934,5.55,19.234,5.328,19.423"/>
	<path d="M30.355,22.813c-0.876,0-1.668-0.15-2.377-0.451c-0.708-0.298-1.313-0.704-1.813-1.218
		c-0.501-0.515-0.886-1.11-1.158-1.792c-0.271-0.681-0.407-1.398-0.407-2.148c0-0.777,0.132-1.511,0.397-2.199
		c0.264-0.688,0.646-1.292,1.146-1.814c0.5-0.521,1.107-0.935,1.824-1.24c0.715-0.305,1.518-0.458,2.409-0.458
		c0.888,0,1.684,0.153,2.386,0.458c0.702,0.306,1.299,0.716,1.792,1.23c0.494,0.515,0.869,1.111,1.126,1.792
		c0.256,0.681,0.385,1.39,0.385,2.127c0,0.181-0.004,0.354-0.011,0.521c-0.006,0.167-0.024,0.306-0.052,0.418h-8.442
		c0.041,0.43,0.146,0.813,0.313,1.146c0.167,0.332,0.382,0.618,0.646,0.853c0.264,0.239,0.563,0.419,0.897,0.544
		c0.333,0.124,0.681,0.188,1.042,0.188c0.556,0,1.081-0.135,1.574-0.405c0.493-0.273,0.83-0.631,1.011-1.075l2.396,0.667
		c-0.402,0.835-1.045,1.519-1.927,2.054C32.63,22.545,31.578,22.813,30.355,22.813 M33.19,16.225
		c-0.07-0.819-0.372-1.476-0.906-1.97c-0.536-0.493-1.186-0.74-1.949-0.74c-0.375,0-0.727,0.066-1.053,0.198
		c-0.327,0.132-0.615,0.316-0.865,0.552s-0.456,0.521-0.615,0.854c-0.16,0.334-0.254,0.703-0.281,1.105H33.19z"/>
	<path d="M41.351,22.813c-0.529,0-1.022-0.089-1.481-0.263c-0.459-0.173-0.854-0.417-1.188-0.729
		c-0.333-0.312-0.593-0.677-0.781-1.094c-0.188-0.417-0.281-0.876-0.281-1.375c0-0.514,0.114-0.991,0.343-1.428
		c0.23-0.439,0.55-0.811,0.959-1.117c0.409-0.305,0.9-0.544,1.469-0.718c0.571-0.174,1.195-0.262,1.876-0.262
		c0.486,0,0.962,0.043,1.43,0.125c0.464,0.084,0.878,0.202,1.239,0.355v-0.627c0-0.721-0.205-1.277-0.615-1.667
		c-0.411-0.389-1.018-0.584-1.823-0.584c-0.584,0-1.155,0.104-1.71,0.313c-0.555,0.209-1.125,0.515-1.709,0.917l-0.854-1.772
		c1.403-0.931,2.918-1.396,4.544-1.396c1.569,0,2.79,0.385,3.658,1.157c0.868,0.771,1.303,1.886,1.303,3.346v3.396
		c0,0.292,0.009,3.182,0.009,3.182l-2.531-0.006v-1.716c-0.487,0.639-0.932,1.125-1.627,1.459
		C42.885,22.646,42.142,22.813,41.351,22.813 M42.142,20.77c0.473,0,0.921-0.084,1.345-0.251c0.423-0.165,0.753-0.39,0.99-0.667
		c0.307-0.236,0.459-0.499,0.459-0.791v-1.252c-0.334-0.125-0.696-0.225-1.084-0.302c-0.39-0.076-0.765-0.115-1.126-0.115
		c-0.722,0-1.314,0.164-1.771,0.49c-0.459,0.327-0.688,0.741-0.688,1.24c0,0.474,0.181,0.865,0.542,1.179
		C41.168,20.613,41.614,20.77,42.142,20.77"/>
	<path d="M57.67,14.099c-0.847,0.014-2.397,0.177-3.063,0.49c-0.667,0.313-1.146,0.782-1.438,1.408v6.607h-2.794V11.68h2.564v2.335
		c0.376-0.75,0.865-1.355,1.47-1.814c0.604-0.458,1.241-0.688,1.907-0.688c0.152,0,1.06,0.004,1.136,0.011
		c0.076,0.007,0.149,0.018,0.219,0.031V14.099z"/>
	<path d="M83.104,22.813c-0.445,0-0.907-0.036-1.387-0.106c-0.479-0.069-0.948-0.167-1.407-0.291
		c-0.458-0.125-0.702-0.219-1.106-0.426s-0.76-0.434-1.063-0.675l1.246-1.819c1.328,0.992,2.361,1.314,3.653,1.314
		c0.584,0,1.043-0.104,1.376-0.313c0.334-0.207,0.501-0.506,0.501-0.895c0-0.39-0.198-0.677-0.595-0.867
		c-0.396-0.187-1.06-0.391-1.991-0.614c-0.708-0.167-1.313-0.341-1.813-0.521c-0.501-0.181-0.904-0.39-1.21-0.626
		s-0.527-0.506-0.667-0.813c-0.139-0.305-0.208-0.667-0.208-1.084c0-0.556,0.11-1.056,0.334-1.501
		c0.222-0.445,0.532-0.823,0.928-1.136c0.396-0.313,0.861-0.552,1.396-0.719c0.535-0.167,1.116-0.25,1.741-0.25
		c0.778,0,1.554,0.122,2.324,0.365c0.771,0.243,1.201,0.573,1.868,0.99l-1.146,1.73c-0.611-0.389-0.899-0.67-1.44-0.844
		c-0.543-0.174-1.084-0.261-1.626-0.261c-0.501,0-0.921,0.098-1.262,0.292s-0.511,0.507-0.511,0.938
		c0,0.376,0.164,0.647,0.489,0.813c0.327,0.166,0.908,0.354,1.741,0.563c0.778,0.196,1.441,0.39,1.99,0.584
		c0.549,0.196,1.001,0.418,1.356,0.667c0.354,0.251,0.611,0.537,0.771,0.865c0.16,0.326,0.239,0.72,0.239,1.179
		c0,0.527-0.106,1.007-0.322,1.438c-0.216,0.43-0.518,0.795-0.907,1.094c-0.39,0.298-0.864,0.528-1.428,0.688
		C84.406,22.732,83.784,22.813,83.104,22.813"/>
	<path d="M99.707,22.604h-2.795v-6.128c0-0.863-0.159-1.498-0.479-1.908c-0.319-0.41-0.771-0.615-1.354-0.615
		c-0.25,0-0.515,0.056-0.793,0.167c-0.277,0.112-0.542,0.268-0.792,0.469c-0.249,0.201-0.479,0.441-0.688,0.72
		c-0.209,0.278-0.361,0.583-0.459,0.917v6.379h-2.793V4.835h2.793v8.867c0.403-0.709,0.949-1.253,1.637-1.636
		c0.688-0.382,1.448-0.573,2.283-0.573c0.708,0,1.285,0.122,1.729,0.365s0.792,0.566,1.042,0.969
		c0.25,0.403,0.424,0.862,0.521,1.376c0.097,0.515,0.146,1.042,0.146,1.584V22.604z"/>
	<rect x="73.389" y="11.68" width="2.793" height="10.924"/>
	<path d="M73.072,8.341c0-0.946,0.767-1.713,1.713-1.713c0.947,0,1.714,0.767,1.714,1.713c0,0.947-0.767,1.713-1.714,1.713
		C73.839,10.054,73.072,9.288,73.072,8.341"/>
	<path d="M70.032,16.084c0-0.004-0.001-0.008-0.002-0.012V4.833h-2.793v5.857v2.521c0,0-0.488-0.865-1.231-1.246
		s-1.207-0.457-1.709-0.469c-0.889-0.023-1.561,0.153-2.276,0.458c-0.715,0.306-1.323,0.719-1.823,1.24
		c-0.502,0.521-0.883,1.126-1.146,1.814c-0.265,0.688-0.396,1.421-0.396,2.198c0,0.751,0.136,1.467,0.407,2.147
		c0.271,0.682,0.655,1.28,1.156,1.794s1.104,0.92,1.813,1.219c0.708,0.3,1.5,0.45,2.377,0.448c1.628-0.002,2.216-0.644,2.988-1.233
		v0.973h2.63c0,0,0.001-0.361,0.001-0.848h0.001V21.64c0.001-0.927,0.002-2.255,0.002-2.441v-1.157h0.002V16.084z M67.237,18.685
		c-0.067,0.357-0.141,0.609-0.141,0.609c-0.173,0.564-0.518,0.801-1.011,1.072c-0.493,0.271-1.019,0.406-1.574,0.406
		c-0.361,0-0.708-0.062-1.043-0.187c-0.333-0.125-0.632-0.307-0.896-0.544c-0.264-0.234-0.479-0.521-0.646-0.854
		c-0.167-0.332-0.271-0.715-0.313-1.146c-0.046-0.48-0.08-1.123-0.034-1.752c0.047-0.628,0.123-0.852,0.273-1.165
		c0.16-0.334,0.364-0.619,0.615-0.855c0.251-0.236,0.538-0.42,0.865-0.553c0.326-0.132,0.678-0.198,1.052-0.198
		c0.766,0,1.415,0.247,1.95,0.74c0.527,0.486,0.826,1.132,0.901,1.933V18.685z"/>
</g>
</svg>
