<?xml version="1.0" encoding="UTF-8"?>
<!DOCTYPE svg PUBLIC "-//W3C//DTD SVG 1.1//EN" "http://www.w3.org/Graphics/SVG/1.1/DTD/svg11.dtd">
<!-- Creator: CorelDRAW X6 -->
<svg xmlns="http://www.w3.org/2000/svg" xml:space="preserve" width="100px" height="100px" version="1.1" style="shape-rendering:geometricPrecision; text-rendering:geometricPrecision; image-rendering:optimizeQuality; fill-rule:evenodd; clip-rule:evenodd"
viewBox="0 0 1000000 1000000"
 xmlns:xlink="http://www.w3.org/1999/xlink">
 <defs>
  <style type="text/css">
   <![CDATA[
    .fil0 {fill:none}
    .fil2 {fill:white}
    .fil1 {fill:#5E0C7B;fill-rule:nonzero}
   ]]>
  </style>
 </defs>
 <g id="Layer_x0020_1">
  <metadata id="CorelCorpID_0Corel-Layer"/>
  <rect class="fil0" x="1649" y="1425" width="1000000" height="999653"/>
  <g id="_832362336">
   <polygon class="fil1" points="449,992440 999307,992440 999307,898 449,898 "/>
   <path class="fil2" d="M665721 519483l-118900 68640 -117964 68113c-13104,6443 -26323,873 -28300,-16017l0 -136535 0 -138012c2618,-14901 14503,-20112 26863,-15376l119401 68948 119786 69141c11192,10627 9934,22024 -886,31098l0 0z"/>
   <path class="fil0" d="M278217 132415c3863,-2349 7752,-4646 11692,-6879l116 -64c898,-514 1797,-1014 2708,-1528l680 -372c706,-398 1412,-783 2118,-1168l1052 -577c604,-334 1194,-642 1784,-976l1310 -693c474,-257 949,-513 1437,-770 539,-282 1091,-565 1630,-860l1040 -539c667,-346 1322,-680 1989,-1027l590 -295c38633,-19778 79447,-33203 121006,-40442l0 13c15491,-2695 31291,-4569 47360,-5570 86056,-5352 167736,15080 237556,54611l-251020 117617 -3055 -52892c-19637,2721 -38645,7265 -56870,13425l-64 26c-2439,822 -4852,1681 -7252,2554l-308 116c-526,192 -1052,398 -1579,590l-449 167c-513,192 -1014,372 -1514,565l-385 154c-1040,398 -2079,795 -3106,1206l-295 116c-462,179 -912,372 -1361,552l-680 269 -1296 526 -809 334 -1181 501 -1078 449c-513,218 -1014,436 -1527,654l-1361 578 -821 372 -1309 565 -796 359 -1348 603 -744 347c-693,321 -1386,629 -2066,950"/>
   <path class="fil2" d="M461650 226314l-4043 -36733c-9857,1335 -19547,3119 -29058,5326 -40942,9562 -79651,27325 -113625,52173l-2913 2156c-40314,30354 -72709,70078 -94335,115499l0 0c-19368,40892 -29648,85621 -30110,130837l-111456 -66676c12347,-75019 44497,-146610 94617,-206292l128 77c58385,-69589 138897,-120902 232615,-142259 36951,-8497 75224,-12142 113805,-10512l-25 26c68563,2824 133827,22050 191352,54291l-221732 115242c-11115,5968 -24309,-1912 -25220,-13155l0 0z"/>
   <path class="fil2" d="M757386 617360l33897 14311c3645,-9267 6802,-18610 9523,-27980 11615,-40403 14978,-82860 9831,-124650l-462 -3581c-6841,-50004 -25746,-97646 -54868,-138666l13 -12c-23988,-33653 -54458,-62249 -89470,-84042l115139 -60336c53470,46000 95644,105078 121301,172678l-116 77c32292,84888 37850,180212 10807,272441 -10601,36412 -26054,71592 -46282,104487l-25 -25c-35873,58487 -84478,106117 -140668,140604l7469 -250597c2426,-12873 13387,-18392 23911,-14709z"/>
   <path class="fil2" d="M289332 674359l-28506 22332c18277,22217 38992,41225 61440,56999l0 0c19752,13849 41430,25605 64866,34833 9369,3697 18816,6905 28313,9639 41970,12000 86146,15106 129463,9049l13 12c36990,-5249 72657,-17121 105296,-34833l-3825 129707c-12116,4364 -24411,8189 -36899,11449l38 64c-10627,2759 -21318,5082 -32087,7033 -1411,244 -2823,488 -4248,732l-1104 192c-62299,10486 -127563,7316 -191339,-11461 -1014,-295 -2015,-603 -3016,-898 -539,-154 -1078,-334 -1643,-488 -43073,-13117 -84362,-33088 -122083,-59758l-655 -462c-1373,-976 -2759,-1964 -4132,-2952 -1476,-1078 -2965,-2182 -4428,-3273l-822 -603c-9818,-7368 -19265,-15120 -28339,-23205l39 -39c-16031,-14362 -31201,-30110 -45307,-47257 -61414,-74582 -93410,-163719 -97351,-253318l214853 127731c9279,6994 11410,20420 1463,28775l0 0z"/>
  </g>
 </g>
</svg>
