<?xml version="1.0" encoding="UTF-8"?>
<!DOCTYPE svg PUBLIC "-//W3C//DTD SVG 1.1//EN" "http://www.w3.org/Graphics/SVG/1.1/DTD/svg11.dtd">
<!-- Creator: CorelDRAW X6 -->
<svg xmlns="http://www.w3.org/2000/svg" xml:space="preserve" width="3.31359in" height="0.821295in" version="1.1" style="shape-rendering:geometricPrecision; text-rendering:geometricPrecision; image-rendering:optimizeQuality; fill-rule:evenodd; clip-rule:evenodd"
viewBox="0 0 31073 7702"
 xmlns:xlink="http://www.w3.org/1999/xlink">
 <defs>
  <style type="text/css">
   <![CDATA[
    .fil1 {fill:none}
    .fil0 {fill:white}
    .fil2 {fill:white;fill-rule:nonzero}
   ]]>
  </style>
 </defs>
 <g id="Layer_x0020_1">
  <metadata id="CorelCorpID_0Corel-Layer"/>
  <path class="fil0" d="M4159 3519l-834 481 -828 478c-92,46 -185,6 -198,-112l0 -958 0 -969c18,-104 101,-141 188,-108l838 484 840 486c79,74 70,154 -6,218z"/>
  <path class="fil0" d="M4159 3519l-834 481 -828 478c-92,46 -185,6 -198,-112l0 -958 0 -969c18,-104 101,-141 188,-108l838 484 840 486c79,74 70,154 -6,218z"/>
  <path class="fil1" d="M1440 803c27,-17 54,-33 82,-49l1 0c6,-4 13,-7 19,-11l5 -3c5,-2 10,-5 14,-8l8 -4c4,-2 8,-4 12,-7l10 -4c3,-2 6,-4 10,-6 3,-2 7,-4 11,-6l7 -4c5,-2 10,-5 14,-7l4 -2c272,-139 558,-233 850,-284l0 0c108,-19 219,-32 332,-39 604,-37 1177,106 1667,383l-1761 826 -22 -371c-138,19 -271,51 -399,94l0 0c-18,6 -34,12 -51,18l-3 1c-3,1 -7,3 -11,4l-3 1c-3,1 -7,3 -10,4l-3 1c-7,3 -15,6 -22,9l-2 0c-3,2 -6,3 -10,4l-4 2 -9 4 -6 2 -8 4 -8 3c-3,1 -7,3 -11,4l-9 5 -6 2 -9 4 -6 3 -9 4 -5 2c-5,2 -10,5 -15,7"/>
  <path class="fil1" d="M1440 803c27,-17 54,-33 82,-49l1 0c6,-4 13,-7 19,-11l5 -3c5,-2 10,-5 14,-8l8 -4c4,-2 8,-4 12,-7l10 -4c3,-2 6,-4 10,-6 3,-2 7,-4 11,-6l7 -4c5,-2 10,-5 14,-7l4 -2c272,-139 558,-233 850,-284l0 0c108,-19 219,-32 332,-39 604,-37 1177,106 1667,383l-1761 826 -22 -371c-138,19 -271,51 -399,94l0 0c-18,6 -34,12 -51,18l-3 1c-3,1 -7,3 -11,4l-3 1c-3,1 -7,3 -10,4l-3 1c-7,3 -15,6 -22,9l-2 0c-3,2 -6,3 -10,4l-4 2 -9 4 -6 2 -8 4 -8 3c-3,1 -7,3 -11,4l-9 5 -6 2 -9 4 -6 3 -9 4 -5 2c-5,2 -10,5 -15,7"/>
  <path class="fil0" d="M2727 1461l-28 -257c-69,9 -137,22 -204,37 -287,67 -559,192 -797,366l-21 15c-283,213 -510,492 -662,811l0 0c-136,287 -208,601 -211,918l-782 -468c86,-526 312,-1029 664,-1448l1 1c409,-488 974,-848 1632,-998 259,-60 528,-86 799,-74l-1 0c482,20 940,155 1343,381l-1556 809c-78,42 -170,-14 -177,-93z"/>
  <path class="fil0" d="M2727 1461l-28 -257c-69,9 -137,22 -204,37 -287,67 -559,192 -797,366l-21 15c-283,213 -510,492 -662,811l0 0c-136,287 -208,601 -211,918l-782 -468c86,-526 312,-1029 664,-1448l1 1c409,-488 974,-848 1632,-998 259,-60 528,-86 799,-74l-1 0c482,20 940,155 1343,381l-1556 809c-78,42 -170,-14 -177,-93z"/>
  <path class="fil0" d="M4803 4206l237 100c26,-65 48,-131 67,-196 82,-284 105,-582 69,-875l-3 -25c-48,-351 -181,-685 -385,-973l0 0c-168,-237 -382,-437 -628,-590l808 -424c375,323 671,738 851,1212l0 1c226,595 265,1264 75,1912 -74,255 -182,502 -324,733l-1 0c-251,410 -592,744 -987,986l53 -1758c17,-91 94,-129 168,-103z"/>
  <path class="fil0" d="M4803 4206l237 100c26,-65 48,-131 67,-196 82,-284 105,-582 69,-875l-3 -25c-48,-351 -181,-685 -385,-973l0 0c-168,-237 -382,-437 -628,-590l808 -424c375,323 671,738 851,1212l0 1c226,595 265,1264 75,1912 -74,255 -182,502 -324,733l-1 0c-251,410 -592,744 -987,986l53 -1758c17,-91 94,-129 168,-103z"/>
  <path class="fil0" d="M1518 4606l-200 156c128,156 274,290 431,400l0 0c139,97 291,180 455,245 66,26 132,48 199,67 295,84 605,106 908,64l1 0c259,-37 509,-120 738,-245l-26 911c-85,30 -172,57 -259,80l0 0c-75,20 -150,36 -225,50 -10,1 -20,3 -30,5l-8 1c-437,74 -895,52 -1342,-80 -8,-2 -15,-4 -22,-6 -3,-2 -7,-3 -11,-4 -302,-92 -592,-232 -857,-419l-4 -3c-10,-7 -20,-14 -29,-21 -11,-8 -21,-15 -32,-23l-5 -4c-69,-52 -136,-106 -199,-163l0 0c-112,-101 -219,-212 -318,-332 -431,-523 -655,-1149 -683,-1778l1508 897c65,49 80,143 10,202z"/>
  <path class="fil0" d="M1518 4606l-200 156c128,156 274,290 431,400l0 0c139,97 291,180 455,245 66,26 132,48 199,67 295,84 605,106 908,64l1 0c259,-37 509,-120 738,-245l-26 911c-85,30 -172,57 -259,80l0 0c-75,20 -150,36 -225,50 -10,1 -20,3 -30,5l-8 1c-437,74 -895,52 -1342,-80 -8,-2 -15,-4 -22,-6 -3,-2 -7,-3 -11,-4 -302,-92 -592,-232 -857,-419l-4 -3c-10,-7 -20,-14 -29,-21 -11,-8 -21,-15 -32,-23l-5 -4c-69,-52 -136,-106 -199,-163l0 0c-112,-101 -219,-212 -318,-332 -431,-523 -655,-1149 -683,-1778l1508 897c65,49 80,143 10,202z"/>
  <path class="fil2" d="M11107 4121l0 -243c0,-1234 -672,-1928 -1662,-1928 -1071,0 -1927,746 -1927,1861 0,1115 856,1861 1927,1861 562,0 1086,-199 1500,-709l-636 -480c-221,274 -509,480 -952,480 -495,0 -894,-317 -953,-842l2703 0zm-2703 -664c66,-510 391,-842 916,-842 554,0 893,325 901,842l-1817 0z"/>
  <path id="1" class="fil2" d="M14041 5584l797 0 0 -2039c0,-502 0,-1595 -1514,-1595 -561,0 -1115,170 -1506,569l465 465c236,-222 576,-369 945,-369 473,0 813,229 813,664l0 96 -222 0c-886,0 -2230,82 -2230,1234 0,702 635,1063 1292,1063 473,0 887,-177 1138,-576l22 0 0 488zm-52 -1389c0,495 -288,813 -894,813 -288,0 -620,-141 -620,-466 0,-509 842,-546 1329,-546l185 0 0 199z"/>
  <path id="2" class="fil2" d="M15682 5584l886 0 0 -1898c0,-192 118,-894 953,-894 140,0 281,29 428,66l0 -856c-103,-30 -206,-52 -317,-52 -465,0 -857,244 -1049,650l-15 0 0 -561 -886 0 0 3545z"/>
  <path id="3" class="fil2" d="M21119 5584l842 0 0 -5584 -886 0 0 2489 -22 0c-185,-229 -539,-539 -1204,-539 -1012,0 -1713,812 -1713,1861 0,1049 657,1861 1750,1861 495,0 960,-192 1219,-620l14 0 0 532zm-2097 -1773c0,-554 391,-1063 1041,-1063 650,0 1042,509 1042,1063 0,554 -392,1064 -1042,1064 -650,0 -1041,-510 -1041,-1064z"/>
  <path id="4" class="fil2" d="M22871 5584l887 0 0 -3545 -887 0 0 3545zm-125 -4749c0,280 236,531 561,531 325,0 576,-229 576,-531 0,-303 -251,-532 -576,-532 -325,0 -561,251 -561,532z"/>
  <path id="5" class="fil2" d="M27149 2489c-288,-391 -790,-539 -1263,-539 -716,0 -1425,354 -1425,1145 0,1351 1913,775 1913,1506 0,281 -333,407 -591,407 -377,0 -613,-185 -842,-436l-591 554c362,406 835,546 1381,546 724,0 1529,-295 1529,-1137 0,-1381 -1913,-864 -1913,-1499 0,-266 281,-377 517,-377 303,0 525,126 694,362l591 -532z"/>
  <path id="6" class="fil2" d="M28724 0l-886 0 0 5584 886 0 0 -1935c0,-473 229,-901 812,-901 621,0 650,650 650,1041l0 1795 887 0 0 -2238c0,-724 -340,-1396 -1293,-1396 -546,0 -901,288 -1041,583l-15 0 0 -2533z"/>
  <path class="fil2" d="M16140 6822l-102 0 0 601c0,93 -25,184 -142,184 -71,0 -115,-42 -128,-110l-102 20c22,123 108,185 229,185 183,0 245,-129 245,-244l0 -636z"/>
  <path id="1" class="fil2" d="M16890 7702c260,0 448,-192 448,-451 0,-259 -188,-451 -448,-451 -261,0 -449,192 -449,451 0,259 188,451 449,451zm0 -95c-201,0 -340,-159 -340,-356 0,-197 139,-356 340,-356 201,0 339,159 339,356 0,197 -138,356 -339,356z"/>
  <polygon id="2" class="fil2" points="17639,7680 17741,7680 17741,6822 17639,6822 "/>
  <polygon id="3" class="fil2" points="18092,7680 18194,7680 18194,6968 18197,6968 18693,7680 18822,7680 18822,6822 18720,6822 18720,7534 18717,7534 18221,6822 18092,6822 "/>
  <polygon id="4" class="fil2" points="20361,6822 19692,6822 19692,6917 19976,6917 19976,7680 20078,7680 20078,6917 20361,6917 "/>
  <polygon id="5" class="fil2" points="20619,7680 20721,7680 20721,7280 21179,7280 21179,7680 21280,7680 21280,6822 21179,6822 21179,7186 20721,7186 20721,6822 20619,6822 "/>
  <polygon id="6" class="fil2" points="21632,7680 22192,7680 22192,7585 21733,7585 21733,7280 22141,7280 22141,7186 21733,7186 21733,6917 22171,6917 22171,6822 21632,6822 "/>
  <polygon id="7" class="fil2" points="23101,7680 23662,7680 23662,7585 23202,7585 23202,7280 23611,7280 23611,7186 23202,7186 23202,6917 23640,6917 23640,6822 23101,6822 "/>
  <polygon id="8" class="fil2" points="24168,7680 24266,7680 24601,6822 24494,6822 24221,7527 24219,7527 23955,6822 23840,6822 "/>
  <path id="9" class="fil2" d="M25234 7702c260,0 448,-192 448,-451 0,-259 -188,-451 -448,-451 -261,0 -448,192 -448,451 0,259 187,451 448,451zm0 -95c-201,0 -339,-159 -339,-356 0,-197 138,-356 339,-356 201,0 339,159 339,356 0,197 -138,356 -339,356z"/>
  <polygon id="10" class="fil2" points="25983,7680 26478,7680 26478,7585 26085,7585 26085,6822 25983,6822 "/>
  <path id="11" class="fil2" d="M27370 6822l-101 0 0 516c0,138 -51,269 -222,269 -171,0 -222,-131 -222,-269l0 -516 -101 0 0 531c0,186 87,349 323,349 236,0 323,-163 323,-349l0 -531z"/>
  <polygon id="12" class="fil2" points="28293,6822 27625,6822 27625,6917 27908,6917 27908,7680 28010,7680 28010,6917 28293,6917 "/>
  <polygon id="13" class="fil2" points="28551,7680 28653,7680 28653,6822 28551,6822 "/>
  <path id="14" class="fil2" d="M29403 7702c260,0 448,-192 448,-451 0,-259 -188,-451 -448,-451 -261,0 -448,192 -448,451 0,259 187,451 448,451zm0 -95c-201,0 -339,-159 -339,-356 0,-197 138,-356 339,-356 201,0 339,159 339,356 0,197 -138,356 -339,356z"/>
  <polygon id="15" class="fil2" points="30152,7680 30254,7680 30254,6968 30257,6968 30753,7680 30882,7680 30882,6822 30780,6822 30780,7534 30777,7534 30281,6822 30152,6822 "/>
 </g>
</svg>
