<?xml version="1.0" encoding="utf-8"?>
<!-- Generator: Adobe Illustrator 15.0.0, SVG Export Plug-In . SVG Version: 6.00 Build 0)  -->
<!DOCTYPE svg PUBLIC "-//W3C//DTD SVG 1.1//EN" "http://www.w3.org/Graphics/SVG/1.1/DTD/svg11.dtd">
<svg version="1.1" id="Layer_1" xmlns="http://www.w3.org/2000/svg" xmlns:xlink="http://www.w3.org/1999/xlink" x="0px" y="0px"
	 width="33.078px" height="23.387px" viewBox="0 0 33.078 23.387" enable-background="new 0 0 33.078 23.387" xml:space="preserve">
<g id="Layer_x0020_1">
	<path d="M33.047,1.376c0-0.459-0.229-0.688-0.458-1.146C32.359,0,31.901,0,31.442,0C21.584,0,11.495,0,1.636,0
		C0.948,0,0.719,0,0.489,0.458C-0.428,1.376,0.26,1.834,0.948,2.522l14.216,13.986c0.688,0.688,1.146,1.146,2.063,0.688
		c0.459-0.229,11.235-11.235,12.611-12.61C30.297,4.356,33.047,1.605,33.047,1.376z M0.031,19.26c0.229,0,1.146-0.917,1.375-1.146
		c0.229-0.229,0.458-0.459,0.458-0.688c0.229,0,0.459-0.229,0.459-0.459l2.292-2.063c0.229-0.229,0.229-0.229,0.229-0.229
		l2.522-2.522c0,0,0.229-0.229,0.458-0.458c-0.229-0.229-1.605-1.605-2.063-2.063C5.075,8.942,0.26,4.127,0.031,3.898V19.26z
		 M25.481,11.693c0,0.229,3.438,3.668,3.669,3.898l3.438,3.209c0,0.23,0.229,0.459,0.229,0.459h0.229c0.23,0,0-1.605,0-1.834
		c0-4.356,0.23-9.171,0-13.528c-0.229,0.229-1.604,1.605-1.834,1.834c-0.688,0.688-1.375,1.376-2.063,2.064
		c-0.688,0.688-1.146,1.146-1.835,1.834C26.857,10.088,25.481,11.464,25.481,11.693z M24.105,12.84l-3.439,3.439
		c-0.688,0.688-2.063,2.063-2.751,2.521c-1.146,0.688-2.751,0.23-3.669-0.688l-3.439-3.439c-0.458-0.458-1.605-1.604-1.834-1.834
		c-0.229,0.229-0.917,0.917-1.146,1.146c-0.229,0.459-0.688,0.688-1.146,1.146c-0.459,0.459-6.649,6.42-6.649,6.879
		c0,0.458,0.458,1.146,0.917,1.146c0.458,0.229,5.732,0.229,6.649,0.229h22.469c0.459,0,1.605,0,2.064,0
		c0.458-0.229,0.916-0.688,0.916-1.375c0-0.459-1.375-1.605-1.604-1.835c-1.146-1.146-2.751-2.751-3.897-3.897l-2.293-2.293
		C25.022,13.757,24.335,13.069,24.105,12.84z"/>
</g>
</svg>
