<?xml version="1.0" encoding="UTF-8"?>
<!DOCTYPE svg PUBLIC "-//W3C//DTD SVG 1.1//EN" "http://www.w3.org/Graphics/SVG/1.1/DTD/svg11.dtd">
<!-- Creator: CorelDRAW X6 -->
<svg xmlns="http://www.w3.org/2000/svg" xml:space="preserve" width="0.459421in" height="0.324819in" version="1.1" style="shape-rendering:geometricPrecision; text-rendering:geometricPrecision; image-rendering:optimizeQuality; fill-rule:evenodd; clip-rule:evenodd"
viewBox="0 0 144 102"
 xmlns:xlink="http://www.w3.org/1999/xlink">
 <defs>
  <style type="text/css">
   <![CDATA[
    .fil0 {fill:#FEFEFE}
   ]]>
  </style>
 </defs>
 <g id="Layer_x0020_1">
  <metadata id="CorelCorpID_0Corel-Layer"/>
  <path class="fil0" d="M144 6c0,-2 -1,-3 -2,-5 -1,-1 -3,-1 -5,-1 -43,0 -87,0 -130,0 -3,0 -4,0 -5,2 -4,4 -1,6 2,9l62 61c3,3 5,5 9,3 2,-1 49,-49 55,-55 2,-1 14,-13 14,-14zm-144 78c1,0 5,-4 6,-5 1,-1 2,-2 2,-3 1,0 2,-1 2,-2l10 -9c1,-1 1,-1 1,-1l11 -11c0,0 1,-1 2,-2 -1,-1 -7,-7 -9,-9 -3,-3 -24,-24 -25,-25l0 67zm111 -33c0,1 15,16 16,17l15 14c0,1 1,2 1,2l1 0c1,0 0,-7 0,-8 0,-19 1,-40 0,-59 -1,1 -7,7 -8,8 -3,3 -6,6 -9,9 -3,3 -5,5 -8,8 -2,2 -8,8 -8,9zm-6 5l-15 15c-3,3 -9,9 -12,11 -5,3 -12,1 -16,-3l-15 -15c-2,-2 -7,-7 -8,-8 -1,1 -4,4 -5,5 -1,2 -3,3 -5,5 -2,2 -29,28 -29,30 0,2 2,5 4,5 2,1 25,1 29,1l98 0c2,0 7,0 9,0 2,-1 4,-3 4,-6 0,-2 -6,-7 -7,-8 -5,-5 -12,-12 -17,-17l-10 -10c-1,-1 -4,-4 -5,-5z"/>
 </g>
</svg>
