<?xml version="1.0" encoding="UTF-8"?>
<!DOCTYPE svg PUBLIC "-//W3C//DTD SVG 1.1//EN" "http://www.w3.org/Graphics/SVG/1.1/DTD/svg11.dtd">
<!-- Creator: CorelDRAW X6 -->
<svg xmlns="http://www.w3.org/2000/svg" xml:space="preserve" width="100px" height="100px" version="1.1" style="shape-rendering:geometricPrecision; text-rendering:geometricPrecision; image-rendering:optimizeQuality; fill-rule:evenodd; clip-rule:evenodd"
viewBox="0 0 1000000 1000000"
 xmlns:xlink="http://www.w3.org/1999/xlink">
 <defs>
  <style type="text/css">
   <![CDATA[
    .fil0 {fill:none}
    .fil1 {fill:black}
   ]]>
  </style>
 </defs>
 <g id="Layer_x0020_1">
  <metadata id="CorelCorpID_0Corel-Layer"/>
  <rect class="fil0" x="1649" y="1425" width="1000000" height="999653"/>
  <path class="fil1" d="M994622 192096c-25,-16107 -5711,-26144 -13489,-33639 -11294,-10884 -18957,-9742 -37374,-9690 -297418,705 -599995,1578 -896900,-52 -17853,-90 -25220,2914 -34089,13092 -25207,28929 -449,41083 17456,60194l424789 424905c19187,19072 37464,34717 65867,19136 10935,-5994 337796,-338848 379367,-377994 10229,-9626 91922,-90561 94373,-95952zm-992094 537901c6110,-2438 35796,-33229 42406,-40455 5327,-5788 8818,-8252 15081,-15068 5185,-5660 8381,-7688 14182,-14079l64905 -65162c4082,-3876 4377,-3645 7804,-7264l72567 -72542c4466,-4222 10742,-9318 13925,-16210 -3272,-7855 -47347,-49067 -56562,-58321 -24771,-24822 -168519,-170444 -174372,-172652l64 461753zm760467 -230780c3478,6392 109236,110956 114023,115705l100098 99725c2644,2785 8484,10435 12385,11179l2144 -193c5814,-346 3285,-47719 3285,-54958 0,-129899 2657,-277575 -128,-403085 -7598,2554 -49593,47411 -58706,56306 -20163,19675 -38452,38516 -58385,58423 -19547,19496 -38234,37567 -57486,57422 -9844,10152 -54021,51082 -57230,59476zm-37721 36412l-103576 103178c-18109,17840 -59617,63454 -80319,74133 -40160,20728 -85389,8034 -113921,-21537l-103639 -103614c-9922,-10229 -44010,-46410 -52712,-51852 -8612,4890 -25529,24193 -33319,31715 -11757,11333 -22397,22165 -33935,33870 -16043,16300 -199656,194664 -201235,205175 -2849,18816 12142,34590 24425,40275 15414,7124 175270,3722 198847,3722l676413 0c15093,0 52609,1797 64635,-2284 14413,-4903 29417,-20549 27761,-40186 -808,-9715 -39453,-44176 -48553,-53289 -37285,-37413 -83772,-81231 -118772,-118695l-67947 -67549c-8535,-7983 -25849,-28441 -34153,-33062z"/>
 </g>
</svg>
