<?xml version="1.0" encoding="utf-8"?>
<!-- Generator: Adobe Illustrator 15.0.0, SVG Export Plug-In . SVG Version: 6.00 Build 0)  -->
<!DOCTYPE svg PUBLIC "-//W3C//DTD SVG 1.1//EN" "http://www.w3.org/Graphics/SVG/1.1/DTD/svg11.dtd">
<svg version="1.1" id="primary" xmlns="http://www.w3.org/2000/svg" xmlns:xlink="http://www.w3.org/1999/xlink" x="0px" y="0px"
	 width="100px" height="100px" viewBox="0 0 100 100" enable-background="new 0 0 100 100" xml:space="preserve">
<path d="M99.463,19.209c-0.004-1.611-0.572-2.614-1.35-3.364c-1.129-1.088-1.896-0.974-3.737-0.969
	c-29.741,0.07-60,0.158-89.69-0.005c-1.786-0.009-2.522,0.292-3.409,1.309c-2.521,2.893-0.045,4.108,1.746,6.02l42.479,42.49
	c1.919,1.907,3.747,3.472,6.586,1.913c1.094-0.599,33.779-33.884,37.938-37.799C91.048,27.842,99.217,19.749,99.463,19.209z
	 M0.253,73c0.611-0.244,3.58-3.323,4.24-4.046c0.533-0.579,0.882-0.825,1.508-1.507c0.519-0.566,0.838-0.769,1.418-1.408l6.49-6.516
	c0.408-0.388,0.438-0.365,0.78-0.727l7.257-7.254c0.447-0.422,1.074-0.932,1.393-1.621c-0.327-0.786-4.735-4.907-5.656-5.832
	C15.207,41.607,0.832,27.045,0.247,26.824L0.253,73z M76.299,49.922c0.349,0.639,10.924,11.096,11.402,11.57l10.01,9.973
	c0.266,0.278,0.85,1.043,1.239,1.117l0.214-0.019c0.582-0.034,0.329-4.772,0.329-5.496c0-12.989,0.266-27.757-0.013-40.309
	c-0.76,0.256-4.959,4.741-5.871,5.631c-2.016,1.967-3.846,3.852-5.838,5.842c-1.955,1.95-3.824,3.757-5.749,5.742
	C81.038,44.989,76.621,49.082,76.299,49.922z M72.527,53.563L62.17,63.881c-1.811,1.783-5.962,6.346-8.032,7.413
	c-4.016,2.073-8.539,0.804-11.392-2.153L32.382,58.779c-0.992-1.023-4.401-4.642-5.271-5.186c-0.861,0.488-2.553,2.42-3.332,3.172
	c-1.176,1.133-2.24,2.216-3.394,3.387C18.781,61.782,0.42,79.619,0.262,80.67c-0.285,1.881,1.214,3.459,2.442,4.027
	c1.542,0.713,17.527,0.372,19.885,0.372H90.23c1.51,0,5.261,0.18,6.463-0.229c1.441-0.49,2.941-2.055,2.776-4.019
	c-0.081-0.971-3.945-4.418-4.854-5.328c-3.729-3.742-8.378-8.123-11.878-11.87l-6.794-6.755
	C75.09,56.07,73.357,54.025,72.527,53.563z"/>
</svg>
