<?xml version="1.0" encoding="UTF-8"?>
<!DOCTYPE svg PUBLIC "-//W3C//DTD SVG 1.1//EN" "http://www.w3.org/Graphics/SVG/1.1/DTD/svg11.dtd">
<!-- Creator: CorelDRAW X6 -->
<svg xmlns="http://www.w3.org/2000/svg" xml:space="preserve" width="1.2857in" height="0.343236in" version="1.1" style="shape-rendering:geometricPrecision; text-rendering:geometricPrecision; image-rendering:optimizeQuality; fill-rule:evenodd; clip-rule:evenodd"
viewBox="0 0 2245 599"
 xmlns:xlink="http://www.w3.org/1999/xlink">
 <defs>
  <style type="text/css">
   <![CDATA[
    .fil0 {fill:#DE0029}
    .fil1 {fill:white}
    .fil2 {fill:white;fill-rule:nonzero}
   ]]>
  </style>
 </defs>
 <g id="Layer_x0020_1">
  <metadata id="CorelCorpID_0Corel-Layer"/>
  <rect class="fil0" width="2245" height="599"/>
  <path class="fil1" d="M333 71c-29,5 -42,32 -56,55 -14,24 -27,47 -41,70 -13,24 -26,48 -40,71 -7,11 -14,23 -21,35 -18,31 -46,77 -61,106 -6,12 -11,31 -7,46 14,49 84,37 129,38 36,1 74,1 110,1 37,0 74,0 111,0 33,0 75,5 98,-13 26,-21 20,-52 4,-81 -26,-46 -56,-95 -81,-141 -13,-24 -27,-48 -40,-71 -11,-19 -39,-70 -51,-88 -4,-6 -8,-10 -13,-15 -9,-8 -23,-16 -41,-13zm1 313c-45,8 -31,73 11,65 16,-3 30,-18 27,-38 -3,-16 -19,-30 -38,-27zm-29 -236c-26,6 -17,34 -14,58 2,16 15,134 18,140 4,9 12,14 26,14 14,0 24,0 31,-8 7,-8 6,-20 8,-32l17 -141c4,-38 -26,-32 -47,-32 -10,0 -32,-1 -39,1z"/>
  <path class="fil2" d="M812 425l0 -264 161 0 0 31 -124 0 0 79 110 0 0 31 -110 0 0 91 133 0 0 32 -170 0zm346 -111c4,5 9,12 16,20 6,9 12,18 19,28 6,10 13,20 19,31 7,11 12,22 17,32l-40 0c-6,-10 -11,-20 -17,-30 -6,-9 -12,-19 -18,-28 -6,-9 -12,-17 -18,-25 -6,-8 -12,-15 -16,-21 -4,0 -7,1 -10,1 -4,0 -7,0 -11,0l-33 0 0 103 -37 0 0 -260c10,-3 22,-5 35,-5 13,-1 24,-2 35,-2 37,0 65,7 85,21 19,14 29,35 29,63 0,17 -5,32 -14,45 -9,12 -23,21 -41,27zm-56 -123c-16,0 -28,0 -36,1l0 99 26 0c13,0 24,-1 34,-2 11,-1 19,-4 26,-7 7,-4 13,-9 16,-15 4,-7 6,-15 6,-26 0,-10 -2,-18 -6,-25 -3,-6 -9,-11 -15,-15 -7,-4 -14,-7 -23,-8 -9,-2 -18,-2 -28,-2zm296 123c4,5 9,12 15,20 6,9 13,18 19,28 7,10 13,20 20,31 6,11 12,22 16,32l-40 0c-5,-10 -11,-20 -17,-30 -5,-9 -12,-19 -18,-28 -6,-9 -12,-17 -18,-25 -6,-8 -11,-15 -16,-21 -3,0 -7,1 -10,1 -3,0 -7,0 -10,0l-34 0 0 103 -36 0 0 -260c10,-3 22,-5 34,-5 13,-1 25,-2 36,-2 37,0 65,7 84,21 20,14 29,35 29,63 0,17 -4,32 -13,45 -10,12 -23,21 -41,27zm-56 -123c-16,0 -28,0 -37,1l0 99 27 0c12,0 24,-1 34,-2 10,-1 19,-4 26,-7 7,-4 12,-9 16,-15 4,-7 6,-15 6,-26 0,-10 -2,-18 -6,-25 -4,-6 -9,-11 -16,-15 -6,-4 -14,-7 -22,-8 -9,-2 -18,-2 -28,-2zm151 102c0,-23 4,-43 10,-60 7,-17 16,-32 28,-43 11,-12 25,-21 40,-26 15,-6 32,-9 49,-9 17,0 33,3 48,9 15,5 28,14 40,26 11,11 20,26 27,43 7,17 10,37 10,60 0,22 -3,42 -10,59 -7,18 -16,32 -27,44 -12,11 -25,20 -40,26 -15,6 -31,8 -48,8 -17,0 -34,-2 -49,-8 -15,-6 -29,-15 -40,-26 -12,-12 -21,-26 -28,-44 -6,-17 -10,-37 -10,-59zm39 0c0,16 2,30 6,43 4,13 10,24 17,34 8,9 17,16 28,21 11,5 23,7 36,7 14,0 26,-2 36,-7 11,-5 20,-12 28,-21 7,-10 13,-21 17,-34 4,-13 6,-27 6,-43 0,-16 -2,-31 -6,-44 -4,-13 -10,-24 -17,-33 -8,-9 -17,-16 -28,-21 -10,-5 -22,-8 -36,-8 -13,0 -25,3 -36,8 -11,5 -20,12 -28,21 -7,9 -13,20 -17,33 -4,13 -6,28 -6,44zm397 21c4,5 9,12 16,20 6,9 12,18 19,28 6,10 13,20 19,31 7,11 12,22 17,32l-40 0c-6,-10 -11,-20 -17,-30 -6,-9 -12,-19 -18,-28 -6,-9 -12,-17 -18,-25 -6,-8 -12,-15 -16,-21 -4,0 -7,1 -10,1 -4,0 -7,0 -11,0l-33 0 0 103 -37 0 0 -260c10,-3 22,-5 35,-5 13,-1 24,-2 35,-2 37,0 65,7 85,21 19,14 29,35 29,63 0,17 -5,32 -14,45 -9,12 -23,21 -41,27zm-56 -123c-16,0 -28,0 -36,1l0 99 26 0c13,0 24,-1 34,-2 11,-1 19,-4 26,-7 7,-4 13,-9 16,-15 4,-7 6,-15 6,-26 0,-10 -2,-18 -6,-25 -3,-6 -9,-11 -15,-15 -7,-4 -14,-7 -23,-8 -9,-2 -18,-2 -28,-2z"/>
 </g>
</svg>
