<?xml version="1.0" encoding="utf-8"?>
<!-- Generator: Adobe Illustrator 15.0.0, SVG Export Plug-In . SVG Version: 6.00 Build 0)  -->
<!DOCTYPE svg PUBLIC "-//W3C//DTD SVG 1.1//EN" "http://www.w3.org/Graphics/SVG/1.1/DTD/svg11.dtd">
<svg version="1.1" id="primary" xmlns="http://www.w3.org/2000/svg" xmlns:xlink="http://www.w3.org/1999/xlink" x="0px" y="0px"
	 width="100px" height="100px" viewBox="0 0 100 100" enable-background="new 0 0 100 100" xml:space="preserve">
<path d="M52.703,68.098c-6.593,1.084-11.492,2.244-16.984,5.102c-13.091,6.816-12.142,16.541-6.5,18.665
	c2.293,0.862,29.422,0.421,33.055,0.421c3.287,0,31.078,0.297,32.99-0.254c8.088-2.327,7.385-19.467-23.24-23.963
	c0.027-0.83,2.52-5.055,3.125-6.26c3.6-7.184,5.563-14.868,5.901-23.231c0.278-6.897-1.524-10.773-4.821-14.679
	c-4.609-5.459-13.716-7.798-21.438-4.374c-3.087,1.368-3.83,2.408-5.763,4.119c-3.746,3.318-5.25,9.315-5.124,14.452
	c0.229,9.271,2.929,18.753,7.425,26.603C51.891,65.678,53.033,67.24,52.703,68.098z"/>
<path d="M21.155,49.185c-5.117,0.713-11.429,2.692-15.349,4.939c-2.063,1.183-4.069,2.851-4.989,5.144
	c-1.232,3.072,0.608,5.969,2.326,7.133c2.35,1.593,5.989,1.091,9.033,1.091c14.203,0,7.037,1.104,16.162-4.32
	c2.247-1.337,4.414-2.167,6.958-3.398c0.012-0.876-1.375-5.064-1.738-6.438c-1.681-6.363-2.71-15.676-1.644-21.986
	c1.578-9.349,7.33-16.593,12.76-20.179c-0.824-1.511-4.275-3.597-6.621-4.488C29.296,3.35,19.28,7.329,15.19,15.098
	c-3.23,6.137-2.746,11.284-0.445,18.022C15.955,36.666,20.977,47.953,21.155,49.185z"/>
</svg>
