<?xml version="1.0" encoding="utf-8"?>
<!-- Generator: Adobe Illustrator 15.0.0, SVG Export Plug-In . SVG Version: 6.00 Build 0)  -->
<!DOCTYPE svg PUBLIC "-//W3C//DTD SVG 1.1//EN" "http://www.w3.org/Graphics/SVG/1.1/DTD/svg11.dtd">
<svg version="1.1" id="Layer_1" xmlns="http://www.w3.org/2000/svg" xmlns:xlink="http://www.w3.org/1999/xlink" x="0px" y="0px"
	 width="38.973px" height="34.133px" viewBox="0 0 38.973 34.133" enable-background="new 0 0 38.973 34.133" xml:space="preserve">
<g id="Layer_x0020_1">
	<path d="M20.518,24.602c-2.577,0.387-4.509,0.902-6.57,1.932c-5.152,2.705-4.766,6.569-2.576,7.342
		c0.902,0.387,11.464,0.129,12.88,0.129c1.289,0,12.236,0.129,13.01,0c3.221-1.029,2.834-7.729-9.146-9.402
		c0-0.387,1.03-2.061,1.288-2.447c1.417-2.834,2.189-5.925,2.318-9.146c0-2.705-0.644-4.25-1.932-5.796
		c-1.803-2.189-5.41-3.091-8.373-1.674c-1.287,0.515-1.545,0.902-2.318,1.546c-1.417,1.288-2.061,3.735-2.061,5.667
		c0.129,3.735,1.159,7.342,2.963,10.433C20.26,23.572,20.646,24.215,20.518,24.602z"/>
	<path d="M8.152,17.131c-1.932,0.257-4.508,1.03-6.054,1.932c-0.773,0.516-1.546,1.16-1.932,2.061
		c-0.515,1.16,0.257,2.319,0.901,2.834c0.902,0.516,2.448,0.387,3.607,0.387c5.539,0,2.705,0.387,6.312-1.674
		c0.901-0.516,1.674-0.902,2.705-1.418c0-0.257-0.515-1.932-0.644-2.447c-0.644-2.576-1.03-6.182-0.644-8.629
		c0.644-3.735,2.834-6.569,5.023-7.986c-0.386-0.515-1.674-1.417-2.576-1.674c-3.478-1.417-7.471,0.258-9.017,3.22
		c-1.288,2.447-1.03,4.508-0.129,7.084C6.091,12.237,8.152,16.616,8.152,17.131z"/>
</g>
</svg>
