<?xml version="1.0" encoding="UTF-8"?>
<!DOCTYPE svg PUBLIC "-//W3C//DTD SVG 1.1//EN" "http://www.w3.org/Graphics/SVG/1.1/DTD/svg11.dtd">
<!-- Creator: CorelDRAW X6 -->
<svg xmlns="http://www.w3.org/2000/svg" xml:space="preserve" width="0.541303in" height="0.474079in" version="1.1" style="shape-rendering:geometricPrecision; text-rendering:geometricPrecision; image-rendering:optimizeQuality; fill-rule:evenodd; clip-rule:evenodd"
viewBox="0 0 302 265"
 xmlns:xlink="http://www.w3.org/1999/xlink">
 <defs>
  <style type="text/css">
   <![CDATA[
    .fil0 {fill:#1E142D}
   ]]>
  </style>
 </defs>
 <g id="Layer_x0020_1">
  <metadata id="CorelCorpID_0Corel-Layer"/>
  <path class="fil0" d="M159 191c-20,3 -35,7 -51,15 -40,21 -37,51 -20,57 7,3 89,1 100,1 10,0 95,1 101,0 25,-8 22,-60 -71,-73 0,-3 8,-16 10,-19 11,-22 17,-46 18,-71 0,-21 -5,-33 -15,-45 -14,-17 -42,-24 -65,-13 -10,4 -12,7 -18,12 -11,10 -16,29 -16,44 1,29 9,57 23,81 2,3 5,8 4,11z"/>
  <path class="fil0" d="M63 133c-15,2 -35,8 -47,15 -6,4 -12,9 -15,16 -4,9 2,18 7,22 7,4 19,3 28,3 43,0 21,3 49,-13 7,-4 13,-7 21,-11 0,-2 -4,-15 -5,-19 -5,-20 -8,-48 -5,-67 5,-29 22,-51 39,-62 -3,-4 -13,-11 -20,-13 -27,-11 -58,2 -70,25 -10,19 -8,35 -1,55 3,11 19,45 19,49z"/>
 </g>
</svg>
