<?xml version="1.0" encoding="UTF-8"?>
<!DOCTYPE svg PUBLIC "-//W3C//DTD SVG 1.1//EN" "http://www.w3.org/Graphics/SVG/1.1/DTD/svg11.dtd">
<!-- Creator: CorelDRAW X6 -->
<svg xmlns="http://www.w3.org/2000/svg" xml:space="preserve" width="100px" height="100px" version="1.1" style="shape-rendering:geometricPrecision; text-rendering:geometricPrecision; image-rendering:optimizeQuality; fill-rule:evenodd; clip-rule:evenodd"
viewBox="0 0 1000000 1000000"
 xmlns:xlink="http://www.w3.org/1999/xlink">
 <defs>
  <style type="text/css">
   <![CDATA[
    .fil0 {fill:none}
    .fil1 {fill:#1E142D}
   ]]>
  </style>
 </defs>
 <g id="Layer_x0020_1">
  <metadata id="CorelCorpID_0Corel-Layer"/>
  <rect class="fil0" x="1649" y="1425" width="1000000" height="999653"/>
  <path class="fil1" d="M527030 680982c-65932,10832 -114922,22435 -169841,51017 -130914,68152 -121416,165401 -65008,186642 22936,8625 294222,4210 330557,4210 32869,0 310778,2965 329902,-2541 80871,-23270 73851,-194664 -232410,-239624 282,-8304 25207,-50555 31252,-62607 36002,-71823 55626,-148677 59014,-232308 2785,-68973 -15235,-107734 -48207,-146790 -46102,-54598 -137164,-77983 -214390,-43740 -30867,13682 -38299,24078 -57628,41186 -37464,33178 -52506,93154 -51236,144519 2285,92717 29289,187527 74249,266024 5621,9805 17044,25438 13746,34012z"/>
  <path class="fil1" d="M211554 491850c-51172,7136 -114293,26914 -153490,49388 -20625,11833 -40686,28506 -49888,51441 -12322,30713 6083,59681 23256,71322 23500,15928 59887,10910 90330,10910 142029,0 70373,11050 161615,-43202 22473,-13373 44138,-21665 69589,-33986 116,-8753 -13746,-50645 -17378,-64379 -16813,-63634 -27107,-156762 -16441,-219870 15774,-93488 73299,-165927 127602,-201787 -8240,-15106 -42752,-35962 -66214,-44883 -87571,-33306 -187733,6482 -228637,84170 -32305,61376 -27453,112843 -4453,180225 12103,35462 62325,148330 64109,160651z"/>
 </g>
</svg>
