<?xml version="1.0" encoding="UTF-8"?>
<!DOCTYPE svg PUBLIC "-//W3C//DTD SVG 1.1//EN" "http://www.w3.org/Graphics/SVG/1.1/DTD/svg11.dtd">
<!-- Creator: CorelDRAW X6 -->
<svg xmlns="http://www.w3.org/2000/svg" xml:space="preserve" width="100px" height="100px" version="1.1" style="shape-rendering:geometricPrecision; text-rendering:geometricPrecision; image-rendering:optimizeQuality; fill-rule:evenodd; clip-rule:evenodd"
viewBox="0 0 1000000 1000000"
 xmlns:xlink="http://www.w3.org/1999/xlink">
 <defs>
  <style type="text/css">
   <![CDATA[
    .fil0 {fill:none}
    .fil1 {fill:black}
   ]]>
  </style>
 </defs>
 <g id="Layer_x0020_1">
  <metadata id="CorelCorpID_0Corel-Layer"/>
  <rect class="fil0" x="1649" y="1425" width="1000000" height="999653"/>
  <path class="fil1" d="M33152 994494l631209 0 0 -124856c-14542,-33370 7444,-46358 -32677,-61183 -25439,-9407 -41520,-13540 -66420,-24706 -228893,-102767 -91049,-219499 -40827,-305953 49183,-84696 62364,-185897 42239,-296917 -29186,-161037 -130451,-153400 -178299,-176849l-85184 0 -10190 4107c-16005,5647 -69385,13104 -108505,50774 -83322,80242 -81461,290179 -24450,400801 21139,41007 44934,67780 67254,102831 105167,165105 -83579,208499 -187489,255590 -6828,48900 -12604,127936 -6661,176361z"/>
  <path class="fil1" d="M803488 360179c-9151,-9497 -18404,-18405 -27799,-27967 -9485,-9638 -18842,-19213 -28416,-28313 -3055,1335 -40147,38607 -41841,41456 3298,5147 63647,64289 73491,74197 5044,5083 20048,22551 25554,24386 16017,-18110 65225,-65559 85645,-85966l64623 -64623c4518,-4543 19226,-18110 21524,-22281l-40673 -41456c-3710,1515 -58334,57345 -66035,65046 -11204,11192 -21754,21755 -33075,33075l-32998 32446z"/>
  <path class="fil1" d="M803488 574492c-9151,-9484 -18404,-18392 -27799,-27966 -9485,-9639 -18842,-19214 -28416,-28314 -3055,1335 -40147,38620 -41841,41456 3298,5147 63647,64289 73491,74210 5044,5083 20048,22551 25554,24386 16017,-18109 65225,-65559 85645,-85979l64623 -64623c4518,-4543 19226,-18109 21524,-22268l-40673 -41469c-3710,1528 -58334,57358 -66035,65046 -11204,11192 -21754,21768 -33075,33075l-32998 32446z"/>
 </g>
</svg>
