<?xml version="1.0" encoding="utf-8"?>
<!-- Generator: Adobe Illustrator 15.0.0, SVG Export Plug-In . SVG Version: 6.00 Build 0)  -->
<!DOCTYPE svg PUBLIC "-//W3C//DTD SVG 1.1//EN" "http://www.w3.org/Graphics/SVG/1.1/DTD/svg11.dtd">
<svg version="1.1" id="Layer_1" xmlns="http://www.w3.org/2000/svg" xmlns:xlink="http://www.w3.org/1999/xlink" x="0px" y="0px"
	 width="34.369px" height="36px" viewBox="0 0 34.369 36" enable-background="new 0 0 34.369 36" xml:space="preserve">
<g id="Layer_x0020_1">
	<path d="M0,35.95h22.985v-4.378c-0.438-1.313,0.219-1.751-1.095-2.408c-1.094-0.219-1.532-0.438-2.407-0.876
		c-8.319-3.721-3.284-7.88-1.533-10.945c1.752-3.064,2.189-6.786,1.533-10.945c-1.095-5.691-4.816-5.473-6.567-6.348H9.85
		L9.413,0.268C8.975,0.487,7.005,0.706,5.691,2.019C2.627,4.865,2.627,12.527,4.597,16.686C5.472,18,6.348,19.094,7.224,20.408
		c3.721,5.91-3.065,7.442-6.786,9.193C0,31.353-0.219,34.199,0,35.95z"/>
	<path d="M28.02,12.965c-0.219-0.438-0.657-0.656-0.876-1.095c-0.438-0.219-0.875-0.656-1.095-0.875
		c-0.219,0-1.532,1.313-1.532,1.532c0,0,2.189,2.188,2.627,2.627c0.219,0.219,0.657,0.875,0.876,0.875
		c0.656-0.656,2.408-2.407,3.064-3.064l2.408-2.408c0.219-0.219,0.656-0.656,0.876-0.875l-1.533-1.532
		c-0.219,0.219-2.188,2.188-2.407,2.407c-0.438,0.438-0.876,0.876-1.095,1.313L28.02,12.965z"/>
</g>
</svg>
