<?xml version="1.0" encoding="UTF-8"?>
<!DOCTYPE svg PUBLIC "-//W3C//DTD SVG 1.1//EN" "http://www.w3.org/Graphics/SVG/1.1/DTD/svg11.dtd">
<!-- Creator: CorelDRAW X6 -->
<svg xmlns="http://www.w3.org/2000/svg" xml:space="preserve" width="0.477339in" height="0.499992in" version="1.1" style="shape-rendering:geometricPrecision; text-rendering:geometricPrecision; image-rendering:optimizeQuality; fill-rule:evenodd; clip-rule:evenodd"
viewBox="0 0 157 164"
 xmlns:xlink="http://www.w3.org/1999/xlink">
 <defs>
  <style type="text/css">
   <![CDATA[
    .fil0 {fill:#FDFDFD}
    .fil1 {fill:white}
   ]]>
  </style>
 </defs>
 <g id="Layer_x0020_1">
  <metadata id="CorelCorpID_0Corel-Layer"/>
  <path class="fil0" d="M0 164l105 0 0 -20c-2,-6 1,-8 -5,-11 -5,-1 -7,-2 -11,-4 -38,-17 -15,-36 -7,-50 8,-14 10,-31 7,-50 -5,-26 -22,-25 -30,-29l-14 0 -2 1c-2,1 -11,2 -17,8 -14,13 -14,48 -5,67 4,6 8,11 12,17 17,27 -14,34 -31,42 -2,8 -3,21 -2,29z"/>
  <path class="fil1" d="M128 59c-1,-2 -3,-3 -4,-5 -2,-1 -4,-3 -5,-4 -1,0 -7,6 -7,7 0,0 10,10 12,12 1,1 3,4 4,4 3,-3 11,-11 14,-14l11 -11c1,-1 3,-3 4,-4l-7 -7c-1,1 -10,10 -11,11 -2,2 -4,4 -5,6l-6 5z"/>
 </g>
</svg>
