<?xml version="1.0" encoding="UTF-8"?>
<!DOCTYPE svg PUBLIC "-//W3C//DTD SVG 1.1//EN" "http://www.w3.org/Graphics/SVG/1.1/DTD/svg11.dtd">
<!-- Creator: CorelDRAW X6 -->
<svg xmlns="http://www.w3.org/2000/svg" xml:space="preserve" width="100px" height="100px" version="1.1" style="shape-rendering:geometricPrecision; text-rendering:geometricPrecision; image-rendering:optimizeQuality; fill-rule:evenodd; clip-rule:evenodd"
viewBox="0 0 1000000 1000000"
 xmlns:xlink="http://www.w3.org/1999/xlink">
 <defs>
  <style type="text/css">
   <![CDATA[
    .fil0 {fill:none}
    .fil1 {fill:black}
   ]]>
  </style>
 </defs>
 <g id="Layer_x0020_1">
  <metadata id="CorelCorpID_0Corel-Layer"/>
  <rect class="fil0" x="1649" y="1425" width="1000000" height="999653"/>
  <path class="fil1" d="M27145 997074l632531 0 0 -125113c-14580,-33447 7444,-46461 -32754,-61324 -25490,-9420 -41610,-13553 -66561,-24758 -229368,-102972 -91241,-219947 -40916,-306581 49297,-84876 62504,-186283 42328,-297533 -29237,-161371 -130721,-153734 -178658,-177222l-85376 0 -10204 4108c-16043,5660 -69525,13142 -108722,50889 -83516,80396 -81642,290782 -24502,401635 21165,41084 45011,67921 67382,103037 105386,165451 -83759,208935 -187886,256128 -6829,49016 -12617,128219 -6662,176734z"/>
  <path class="fil1" d="M799086 361424c-9177,-9498 -18443,-18430 -27864,-28018 -9498,-9664 -18867,-19252 -28467,-28377 -3068,1347 -40237,38696 -41931,41545 3311,5160 63775,64430 73645,74364 5057,5096 20087,22602 25605,24438 16057,-18149 65367,-65701 85826,-86159l64751 -64751c4543,-4557 19277,-18149 21575,-22333l-40750 -41545c-3722,1527 -58462,57473 -66176,65187 -11230,11204 -21806,21806 -33152,33139l-33062 32510z"/>
 </g>
</svg>
