<?xml version="1.0" encoding="utf-8"?>
<!-- Generator: Adobe Illustrator 15.0.0, SVG Export Plug-In . SVG Version: 6.00 Build 0)  -->
<!DOCTYPE svg PUBLIC "-//W3C//DTD SVG 1.1//EN" "http://www.w3.org/Graphics/SVG/1.1/DTD/svg11.dtd">
<svg version="1.1" id="primary" xmlns="http://www.w3.org/2000/svg" xmlns:xlink="http://www.w3.org/1999/xlink" x="0px" y="0px"
	 width="100px" height="100px" viewBox="0 0 100 100" enable-background="new 0 0 100 100" xml:space="preserve">
<path d="M2.714,99.707h63.253V87.196c-1.458-3.345,0.744-4.646-3.275-6.133c-2.55-0.942-4.161-1.354-6.656-2.476
	c-22.937-10.297-9.124-21.994-4.092-30.658c4.93-8.487,6.251-18.628,4.233-29.753C53.254,2.04,43.105,2.803,38.312,0.454h-8.538
	l-1.021,0.411c-1.604,0.566-6.953,1.314-10.872,5.089c-8.352,8.04-8.164,29.078-2.45,40.164c2.116,4.108,4.501,6.792,6.738,10.304
	c10.539,16.545-8.376,20.893-18.789,25.612C2.698,86.936,2.119,94.855,2.714,99.707z"/>
<path d="M79.908,36.143c-0.918-0.95-1.844-1.843-2.786-2.802c-0.95-0.967-1.887-1.925-2.847-2.838
	c-0.307,0.135-4.023,3.87-4.193,4.154c0.332,0.516,6.378,6.443,7.365,7.437c0.506,0.51,2.008,2.26,2.561,2.444
	c1.605-1.815,6.536-6.57,8.582-8.616l6.475-6.475c0.455-0.456,1.928-1.815,2.158-2.233l-4.075-4.155
	c-0.372,0.153-5.847,5.748-6.618,6.519c-1.122,1.12-2.18,2.181-3.314,3.314L79.908,36.143z"/>
</svg>
