<?xml version="1.0" encoding="utf-8"?>
<!-- Generator: Adobe Illustrator 15.0.0, SVG Export Plug-In . SVG Version: 6.00 Build 0)  -->
<!DOCTYPE svg PUBLIC "-//W3C//DTD SVG 1.1//EN" "http://www.w3.org/Graphics/SVG/1.1/DTD/svg11.dtd">
<svg version="1.1" id="primary" xmlns="http://www.w3.org/2000/svg" xmlns:xlink="http://www.w3.org/1999/xlink" x="0px" y="0px"
	 width="100px" height="100px" viewBox="0 0 100 100" enable-background="new 0 0 100 100" xml:space="preserve">
<path d="M3.315,99.449h63.12V86.964c-1.453-3.337,0.745-4.636-3.268-6.118c-2.543-0.941-4.151-1.354-6.642-2.471
	c-22.889-10.277-9.105-21.95-4.083-30.595c4.918-8.47,6.236-18.59,4.225-29.692C53.749,1.984,43.623,2.748,38.838,0.403h-8.519
	L29.3,0.813C27.7,1.378,22.362,2.124,18.45,5.891c-8.332,8.024-8.146,29.018-2.445,40.08c2.114,4.101,4.493,6.778,6.725,10.283
	c10.517,16.511-8.358,20.85-18.749,25.56C3.298,86.703,2.721,94.607,3.315,99.449z"/>
<path d="M80.349,36.018c-0.915-0.95-1.841-1.841-2.78-2.797c-0.947-0.964-1.884-1.921-2.842-2.832
	c-0.305,0.134-4.014,3.861-4.184,4.146c0.33,0.515,6.365,6.429,7.35,7.419c0.504,0.508,2.004,2.255,2.555,2.438
	c1.602-1.811,6.523-6.556,8.564-8.596l6.463-6.462c0.451-0.454,1.922-1.811,2.152-2.228l-4.067-4.146
	c-0.371,0.152-5.833,5.735-6.604,6.505c-1.12,1.119-2.175,2.175-3.308,3.308L80.349,36.018z"/>
<path d="M80.349,57.449c-0.915-0.948-1.841-1.84-2.78-2.797c-0.947-0.964-1.884-1.921-2.842-2.831
	c-0.305,0.134-4.014,3.862-4.184,4.146c0.33,0.515,6.365,6.429,7.35,7.421c0.504,0.509,2.004,2.255,2.555,2.438
	c1.602-1.811,6.523-6.556,8.564-8.598l6.463-6.463c0.451-0.454,1.922-1.811,2.152-2.226l-4.067-4.147
	c-0.371,0.153-5.833,5.736-6.604,6.504c-1.12,1.119-2.175,2.178-3.308,3.309L80.349,57.449z"/>
</svg>
