<?xml version="1.0" encoding="utf-8"?>
<!-- Generator: Adobe Illustrator 15.0.0, SVG Export Plug-In . SVG Version: 6.00 Build 0)  -->
<!DOCTYPE svg PUBLIC "-//W3C//DTD SVG 1.1//EN" "http://www.w3.org/Graphics/SVG/1.1/DTD/svg11.dtd">
<svg version="1.1" xmlns="http://www.w3.org/2000/svg" xmlns:xlink="http://www.w3.org/1999/xlink" x="0px" y="0px" width="100px"
	 height="100px" viewBox="0 0 100 100" enable-background="new 0 0 100 100" xml:space="preserve">
<g id="primary">
	<rect width="100" height="100"/>
</g>
<g id="secondary" fill="#ffffff">
	<path d="M65.561,36.778c0.194-0.271,0.086-0.242,0.557-0.295c2.17-0.241,1.919,2.036,1.919,2.992
		c0,2.56,0.126,16.253-0.077,16.815c-0.514,0.058-0.508,0.03-0.85-0.296c-0.432,0.042-1.654-0.396-2.365-0.426
		c-2.657-0.104-4.961,0.057-7.406,1.24c-2.58,1.25-4.613,3.063-5.85,5.64c-0.278,0.585-0.479,1.575-0.613,2.268
		c-0.141,0.711-0.02,1.988,0.154,2.642c1.203,4.545,7.486,6.285,11.548,5.164c3.146-0.865,5.065-1.551,7.426-4.086
		c0.89-0.955,1.567-2.146,2.067-3.691c0.486-1.495,0.354-3.557,0.354-5.368c0-0.892,0.175-33.202-0.086-34.546
		c-0.542-2.804-3.013-3.769-5.172-3.168c-0.362,0.102-0.819,0.136-1.133,0.261L42.85,29.082c-1.898,0.557-2.615,0.811-3.892,1.869
		c-3.115,2.583-2.676,5.407-2.676,8.871c0,3.834,0,7.668,0,11.502c0,3.744,0.164,7.869-0.012,11.566
		c-0.91,0.065-1.286-0.513-3.159-0.561c-3.542-0.091-6.279,0.545-9.074,2.579c-8.125,5.914-4.935,16.243,6.9,14.487
		c0.829-0.123,2.21-0.563,2.916-0.893c0.98-0.453,1.676-0.898,2.464-1.427c1.51-1.015,2.759-2.511,3.574-4.25
		c0.95-2.03,0.71-4.442,0.71-7.015V50.402c0-1.172-0.082-2.664,0.005-3.797c0.067-0.888,0.928-1.938,1.53-2.352
		c1.213-0.834,4.164-1.42,5.753-1.986c3.296-1.173,8.189-2.636,11.667-3.705C60.512,38.268,64.938,36.768,65.561,36.778"/>
</g>
</svg>
