<?xml version="1.0" encoding="utf-8"?>
<!-- Generator: Adobe Illustrator 15.0.0, SVG Export Plug-In . SVG Version: 6.00 Build 0)  -->
<!DOCTYPE svg PUBLIC "-//W3C//DTD SVG 1.1//EN" "http://www.w3.org/Graphics/SVG/1.1/DTD/svg11.dtd">
<svg version="1.1" xmlns="http://www.w3.org/2000/svg" xmlns:xlink="http://www.w3.org/1999/xlink" x="0px" y="0px"
	 width="100px" height="100px" viewBox="1225 1600 100 100" enable-background="new 1225 1600 100 100" xml:space="preserve">
<path id="primary" d="M1285.704,1652.396c1.508,0.711,4.467,4.829,5.804,5.404c1.003-1.056,4.355-4.691,5.374-5.18l5.556,5.392l5.622-5.51
	c1.502,0.707,4.198,4.512,5.802,5.463c1.837-1.589,3.655-3.668,5.463-5.425c5.996-5.832,6.541-5.639,3.23-8.996l-5.443-5.516
	c-1.676-1.667-0.928-1.571-4.109-1.562c-7.306,0.021-14.618,0-21.926,0c-7.228,0-14.92,0.253-22.089-0.02
	c-2.343-3.119-1.997-3.429-5.075-6.054c-12.255-10.458-30.567-5.687-36.426,8.77c-1.063,2.621-1.618,5.5-1.677,8.38h6.842
	c0.06-2.309,1.353-4.547,4.318-5.447c7.83-2.376,11.212,9.332,3.511,11.772c-4.661,1.477-7.915-2.506-7.829-6.306h-6.842
	c-0.07,3.578,0.627,7.16,2.077,10.258c2.391,5.11,6.125,8.889,11.204,11.375c5.539,2.708,12.873,2.812,18.625,0.415
	c3.019-1.259,4.719-2.688,6.788-4.396c0.908-0.75,1.883-1.873,2.677-2.91c2.448-3.193-0.205-2.675,8.852-2.623
	c2.931,0.017,2.324-0.134,3.864-1.643c1.202-1.174,4.713-5.016,5.808-5.64V1652.396L1285.704,1652.396z"/>
</svg>
