<?xml version="1.0" encoding="UTF-8"?>
<!DOCTYPE svg PUBLIC "-//W3C//DTD SVG 1.1//EN" "http://www.w3.org/Graphics/SVG/1.1/DTD/svg11.dtd">
<!-- Creator: CorelDRAW X6 -->
<svg xmlns="http://www.w3.org/2000/svg" xml:space="preserve" width="0.445051in" height="0.317539in" version="1.1" style="shape-rendering:geometricPrecision; text-rendering:geometricPrecision; image-rendering:optimizeQuality; fill-rule:evenodd; clip-rule:evenodd"
viewBox="0 0 4444 3171"
 xmlns:xlink="http://www.w3.org/1999/xlink">
 <defs>
  <style type="text/css">
   <![CDATA[
    .fil0 {fill:black}
   ]]>
  </style>
 </defs>
 <g id="Layer_x0020_1">
  <metadata id="CorelCorpID_0Corel-Layer"/>
  <g id="Layer_x0020_1_0">
   <path class="fil0" d="M2355 2855c-37,-37 -56,-74 -93,-111 -37,-37 -74,-74 -111,-111 -19,19 -148,148 -167,167 19,18 241,241 278,278 19,18 75,93 112,93 55,-75 241,-241 315,-334l241 -241c18,-19 74,-56 92,-74l-167 -167c-18,18 -222,222 -240,259 -38,38 -93,75 -130,112l-130 129z"/>
   <path class="fil0" d="M2689 1242c74,37 204,223 259,241 56,-37 204,-204 241,-222l260 241 259 -260c56,37 186,204 260,260 74,-74 167,-167 241,-260 259,-259 296,-241 148,-389l-241 -259c-92,-75 -55,-75 -185,-75 -334,0 -668,0 -1001,0 -315,0 -668,19 -983,0 -111,-129 -92,-148 -241,-259 -538,-482 -1372,-260 -1631,389 -111,260 -93,593 18,834 112,241 278,408 501,519 259,112 575,130 834,19 148,-56 223,-130 315,-204 37,-37 74,-74 111,-130 112,-148 0,-111 408,-111 130,0 111,-18 167,-74 56,-56 223,-222 260,-260zm-2188 -463c-352,111 -185,630 167,538 334,-112 185,-649 -167,-538z"/>
  </g>
 </g>
</svg>
