<?xml version="1.0" encoding="utf-8"?>
<!-- Generator: Adobe Illustrator 15.0.0, SVG Export Plug-In . SVG Version: 6.00 Build 0)  -->
<!DOCTYPE svg PUBLIC "-//W3C//DTD SVG 1.1//EN" "http://www.w3.org/Graphics/SVG/1.1/DTD/svg11.dtd">
<svg version="1.1" xmlns="http://www.w3.org/2000/svg" xmlns:xlink="http://www.w3.org/1999/xlink" x="0px" y="0px"
	 width="100px" height="100px" viewBox="0 0 100 100" enable-background="new 0 0 100 100" xml:space="preserve">
<path id="primary" d="M53.057,83.385c-0.77-0.798-1.549-1.548-2.34-2.354c-0.798-0.812-1.585-1.617-2.392-2.383
	c-0.257,0.111-3.378,3.25-3.521,3.49c0.278,0.433,5.356,5.411,6.184,6.244c0.427,0.429,1.688,1.898,2.15,2.054
	c1.351-1.524,5.493-5.519,7.211-7.237l5.439-5.438c0.381-0.383,1.618-1.524,1.813-1.876l-3.425-3.49
	c-0.311,0.129-4.909,4.828-5.558,5.475c-0.943,0.943-1.832,1.832-2.785,2.784L53.057,83.385L53.057,83.385z"/>
<path id="primary" d="M60.498,47.513c1.514,0.711,4.48,4.843,5.821,5.42c1.007-1.06,4.369-4.707,5.391-5.196l5.573,5.41l5.637-5.527
	c1.508,0.708,4.213,4.524,5.822,5.478c1.841-1.592,3.666-3.679,5.479-5.441c6.014-5.849,6.561-5.655,3.24-9.022L92,33.101
	c-1.68-1.671-0.93-1.576-4.121-1.566c-7.328,0.022-14.662,0.001-21.989,0.001c-7.251,0-14.966,0.254-22.157-0.021
	c-2.35-3.126-2.003-3.439-5.089-6.074C26.351,14.953,7.982,19.738,2.107,34.238c-1.087,2.683-1.646,5.636-1.685,8.586h6.863
	c-0.005-2.38,1.283-4.717,4.333-5.643c7.852-2.384,11.245,9.357,3.521,11.805c-4.603,1.459-7.838-2.39-7.854-6.146H0.422
	c-0.045,3.529,0.655,7.055,2.085,10.11c2.399,5.126,6.144,8.917,11.237,11.409c5.556,2.72,12.912,2.822,18.682,0.416
	c3.027-1.262,4.733-2.693,6.809-4.408c0.911-0.752,1.887-1.879,2.684-2.916c2.457-3.205-0.205-2.687,8.878-2.635
	c2.941,0.017,2.333-0.133,3.879-1.646C55.879,51.992,59.4,48.139,60.498,47.513L60.498,47.513z"/>
</svg>
