<?xml version="1.0" encoding="UTF-8"?>
<!DOCTYPE svg PUBLIC "-//W3C//DTD SVG 1.1//EN" "http://www.w3.org/Graphics/SVG/1.1/DTD/svg11.dtd">
<!-- Creator: CorelDRAW X6 -->
<svg xmlns="http://www.w3.org/2000/svg" xml:space="preserve" width="100px" height="100px" version="1.1" style="shape-rendering:geometricPrecision; text-rendering:geometricPrecision; image-rendering:optimizeQuality; fill-rule:evenodd; clip-rule:evenodd"
viewBox="0 0 1000000 1000000"
 xmlns:xlink="http://www.w3.org/1999/xlink">
 <defs>
  <style type="text/css">
   <![CDATA[
    .fil0 {fill:none}
    .fil1 {fill:black}
   ]]>
  </style>
 </defs>
 <g id="Layer_x0020_1">
  <metadata id="CorelCorpID_0Corel-Layer"/>
  <rect class="fil0" x="1649" y="1425" width="1000000" height="999653"/>
  <path class="fil1" d="M529892 820289c-7688,-7957 -15453,-15440 -23346,-23475 -7971,-8098 -15825,-16133 -23873,-23782 -2567,1116 -33704,32433 -35128,34820 2772,4326 53443,53996 61709,62313 4248,4273 16839,18944 21459,20484 13464,-15209 54792,-55061 71939,-72208l54265 -54265c3799,-3812 16146,-15209 18084,-18713l-34166 -34820c-3106,1283 -48990,48168 -55459,54624 -9408,9408 -18276,18276 -27774,27774l-27710 27248z"/>
  <path class="fil1" d="M604128 462382c15106,7097 44716,48309 58089,54072 10050,-10563 43587,-46962 53778,-51839l55599 53970 56255 -55151c15042,7072 42033,45152 58077,54663 18379,-15889 36591,-36707 54675,-54291 60002,-58359 65457,-56434 32331,-90022l-54483 -55202c-16763,-16672 -9280,-15722 -41123,-15633 -73119,231 -146289,13 -219408,13 -72336,0 -149319,2542 -221065,-205 -23448,-31201 -19983,-34320 -50773,-60593 -122649,-104653 -305928,-56908 -364543,87764 -23860,58860 -22230,130682 3991,186706 23937,51146 61299,88957 112124,113830 55433,27133 128821,28160 186398,4159 30200,-12591 47218,-26889 67933,-43997 9087,-7496 18829,-18739 26774,-29097 24514,-31971 -2041,-26798 88584,-26272 29340,167 23270,-1335 38697,-16429 12000,-11756 47142,-50209 58090,-56446zm-487692 -103088c-78574,23846 -39941,141592 35129,117796 77072,-24424 43214,-141579 -35129,-117796z"/>
 </g>
</svg>
