<?xml version="1.0" encoding="UTF-8"?>
<!DOCTYPE svg PUBLIC "-//W3C//DTD SVG 1.1//EN" "http://www.w3.org/Graphics/SVG/1.1/DTD/svg11.dtd">
<!-- Creator: CorelDRAW X6 -->
<svg xmlns="http://www.w3.org/2000/svg" xml:space="preserve" width="0.59415in" height="0.280106in" version="1.1" style="shape-rendering:geometricPrecision; text-rendering:geometricPrecision; image-rendering:optimizeQuality; fill-rule:evenodd; clip-rule:evenodd"
viewBox="0 0 240 113"
 xmlns:xlink="http://www.w3.org/1999/xlink">
 <defs>
  <style type="text/css">
   <![CDATA[
    .fil0 {fill:#FEFEFE}
   ]]>
  </style>
 </defs>
 <g id="Layer_x0020_1">
  <metadata id="CorelCorpID_0Corel-Layer"/>
  <path class="fil0" d="M145 67c4,2 11,12 14,13 3,-2 11,-11 13,-12l14 13 14 -14c3,2 10,11 14,14 4,-4 9,-9 13,-14 14,-14 16,-13 8,-21l-13 -14c-5,-4 -3,-4 -10,-4 -18,0 -36,0 -54,0 -17,0 -36,1 -53,0 -6,-7 -5,-8 -13,-14 -29,-26 -74,-14 -88,21 -6,14 -5,32 1,45 6,13 15,22 27,28 14,6 31,7 45,1 8,-3 12,-7 17,-11 2,-2 4,-4 6,-7 6,-8 0,-6 22,-6 7,0 6,-1 9,-4 3,-3 12,-12 14,-14zm-118 -25c-19,6 -10,34 9,29 18,-6 10,-35 -9,-29z"/>
 </g>
</svg>
