<?xml version="1.0" encoding="UTF-8"?>
<!DOCTYPE svg PUBLIC "-//W3C//DTD SVG 1.1//EN" "http://www.w3.org/Graphics/SVG/1.1/DTD/svg11.dtd">
<!-- Creator: CorelDRAW X6 -->
<svg xmlns="http://www.w3.org/2000/svg" xml:space="preserve" width="100px" height="100px" version="1.1" style="shape-rendering:geometricPrecision; text-rendering:geometricPrecision; image-rendering:optimizeQuality; fill-rule:evenodd; clip-rule:evenodd"
viewBox="0 0 1000000 1000000"
 xmlns:xlink="http://www.w3.org/1999/xlink">
 <defs>
  <style type="text/css">
   <![CDATA[
    .fil0 {fill:none}
    .fil1 {fill:black}
   ]]>
  </style>
 </defs>
 <g id="Layer_x0020_1">
  <metadata id="CorelCorpID_0Corel-Layer"/>
  <rect class="fil0" x="1649" y="1425" width="1000000" height="999653"/>
  <path class="fil1" d="M605809 539787c15119,7111 44793,48400 58192,54163 10063,-10576 43677,-47039 53880,-51929l55703 54072 56370 -55253c15067,7085 42110,45242 58192,54765 18405,-15927 36643,-36771 54765,-54393 60118,-58462 65586,-56537 32395,-90189l-54586 -55305c-16800,-16710 -9292,-15761 -41199,-15658 -73260,218 -146572,0 -219832,0 -72477,0 -149601,2541 -221488,-205 -23487,-31266 -20022,-34384 -50877,-60708 -122879,-104859 -306491,-57012 -365236,87930 -23898,58975 -22268,130926 4005,187065 23975,51249 61414,89124 112342,114049 55535,27171 129065,28211 186744,4171 30264,-12616 47321,-26952 68062,-44087 9113,-7508 18880,-18764 26838,-29160 24552,-32023 -2054,-26837 88751,-26311 29392,167 23308,-1335 38761,-16467 12039,-11782 47231,-50299 58218,-56550zm-488641 -103293c-78715,23898 -40006,141862 35205,118028 77213,-24476 43304,-141849 -35205,-118028z"/>
 </g>
</svg>
