<?xml version="1.0" encoding="utf-8"?>
<!-- Generator: Adobe Illustrator 15.0.0, SVG Export Plug-In . SVG Version: 6.00 Build 0)  -->
<!DOCTYPE svg PUBLIC "-//W3C//DTD SVG 1.1//EN" "http://www.w3.org/Graphics/SVG/1.1/DTD/svg11.dtd">
<svg version="1.1" id="primary" xmlns="http://www.w3.org/2000/svg" xmlns:xlink="http://www.w3.org/1999/xlink" x="0px" y="0px"
	 width="100px" height="100px" viewBox="0 0 100 100" enable-background="new 0 0 100 100" xml:space="preserve">
<path d="M18.204,0.286h14.085c2.959,0,5.358,2.399,5.358,5.358v88.487c0,2.959-2.399,5.357-5.358,5.357H18.204
	c-2.959,0-5.358-2.398-5.358-5.357V5.644C12.846,2.685,15.245,0.286,18.204,0.286z"/>
<path d="M68.58,0.286h14.086c2.959,0,5.357,2.399,5.357,5.358v88.487c0,2.959-2.398,5.357-5.357,5.357H68.58
	c-2.959,0-5.357-2.398-5.357-5.357V5.644C63.223,2.685,65.621,0.286,68.58,0.286z"/>
</svg>
