<?xml version="1.0" encoding="utf-8"?>
<!-- Generator: Adobe Illustrator 15.0.0, SVG Export Plug-In . SVG Version: 6.00 Build 0)  -->
<!DOCTYPE svg PUBLIC "-//W3C//DTD SVG 1.1//EN" "http://www.w3.org/Graphics/SVG/1.1/DTD/svg11.dtd">
<svg version="1.1" id="Layer_1" xmlns="http://www.w3.org/2000/svg" xmlns:xlink="http://www.w3.org/1999/xlink" x="0px" y="0px"
	 width="25.235px" height="33.3px" viewBox="0 0 25.235 33.3" enable-background="new 0 0 25.235 33.3" xml:space="preserve">
<g id="Layer_x0020_1">
	<path d="M1.759,0h4.85c0.959,0,1.737,0.778,1.737,1.737v29.822c0,0.96-0.778,1.737-1.737,1.737h-4.85
		c-0.959,0-1.737-0.777-1.737-1.737V1.737C0.021,0.778,0.799,0,1.759,0z"/>
	<path d="M18.698,0h4.85c0.96,0,1.738,0.778,1.738,1.737v29.822c0,0.96-0.778,1.737-1.738,1.737h-4.85
		c-0.959,0-1.736-0.777-1.736-1.737V1.737C16.961,0.778,17.739,0,18.698,0z"/>
</g>
</svg>
