<?xml version="1.0" encoding="UTF-8"?>
<!DOCTYPE svg PUBLIC "-//W3C//DTD SVG 1.1//EN" "http://www.w3.org/Graphics/SVG/1.1/DTD/svg11.dtd">
<!-- Creator: CorelDRAW X6 -->
<svg xmlns="http://www.w3.org/2000/svg" xml:space="preserve" width="0.545972in" height="0.546437in" version="1.1" style="shape-rendering:geometricPrecision; text-rendering:geometricPrecision; image-rendering:optimizeQuality; fill-rule:evenodd; clip-rule:evenodd"
viewBox="0 0 3270 3273"
 xmlns:xlink="http://www.w3.org/1999/xlink">
 <defs>
  <style type="text/css">
   <![CDATA[
    .fil0 {fill:white}
   ]]>
  </style>
 </defs>
 <g id="Layer_x0020_1">
  <metadata id="CorelCorpID_0Corel-Layer"/>
  <path class="fil0" d="M2215 216c12,24 174,179 208,212 91,93 611,619 634,630l156 -161c47,-59 71,-158 48,-250 -22,-86 -79,-139 -130,-187l-275 -277c-16,-19 -27,-24 -43,-41 -50,-54 -98,-106 -187,-131 -187,-51 -303,86 -411,205z"/>
  <path class="fil0" d="M1872 520c12,23 859,870 880,880l97 -88c19,-18 29,-29 49,-48 19,-19 33,-25 50,-49 -19,-32 -378,-383 -436,-441 -74,-75 -143,-144 -217,-218 -40,-39 -191,-200 -224,-218 -18,9 -10,7 -26,21l-173 161z"/>
  <path class="fil0" d="M2619 1545l-878 -882 -270 270c-181,182 -370,357 -549,540l-547 543c-68,66 -69,59 -101,172 -20,71 -41,138 -62,210 -40,141 -83,282 -123,421 -21,73 -40,139 -62,211 -22,72 -50,145 4,205 55,61 131,35 206,12l843 -247c105,-30 112,-36 175,-98 92,-90 182,-189 271,-273 187,-178 364,-361 550,-541l543 -543zm-2261 1259c36,39 72,75 111,111 30,-1 523,-146 537,-157 -82,-91 -74,-42 -81,-162 -5,-78 -6,-163 -15,-240 -73,-4 -149,-12 -222,-18 -143,-11 -94,0 -174,-71 -10,13 -156,506 -156,537z"/>
 </g>
</svg>
