<?xml version="1.0" encoding="UTF-8"?>
<!DOCTYPE svg PUBLIC "-//W3C//DTD SVG 1.1//EN" "http://www.w3.org/Graphics/SVG/1.1/DTD/svg11.dtd">
<!-- Creator: CorelDRAW X6 -->
<svg xmlns="http://www.w3.org/2000/svg" xml:space="preserve" width="100px" height="100px" version="1.1" style="shape-rendering:geometricPrecision; text-rendering:geometricPrecision; image-rendering:optimizeQuality; fill-rule:evenodd; clip-rule:evenodd"
viewBox="0 0 1000000 1000000"
 xmlns:xlink="http://www.w3.org/1999/xlink">
 <defs>
  <style type="text/css">
   <![CDATA[
    .fil0 {fill:none}
    .fil1 {fill:black}
   ]]>
  </style>
 </defs>
 <g id="Layer_x0020_1">
  <metadata id="CorelCorpID_0Corel-Layer"/>
  <rect class="fil0" x="1649" y="1425" width="1000000" height="999653"/>
  <path class="fil1" d="M674372 69269c3568,7200 52660,54200 62697,64340 27607,27915 184986,187065 191853,190261l47154 -48515c14311,-17763 21614,-47668 14529,-75571 -6584,-25990 -23783,-42136 -39338,-56742l-83130 -83630c-4878,-5750 -8150,-7342 -12989,-12488 -15132,-16121 -29764,-32113 -56652,-39518 -56511,-15582 -91563,26105 -124124,61863z"/>
  <path class="fil1" d="M570424 161268c3645,7033 260030,263046 266293,266216l29417 -26747c5738,-5211 8779,-8638 14735,-14555 5775,-5737 9934,-7547 14965,-14811 -5596,-9665 -114267,-115653 -131761,-133339 -22204,-22448 -43317,-43446 -65700,-65727 -12052,-11974 -57744,-60631 -67626,-66162 -5327,2977 -3183,2092 -7752,6404l-52571 48721z"/>
  <path class="fil1" d="M796571 471417l-265627 -266858 -81590 81513c-54906,55176 -112123,108209 -166029,163590l-165400 164169c-20805,19752 -20844,17750 -30559,51788 -6148,21536 -12476,41956 -18726,63762 -12244,42637 -25285,85312 -37349,127269 -6302,21934 -12013,42110 -18623,63814 -6674,21844 -15158,43843 1116,61965 16608,18482 39711,10550 62428,3568l254858 -74762c31779,-8971 33717,-10691 52840,-29481 27723,-27196 55048,-57114 82040,-82758 56562,-53738 109941,-109081 166183,-163423l164438 -164156zm-684011 380561c10974,11744 21922,22653 33640,33652 9189,-231 158136,-44318 162332,-47385 -24578,-27633 -22370,-12719 -24462,-48965 -1374,-23577 -1643,-49528 -4480,-72631 -22062,-1206 -45088,-3696 -66984,-5442 -43355,-3439 -28429,-218 -52673,-21536 -2978,4017 -47142,153130 -47373,162307z"/>
 </g>
</svg>
