<?xml version="1.0" encoding="UTF-8"?>
<!DOCTYPE svg PUBLIC "-//W3C//DTD SVG 1.1//EN" "http://www.w3.org/Graphics/SVG/1.1/DTD/svg11.dtd">
<!-- Creator: CorelDRAW X6 -->
<svg xmlns="http://www.w3.org/2000/svg" xml:space="preserve" width="0.409476in" height="0.409768in" version="1.1" style="shape-rendering:geometricPrecision; text-rendering:geometricPrecision; image-rendering:optimizeQuality; fill-rule:evenodd; clip-rule:evenodd"
viewBox="0 0 4094 4097"
 xmlns:xlink="http://www.w3.org/1999/xlink">
 <defs>
  <style type="text/css">
   <![CDATA[
    .fil0 {fill:black}
   ]]>
  </style>
 </defs>
 <g id="Layer_x0020_1">
  <metadata id="CorelCorpID_0Corel-Layer"/>
  <g id="Layer_x0020_1_0">
   <path class="fil0" d="M2773 270c16,30 218,224 261,266 114,116 765,775 794,788l195 -201c59,-74 89,-198 60,-313 -28,-108 -99,-174 -163,-234l-344 -347c-20,-24 -34,-30 -54,-51 -62,-68 -123,-133 -234,-164 -234,-64 -379,107 -515,256z"/>
   <path class="fil0" d="M2344 651c15,29 1076,1089 1102,1102l121 -110c24,-23 37,-37 62,-61 23,-23 41,-31 62,-61 -24,-40 -473,-479 -546,-552 -92,-94 -179,-180 -271,-273 -50,-49 -239,-250 -281,-273 -22,11 -12,9 -32,26l-217 202z"/>
   <path class="fil0" d="M3279 1934l-1099 -1104 -338 338c-227,228 -463,447 -687,676l-685 680c-85,82 -87,74 -127,215 -25,89 -51,173 -77,263 -50,176 -104,353 -154,527 -27,91 -50,174 -78,264 -28,90 -63,182 5,257 69,76 164,44 258,15l1055 -309c132,-38 141,-45 220,-123 115,-113 227,-237 339,-342 234,-223 456,-452 688,-677l680 -680zm-2831 1576c46,49 91,94 140,139 37,-1 654,-182 672,-196 -103,-114 -93,-53 -102,-203 -6,-98 -7,-204 -18,-300 -92,-5 -187,-15 -278,-23 -180,-14 -118,0 -218,-89 -13,16 -196,634 -196,672z"/>
  </g>
 </g>
</svg>
