<?xml version="1.0" encoding="utf-8"?>
<!-- Generator: Adobe Illustrator 15.0.0, SVG Export Plug-In . SVG Version: 6.00 Build 0)  -->
<!DOCTYPE svg PUBLIC "-//W3C//DTD SVG 1.1//EN" "http://www.w3.org/Graphics/SVG/1.1/DTD/svg11.dtd">
<svg version="1.1" xmlns="http://www.w3.org/2000/svg" xmlns:xlink="http://www.w3.org/1999/xlink" x="0px" y="0px"
	 width="100px" height="100px" viewBox="0 0 100 100" enable-background="new 0 0 100 100" xml:space="preserve">
<path id="primary" d="M66.935,7.347c0.353,0.708,5.188,5.338,6.177,6.336c2.719,2.75,18.219,18.425,18.896,18.741l4.644-4.779
	c1.409-1.749,2.13-4.695,1.432-7.443c-0.648-2.561-2.343-4.15-3.875-5.589l-8.188-8.237c-0.481-0.565-0.804-0.723-1.28-1.229
	c-1.49-1.588-2.932-3.164-5.58-3.893C73.594-0.281,70.142,3.824,66.935,7.347z"/>
<path id="primary" d="M56.695,16.408c0.359,0.692,25.613,25.909,26.23,26.221l2.897-2.634c0.564-0.514,0.864-0.85,1.452-1.434
	c0.567-0.564,0.978-0.743,1.473-1.458C88.197,36.15,77.492,25.71,75.77,23.968c-2.186-2.211-4.266-4.279-6.471-6.474
	c-1.188-1.179-5.688-5.972-6.661-6.516c-0.524,0.293-0.313,0.207-0.765,0.63L56.695,16.408z"/>
<path id="primary" d="M78.972,46.956L52.808,20.672l-8.037,8.029c-5.407,5.434-11.043,10.657-16.353,16.112l-16.292,16.17
	c-0.788,0.749-1.273,1.18-1.627,1.619l7.309,7.337c0.539,0.471,0.939,0.422,3.645,0.636c2.157,0.173,4.424,0.418,6.598,0.536
	c0.28,2.275,0.306,4.832,0.442,7.154c0.122,2.11,0.095,2.46,0.554,2.955l0.189,0.191c0.328,0.313,0.832,0.744,1.622,1.627
	l5.815,5.836c0.476-0.348,0.945-0.806,1.654-1.502c2.731-2.68,5.421-5.626,8.08-8.151c5.571-5.294,10.83-10.744,16.37-16.097
	L78.972,46.956L78.972,46.956z M10.447,62.668c-0.528,0.682-0.759,1.419-1.33,3.416c-0.606,2.121-1.229,4.133-1.845,6.28
	c-1.206,4.2-2.49,8.403-3.678,12.535c-0.622,2.161-1.184,4.148-1.834,6.286c-0.658,2.152-1.493,4.318,0.11,6.104
	c1.636,1.82,3.911,1.039,6.149,0.352l25.102-7.365c1.896-0.535,2.713-0.808,3.481-1.351l-5.776-5.798
	c-1.205,0.52-15.035,4.605-15.914,4.629c-1.154-1.084-2.232-2.158-3.313-3.314l0,0c0.022-0.889,4.221-15.077,4.646-15.952
	L10.447,62.668z"/>
</svg>
