<?xml version="1.0" encoding="utf-8"?>
<!-- Generator: Adobe Illustrator 15.0.0, SVG Export Plug-In . SVG Version: 6.00 Build 0)  -->
<!DOCTYPE svg PUBLIC "-//W3C//DTD SVG 1.1//EN" "http://www.w3.org/Graphics/SVG/1.1/DTD/svg11.dtd">
<svg version="1.1" xmlns="http://www.w3.org/2000/svg" xmlns:xlink="http://www.w3.org/1999/xlink" x="0px" y="0px"
	 width="100px" height="100px" viewBox="0 0 100 100" enable-background="new 0 0 100 100" xml:space="preserve">
<path id="primary" d="M65.988,75.878l-5.528-4.886c-1.284,0.67-4.709,4.244-5.204,5.567c3.925,2.741,8.831,9.315,11.117,9.825
	c3.883-4.697,9.023-9.422,12.977-13.8c0.773-0.854,3.85-3.858,4.359-4.782c-1.225-1.49-3.832-4.207-5.293-5.01
	c-2.453,1.977-4.156,4.275-6.233,6.469C70.136,71.424,67.477,73.629,65.988,75.878z M74.633,47.986l0.025-10.262l-8.469-0.045
	l-0.052-0.099H54.702c-0.287,0.559-1.082,0.379-3.192,0.353c-2.027-0.026-4.064-0.004-6.092-0.004
	c-17.769,0-15.174,1.092-15.154-4.084c0.025-6.151-0.834-12.559,2.042-16.638c1.526-2.163,3.985-4.276,7.421-5.065
	c7.641-1.756,14.285,3.712,14.999,10.171c0.403,3.658,0.044,8.666,0.099,12.499c0.021,1.484,0.081,2.285-0.096,2.711h11.379
	c-1.602-3.416,2.148-17.017-3.668-26.147C51.104-6.423,20.823-1.703,19.083,22.625c-0.173,2.439,0.418,13.944-0.32,14.863
	c-2.4,0.632-5.644,0.094-8.21,0.278l0.001,47.912c4.459,1.02,31.876-0.66,36.141,0.387l3.432,4.578
	c8.994,11.551,30.529,11.904,40.097-1.422c8.22-11.447,6.66-26.631-4.273-35.684c-1.043-0.863-3.493-2.481-5.113-3.227
	c-1.26-0.578-5.449-1.76-6.156-2.285v8.506c6.336,1.951,10.99,7.616,12.286,13.275c2.449,10.695-5.341,19.229-13.577,21.174
	c-10.563,2.492-19.211-5.424-21.117-13.362c-2.39-9.954,3.865-18.854,13.568-21.284c3.146-0.786,6.121-0.633,8.799,0.185v-8.526
	l-0.006-0.006H74.633z"/>
</svg>
