<?xml version="1.0" encoding="UTF-8"?>
<!DOCTYPE svg PUBLIC "-//W3C//DTD SVG 1.1//EN" "http://www.w3.org/Graphics/SVG/1.1/DTD/svg11.dtd">
<!-- Creator: CorelDRAW X6 -->
<svg xmlns="http://www.w3.org/2000/svg" xml:space="preserve" width="100px" height="100px" version="1.1" style="shape-rendering:geometricPrecision; text-rendering:geometricPrecision; image-rendering:optimizeQuality; fill-rule:evenodd; clip-rule:evenodd"
viewBox="0 0 1000000 1000000"
 xmlns:xlink="http://www.w3.org/1999/xlink">
 <defs>
  <style type="text/css">
   <![CDATA[
    .fil0 {fill:none}
    .fil1 {fill:black}
   ]]>
  </style>
 </defs>
 <g id="Layer_x0020_1">
  <metadata id="CorelCorpID_0Corel-Layer"/>
  <rect class="fil0" x="1649" y="1425" width="1000000" height="999653"/>
  <path class="fil1" d="M657071 758606l-55472 -49029c-12886,6738 -47244,42586 -52211,55870 39377,27491 88597,93449 111533,98570 38953,-47142 90523,-94528 130195,-138448 7752,-8573 38619,-38709 43728,-47976 -12283,-14965 -38440,-42213 -53097,-50273 -24605,19842 -41700,42893 -62544,64905 -20535,21690 -47206,43817 -62132,66381zm86723 -279835l244 -102946 -84965 -450c-18123,-31445 21665,-170829 -37619,-263906 -113728,-178569 -417524,-131209 -434979,112868 -1746,24463 4197,139898 -3222,149113 -24077,6341 -56613,937 -82360,2785l13 480684c44729,10229 319801,-6623 362592,3876l34423 45935c90227,115885 306299,119427 402289,-14259 82463,-114857 66818,-267192 -42880,-358010 -10460,-8663 -35039,-24899 -51300,-32369 -12950,-5942 -56819,-18264 -62236,-23321zm-88212 83759c-97338,24374 -160100,113677 -136112,213531 19124,79639 105886,159073 211862,134058 82630,-19509 160780,-105129 136214,-212427 -18520,-80858 -105372,-161832 -211964,-135162zm-261994 -443373c-34474,7919 -59142,29109 -74454,50812 -28852,40930 -20240,105219 -20484,166928 -206,51942 -26234,40981 152026,40981 20343,0 40789,-218 61119,39 36707,462 33807,5531 33268,-31330 -565,-38452 3054,-88687 -1002,-125394 -7161,-64790 -73825,-119658 -150473,-102036z"/>
 </g>
</svg>
