<?xml version="1.0" encoding="UTF-8"?>
<!DOCTYPE svg PUBLIC "-//W3C//DTD SVG 1.1//EN" "http://www.w3.org/Graphics/SVG/1.1/DTD/svg11.dtd">
<!-- Creator: CorelDRAW X6 -->
<svg xmlns="http://www.w3.org/2000/svg" xml:space="preserve" width="0.451362in" height="0.524445in" version="1.1" style="shape-rendering:geometricPrecision; text-rendering:geometricPrecision; image-rendering:optimizeQuality; fill-rule:evenodd; clip-rule:evenodd"
viewBox="0 0 141 163"
 xmlns:xlink="http://www.w3.org/1999/xlink">
 <defs>
  <style type="text/css">
   <![CDATA[
    .fil0 {fill:#FDFDFD}
   ]]>
  </style>
 </defs>
 <g id="Layer_x0020_1">
  <metadata id="CorelCorpID_0Corel-Layer"/>
  <path class="fil0" d="M92 125l-9 -8c-2,1 -8,7 -9,9 7,4 15,15 19,16 6,-8 14,-16 21,-23 1,-1 6,-6 7,-8 -2,-2 -6,-7 -9,-8 -4,3 -6,7 -10,11 -3,3 -8,7 -10,11zm14 -47l0 -17 -14 0c-3,-5 4,-28 -6,-43 -19,-30 -69,-22 -72,18 0,4 1,24 0,25 -4,1 -10,0 -14,1l0 79c7,2 53,-1 60,1l6 7c14,19 50,20 66,-2 14,-19 11,-44 -7,-59 -2,-2 -6,-4 -9,-6 -2,-1 -9,-3 -10,-4zm-14 14c-16,4 -27,19 -23,36 3,13 18,26 35,22 14,-3 27,-18 23,-35 -3,-14 -18,-27 -35,-23zm-44 -73c-5,1 -9,5 -12,8 -5,7 -3,18 -3,28 0,9 -5,7 25,7 3,0 7,0 10,0 6,0 5,1 5,-5 0,-7 1,-15 0,-21 -1,-11 -12,-20 -25,-17z"/>
 </g>
</svg>
