<?xml version="1.0" encoding="UTF-8"?>
<!DOCTYPE svg PUBLIC "-//W3C//DTD SVG 1.1//EN" "http://www.w3.org/Graphics/SVG/1.1/DTD/svg11.dtd">
<!-- Creator: CorelDRAW X6 -->
<svg xmlns="http://www.w3.org/2000/svg" xml:space="preserve" width="100px" height="100px" version="1.1" style="shape-rendering:geometricPrecision; text-rendering:geometricPrecision; image-rendering:optimizeQuality; fill-rule:evenodd; clip-rule:evenodd"
viewBox="0 0 1000000 1000000"
 xmlns:xlink="http://www.w3.org/1999/xlink">
 <defs>
  <style type="text/css">
   <![CDATA[
    .fil0 {fill:none}
    .fil1 {fill:#1E142D}
   ]]>
  </style>
 </defs>
 <g id="Layer_x0020_1">
  <metadata id="CorelCorpID_0Corel-Layer"/>
  <rect class="fil0" x="1649" y="1425" width="1000000" height="999653"/>
  <path class="fil1" d="M464692 6263c-23411,3376 -37708,-2079 -46025,21999 -25246,72991 -6020,55844 -108415,98493 -23012,9588 -29584,10768 -51646,-796 -61966,-32497 -49067,-31470 -124137,43741 -38427,38491 -37683,35270 -8651,89239 12758,23719 9524,30380 -13,52738 -47052,110275 -22999,78420 -99840,107837 -20947,8021 -18418,24103 -20138,49721 -1412,20805 -1271,45255 167,66368 1630,23950 -911,39685 20664,47566 13502,4941 42662,11474 52070,17737 21626,14439 35103,61709 47257,90202 9665,22666 12386,28467 -346,52789 -27788,53071 -30393,49709 10396,90228 12270,12206 22640,22691 34871,34923 40109,40057 37272,33203 90421,5968 30302,-15530 53764,2952 101958,22666 49786,20382 37503,30521 56665,80242 7188,18675 27800,17353 50890,18508 22666,1142 46371,1245 68729,-552 25439,-2041 36836,-359 44434,-23192 24206,-72619 8676,-54958 109557,-97672 25502,-10794 29943,-8651 51993,2605 59976,30585 45101,31240 125125,-48271 38491,-38234 30508,-36501 3799,-89586 -11359,-22589 -4723,-33999 3658,-53815 13309,-31497 25451,-75725 49773,-87443 47193,-22743 66624,2952 69461,-69898 834,-21677 1129,-48142 -770,-69628 -2105,-23744 -2888,-33793 -25400,-41019 -71951,-23090 -54534,-10691 -96953,-110763 -21036,-49632 30354,-67536 21318,-104372 -3260,-13309 -55112,-60400 -67022,-72464 -37786,-38260 -40930,-27659 -89638,-2169 -27530,14400 -58692,-6482 -100623,-23706 -53341,-21909 -36618,-34974 -56434,-80833 -7765,-18007 -29661,-16608 -50351,-18507 -21408,-1964 -46987,-1746 -66804,1116zm-226455 486293l13 18007c115,131388 122083,252881 252856,252881l22524 0c126075,0 249724,-121159 249801,-250622l0 -22512c65,-126332 -118887,-251957 -254306,-251919l-18019 0c-130028,39 -252972,122725 -252869,254165z"/>
 </g>
</svg>
