<?xml version="1.0" encoding="utf-8"?>
<!-- Generator: Adobe Illustrator 15.0.0, SVG Export Plug-In . SVG Version: 6.00 Build 0)  -->
<!DOCTYPE svg PUBLIC "-//W3C//DTD SVG 1.1//EN" "http://www.w3.org/Graphics/SVG/1.1/DTD/svg11.dtd">
<svg version="1.1" id="primary" xmlns="http://www.w3.org/2000/svg" xmlns:xlink="http://www.w3.org/1999/xlink" x="0px" y="0px"
	 width="100px" height="100px" viewBox="0 0 100 100" enable-background="new 0 0 100 100" xml:space="preserve">
<path fill="#1E142D" d="M46.406,1.621c-2.315,0.334-3.728-0.206-4.55,2.174c-2.496,7.215-0.595,5.521-10.716,9.736
	c-2.275,0.948-2.924,1.065-5.106-0.078c-6.125-3.213-4.85-3.111-12.271,4.323c-3.799,3.805-3.724,3.486-0.855,8.822
	c1.262,2.344,0.941,3.002-0.001,5.212c-4.65,10.9-2.274,7.752-9.868,10.66c-2.071,0.792-1.821,2.382-1.992,4.915
	c-0.139,2.057-0.125,4.474,0.017,6.562c0.162,2.367-0.089,3.922,2.043,4.7c1.333,0.489,4.217,1.136,5.146,1.755
	c2.138,1.426,3.47,6.099,4.671,8.916c0.956,2.24,1.225,2.813-0.034,5.218c-2.747,5.245-3.003,4.913,1.027,8.919
	c1.213,1.205,2.238,2.242,3.447,3.451c3.965,3.96,3.685,3.281,8.938,0.59c2.996-1.535,5.314,0.292,10.077,2.24
	c4.922,2.016,3.708,3.018,5.602,7.932c0.71,1.846,2.748,1.715,5.031,1.83c0.983,0.049,1.989,0.078,2.993,0.082V76.465h-0.99
	c-12.926,0-24.983-12.01-24.994-24.996l-0.001-1.779h-0.001c-0.01-12.992,12.143-25.12,24.996-25.124h1.781
	c13.386-0.003,25.145,12.414,25.137,24.901v2.225c-0.007,12.796-12.229,24.772-24.691,24.772h-1.215v23.113
	c1.273,0.002,2.547-0.037,3.779-0.137c2.515-0.202,3.642-0.035,4.392-2.293c2.393-7.178,0.858-5.432,10.829-9.654
	c2.521-1.066,2.961-0.855,5.139,0.258c5.93,3.023,4.459,3.088,12.369-4.771c3.805-3.779,3.016-3.608,0.376-8.855
	c-1.124-2.232-0.468-3.361,0.361-5.319c1.315-3.113,2.516-7.485,4.921-8.644c4.664-2.248,6.584,0.292,6.865-6.909
	c0.082-2.143,0.111-4.759-0.076-6.882c-0.209-2.347-0.286-3.34-2.512-4.055c-7.111-2.282-5.391-1.057-9.582-10.947
	c-2.08-4.907,3-6.677,2.107-10.317c-0.322-1.315-5.449-5.97-6.627-7.163c-3.734-3.782-4.045-2.734-8.859-0.214
	c-2.721,1.423-5.801-0.642-9.945-2.343c-5.273-2.167-3.621-3.458-5.579-7.99c-0.768-1.78-2.933-1.642-4.978-1.83
	C50.892,1.316,48.364,1.338,46.406,1.621L46.406,1.621z"/>
</svg>
