<?xml version="1.0" encoding="UTF-8"?>
<!DOCTYPE svg PUBLIC "-//W3C//DTD SVG 1.1//EN" "http://www.w3.org/Graphics/SVG/1.1/DTD/svg11.dtd">
<!-- Creator: CorelDRAW X6 -->
<svg xmlns="http://www.w3.org/2000/svg" xml:space="preserve" width="0.579236in" height="0.579232in" version="1.1" style="shape-rendering:geometricPrecision; text-rendering:geometricPrecision; image-rendering:optimizeQuality; fill-rule:evenodd; clip-rule:evenodd"
viewBox="0 0 5788 5788"
 xmlns:xlink="http://www.w3.org/1999/xlink">
 <defs>
  <style type="text/css">
   <![CDATA[
    .fil0 {fill:#1E142D}
   ]]>
  </style>
 </defs>
 <g id="Layer_x0020_1">
  <metadata id="CorelCorpID_0Corel-Layer"/>
  <path class="fil0" d="M2671 17c-134,16 -217,-17 -267,133 -134,418 -34,317 -618,568 -133,50 -183,67 -300,0 -368,-201 -301,-184 -735,250 -217,217 -217,200 -50,518 84,133 67,183 0,300 -267,651 -133,467 -584,634 -117,50 -100,134 -117,284 0,134 0,267 0,401 17,133 0,217 134,267 66,33 250,67 300,100 117,84 200,367 267,534 67,134 84,167 0,301 -167,317 -167,300 67,534 67,67 133,133 200,200 234,234 217,200 534,34 167,-84 301,16 585,133 283,117 217,184 333,467 34,101 167,101 301,101 133,16 267,16 401,0 150,0 200,0 250,-134 150,-417 50,-317 634,-567 150,-67 184,-51 317,16 334,184 251,184 718,-284 234,-217 184,-217 34,-517 -67,-134 -34,-200 16,-317 67,-184 151,-434 284,-501 284,-133 384,17 401,-417 16,-117 16,-284 0,-401 -17,-133 -17,-200 -151,-234 -417,-150 -317,-66 -567,-651 -117,-283 183,-400 133,-617 -16,-67 -317,-351 -400,-418 -217,-217 -234,-166 -518,-16 -150,83 -334,-34 -584,-134 -317,-133 -217,-200 -334,-467 -33,-100 -167,-100 -284,-117 -133,0 -283,0 -400,17zm-1319 2837l0 101c17,767 718,1469 1486,1469l133 0c735,0 1453,-702 1453,-1453l0 -133c0,-735 -702,-1469 -1486,-1469l-100 0c-768,0 -1486,718 -1486,1485l0 0z"/>
 </g>
</svg>
