<?xml version="1.0" encoding="UTF-8"?>
<!DOCTYPE svg PUBLIC "-//W3C//DTD SVG 1.1//EN" "http://www.w3.org/Graphics/SVG/1.1/DTD/svg11.dtd">
<!-- Creator: CorelDRAW X6 -->
<svg xmlns="http://www.w3.org/2000/svg" xml:space="preserve" width="0.832291in" height="0.465669in" version="1.1" style="shape-rendering:geometricPrecision; text-rendering:geometricPrecision; image-rendering:optimizeQuality; fill-rule:evenodd; clip-rule:evenodd"
viewBox="0 0 966 540"
 xmlns:xlink="http://www.w3.org/1999/xlink">
 <defs>
  <style type="text/css">
   <![CDATA[
    .fil0 {fill:white}
   ]]>
  </style>
 </defs>
 <g id="Layer_x0020_1">
  <metadata id="CorelCorpID_0Corel-Layer"/>
  <path class="fil0" d="M446 314l-187 108 -185 107c-37,20 -76,-9 -74,-43l0 -214 0 -217c1,-36 40,-58 73,-40l186 108 186 107c37,22 28,69 1,84z"/>
  <path class="fil0" d="M820 314l-187 108 -185 107c-37,20 -75,-9 -74,-43l0 -214 0 -217c2,-36 40,-58 73,-40l186 108 186 107c37,22 28,69 1,84z"/>
  <rect class="fil0" x="831" width="135" height="540" rx="29" ry="29"/>
 </g>
</svg>
