<?xml version="1.0" encoding="UTF-8"?>
<!DOCTYPE svg PUBLIC "-//W3C//DTD SVG 1.1//EN" "http://www.w3.org/Graphics/SVG/1.1/DTD/svg11.dtd">
<!-- Creator: CorelDRAW X6 -->
<svg xmlns="http://www.w3.org/2000/svg" xml:space="preserve" width="0.502524in" height="0.477921in" version="1.1" style="shape-rendering:geometricPrecision; text-rendering:geometricPrecision; image-rendering:optimizeQuality; fill-rule:evenodd; clip-rule:evenodd"
viewBox="0 0 5026 4780"
 xmlns:xlink="http://www.w3.org/1999/xlink">
 <defs>
  <style type="text/css">
   <![CDATA[
    .fil0 {fill:#2B2A29}
   ]]>
  </style>
 </defs>
 <g id="Layer_x0020_1">
  <metadata id="CorelCorpID_0Corel-Layer"/>
  <path class="fil0" d="M1734 1570c-253,26 -1462,45 -1574,84 -134,46 -209,207 -123,348 44,73 749,628 914,763 385,316 357,121 199,716l-83 348c-18,44 -30,56 -46,105 -42,143 -82,311 -122,460 -20,77 -46,176 -7,258 138,297 503,-10 575,-56 151,-95 918,-618 1041,-674 63,37 114,69 178,98 29,13 14,2 43,20 62,37 2,-2 50,38 42,35 33,30 82,67l432 277c3,2 9,6 14,9l128 86c26,16 26,14 56,30 130,72 318,300 506,214 170,-79 154,-214 117,-363 -47,-193 -358,-1269 -359,-1383l668 -538c113,-89 218,-179 330,-272 415,-335 246,-328 202,-412 -24,-42 -16,-65 -30,-112 -180,-72 -554,-48 -800,-69 -281,-23 -569,-14 -843,-44 -96,-130 -495,-1353 -593,-1488 -47,-62 -123,-92 -209,-76 -63,12 -84,5 -139,67 -56,61 -68,110 -103,198 -74,190 -446,1220 -504,1301l0 0z"/>
 </g>
</svg>
