<?xml version="1.0" encoding="UTF-8"?>
<!DOCTYPE svg PUBLIC "-//W3C//DTD SVG 1.1//EN" "http://www.w3.org/Graphics/SVG/1.1/DTD/svg11.dtd">
<!-- Creator: CorelDRAW X6 -->
<svg xmlns="http://www.w3.org/2000/svg" xml:space="preserve" width="100px" height="100px" version="1.1" style="shape-rendering:geometricPrecision; text-rendering:geometricPrecision; image-rendering:optimizeQuality; fill-rule:evenodd; clip-rule:evenodd"
viewBox="0 0 1000000 1000000"
 xmlns:xlink="http://www.w3.org/1999/xlink">
 <defs>
  <style type="text/css">
   <![CDATA[
    .fil0 {fill:none}
    .fil1 {fill:#3A3146}
   ]]>
  </style>
 </defs>
 <g id="Layer_x0020_1">
  <metadata id="CorelCorpID_0Corel-Layer"/>
  <rect class="fil0" x="1649" y="1425" width="1000000" height="999653"/>
  <path class="fil1" d="M346202 336859c-50055,5108 -289845,9061 -312062,16710 -26298,9036 -41481,41007 -24488,68768 8907,14542 148689,124433 181212,151180 76367,62826 70732,23949 39364,142131l-16236 68871c-3619,8509 -5942,10986 -8920,20818 -8509,28056 -16441,61516 -24386,90959 -4107,15235 -9074,34731 -1399,51159 27454,58808 99854,-2079 114011,-11051 29840,-18905 181867,-122481 206304,-133686 12552,7483 22409,13605 35052,19406 5929,2721 2798,539 8779,4056 12244,7213 410,-436 9626,7508 8239,7098 6738,6084 16492,13156l85530 54984c770,500 1810,1193 2567,1707l25541 17211c5301,3055 5314,2759 10948,5904 25785,14375 63057,59412 100303,42252 33678,-15517 30662,-42149 23308,-71900 -9421,-38145 -71014,-251560 -71387,-274174l132570 -106451c22447,-17571 43098,-35257 65610,-53585 42599,-34692 53970,-50953 53855,-60913 3170,-22615 -3658,-36887 -20048,-43214 -35847,-14439 -109672,-9280 -158508,-13490 -55472,-4787 -112766,-2798 -166838,-8701 -19303,-25772 -98147,-268450 -117771,-294915 -9228,-12450 -24155,-18097 -41456,-14940 -12347,2259 -16441,770 -27389,13079 -10884,12231 -13618,21729 -20446,39428 -14477,37477 -88495,241625 -99738,257733z"/>
 </g>
</svg>
