<?xml version="1.0" encoding="UTF-8"?>
<!DOCTYPE svg PUBLIC "-//W3C//DTD SVG 1.1//EN" "http://www.w3.org/Graphics/SVG/1.1/DTD/svg11.dtd">
<!-- Creator: CorelDRAW X6 -->
<svg xmlns="http://www.w3.org/2000/svg" xml:space="preserve" width="0.502567in" height="0.477878in" version="1.1" style="shape-rendering:geometricPrecision; text-rendering:geometricPrecision; image-rendering:optimizeQuality; fill-rule:evenodd; clip-rule:evenodd"
viewBox="0 0 2863 2723"
 xmlns:xlink="http://www.w3.org/1999/xlink">
 <defs>
  <style type="text/css">
   <![CDATA[
    .fil0 {fill:#5E0C7B}
   ]]>
  </style>
 </defs>
 <g id="Layer_x0020_1">
  <metadata id="CorelCorpID_0Corel-Layer"/>
  <path class="fil0" d="M988 894c-144,15 -833,26 -897,48 -76,26 -119,118 -70,198 25,42 427,358 521,435 219,180 203,69 113,408l-47 198c-10,25 -17,32 -26,60 -24,81 -47,177 -70,262 -11,44 -26,100 -4,147 79,169 287,-6 328,-32 86,-54 523,-352 593,-384 36,21 65,39 101,56 17,7 8,1 25,11 35,21 1,-1 28,22 24,20 19,17 47,38l246 158c2,1 5,3 8,5l73 49c15,9 15,8 32,17 74,41 181,171 288,122 97,-45 88,-122 67,-207 -27,-110 -204,-723 -205,-788l381 -306c64,-51 124,-102 188,-155 236,-191 140,-187 115,-235 -14,-24 -9,-37 -17,-64 -103,-41 -316,-27 -456,-39 -160,-13 -324,-8 -480,-25 -55,-74 -282,-771 -338,-848 -27,-35 -70,-52 -119,-43 -36,7 -48,3 -79,38 -32,35 -39,63 -59,113 -42,108 -254,695 -287,741z"/>
 </g>
</svg>
