<?xml version="1.0" encoding="utf-8"?>
<!-- Generator: Adobe Illustrator 15.0.0, SVG Export Plug-In . SVG Version: 6.00 Build 0)  -->
<!DOCTYPE svg PUBLIC "-//W3C//DTD SVG 1.1//EN" "http://www.w3.org/Graphics/SVG/1.1/DTD/svg11.dtd">
<svg version="1.1" id="primary" xmlns="http://www.w3.org/2000/svg" xmlns:xlink="http://www.w3.org/1999/xlink" x="0px" y="0px"
	 width="100px" height="100px" viewBox="0 0 100 100" enable-background="new 0 0 100 100" xml:space="preserve">
<path fill="#5E0C7B" d="M34.62,33.686c-5.005,0.511-28.984,0.906-31.206,1.671c-2.63,0.904-4.148,4.101-2.449,6.877
	c0.891,1.454,14.869,12.443,18.121,15.118c7.637,6.283,7.073,2.395,3.937,14.213l-1.624,6.888c-0.362,0.851-0.594,1.099-0.892,2.081
	c-0.851,2.807-1.644,6.152-2.439,9.096c-0.411,1.524-0.907,3.474-0.14,5.117c2.746,5.881,9.985-0.209,11.401-1.105
	c2.984-1.891,18.187-12.248,20.63-13.369c1.255,0.748,2.241,1.361,3.505,1.941c0.594,0.271,0.28,0.053,0.879,0.405
	c1.225,0.722,0.041-0.044,0.962,0.751c0.824,0.709,0.674,0.607,1.649,1.315l8.553,5.498c0.077,0.05,0.182,0.12,0.257,0.171
	l2.554,1.721c0.531,0.306,0.531,0.276,1.096,0.591c2.578,1.438,6.305,5.941,10.029,4.226c3.369-1.553,3.066-4.215,2.332-7.19
	c-0.943-3.814-7.102-25.156-7.139-27.417l13.256-10.646c2.245-1.757,4.311-3.526,6.562-5.358c4.26-3.469,5.397-5.095,5.386-6.091
	c0.316-2.262-0.366-3.689-2.005-4.321c-3.585-1.444-10.968-0.928-15.851-1.349c-5.547-0.479-11.277-0.28-16.684-0.87
	C63.37,31.07,55.485,6.802,53.523,4.156c-0.924-1.245-2.416-1.81-4.146-1.494c-1.235,0.226-1.644,0.077-2.739,1.308
	c-1.088,1.223-1.362,2.173-2.044,3.943C43.146,11.66,35.745,32.075,34.62,33.686z"/>
</svg>
