<?xml version="1.0" encoding="utf-8"?>
<!-- Generator: Adobe Illustrator 15.0.0, SVG Export Plug-In . SVG Version: 6.00 Build 0)  -->
<!DOCTYPE svg PUBLIC "-//W3C//DTD SVG 1.1//EN" "http://www.w3.org/Graphics/SVG/1.1/DTD/svg11.dtd">
<svg version="1.1" id="primary" xmlns="http://www.w3.org/2000/svg" xmlns:xlink="http://www.w3.org/1999/xlink" x="0px" y="0px"
	 width="100px" height="100px" viewBox="0 0 100 100" enable-background="new 0 0 100 100" xml:space="preserve">
<path d="M34.667,32.904c-4.989,0.51-28.884,0.903-31.098,1.665c-2.621,0.902-4.134,4.086-2.44,6.854
	c0.887,1.449,14.818,12.399,18.057,15.065c7.611,6.26,7.05,2.387,3.923,14.164l-1.618,6.863c-0.361,0.846-0.592,1.094-0.888,2.073
	c-0.849,2.797-1.638,6.13-2.43,9.063c-0.411,1.52-0.905,3.461-0.14,5.099c2.735,5.86,9.951-0.207,11.361-1.101
	c2.974-1.884,18.124-12.205,20.559-13.322c1.25,0.744,2.234,1.355,3.493,1.934c0.591,0.271,0.28,0.054,0.875,0.404
	c1.221,0.719,0.041-0.044,0.96,0.748c0.82,0.709,0.672,0.607,1.642,1.312l8.524,5.479c0.076,0.05,0.18,0.119,0.256,0.169
	l2.545,1.715c0.529,0.306,0.53,0.276,1.092,0.589c2.568,1.433,6.283,5.921,9.994,4.211c3.355-1.547,3.056-4.2,2.322-7.165
	c-0.938-3.802-7.075-25.069-7.113-27.323l13.211-10.605c2.236-1.752,4.295-3.515,6.539-5.341c4.444-3.62,5.478-5.228,5.356-6.207
	c0.599-0.946-0.883-3.927-1.989-4.17c-0.388-0.157-0.82-0.29-1.289-0.403c-3.852-0.934-10.167-0.567-14.506-0.94
	c-5.528-0.476-11.236-0.279-16.625-0.866c-1.923-2.568-9.781-26.753-11.736-29.389c-0.919-1.241-2.406-1.803-4.131-1.489
	c-1.23,0.225-1.639,0.077-2.729,1.303c-1.084,1.219-1.358,2.165-2.038,3.929C43.163,10.956,35.788,31.3,34.667,32.904z"/>
</svg>
