<?xml version="1.0" encoding="UTF-8"?>
<!DOCTYPE svg PUBLIC "-//W3C//DTD SVG 1.1//EN" "http://www.w3.org/Graphics/SVG/1.1/DTD/svg11.dtd">
<!-- Creator: CorelDRAW X6 -->
<svg xmlns="http://www.w3.org/2000/svg" xml:space="preserve" width="0.502567in" height="0.477878in" version="1.1" style="shape-rendering:geometricPrecision; text-rendering:geometricPrecision; image-rendering:optimizeQuality; fill-rule:evenodd; clip-rule:evenodd"
viewBox="0 0 173 164"
 xmlns:xlink="http://www.w3.org/1999/xlink">
 <defs>
  <style type="text/css">
   <![CDATA[
    .fil0 {fill:#FEFEFE}
   ]]>
  </style>
 </defs>
 <g id="Layer_x0020_1">
  <metadata id="CorelCorpID_0Corel-Layer"/>
  <path class="fil0" d="M60 54c-9,1 -51,2 -55,3 -4,1 -7,7 -4,12 2,2 26,21 32,26 13,11 12,4 7,25l-3 12c-1,1 -1,2 -2,3 -1,5 -3,11 -4,16 -1,3 -2,6 0,9 4,10 17,0 19,-2 6,-3 32,-21 36,-23 2,1 4,2 6,3 1,1 1,0 2,1 2,1 0,0 2,1 1,1 1,1 2,2l15 10c0,0 1,0 1,0l4 3c1,1 1,1 2,1 4,3 11,11 17,8 6,-3 6,-8 4,-13 -1,-6 -12,-43 -12,-47l23 -19c4,-3 8,-6 11,-9 15,-12 9,-12 7,-14 0,-2 0,-3 -1,-4 -6,-3 -19,-2 -27,-3 -10,0 -20,0 -29,-1 -3,-5 -17,-47 -21,-51 -1,-2 -4,-3 -7,-3 -2,1 -3,0 -5,2 -1,3 -2,4 -3,7 -3,7 -15,42 -17,45z"/>
 </g>
</svg>
