<?xml version="1.0" encoding="UTF-8"?>
<!DOCTYPE svg PUBLIC "-//W3C//DTD SVG 1.1//EN" "http://www.w3.org/Graphics/SVG/1.1/DTD/svg11.dtd">
<!-- Creator: CorelDRAW X6 -->
<svg xmlns="http://www.w3.org/2000/svg" xml:space="preserve" width="100px" height="100px" version="1.1" style="shape-rendering:geometricPrecision; text-rendering:geometricPrecision; image-rendering:optimizeQuality; fill-rule:evenodd; clip-rule:evenodd"
viewBox="0 0 1000000 1000000"
 xmlns:xlink="http://www.w3.org/1999/xlink">
 <defs>
  <style type="text/css">
   <![CDATA[
    .fil0 {fill:none}
    .fil1 {fill:black}
   ]]>
  </style>
 </defs>
 <g id="Layer_x0020_1">
  <metadata id="CorelCorpID_0Corel-Layer"/>
  <rect class="fil0" x="1649" y="1425" width="1000000" height="999653"/>
  <path class="fil1" d="M346677 329042c-49888,5096 -288844,9036 -310984,16647 -26208,9023 -41340,40865 -24398,68537 8868,14490 148176,123996 180570,150653 76110,62608 70501,23873 39236,141644l-16185 68627c-3606,8470 -5916,10947 -8881,20740 -8484,27967 -16377,61299 -24296,90639 -4107,15183 -9049,34602 -1399,50979 27351,58603 99507,-2066 113612,-10999 29738,-18842 181239,-122058 205586,-133224 12501,7444 22332,13553 34923,19329 5904,2721 2798,539 8753,4043 12206,7187 411,-437 9601,7482 8201,7085 6712,6071 16415,13117l85248 54792c757,500 1797,1193 2554,1694l25451 17147c5288,3055 5301,2759 10910,5891 25695,14324 62838,59206 99943,42111 33563,-15466 30560,-42008 23231,-71656 -9382,-38017 -70758,-250687 -71143,-273225l132108 -106065c22370,-17520 42957,-35142 65392,-53405 44447,-36194 54779,-52276 53572,-62069 5981,-9459 -8830,-39274 -19894,-41700 -3876,-1565 -8201,-2900 -12898,-4030 -38504,-9343 -101664,-5673 -145045,-9408 -55292,-4761 -112367,-2785 -166260,-8663 -19227,-25682 -97813,-267526 -117360,-293888 -9190,-12411 -24065,-18033 -41315,-14888 -12296,2246 -16390,770 -27287,13027 -10845,12193 -13579,21652 -20381,39287 -14426,37349 -88174,240791 -99379,256834z"/>
 </g>
</svg>
