<?xml version="1.0" encoding="UTF-8"?>
<!DOCTYPE svg PUBLIC "-//W3C//DTD SVG 1.1//EN" "http://www.w3.org/Graphics/SVG/1.1/DTD/svg11.dtd">
<!-- Creator: CorelDRAW X6 -->
<svg xmlns="http://www.w3.org/2000/svg" xml:space="preserve" width="0.456189in" height="0.413039in" version="1.1" style="shape-rendering:geometricPrecision; text-rendering:geometricPrecision; image-rendering:optimizeQuality; fill-rule:evenodd; clip-rule:evenodd"
viewBox="0 0 4568 4136"
 xmlns:xlink="http://www.w3.org/1999/xlink">
 <defs>
  <style type="text/css">
   <![CDATA[
    .fil0 {fill:#2B2A29}
   ]]>
  </style>
 </defs>
 <g id="Layer_x0020_1">
  <metadata id="CorelCorpID_0Corel-Layer"/>
  <path class="fil0" d="M2234 2c-301,64 -428,317 -554,554 -142,221 -269,443 -395,680 -143,221 -269,459 -396,680 -79,111 -142,237 -205,348 -174,301 -443,743 -601,1028 -64,127 -111,301 -64,459 127,474 823,364 1250,379 364,0 727,0 1091,0 348,0 712,0 1075,0 333,0 728,48 949,-126 269,-206 206,-506 48,-791 -253,-443 -538,-933 -791,-1376 -126,-237 -269,-474 -395,-696 -95,-190 -380,-680 -491,-854 -47,-63 -79,-95 -126,-142 -95,-95 -222,-158 -396,-143l1 0zm0 3069c-443,79 -301,711 110,632 158,-31 285,-174 253,-379 -31,-158 -174,-285 -364,-253l1 0zm-285 -2309c-253,63 -158,332 -143,553 32,174 143,1329 174,1376 48,95 127,142 254,142 142,0 237,0 316,-79 63,-79 63,-190 79,-316l158 -1376c48,-364 -253,-316 -459,-316 -94,0 -316,0 -379,16l0 0z"/>
 </g>
</svg>
