<?xml version="1.0" encoding="UTF-8"?>
<!DOCTYPE svg PUBLIC "-//W3C//DTD SVG 1.1//EN" "http://www.w3.org/Graphics/SVG/1.1/DTD/svg11.dtd">
<!-- Creator: CorelDRAW X6 -->
<svg xmlns="http://www.w3.org/2000/svg" xml:space="preserve" width="0.456319in" height="0.413787in" version="1.1" style="shape-rendering:geometricPrecision; text-rendering:geometricPrecision; image-rendering:optimizeQuality; fill-rule:evenodd; clip-rule:evenodd"
viewBox="0 0 288 262"
 xmlns:xlink="http://www.w3.org/1999/xlink">
 <defs>
  <style type="text/css">
   <![CDATA[
    .fil0 {fill:white}
   ]]>
  </style>
 </defs>
 <g id="Layer_x0020_1">
  <metadata id="CorelCorpID_0Corel-Layer"/>
  <path class="fil0" d="M141 0c-19,4 -27,20 -35,35 -9,14 -17,28 -25,43 -9,14 -17,29 -25,43 -5,7 -9,15 -13,22 -11,19 -28,47 -38,65 -4,8 -7,19 -4,29 8,30 52,23 79,24 23,0 46,0 69,0 22,0 45,0 68,0 21,0 46,3 60,-8 17,-13 13,-32 3,-50 -16,-28 -34,-59 -50,-87 -8,-15 -17,-30 -25,-44 -6,-12 -24,-43 -31,-54 -3,-4 -5,-6 -8,-9 -6,-6 -14,-10 -25,-9zm0 194c-28,5 -19,45 7,40 10,-2 18,-11 16,-24 -2,-10 -11,-18 -23,-16zm-18 -146c-16,4 -10,21 -9,35 2,11 9,84 11,87 3,6 8,9 16,9 9,0 15,0 20,-5 4,-5 4,-12 5,-20l10 -87c3,-23 -16,-20 -29,-20 -6,0 -20,0 -24,1z"/>
 </g>
</svg>
