<?xml version="1.0" encoding="utf-8"?>
<!-- Generator: Adobe Illustrator 15.0.0, SVG Export Plug-In . SVG Version: 6.00 Build 0)  -->
<!DOCTYPE svg PUBLIC "-//W3C//DTD SVG 1.1//EN" "http://www.w3.org/Graphics/SVG/1.1/DTD/svg11.dtd">
<svg version="1.1" xmlns="http://www.w3.org/2000/svg" xmlns:xlink="http://www.w3.org/1999/xlink" x="0px" y="0px" width="100px"
	 height="100px" viewBox="0 0 100 100" enable-background="new 0 0 100 100" xml:space="preserve">
<g id="primary">
	<path fill="#DE0029" d="M27.638,70.402c5.538,6.029,13.487,9.809,22.318,9.809c12.401,0,23.06-7.45,27.749-18.118l3.104,13.972
		l13.318-2.957c-8.352,15.867-24.995,26.688-44.171,26.688c-16.268,0-30.715-7.788-39.821-19.837l4.326-13.74L27.638,70.402z"/>
</g>
<g id="secondary_1_">
	<path fill="#5E0C7B" d="M42.937,20.43c-13.349,3.167-23.281,15.164-23.281,29.481c0,5.96,1.723,11.517,4.694,16.204l-12.067-3.799
		L7.928,76.143l-0.136,0.435c-4.888-7.713-7.72-16.857-7.72-26.665c0-25.477,19.098-46.489,43.759-49.509l9.591,10.459L42.937,20.43
		z"/>
</g>
<g id="tertiary">
	<path fill="#00A39E" d="M49.957,0.027c27.551,0,49.884,22.333,49.884,49.884c0,6.909-1.403,13.489-3.944,19.472l-12.795,2.842
		l-3.51-15.979c0.434-2.042,0.664-4.161,0.664-6.333c0-16.733-13.564-30.3-30.299-30.3c-0.53,0-1.057,0.014-1.579,0.041l9.515-8.728
		L48.095,0.24l-0.156-0.169C48.609,0.045,49.28,0.027,49.957,0.027z"/>
</g>
<g id="quaternary">
	<g id="secondary">
		<path fill="#FEFEFE" d="M88.242,58.625c-0.264-0.057-0.485-0.146-0.665-0.271c-0.179-0.123-0.317-0.274-0.413-0.453
			c-0.098-0.18-0.154-0.385-0.174-0.614c-0.018-0.231,0.003-0.481,0.061-0.752c0.025-0.123,0.063-0.267,0.107-0.429
			c0.044-0.162,0.101-0.318,0.168-0.471l2.971,0.635c-0.005,0.164-0.021,0.334-0.046,0.508c-0.026,0.175-0.054,0.322-0.079,0.445
			c-0.056,0.262-0.137,0.492-0.24,0.692s-0.234,0.362-0.395,0.489c-0.159,0.125-0.346,0.207-0.561,0.248
			C88.764,58.693,88.518,58.684,88.242,58.625z M87.697,56.434c-0.01,0.029-0.02,0.067-0.03,0.109
			c-0.011,0.043-0.021,0.093-0.034,0.15c-0.072,0.346-0.041,0.617,0.098,0.82c0.138,0.202,0.357,0.338,0.664,0.4
			c0.318,0.068,0.578,0.041,0.777-0.082c0.197-0.123,0.333-0.355,0.406-0.7c0.01-0.047,0.02-0.096,0.027-0.146
			c0.012-0.051,0.018-0.098,0.02-0.145L87.697,56.434z"/>
		<polygon fill="#FEFEFE" points="90.527,54.551 90.449,55.25 87.35,54.905 87.428,54.207 		"/>
		<path fill="#FEFEFE" d="M87.561,53.063c0.109-0.027,0.224-0.059,0.34-0.092c0.115-0.033,0.231-0.065,0.348-0.098l0.072-1.217
			c-0.11-0.045-0.223-0.094-0.334-0.139c-0.111-0.048-0.221-0.09-0.325-0.132l0.043-0.727c0.328,0.137,0.631,0.267,0.909,0.389
			c0.279,0.121,0.541,0.241,0.785,0.356c0.246,0.115,0.479,0.229,0.699,0.342c0.221,0.109,0.437,0.227,0.646,0.344l-0.039,0.663
			c-0.224,0.09-0.449,0.179-0.683,0.265c-0.232,0.086-0.477,0.17-0.733,0.256c-0.259,0.086-0.533,0.172-0.822,0.262
			c-0.292,0.088-0.608,0.181-0.95,0.277L87.561,53.063z M90.018,52.365c-0.043-0.018-0.104-0.045-0.18-0.079
			c-0.076-0.035-0.164-0.075-0.266-0.12c-0.098-0.045-0.209-0.096-0.328-0.148c-0.119-0.055-0.244-0.11-0.377-0.168l-0.055,0.89
			c0.139-0.038,0.271-0.076,0.396-0.115c0.124-0.035,0.238-0.071,0.346-0.104c0.104-0.035,0.196-0.063,0.275-0.092
			C89.91,52.402,89.973,52.381,90.018,52.365z"/>
		<path fill="#FEFEFE" d="M90.852,49.347c-0.006,0.466-0.09,0.821-0.256,1.069s-0.435,0.369-0.807,0.365
			c-0.375-0.002-0.645-0.133-0.809-0.385c-0.164-0.254-0.244-0.615-0.24-1.083l0.002-0.221l-1.045-0.009l0.008-0.702l3.074,0.028
			c0.027,0.154,0.048,0.316,0.059,0.488C90.848,49.068,90.854,49.218,90.852,49.347z M90.252,49.387c0-0.052,0-0.102-0.002-0.15
			c-0.003-0.05-0.006-0.092-0.008-0.128L89.341,49.1l-0.001,0.22c-0.003,0.243,0.027,0.426,0.094,0.549
			c0.064,0.125,0.188,0.186,0.367,0.188c0.088,0,0.158-0.014,0.217-0.045c0.058-0.032,0.104-0.076,0.14-0.135
			c0.034-0.058,0.059-0.128,0.071-0.213C90.243,49.582,90.251,49.489,90.252,49.387z"/>
		<path fill="#FEFEFE" d="M90.048,45.435c-0.03-0.326-0.144-0.553-0.336-0.682c-0.194-0.128-0.448-0.178-0.763-0.148
			c-0.151,0.014-0.289,0.045-0.409,0.091c-0.12,0.048-0.222,0.112-0.306,0.191c-0.084,0.079-0.145,0.176-0.185,0.289
			c-0.038,0.112-0.053,0.239-0.038,0.383c0.008,0.078,0.014,0.144,0.021,0.199c0.007,0.055,0.02,0.104,0.029,0.145l1.082-0.1
			l0.063,0.7l-1.538,0.141c-0.039-0.081-0.087-0.212-0.143-0.394c-0.053-0.181-0.094-0.408-0.119-0.68
			c-0.02-0.234-0.004-0.448,0.051-0.645c0.053-0.196,0.145-0.368,0.27-0.515s0.283-0.267,0.478-0.358
			c0.194-0.093,0.419-0.149,0.676-0.173c0.261-0.023,0.494-0.005,0.701,0.058c0.209,0.063,0.39,0.158,0.539,0.285
			c0.151,0.127,0.272,0.284,0.362,0.466c0.088,0.184,0.143,0.382,0.162,0.598c0.015,0.146,0.017,0.28,0.008,0.399
			c-0.008,0.12-0.021,0.224-0.038,0.311c-0.019,0.087-0.037,0.161-0.06,0.218c-0.023,0.057-0.041,0.099-0.053,0.125l-0.578-0.15
			c0.041-0.1,0.075-0.214,0.102-0.342C90.055,45.718,90.061,45.581,90.048,45.435z"/>
		<path fill="#FEFEFE" d="M87.076,42.869c0.313-0.266,0.617-0.547,0.912-0.843c0.297-0.296,0.572-0.603,0.826-0.921l-2.006,0.391
			l-0.134-0.68l3.062-0.598l0.109,0.561c-0.078,0.117-0.176,0.248-0.296,0.393c-0.116,0.145-0.243,0.295-0.382,0.448
			c-0.136,0.154-0.277,0.308-0.428,0.462c-0.148,0.154-0.293,0.3-0.432,0.438l1.808-0.353l0.134,0.684l-3.063,0.598L87.076,42.869z"
			/>
		<polygon fill="#FEFEFE" points="89.329,38.69 89.498,39.372 86.471,40.123 86.303,39.441 		"/>
		<polygon fill="#FEFEFE" points="89.16,37.944 88.596,38.146 88.279,37.259 85.904,38.107 85.669,37.446 88.043,36.598 
			87.727,35.712 88.291,35.511 		"/>
		<polygon fill="#FEFEFE" points="88.146,35.082 87.593,35.312 87.232,34.443 84.904,35.407 84.637,34.759 86.965,33.794 
			86.604,32.925 87.158,32.696 		"/>
		<polygon fill="#FEFEFE" points="83.154,31.702 85.906,30.231 86.898,32.088 86.379,32.367 85.717,31.128 85.178,31.417 
			85.766,32.517 85.257,32.788 84.669,31.689 84.006,32.043 84.717,33.373 84.197,33.65 		"/>
		<path fill="#FEFEFE" d="M84.557,28.952c-0.168-0.281-0.365-0.436-0.598-0.468c-0.229-0.031-0.48,0.033-0.75,0.196
			c-0.131,0.079-0.242,0.166-0.33,0.259c-0.089,0.095-0.152,0.196-0.193,0.306c-0.039,0.108-0.053,0.221-0.041,0.339
			c0.015,0.118,0.058,0.239,0.131,0.362c0.041,0.068,0.076,0.125,0.107,0.169c0.03,0.046,0.061,0.086,0.092,0.117l0.93-0.557
			l0.361,0.602l-1.326,0.793c-0.071-0.055-0.17-0.153-0.299-0.293c-0.127-0.141-0.263-0.328-0.402-0.562
			c-0.119-0.2-0.197-0.402-0.234-0.602c-0.035-0.2-0.029-0.394,0.02-0.581c0.049-0.188,0.143-0.363,0.276-0.529
			c0.136-0.167,0.312-0.315,0.534-0.449c0.223-0.134,0.441-0.218,0.656-0.252c0.215-0.033,0.418-0.025,0.609,0.023
			c0.19,0.049,0.366,0.137,0.527,0.263c0.159,0.127,0.296,0.282,0.405,0.468c0.075,0.126,0.137,0.245,0.18,0.357
			c0.045,0.111,0.077,0.21,0.101,0.296c0.021,0.087,0.037,0.16,0.041,0.222c0.006,0.062,0.008,0.106,0.008,0.135l-0.588,0.115
			c-0.004-0.108-0.023-0.226-0.057-0.352C84.688,29.205,84.633,29.078,84.557,28.952z"/>
		<path fill="#FEFEFE" d="M80.326,26.343c0.059,0.08,0.113,0.141,0.165,0.182c0.053,0.042,0.102,0.071,0.147,0.085
			c0.047,0.015,0.088,0.017,0.129,0.005c0.041-0.01,0.08-0.031,0.119-0.059c0.081-0.06,0.12-0.15,0.118-0.267
			c-0.004-0.117-0.043-0.294-0.118-0.527c-0.033-0.104-0.06-0.21-0.082-0.319c-0.023-0.11-0.031-0.218-0.021-0.326
			c0.008-0.106,0.037-0.21,0.088-0.312c0.051-0.1,0.134-0.194,0.249-0.28c0.116-0.084,0.235-0.14,0.362-0.166
			c0.123-0.026,0.248-0.022,0.373,0.009c0.123,0.032,0.244,0.091,0.365,0.178c0.116,0.088,0.229,0.203,0.334,0.345
			c0.125,0.169,0.215,0.329,0.27,0.479c0.056,0.149,0.09,0.28,0.105,0.392l-0.564,0.167c-0.018-0.098-0.041-0.199-0.077-0.304
			c-0.036-0.106-0.099-0.22-0.188-0.34c-0.101-0.136-0.189-0.219-0.271-0.25c-0.082-0.032-0.16-0.02-0.238,0.038
			c-0.045,0.034-0.075,0.073-0.092,0.118s-0.021,0.097-0.017,0.155c0.004,0.058,0.016,0.121,0.033,0.189
			c0.016,0.067,0.037,0.14,0.063,0.218c0.049,0.166,0.084,0.314,0.109,0.445c0.022,0.132,0.026,0.253,0.012,0.363
			c-0.016,0.11-0.055,0.211-0.115,0.305c-0.061,0.094-0.15,0.186-0.271,0.275c-0.234,0.173-0.477,0.226-0.729,0.156
			c-0.25-0.068-0.496-0.268-0.742-0.599c-0.082-0.11-0.148-0.216-0.201-0.314c-0.053-0.099-0.095-0.19-0.127-0.273
			c-0.031-0.083-0.054-0.158-0.068-0.223c-0.014-0.065-0.024-0.122-0.03-0.169l0.565-0.173c0.016,0.105,0.045,0.225,0.095,0.359
			C80.125,26.038,80.209,26.184,80.326,26.343z"/>
		<polygon fill="#FEFEFE" points="80.885,22.921 81.328,23.466 78.912,25.438 78.467,24.894 		"/>
		<polygon fill="#FEFEFE" points="79.654,21.566 79.229,21.987 78.566,21.318 76.775,23.092 76.283,22.593 78.074,20.82 
			77.412,20.152 77.837,19.729 		"/>
		<path fill="#FEFEFE" d="M74.895,20.595c0.076,0.063,0.145,0.109,0.203,0.137c0.062,0.029,0.115,0.045,0.164,0.049
			c0.047,0.002,0.09-0.006,0.127-0.027c0.035-0.02,0.068-0.049,0.1-0.086c0.066-0.079,0.084-0.174,0.054-0.288
			c-0.03-0.113-0.11-0.275-0.239-0.484c-0.056-0.094-0.107-0.19-0.156-0.292s-0.082-0.206-0.099-0.311
			c-0.019-0.106-0.013-0.214,0.013-0.324c0.024-0.11,0.084-0.221,0.176-0.331c0.092-0.11,0.195-0.192,0.312-0.248
			c0.116-0.054,0.237-0.08,0.366-0.08c0.127,0.001,0.26,0.031,0.395,0.087c0.139,0.058,0.273,0.142,0.408,0.255
			c0.162,0.135,0.288,0.268,0.377,0.401c0.088,0.132,0.152,0.252,0.195,0.356l-0.512,0.295c-0.037-0.09-0.086-0.182-0.146-0.277
			c-0.059-0.095-0.146-0.19-0.262-0.287c-0.129-0.108-0.237-0.167-0.323-0.178c-0.086-0.011-0.159,0.019-0.222,0.094
			c-0.036,0.043-0.057,0.09-0.061,0.136c-0.006,0.048,0.002,0.099,0.021,0.155c0.017,0.056,0.042,0.114,0.075,0.175
			c0.033,0.062,0.072,0.127,0.115,0.198c0.086,0.15,0.155,0.286,0.209,0.408c0.057,0.122,0.088,0.237,0.1,0.349
			c0.012,0.11-0.001,0.218-0.039,0.325c-0.037,0.105-0.104,0.215-0.199,0.331c-0.188,0.223-0.41,0.331-0.67,0.323
			c-0.26-0.006-0.547-0.143-0.863-0.405c-0.104-0.089-0.195-0.175-0.271-0.258c-0.074-0.084-0.138-0.163-0.187-0.236
			c-0.052-0.073-0.093-0.14-0.121-0.2c-0.029-0.059-0.056-0.113-0.07-0.158l0.51-0.302c0.039,0.099,0.098,0.208,0.176,0.326
			C74.628,20.341,74.741,20.467,74.895,20.595z"/>
		<polygon fill="#FEFEFE" points="74.664,17.089 75.225,17.513 73.344,20 72.783,19.577 		"/>
		<polygon fill="#FEFEFE" points="74.202,16.707 73.865,17.201 73.087,16.67 71.665,18.75 71.085,18.355 72.508,16.273 
			71.732,15.743 72.068,15.249 		"/>
		<path fill="#FEFEFE" d="M70.449,14.213c0.398,0.245,0.66,0.503,0.785,0.777c0.125,0.272,0.096,0.558-0.09,0.856
			c-0.113,0.188-0.25,0.312-0.408,0.376c-0.156,0.063-0.336,0.078-0.537,0.046c0.012,0.099,0.021,0.21,0.027,0.331
			c0.006,0.122,0.01,0.248,0.01,0.376s-0.004,0.261-0.014,0.394c-0.009,0.133-0.02,0.264-0.033,0.389l-0.668-0.411
			c0.006-0.118,0.01-0.236,0.016-0.355c0.004-0.121,0.006-0.24,0.006-0.355c-0.001-0.117-0.004-0.229-0.009-0.336
			c-0.005-0.106-0.015-0.207-0.026-0.299l-0.295-0.182l-0.6,0.97l-0.596-0.368l1.609-2.619c0.146,0.055,0.293,0.12,0.438,0.195
			C70.21,14.073,70.339,14.145,70.449,14.213z M70.17,14.743c-0.044-0.027-0.084-0.049-0.119-0.068
			c-0.037-0.018-0.07-0.036-0.104-0.053l-0.442,0.721l0.168,0.104c0.226,0.139,0.403,0.209,0.535,0.213
			c0.131,0.002,0.239-0.063,0.321-0.199c0.082-0.13,0.09-0.253,0.023-0.368C70.488,14.978,70.361,14.861,70.17,14.743z"/>
		<path fill="#FEFEFE" d="M66.977,15.92c0.017-0.113,0.031-0.228,0.045-0.349c0.017-0.119,0.029-0.24,0.043-0.359l-1.094-0.535
			c-0.086,0.085-0.172,0.169-0.258,0.254c-0.084,0.086-0.166,0.169-0.244,0.251l-0.654-0.321c0.252-0.25,0.488-0.48,0.709-0.69
			c0.221-0.209,0.431-0.406,0.634-0.587c0.2-0.182,0.396-0.354,0.581-0.515c0.188-0.16,0.378-0.314,0.566-0.462l0.598,0.292
			c-0.002,0.24-0.01,0.483-0.02,0.73c-0.011,0.247-0.025,0.506-0.047,0.776c-0.02,0.271-0.045,0.557-0.074,0.86
			c-0.031,0.303-0.068,0.63-0.109,0.985L66.977,15.92z M67.279,13.383c-0.033,0.033-0.082,0.08-0.145,0.135
			c-0.061,0.058-0.132,0.123-0.21,0.197c-0.079,0.076-0.169,0.158-0.266,0.247c-0.099,0.09-0.197,0.184-0.302,0.284l0.803,0.393
			c0.018-0.142,0.031-0.28,0.045-0.409c0.016-0.131,0.025-0.25,0.033-0.36c0.011-0.109,0.02-0.206,0.025-0.289
			C67.271,13.496,67.277,13.43,67.279,13.383z"/>
		<path fill="#FEFEFE" d="M35.5,12.938c0.103,0.249,0.154,0.482,0.154,0.701c-0.001,0.218-0.047,0.417-0.14,0.598
			c-0.092,0.182-0.229,0.345-0.408,0.491c-0.18,0.146-0.398,0.271-0.652,0.377c-0.117,0.047-0.255,0.099-0.415,0.154
			c-0.159,0.054-0.319,0.097-0.482,0.128l-1.162-2.807c0.137-0.088,0.286-0.172,0.444-0.249c0.158-0.077,0.295-0.14,0.412-0.188
			c0.247-0.103,0.482-0.168,0.706-0.195c0.225-0.028,0.433-0.013,0.626,0.047c0.194,0.059,0.367,0.166,0.522,0.319
			C35.261,12.469,35.392,12.677,35.5,12.938z M34.004,14.629c0.031-0.01,0.066-0.023,0.107-0.039
			c0.041-0.014,0.089-0.033,0.145-0.056c0.324-0.135,0.53-0.316,0.62-0.544c0.088-0.229,0.073-0.486-0.046-0.775
			c-0.125-0.303-0.295-0.501-0.508-0.593c-0.214-0.094-0.484-0.073-0.809,0.062c-0.043,0.018-0.09,0.037-0.136,0.059
			c-0.046,0.021-0.09,0.042-0.128,0.065L34.004,14.629z"/>
		<polygon fill="#FEFEFE" points="30.848,13.351 31.468,13.02 32.939,15.77 32.319,16.101 		"/>
		<path fill="#FEFEFE" d="M31.3,16.639c-0.086-0.076-0.174-0.151-0.268-0.229c-0.093-0.078-0.186-0.155-0.277-0.232l-1.046,0.626
			c0.025,0.118,0.05,0.236,0.074,0.354c0.026,0.119,0.05,0.232,0.077,0.343l-0.626,0.375c-0.072-0.349-0.136-0.672-0.192-0.97
			c-0.055-0.299-0.105-0.583-0.147-0.851c-0.044-0.268-0.082-0.523-0.114-0.769c-0.032-0.246-0.06-0.486-0.081-0.726l0.571-0.341
			c0.199,0.132,0.401,0.271,0.601,0.413c0.203,0.144,0.411,0.298,0.627,0.462c0.215,0.164,0.443,0.341,0.68,0.531
			c0.236,0.19,0.492,0.399,0.765,0.627L31.3,16.639z M29.336,15.002c0.009,0.047,0.021,0.112,0.036,0.194
			c0.015,0.082,0.031,0.177,0.05,0.285c0.021,0.107,0.041,0.226,0.063,0.356s0.048,0.265,0.075,0.406l0.765-0.458
			c-0.111-0.091-0.217-0.18-0.318-0.262c-0.102-0.082-0.197-0.157-0.284-0.225c-0.086-0.066-0.163-0.126-0.23-0.177
			C29.427,15.07,29.375,15.031,29.336,15.002z"/>
		<path fill="#FEFEFE" d="M26.378,16.013c0.388-0.258,0.73-0.388,1.028-0.39c0.298-0.003,0.549,0.151,0.756,0.46
			c0.208,0.313,0.254,0.608,0.136,0.887c-0.117,0.277-0.37,0.547-0.76,0.806L27.354,17.9l0.58,0.869l-0.584,0.389L25.644,16.6
			c0.11-0.109,0.233-0.217,0.368-0.322C26.149,16.173,26.271,16.084,26.378,16.013z M26.748,16.486
			c-0.042,0.028-0.083,0.058-0.122,0.087c-0.04,0.03-0.074,0.057-0.103,0.079l0.5,0.75l0.182-0.124
			c0.203-0.134,0.336-0.263,0.403-0.386c0.066-0.123,0.049-0.26-0.051-0.409c-0.049-0.073-0.101-0.124-0.159-0.154
			c-0.058-0.029-0.121-0.042-0.189-0.038c-0.068,0.002-0.141,0.023-0.218,0.058C26.914,16.383,26.833,16.43,26.748,16.486z"/>
		<path fill="#FEFEFE" d="M23.514,18.956c-0.244,0.218-0.358,0.444-0.345,0.676c0.013,0.232,0.125,0.466,0.336,0.7
			c0.102,0.114,0.208,0.205,0.318,0.273c0.11,0.069,0.222,0.113,0.335,0.131c0.114,0.019,0.227,0.01,0.341-0.024
			c0.113-0.036,0.224-0.102,0.331-0.198c0.058-0.053,0.107-0.098,0.145-0.137c0.04-0.04,0.072-0.077,0.098-0.112l-0.727-0.806
			l0.522-0.47l1.033,1.146c-0.041,0.081-0.118,0.198-0.231,0.351c-0.113,0.151-0.271,0.319-0.475,0.501
			c-0.173,0.157-0.355,0.272-0.545,0.346s-0.381,0.105-0.574,0.092c-0.192-0.012-0.383-0.068-0.572-0.168
			c-0.19-0.102-0.37-0.247-0.543-0.439c-0.174-0.194-0.299-0.393-0.374-0.597c-0.073-0.203-0.105-0.404-0.094-0.602
			c0.012-0.199,0.064-0.388,0.158-0.569c0.094-0.181,0.221-0.344,0.381-0.489c0.109-0.098,0.214-0.18,0.316-0.244
			c0.102-0.065,0.192-0.117,0.273-0.155c0.08-0.037,0.15-0.065,0.209-0.082s0.103-0.028,0.131-0.034l0.226,0.555
			c-0.105,0.025-0.217,0.067-0.335,0.122C23.734,18.779,23.624,18.856,23.514,18.956z"/>
		<path fill="#FEFEFE" d="M23.166,22.799c-0.394-0.113-0.797-0.21-1.208-0.292c-0.412-0.083-0.82-0.141-1.225-0.176l1.437,1.453
			l-0.492,0.488l-2.195-2.216l0.407-0.403c0.14,0.001,0.303,0.01,0.489,0.028c0.188,0.018,0.382,0.041,0.585,0.071
			c0.204,0.028,0.412,0.062,0.623,0.1s0.412,0.077,0.602,0.115l-1.295-1.308l0.497-0.492l2.193,2.218L23.166,22.799z"/>
		<polygon fill="#FEFEFE" points="18.392,23.389 18.843,22.85 21.237,24.848 20.787,25.387 		"/>
		<polygon fill="#FEFEFE" points="17.992,23.835 18.469,24.196 17.902,24.947 19.912,26.466 19.488,27.027 17.478,25.506 
			16.911,26.257 16.434,25.895 		"/>
		<polygon fill="#FEFEFE" points="16.187,26.269 16.683,26.606 16.151,27.383 18.231,28.806 17.835,29.385 15.754,27.963 
			15.223,28.739 14.729,28.402 		"/>
		<polygon fill="#FEFEFE" points="16.148,32.336 13.417,30.83 14.434,28.984 14.95,29.27 14.272,30.499 14.809,30.794 
			15.411,29.703 15.915,29.98 15.313,31.073 15.972,31.436 16.699,30.115 17.215,30.4 		"/>
		<path fill="#FEFEFE" d="M13.061,32.786c-0.13,0.3-0.14,0.553-0.031,0.759c0.109,0.207,0.308,0.371,0.598,0.495
			c0.14,0.062,0.274,0.099,0.403,0.116c0.13,0.017,0.249,0.009,0.361-0.022c0.11-0.029,0.21-0.085,0.299-0.164
			c0.087-0.08,0.161-0.187,0.217-0.318c0.031-0.072,0.056-0.134,0.076-0.187c0.019-0.051,0.033-0.099,0.041-0.141l-0.996-0.429
			l0.278-0.646l1.417,0.611c-0.002,0.091-0.024,0.229-0.063,0.415c-0.04,0.187-0.113,0.404-0.221,0.655
			c-0.092,0.214-0.21,0.396-0.352,0.542c-0.141,0.146-0.303,0.255-0.482,0.325c-0.179,0.07-0.377,0.098-0.59,0.086
			c-0.214-0.013-0.44-0.069-0.677-0.172c-0.24-0.103-0.436-0.232-0.589-0.386c-0.151-0.154-0.264-0.323-0.336-0.508
			c-0.073-0.185-0.104-0.378-0.095-0.582c0.009-0.204,0.056-0.404,0.143-0.603c0.058-0.135,0.119-0.253,0.185-0.354
			c0.064-0.101,0.126-0.186,0.182-0.254c0.058-0.069,0.109-0.123,0.157-0.163c0.046-0.041,0.082-0.069,0.105-0.084l0.436,0.408
			c-0.084,0.068-0.169,0.153-0.253,0.251C13.19,32.535,13.118,32.651,13.061,32.786z"/>
		<polygon fill="#FEFEFE" points="13.546,38.789 10.575,37.839 11.216,35.833 11.777,36.013 11.35,37.35 11.934,37.536 
			12.313,36.349 12.862,36.523 12.482,37.712 13.198,37.94 13.657,36.504 14.218,36.683 		"/>
		<path fill="#FEFEFE" d="M9.947,39.992c0.121-0.452,0.292-0.777,0.519-0.976c0.225-0.198,0.507-0.251,0.846-0.161
			c0.212,0.057,0.371,0.15,0.477,0.283c0.106,0.132,0.173,0.3,0.2,0.503c0.091-0.041,0.195-0.082,0.309-0.123
			c0.116-0.041,0.233-0.08,0.357-0.117c0.123-0.038,0.25-0.071,0.381-0.102c0.131-0.031,0.258-0.058,0.383-0.08l-0.202,0.757
			c-0.114,0.031-0.229,0.059-0.345,0.088c-0.117,0.031-0.231,0.063-0.341,0.096c-0.112,0.035-0.218,0.069-0.32,0.105
			c-0.101,0.035-0.194,0.073-0.28,0.113l-0.088,0.335l1.101,0.292l-0.181,0.678l-2.971-0.789c0.01-0.157,0.031-0.314,0.062-0.475
			C9.881,40.26,9.914,40.117,9.947,39.992z M10.536,40.107c-0.013,0.049-0.023,0.094-0.031,0.133
			c-0.008,0.04-0.014,0.079-0.021,0.113l0.818,0.218l0.05-0.191c0.068-0.255,0.084-0.447,0.051-0.574
			c-0.035-0.127-0.13-0.212-0.283-0.253c-0.149-0.038-0.268-0.011-0.36,0.085C10.668,39.733,10.594,39.889,10.536,40.107z"/>
		<path fill="#FEFEFE" d="M9.31,41.521c0.042,0.002,0.086,0.008,0.131,0.014c0.043,0.006,0.077,0.011,0.097,0.015
			c0.196,0.042,0.376,0.118,0.539,0.226c0.162,0.108,0.294,0.227,0.396,0.355l-0.204,0.44c-0.114-0.083-0.248-0.158-0.399-0.226
			C9.72,42.28,9.572,42.23,9.428,42.2c-0.006-0.001-0.019-0.005-0.039-0.009c-0.018-0.004-0.041-0.008-0.065-0.012
			c-0.025-0.004-0.051-0.008-0.078-0.011c-0.027-0.005-0.051-0.008-0.072-0.009L9.31,41.521z"/>
		<path fill="#FEFEFE" d="M12.325,44.815c-0.024,0.218-0.076,0.401-0.154,0.553c-0.078,0.151-0.178,0.272-0.297,0.363
			c-0.121,0.091-0.259,0.152-0.415,0.185c-0.157,0.033-0.326,0.04-0.507,0.02l-1.929-0.215l0.078-0.697l1.87,0.207
			c0.125,0.014,0.232,0.012,0.323-0.006c0.091-0.019,0.168-0.05,0.229-0.094c0.061-0.042,0.106-0.097,0.139-0.166
			c0.031-0.066,0.051-0.143,0.06-0.226c0.02-0.171-0.018-0.314-0.11-0.432c-0.092-0.118-0.264-0.189-0.515-0.218l-1.87-0.207
			l0.077-0.698l1.929,0.214c0.181,0.02,0.345,0.063,0.493,0.131c0.146,0.068,0.269,0.159,0.365,0.276
			c0.098,0.117,0.167,0.258,0.209,0.426C12.342,44.4,12.35,44.594,12.325,44.815z"/>
		<path fill="#FEFEFE" d="M10.514,46.509c0.267,0.016,0.499,0.069,0.696,0.162c0.197,0.091,0.36,0.21,0.489,0.355
			c0.127,0.146,0.221,0.317,0.277,0.511c0.058,0.194,0.08,0.4,0.067,0.62c-0.013,0.212-0.059,0.411-0.14,0.596
			c-0.08,0.185-0.192,0.343-0.336,0.476c-0.145,0.132-0.321,0.232-0.529,0.302c-0.207,0.068-0.442,0.095-0.709,0.078
			c-0.267-0.015-0.5-0.072-0.696-0.168c-0.198-0.095-0.36-0.218-0.49-0.37c-0.128-0.15-0.222-0.321-0.28-0.512
			c-0.058-0.191-0.08-0.39-0.068-0.597c0.013-0.213,0.059-0.412,0.14-0.597c0.08-0.185,0.194-0.343,0.34-0.475
			c0.146-0.133,0.322-0.233,0.53-0.303C10.011,46.519,10.247,46.492,10.514,46.509z M10.372,48.886
			c0.153,0.009,0.292-0.001,0.416-0.032c0.125-0.03,0.235-0.077,0.327-0.143c0.092-0.066,0.166-0.146,0.22-0.245
			c0.054-0.1,0.084-0.214,0.094-0.347c0.007-0.129-0.011-0.247-0.052-0.353c-0.042-0.106-0.105-0.196-0.188-0.272
			c-0.084-0.076-0.186-0.136-0.307-0.181c-0.121-0.045-0.258-0.072-0.411-0.081c-0.153-0.01-0.293,0.001-0.418,0.031
			c-0.127,0.029-0.236,0.077-0.329,0.143c-0.094,0.065-0.167,0.146-0.221,0.248c-0.054,0.102-0.085,0.215-0.093,0.344
			c-0.007,0.132,0.009,0.25,0.053,0.355s0.108,0.195,0.191,0.271c0.084,0.076,0.188,0.136,0.309,0.181
			C10.085,48.85,10.222,48.877,10.372,48.886z"/>
		<path fill="#FEFEFE" d="M10.152,51.273c-0.218-0.115-0.435-0.229-0.652-0.332c-0.217-0.105-0.435-0.202-0.654-0.289l-0.032-0.774
			c0.344,0.158,0.677,0.321,0.999,0.492c0.322,0.169,0.647,0.35,0.973,0.541l1.191-0.05l0.029,0.703l-1.183,0.047
			c-0.31,0.219-0.619,0.425-0.929,0.623c-0.311,0.197-0.63,0.389-0.959,0.572l-0.033-0.813c0.212-0.104,0.421-0.218,0.629-0.335
			C9.738,51.536,9.944,51.409,10.152,51.273z"/>
		<path fill="#FEFEFE" d="M24.826,82.895c0.013-0.119,0.023-0.252,0.028-0.397c0.006-0.146,0.007-0.295,0.004-0.451
			c-0.003-0.155-0.014-0.312-0.031-0.463s-0.042-0.297-0.075-0.431l-0.819,1.035l-0.551-0.435l1.935-2.446l0.552,0.437l-0.728,0.92
			c0.259-0.037,0.526-0.08,0.8-0.126c0.276-0.048,0.53-0.092,0.764-0.135l0.653,0.519c-0.324,0.065-0.642,0.125-0.955,0.175
			c-0.312,0.051-0.635,0.094-0.968,0.133c0.067,0.316,0.102,0.66,0.107,1.027c0.005,0.368-0.016,0.753-0.062,1.156L24.826,82.895z
			 M25.8,83.662l1.693-2.619l1.77,1.145l-0.321,0.494l-1.18-0.762l-0.333,0.514l1.047,0.676l-0.312,0.484l-1.047-0.677l-0.408,0.632
			l1.267,0.818l-0.32,0.496L25.8,83.662z M28.085,85.154l1.565-2.698l1.823,1.058l-0.296,0.51l-1.214-0.705l-0.308,0.529l1.08,0.627
			l-0.29,0.498l-1.078-0.627l-0.377,0.65l1.304,0.758l-0.295,0.51L28.085,85.154z M32.737,84.131
			c0.414,0.213,0.692,0.451,0.838,0.71c0.146,0.261,0.133,0.556-0.038,0.886c-0.172,0.334-0.408,0.517-0.709,0.549
			c-0.3,0.031-0.659-0.061-1.073-0.274l-0.196-0.103l-0.48,0.928l-0.624-0.322l1.413-2.729c0.15,0.043,0.303,0.099,0.46,0.166
			C32.487,84.008,32.623,84.072,32.737,84.131z M32.502,84.684c-0.046-0.022-0.091-0.045-0.136-0.065
			c-0.046-0.019-0.085-0.035-0.118-0.05l-0.415,0.8l0.196,0.102c0.215,0.111,0.394,0.166,0.533,0.164
			c0.14-0.002,0.251-0.084,0.333-0.243c0.04-0.076,0.059-0.147,0.058-0.214c-0.002-0.065-0.021-0.127-0.056-0.184
			c-0.037-0.058-0.089-0.111-0.158-0.162C32.672,84.779,32.592,84.73,32.502,84.684z M34.357,84.939l0.638,0.293l-1.298,2.836
			l-0.639-0.293L34.357,84.939z M36.325,89.072c-0.075-0.402-0.166-0.807-0.272-1.213c-0.108-0.404-0.236-0.797-0.385-1.174
			L35,88.617l-0.654-0.227l1.017-2.949l0.54,0.187c0.062,0.126,0.126,0.276,0.192,0.452c0.067,0.176,0.132,0.359,0.197,0.555
			c0.064,0.197,0.125,0.396,0.185,0.604s0.113,0.404,0.163,0.592l0.599-1.741l0.66,0.229l-1.017,2.949L36.325,89.072z
			 M39.745,87.441c-0.313-0.092-0.566-0.069-0.756,0.063c-0.191,0.134-0.33,0.353-0.418,0.654c-0.042,0.146-0.064,0.284-0.064,0.414
			s0.021,0.247,0.065,0.354c0.045,0.106,0.112,0.199,0.202,0.277c0.09,0.077,0.204,0.136,0.341,0.176
			c0.076,0.022,0.14,0.04,0.194,0.054c0.054,0.012,0.103,0.021,0.146,0.021l0.303-1.041l0.674,0.195L40,90.094
			c-0.09,0.01-0.229,0.006-0.418-0.012c-0.188-0.016-0.415-0.061-0.676-0.139c-0.226-0.064-0.42-0.158-0.582-0.28
			c-0.163-0.122-0.29-0.269-0.381-0.438c-0.091-0.172-0.144-0.361-0.159-0.576c-0.014-0.213,0.015-0.444,0.087-0.691
			c0.073-0.251,0.176-0.461,0.311-0.632c0.134-0.171,0.288-0.304,0.462-0.397s0.363-0.148,0.566-0.166
			c0.203-0.015,0.408,0.008,0.616,0.067c0.141,0.041,0.266,0.087,0.375,0.14c0.108,0.053,0.199,0.102,0.275,0.149
			c0.074,0.049,0.135,0.094,0.181,0.135c0.046,0.042,0.079,0.072,0.096,0.095l-0.352,0.483c-0.077-0.076-0.17-0.147-0.28-0.222
			C40.012,87.539,39.886,87.482,39.745,87.441z M44.515,87.908l-0.11,0.588l-0.924-0.172l-0.462,2.479l-0.69-0.129l0.462-2.479
			l-0.925-0.172l0.11-0.588L44.515,87.908z M46.524,88.109l0.701,0.059l-0.263,3.107l-0.699-0.06l0.111-1.317l-1.175-0.101
			l-0.112,1.319l-0.7-0.059l0.263-3.108l0.7,0.059l-0.1,1.188l1.174,0.099L46.524,88.109z M47.681,91.328l0.105-3.118l2.105,0.072
			l-0.02,0.589l-1.404-0.047l-0.021,0.611l1.247,0.043l-0.02,0.573l-1.246-0.042l-0.026,0.752l1.507,0.051l-0.019,0.59
			L47.681,91.328z M53.525,90.632l0.041,0.601l-2.08,0.143l-0.209-3.111l0.701-0.049l0.168,2.512L53.525,90.632z M53.648,88.098
			l0.697-0.082l0.366,3.096l-0.698,0.084L53.648,88.098z M56.5,88.258c-0.324,0.055-0.541,0.184-0.654,0.387
			c-0.111,0.203-0.143,0.461-0.091,0.771c0.026,0.15,0.067,0.284,0.124,0.4c0.057,0.117,0.128,0.215,0.214,0.291
			c0.087,0.076,0.187,0.131,0.3,0.16c0.115,0.031,0.244,0.034,0.387,0.012c0.076-0.016,0.144-0.025,0.197-0.039
			c0.053-0.012,0.102-0.026,0.142-0.042l-0.183-1.069l0.691-0.118l0.26,1.522c-0.078,0.047-0.205,0.104-0.383,0.172
			c-0.177,0.068-0.4,0.126-0.67,0.171c-0.23,0.04-0.445,0.04-0.645,0.001c-0.201-0.039-0.379-0.115-0.535-0.229
			s-0.287-0.264-0.395-0.449c-0.105-0.186-0.181-0.405-0.225-0.659c-0.044-0.259-0.042-0.492,0.004-0.704s0.127-0.398,0.243-0.561
			c0.114-0.161,0.262-0.293,0.438-0.396c0.176-0.103,0.368-0.172,0.582-0.209c0.146-0.024,0.276-0.037,0.397-0.037
			c0.12-0.002,0.225,0.005,0.313,0.017c0.088,0.01,0.164,0.022,0.223,0.041c0.059,0.018,0.102,0.031,0.127,0.041l-0.105,0.59
			c-0.104-0.035-0.218-0.059-0.348-0.076C56.781,88.229,56.645,88.232,56.5,88.258z M59.701,87.049l0.686-0.152l0.678,3.045
			l-0.687,0.151l-0.287-1.291l-1.151,0.255l0.287,1.293l-0.686,0.152l-0.676-3.045l0.686-0.152l0.258,1.164l1.15-0.256
			L59.701,87.049z M62.969,86.032l0.188,0.567l-0.894,0.297l0.791,2.393l-0.666,0.221l-0.791-2.393l-0.894,0.295l-0.188-0.568
			L62.969,86.032z M64.971,88.031c0.092-0.035,0.166-0.072,0.221-0.111s0.095-0.078,0.121-0.119c0.025-0.04,0.037-0.081,0.037-0.123
			c0-0.041-0.008-0.085-0.024-0.13c-0.037-0.095-0.113-0.157-0.228-0.185c-0.113-0.028-0.293-0.037-0.541-0.025
			c-0.106,0.004-0.218,0.001-0.33-0.006c-0.11-0.006-0.218-0.027-0.317-0.064c-0.103-0.035-0.194-0.092-0.277-0.168
			c-0.084-0.074-0.151-0.18-0.204-0.313c-0.052-0.136-0.072-0.265-0.064-0.394c0.01-0.127,0.046-0.246,0.109-0.355
			c0.063-0.112,0.151-0.214,0.268-0.305c0.115-0.094,0.257-0.17,0.421-0.233c0.196-0.076,0.374-0.121,0.532-0.133
			c0.16-0.015,0.295-0.015,0.406,0.002l0.012,0.589c-0.098-0.012-0.201-0.014-0.314-0.007c-0.111,0.007-0.238,0.036-0.378,0.092
			c-0.155,0.062-0.261,0.126-0.312,0.194c-0.053,0.07-0.062,0.15-0.025,0.238c0.02,0.055,0.05,0.094,0.088,0.121
			c0.04,0.025,0.089,0.045,0.146,0.057c0.057,0.013,0.121,0.019,0.188,0.019c0.07,0.002,0.146,0,0.228-0.004
			c0.174-0.001,0.326,0.002,0.461,0.015c0.133,0.01,0.25,0.038,0.353,0.082c0.103,0.045,0.19,0.108,0.265,0.192
			c0.074,0.083,0.14,0.194,0.192,0.335c0.104,0.271,0.093,0.52-0.041,0.743c-0.132,0.223-0.39,0.409-0.772,0.557
			c-0.129,0.052-0.248,0.088-0.357,0.111c-0.107,0.024-0.208,0.041-0.296,0.051c-0.089,0.009-0.168,0.013-0.234,0.008
			c-0.065-0.003-0.124-0.008-0.172-0.016l-0.017-0.593c0.104,0.015,0.229,0.017,0.371,0.005
			C64.623,88.145,64.785,88.104,64.971,88.031z M67.607,85.758c0.067,0.137,0.147,0.251,0.235,0.344
			c0.091,0.094,0.187,0.162,0.289,0.211c0.103,0.047,0.211,0.068,0.322,0.064c0.112-0.002,0.229-0.034,0.346-0.094
			c0.116-0.059,0.209-0.133,0.279-0.223c0.069-0.088,0.118-0.189,0.142-0.3c0.022-0.11,0.022-0.229,0.002-0.354
			c-0.021-0.127-0.068-0.26-0.139-0.396c-0.066-0.137-0.146-0.251-0.236-0.346c-0.091-0.094-0.187-0.164-0.289-0.212
			c-0.104-0.048-0.211-0.069-0.326-0.065c-0.112,0.004-0.229,0.035-0.342,0.094c-0.119,0.06-0.213,0.134-0.281,0.226
			c-0.068,0.09-0.114,0.188-0.139,0.301c-0.021,0.111-0.021,0.229,0,0.359C67.495,85.493,67.54,85.624,67.607,85.758z
			 M69.732,84.684c0.119,0.238,0.19,0.465,0.211,0.683s0,0.418-0.062,0.602c-0.063,0.185-0.161,0.351-0.301,0.498
			c-0.142,0.147-0.308,0.271-0.502,0.369c-0.188,0.097-0.386,0.155-0.586,0.181c-0.199,0.022-0.394,0.006-0.581-0.054
			c-0.188-0.058-0.362-0.157-0.525-0.303c-0.164-0.144-0.306-0.336-0.427-0.573c-0.121-0.238-0.188-0.468-0.205-0.686
			c-0.019-0.221,0.009-0.424,0.072-0.61s0.165-0.354,0.303-0.5c0.136-0.146,0.296-0.267,0.479-0.358
			c0.19-0.097,0.386-0.156,0.586-0.181c0.199-0.024,0.394-0.006,0.582,0.054c0.188,0.061,0.363,0.162,0.527,0.307
			C69.471,84.253,69.611,84.443,69.732,84.684z M72.707,84.652c-0.361-0.192-0.734-0.373-1.117-0.543
			c-0.385-0.168-0.771-0.313-1.16-0.433l1.096,1.726l-0.586,0.373l-1.67-2.635l0.482-0.307c0.135,0.03,0.293,0.074,0.473,0.132
			c0.178,0.058,0.363,0.122,0.558,0.193c0.19,0.071,0.387,0.147,0.586,0.229c0.196,0.082,0.385,0.162,0.563,0.241l-0.988-1.554
			l0.591-0.374l1.672,2.632L72.707,84.652z"/>
	</g>
</g>
</svg>
