<?xml version="1.0" encoding="utf-8"?>
<!-- Generator: Adobe Illustrator 15.0.0, SVG Export Plug-In . SVG Version: 6.00 Build 0)  -->
<!DOCTYPE svg PUBLIC "-//W3C//DTD SVG 1.1//EN" "http://www.w3.org/Graphics/SVG/1.1/DTD/svg11.dtd">
<svg version="1.1" id="primary" xmlns="http://www.w3.org/2000/svg" xmlns:xlink="http://www.w3.org/1999/xlink" x="0px" y="0px"
	 width="100px" height="100px" viewBox="0 0 100 100" enable-background="new 0 0 100 100" xml:space="preserve">
<path fill="#1E1824" d="M27.638,70.403c5.538,6.028,13.487,9.808,22.318,9.808c12.401,0,23.059-7.45,27.749-18.118l3.104,13.972
	l13.318-2.958c-8.351,15.867-24.995,26.689-44.171,26.689c-16.268,0-30.715-7.788-39.821-19.837l4.326-13.74L27.638,70.403z"/>
<path fill="#1E1824" d="M42.937,20.43c-13.349,3.167-23.281,15.164-23.281,29.481c0,5.96,1.723,11.517,4.694,16.204l-12.067-3.799
	L7.928,76.143l-0.136,0.434c-4.888-7.713-7.72-16.857-7.72-26.665c0-25.477,19.098-46.489,43.759-49.509l9.591,10.459L42.937,20.43z
	"/>
<path fill="#1E1824" d="M49.957,0.027c27.551,0,49.884,22.333,49.884,49.884c0,6.909-1.404,13.489-3.944,19.472l-12.796,2.842
	l-3.509-15.98c0.434-2.042,0.664-4.161,0.664-6.333c0-16.733-13.565-30.3-30.299-30.3c-0.53,0-1.057,0.014-1.579,0.041l9.515-8.728
	L48.095,0.24l-0.156-0.169C48.609,0.045,49.28,0.027,49.957,0.027z"/>
</svg>
