<?xml version="1.0" encoding="UTF-8"?>
<!DOCTYPE svg PUBLIC "-//W3C//DTD SVG 1.1//EN" "http://www.w3.org/Graphics/SVG/1.1/DTD/svg11.dtd">
<!-- Creator: CorelDRAW X6 -->
<svg xmlns="http://www.w3.org/2000/svg" xml:space="preserve" width="100px" height="100px" version="1.1" style="shape-rendering:geometricPrecision; text-rendering:geometricPrecision; image-rendering:optimizeQuality; fill-rule:evenodd; clip-rule:evenodd"
viewBox="0 0 1000000 1000000"
 xmlns:xlink="http://www.w3.org/1999/xlink">
 <defs>
  <style type="text/css">
   <![CDATA[
    .fil0 {fill:none}
    .fil1 {fill:black}
   ]]>
  </style>
 </defs>
 <g id="Layer_x0020_1">
  <metadata id="CorelCorpID_0Corel-Layer"/>
  <rect class="fil0" x="1649" y="1425" width="1000000" height="999653"/>
  <path class="fil1" d="M480966 254268c-62120,9934 -115371,66804 -103717,141579 9472,60785 68550,113920 141836,102241 60888,-9691 114010,-68152 102215,-141490 -9728,-60464 -67792,-113920 -140334,-102330zm-1951 -248249c-233257,14042 -410619,237198 -329851,494417 43446,138371 129708,263689 218883,375889l75121 87071c17686,16312 36104,39569 74595,27953 27364,-8265 63442,-59155 82758,-79472 8407,-8830 17340,-19765 24809,-29237 92936,-117822 195267,-259106 233181,-415574 61054,-252034 -138332,-475550 -379496,-461047zm-5750 124587c-36078,4299 -67536,14092 -94963,29968 -28865,16711 -50479,34500 -67575,56062 -42252,53354 -65251,112971 -57076,186693 13977,125934 128232,235414 273276,218459 126165,-14747 233899,-127217 217997,-272634 -13695,-125330 -127718,-235683 -271659,-218548z"/>
 </g>
</svg>
