<?xml version="1.0" encoding="UTF-8"?>
<!DOCTYPE svg PUBLIC "-//W3C//DTD SVG 1.1//EN" "http://www.w3.org/Graphics/SVG/1.1/DTD/svg11.dtd">
<!-- Creator: CorelDRAW X6 -->
<svg xmlns="http://www.w3.org/2000/svg" xml:space="preserve" width="0.411744in" height="0.548606in" version="1.1" style="shape-rendering:geometricPrecision; text-rendering:geometricPrecision; image-rendering:optimizeQuality; fill-rule:evenodd; clip-rule:evenodd"
viewBox="0 0 4106 5470"
 xmlns:xlink="http://www.w3.org/1999/xlink">
 <defs>
  <style type="text/css">
   <![CDATA[
    .fil0 {fill:#2B2A29}
   ]]>
  </style>
 </defs>
 <g id="Layer_x0020_1">
  <metadata id="CorelCorpID_0Corel-Layer"/>
  <path class="fil0" d="M1953 1382c-354,70 -637,353 -566,777 35,354 389,637 778,566 353,-35 636,-389 565,-778 -35,-318 -388,-636 -777,-565zm0 -1379c-1308,71 -2298,1308 -1839,2757 248,743 707,1450 1202,2051l425 495c106,106 212,212 424,141 141,-35 353,-318 459,-424 36,-35 106,-106 142,-177 495,-636 1060,-1414 1272,-2298 354,-1378 -742,-2616 -2085,-2545zm-36 707c-212,0 -389,71 -530,141 -177,106 -283,212 -389,319 -212,282 -353,636 -318,1025 106,707 742,1308 1520,1237 707,-106 1308,-707 1202,-1520 -71,-707 -707,-1308 -1485,-1202l0 0z"/>
 </g>
</svg>
