<?xml version="1.0" encoding="utf-8"?>
<!-- Generator: Adobe Illustrator 15.0.0, SVG Export Plug-In . SVG Version: 6.00 Build 0)  -->
<!DOCTYPE svg PUBLIC "-//W3C//DTD SVG 1.1//EN" "http://www.w3.org/Graphics/SVG/1.1/DTD/svg11.dtd">
<svg version="1.1" xmlns="http://www.w3.org/2000/svg" xmlns:xlink="http://www.w3.org/1999/xlink" x="0px" y="0px"
	 width="100px" height="100px" viewBox="0 0 100 100" enable-background="new 0 0 100 100" xml:space="preserve">
<path id="primary" d="M47.99,25.421c-6.209,0.994-11.532,6.678-10.368,14.152c0.947,6.076,6.853,11.387,14.178,10.219
	c6.087-0.968,11.396-6.812,10.217-14.143C61.045,29.605,55.24,24.262,47.99,25.421L47.99,25.421z M47.795,0.607
	C24.479,2.01,6.75,24.317,14.824,50.027c4.343,13.832,12.965,26.357,21.879,37.573l7.508,8.702c1.768,1.631,3.609,3.956,7.458,2.795
	c2.734-0.826,6.341-5.912,8.271-7.944c0.841-0.882,1.733-1.975,2.479-2.922c9.29-11.776,19.519-25.899,23.309-41.54
	c5.9-24.357-12.535-46.049-35.551-46.15v12.345C63.145,12.893,73.1,23.25,74.373,34.907c1.59,14.535-9.178,25.777-21.789,27.251
	c-14.498,1.693-25.919-9.249-27.316-21.837c-0.816-7.369,1.482-13.328,5.706-18.661c1.708-2.155,3.869-3.934,6.753-5.604
	c2.743-1.586,5.887-2.565,9.493-2.996l0,0c0.991-0.118,1.966-0.173,2.927-0.173V0.542C49.368,0.539,48.584,0.56,47.795,0.607
	L47.795,0.607z"/>
</svg>
