<?xml version="1.0" encoding="UTF-8"?>
<!DOCTYPE svg PUBLIC "-//W3C//DTD SVG 1.1//EN" "http://www.w3.org/Graphics/SVG/1.1/DTD/svg11.dtd">
<!-- Creator: CorelDRAW X6 -->
<svg xmlns="http://www.w3.org/2000/svg" xml:space="preserve" width="7.38856in" height="7.38856in" version="1.1" style="shape-rendering:geometricPrecision; text-rendering:geometricPrecision; image-rendering:optimizeQuality; fill-rule:evenodd; clip-rule:evenodd"
viewBox="0 0 52260 52260"
 xmlns:xlink="http://www.w3.org/1999/xlink">
 <defs>
  <style type="text/css">
   <![CDATA[
    .fil1 {fill:#1E1824}
    .fil2 {fill:#211B27}
    .fil0 {fill:#27212D}
    .fil3 {fill:#423C48;fill-rule:nonzero}
   ]]>
  </style>
 </defs>
 <g id="Layer_x0020_1">
  <metadata id="CorelCorpID_0Corel-Layer"/>
  <path class="fil0" d="M14440 36864c2901,3158 7064,5138 11690,5138 6496,0 12079,-3903 14536,-9491l1626 7318 6976 -1549c-4374,8312 -13093,13980 -23138,13980 -8521,0 -16088,-4079 -20858,-10391l2266 -7196 6902 2191z"/>
  <path class="fil1" d="M22453 10688c-6992,1659 -12194,7943 -12194,15442 0,3122 902,6033 2458,8488l-6321 -1990 -2281 7243 -71 227c-2561,-4041 -4044,-8831 -4044,-13968 0,-13345 10004,-24352 22921,-25934l5024 5479 -5492 5013z"/>
  <path class="fil2" d="M26130 0c14431,0 26130,11699 26130,26130 0,3619 -735,7066 -2065,10199l-6703 1489 -1839 -8370c228,-1070 349,-2180 349,-3318 0,-8765 -7106,-15871 -15872,-15871 -277,0 -553,7 -827,21l4984 -4571 -5132 -5597 -81 -89c350,-14 702,-23 1056,-23z"/>
  <path class="fil3" d="M5344 27982c-118,-53 -235,-103 -353,-150 -117,-47 -235,-89 -352,-127l-46 -403c185,70 365,143 540,220 174,76 351,159 528,246l621 -70 41 366 -616 69c-154,125 -308,245 -462,360 -155,114 -315,226 -480,335l-48 -424c107,-63 212,-129 316,-199 104,-71 208,-145 311,-223zm63 -1259c80,-1 153,-11 217,-32 64,-20 119,-49 165,-86 46,-38 81,-83 106,-137 24,-54 36,-115 36,-184 -1,-68 -14,-129 -40,-183 -26,-54 -62,-99 -109,-135 -47,-37 -102,-64 -167,-83 -65,-19 -137,-28 -217,-27 -81,1 -153,11 -218,32 -65,20 -121,49 -167,86 -46,38 -81,84 -105,138 -25,55 -37,116 -36,183 1,69 14,131 41,184 26,53 63,98 110,134 47,37 103,64 168,83 66,19 138,28 216,27zm-14 -1247c140,-1 264,18 370,58 107,41 196,97 268,168 73,72 127,157 165,257 37,99 56,206 58,321 1,112 -16,217 -51,317 -35,99 -88,186 -159,261 -70,74 -159,133 -264,177 -106,44 -229,66 -369,68 -139,1 -263,-19 -369,-62 -107,-43 -197,-101 -270,-175 -73,-74 -128,-160 -165,-258 -38,-97 -57,-201 -58,-309 -1,-112 16,-217 51,-317 35,-99 88,-186 160,-261 71,-74 160,-134 265,-177 106,-44 229,-66 368,-68zm910 -950c-10,114 -35,211 -74,292 -40,80 -91,144 -153,193 -62,49 -133,83 -215,101 -81,19 -170,24 -265,15l-1012 -91 33 -366 981 88c66,6 123,4 170,-7 48,-11 87,-28 118,-51 32,-23 55,-52 71,-88 16,-36 26,-75 30,-119 8,-90 -13,-164 -63,-225 -49,-60 -140,-97 -272,-108l-981 -89 33 -366 1012 91c95,9 182,30 259,64 78,33 143,80 195,140 52,60 90,134 114,221 23,88 30,189 19,305zm347 -2664c-60,7 -121,15 -183,25 -63,9 -126,18 -188,27l-121 627c55,31 110,63 165,95 55,31 108,61 160,89l-72 375c-161,-93 -310,-181 -446,-264 -136,-82 -264,-162 -384,-239 -120,-77 -233,-151 -340,-224 -107,-73 -210,-147 -311,-223l66 -342c121,-31 245,-62 371,-90 127,-29 260,-56 400,-84 139,-27 288,-53 445,-79 157,-26 327,-53 512,-80l-74 387zm-1325 195c22,12 51,30 88,54 37,23 80,49 129,79 49,30 102,64 161,100 58,37 120,74 184,113l89 -459c-74,11 -146,22 -214,33 -67,11 -129,22 -186,32 -57,11 -106,20 -150,28 -43,8 -76,14 -101,20zm-7 -1720c70,-235 166,-402 286,-502 121,-100 270,-124 446,-72 110,33 192,85 245,156 54,71 86,160 97,266 48,-20 103,-40 164,-59 61,-20 124,-38 189,-56 65,-17 132,-33 201,-47 69,-14 136,-26 201,-36l-117 394c-60,14 -121,27 -182,41 -62,14 -122,29 -181,45 -59,16 -115,33 -169,50 -53,17 -102,35 -148,54l-51 174 571 171 -105 352 -1543 -460c8,-81 21,-164 39,-248 19,-84 38,-158 57,-223zm307 70c-8,25 -14,48 -19,69 -4,21 -8,41 -12,59l424 127 30 -100c40,-132 51,-232 35,-299 -16,-67 -64,-113 -144,-137 -76,-22 -140,-10 -189,39 -50,48 -92,129 -125,242zm1595 -644l-1541 -544 367 -1040 292 103 -245 693 302 107 218 -616 284 101 -217 615 371 131 263 -744 291 102 -385 1092zm-162 -3151c-73,155 -82,287 -28,397 54,109 155,199 305,268 72,34 142,57 209,67 67,11 130,9 189,-6 59,-14 112,-41 159,-81 48,-41 87,-95 119,-163 18,-37 32,-69 43,-96 10,-27 18,-52 23,-74l-514 -240 155 -333 733 342c-3,47 -16,119 -40,215 -23,97 -65,210 -126,340 -51,111 -116,204 -192,278 -76,75 -162,129 -258,162 -95,34 -199,45 -311,36 -111,-10 -228,-43 -351,-101 -124,-57 -224,-128 -302,-211 -77,-83 -134,-173 -168,-271 -35,-98 -49,-200 -41,-307 8,-106 36,-210 84,-313 33,-70 67,-131 102,-183 36,-51 69,-95 100,-130 31,-35 59,-62 84,-83 26,-20 44,-34 57,-42l222 220c-46,35 -91,77 -136,128 -46,51 -85,111 -117,181zm1621 -189l-1406 -831 561 -950 266 157 -374 633 276 163 332 -562 260 154 -333 562 339 200 402 -680 266 157 -589 997zm114 -3177l253 184 -290 399 1067 777 -216 297 -1068 -777 -290 398 -253 -184 797 -1094zm981 -1247l245 197 -309 384 1029 827 -231 287 -1029 -828 -309 384 -244 -196 848 -1055zm216 -228l244 -276 1223 1084 -244 275 -1223 -1083zm2506 -236c-204,-65 -413,-122 -627,-172 -214,-50 -427,-87 -639,-111l730 783 -266 248 -1114 -1195 219 -205c74,3 159,10 257,23 97,12 199,27 305,46 106,18 214,39 324,62 110,23 214,47 314,70l-658 -705 267 -249 1114 1195 -226 210zm243 -2008c-131,111 -195,227 -192,349 4,122 59,246 165,372 52,61 106,110 163,148 56,37 114,62 173,74 60,11 119,9 179,-8 60,-17 119,-50 177,-98 31,-27 57,-50 78,-70 21,-20 39,-39 53,-57l-368 -433 281 -238 523 617c-23,42 -65,102 -127,180 -61,78 -147,163 -256,255 -93,80 -190,137 -291,173 -101,35 -201,48 -302,39 -101,-10 -200,-42 -297,-98 -98,-55 -190,-134 -277,-238 -89,-104 -151,-210 -186,-318 -36,-108 -49,-213 -40,-317 9,-103 40,-202 91,-295 52,-93 121,-176 208,-250 59,-49 115,-90 169,-123 54,-32 102,-58 145,-76 43,-19 80,-32 111,-40 32,-8 55,-13 69,-16l110 294c-56,12 -115,32 -177,59 -63,27 -123,65 -182,115zm1543 -1499c207,-129 388,-191 544,-188 156,4 286,88 389,253 104,167 123,322 58,466 -66,144 -203,281 -411,411l-98 61 290 464 -312 195 -853 -1366c59,-56 126,-110 198,-163 73,-53 138,-97 195,-133zm186 254c-22,14 -44,29 -65,44 -22,15 -40,28 -55,39l250 400 98 -61c108,-67 180,-133 216,-196 37,-64 30,-135 -20,-215 -24,-39 -51,-67 -81,-83 -30,-17 -62,-25 -98,-24 -36,1 -74,10 -115,27 -41,18 -84,41 -130,69zm2380 150c-43,-41 -89,-82 -136,-124 -48,-42 -95,-84 -142,-125l-557 311c11,62 22,124 33,187 12,62 23,122 35,180l-334 187c-32,-184 -60,-355 -85,-512 -25,-157 -46,-306 -64,-447 -19,-141 -35,-276 -48,-405 -13,-128 -23,-255 -30,-381l304 -170c102,72 205,148 308,226 104,78 211,162 321,251 111,90 227,186 348,290 121,103 251,216 391,340l-344 192zm-1002 -887c4,24 10,59 16,102 6,43 13,93 22,150 8,56 17,119 27,187 9,68 20,140 32,214l408 -228c-56,-50 -110,-97 -162,-142 -52,-45 -100,-85 -145,-122 -45,-36 -84,-69 -118,-96 -33,-28 -60,-50 -80,-65zm817 -843l330 -163 727 1463 -330 164 -727 -1464zm1631 717c17,-5 36,-11 57,-18 22,-8 48,-17 77,-28 172,-65 283,-157 333,-275 50,-119 46,-254 -12,-407 -61,-160 -146,-266 -257,-318 -110,-53 -252,-46 -424,19 -23,9 -47,19 -72,29 -25,10 -47,21 -68,32l366 966zm810 -863c50,133 74,256 70,370 -4,114 -31,218 -83,311 -51,94 -125,177 -221,251 -97,73 -212,136 -348,187 -61,23 -134,48 -219,74 -84,26 -169,46 -254,60l-565 -1488c74,-45 153,-86 237,-124 84,-37 157,-68 219,-91 130,-50 255,-80 372,-91 118,-11 227,0 327,34 101,35 190,93 269,176 78,83 144,193 196,331zm14397 1048c2,-59 3,-121 3,-184 0,-63 0,-127 0,-189l-602 -213c-39,50 -78,99 -118,149 -39,49 -76,98 -112,145l-360 -127c116,-146 225,-280 327,-402 102,-123 199,-237 293,-344 94,-107 185,-208 273,-303 87,-95 176,-186 266,-275l328 116c13,125 25,252 34,381 10,129 18,265 24,407 6,142 10,293 12,452 3,159 4,332 3,518l-371 -131zm4 -1338c-16,19 -38,46 -67,79 -28,33 -61,72 -98,116 -36,43 -77,91 -122,144 -45,52 -91,107 -139,165l440 156c0,-75 0,-147 -1,-216 0,-68 -2,-131 -4,-189 -2,-58 -3,-108 -5,-152 -1,-44 -3,-78 -4,-103zm1679 294c222,104 374,223 456,357 81,134 83,285 5,451 -49,104 -112,177 -190,220 -78,42 -171,61 -278,56 13,51 25,108 35,171 10,63 20,128 27,195 8,67 14,136 17,206 4,70 6,138 6,205l-372 -174c-5,-62 -9,-124 -14,-186 -5,-63 -10,-125 -18,-186 -7,-60 -15,-119 -24,-174 -9,-55 -20,-107 -33,-154l-164 -77 -253 540 -333 -155 682 -1459c79,19 159,45 239,75 80,31 151,60 212,89zm-113 293c-24,-11 -46,-21 -66,-28 -20,-8 -39,-15 -57,-22l-187 402 94 44c125,59 222,85 291,79 69,-6 120,-47 156,-123 34,-72 30,-137 -10,-193 -41,-56 -114,-109 -221,-159zm2252 882l-160 270 -424 -251 -672 1137 -316 -187 671 -1137 -424 -250 160 -270 1165 688zm265 169l307 202 -898 1365 -307 -202 898 -1365zm251 1809c41,30 79,52 111,65 32,13 61,19 87,19 25,0 47,-6 65,-17 19,-12 35,-28 50,-49 31,-43 37,-94 17,-152 -19,-58 -67,-140 -142,-245 -32,-47 -62,-96 -91,-147 -29,-51 -50,-104 -62,-159 -13,-55 -14,-111 -5,-170 9,-58 36,-118 81,-178 44,-61 96,-108 154,-140 59,-33 121,-51 188,-54 67,-4 137,7 210,32 73,25 147,65 222,119 89,65 159,131 210,197 51,66 89,126 114,179l-256 172c-23,-46 -52,-92 -86,-140 -35,-47 -84,-94 -147,-140 -71,-52 -130,-80 -175,-83 -46,-3 -83,16 -113,57 -17,24 -26,48 -27,73 -1,25 5,52 16,80 11,29 27,59 46,89 19,31 42,64 66,100 50,75 92,144 124,206 33,61 54,121 64,179 10,57 7,114 -9,171 -16,56 -47,116 -94,180 -89,123 -202,187 -338,192 -136,5 -291,-56 -465,-183 -59,-42 -109,-84 -151,-125 -42,-42 -77,-81 -106,-117 -28,-37 -52,-70 -69,-101 -18,-30 -32,-57 -43,-80l256 -175c24,50 59,105 104,164 45,60 110,120 194,181zm2504 244l-197 244 -384 -309 -827 1029 -287 -230 828 -1029 -384 -309 196 -244 1055 848zm-348 1558c37,36 71,63 101,80 30,17 58,28 83,32 25,3 48,0 67,-9 20,-9 39,-23 57,-41 37,-38 50,-87 39,-148 -12,-60 -47,-148 -106,-262 -25,-51 -49,-104 -70,-159 -21,-55 -34,-110 -39,-166 -4,-56 2,-112 20,-169 18,-56 53,-111 106,-165 52,-54 110,-93 172,-117 63,-23 127,-32 194,-26 67,6 135,26 204,61 68,36 136,86 202,150 79,77 139,152 180,225 41,73 70,137 87,194l-278 133c-16,-48 -38,-99 -65,-151 -28,-51 -69,-105 -126,-160 -63,-61 -117,-97 -161,-106 -45,-9 -85,4 -120,40 -21,21 -33,44 -37,69 -4,24 -3,51 4,81 7,30 18,62 33,95 15,33 32,69 51,108 39,81 70,155 94,221 24,66 36,128 37,186 2,59 -10,115 -33,168 -24,54 -63,109 -118,165 -107,109 -228,157 -363,142 -135,-14 -280,-97 -434,-247 -52,-50 -95,-99 -131,-146 -36,-47 -65,-90 -88,-130 -24,-41 -42,-77 -55,-110 -13,-32 -23,-61 -30,-85l278 -137c16,53 43,112 79,177 36,65 92,134 166,207zm1554 2106c32,-51 64,-103 95,-158 33,-55 65,-109 97,-163l-413 -487c-58,23 -118,45 -177,68 -59,23 -115,46 -170,69l-247 -292c174,-67 336,-127 486,-182 149,-54 292,-104 427,-149 134,-45 264,-86 387,-123 124,-38 247,-72 369,-103l225 266c-51,114 -106,229 -163,345 -57,117 -118,238 -185,364 -66,126 -139,258 -217,396 -78,139 -165,289 -260,449l-254 -300zm679 -1154c-23,9 -56,21 -97,35 -41,14 -89,31 -143,50 -54,20 -114,40 -179,63 -65,22 -133,47 -203,73l301 356c38,-64 75,-127 108,-187 35,-59 65,-114 93,-165 27,-50 51,-95 72,-134 21,-38 37,-69 48,-91zm1328 1078c140,201 211,380 214,537 3,157 -72,288 -223,393 -94,65 -186,97 -274,94 -89,-2 -178,-33 -268,-91 -15,51 -34,106 -57,165 -22,60 -47,121 -74,183 -27,61 -57,124 -89,186 -32,63 -65,122 -98,180l-234 -338c27,-55 54,-111 82,-168 27,-56 53,-113 78,-169 24,-56 46,-110 66,-163 20,-52 37,-102 50,-149l-104 -149 -490 340 -210 -303 1324 -918c58,57 115,119 169,186 54,67 100,128 138,184zm-245 196c-16,-22 -30,-41 -43,-58 -14,-17 -26,-32 -38,-47l-365 253 60 85c78,114 149,185 212,215 62,29 127,20 196,-27 66,-46 95,-103 89,-172 -7,-69 -44,-152 -111,-249zm-502 1653l1385 -865 585 936 -262 163 -390 -624 -272 170 346 554 -256 160 -346 -554 -334 209 419 670 -262 163 -613 -982zm2564 1913c-69,-157 -162,-252 -280,-284 -117,-31 -252,-14 -403,52 -73,32 -136,70 -188,113 -53,43 -93,92 -121,145 -28,54 -43,112 -44,174 -1,62 14,128 44,197 16,37 31,69 44,95 13,26 26,48 39,67l521 -228 147 337 -741 324c-33,-34 -78,-91 -135,-172 -57,-82 -115,-188 -172,-319 -49,-112 -76,-222 -82,-329 -5,-106 11,-206 49,-300 38,-94 98,-179 179,-257 81,-77 183,-143 307,-197 125,-55 245,-84 358,-87 114,-4 219,14 315,52 97,39 183,96 257,173 75,76 135,166 180,270 31,70 54,136 69,197 16,61 26,115 32,161 6,47 8,86 7,118 -2,33 -3,56 -6,71l-312 21c4,-57 2,-119 -6,-187 -8,-68 -27,-137 -58,-207zm-900 1329l1527 -579 392 1031 -289 110 -261 -688 -300 114 232 610 -282 107 -232 -610 -368 140 280 738 -289 110 -410 -1083zm2391 2085l-302 82 -128 -476 -1275 343 -96 -355 1275 -343 -128 -476 302 -82 352 1307zm347 1552l-306 67 -104 -482 -1291 279 -78 -359 1291 -280 -104 -481 306 -66 286 1322zm37 317l59 363 -1612 265 -59 -363 1612 -265zm-1406 2093c180,-116 358,-241 532,-375 175,-134 338,-274 491,-422l-1068 66 -22 -363 1630 -101 19 299c-49,55 -109,117 -180,184 -72,67 -148,136 -229,207 -82,70 -167,140 -254,210 -88,70 -173,136 -254,198l963 -60 22 365 -1631 101 -19 -309zm1398 1467c-2,-171 -50,-294 -146,-369 -96,-76 -227,-112 -392,-111 -80,1 -153,12 -218,31 -65,20 -120,49 -167,87 -47,38 -83,86 -108,143 -26,56 -38,123 -37,198 0,41 2,76 4,105 1,29 5,55 10,76l568 -6 4 368 -809 9c-17,-44 -37,-114 -57,-212 -21,-97 -32,-217 -34,-360 -1,-123 16,-234 53,-334 37,-100 91,-186 162,-258 72,-71 160,-127 265,-167 105,-39 225,-60 360,-61 137,-2 258,18 364,59 105,41 195,99 269,172 74,73 131,159 169,258 39,100 59,206 60,319 1,77 -3,147 -13,209 -9,62 -20,116 -33,161 -13,45 -26,82 -40,111 -14,29 -25,50 -32,63l-296 -103c26,-51 48,-109 67,-174 19,-66 28,-137 27,-214zm190 2074c-22,243 -82,426 -179,548 -97,122 -243,174 -437,157 -195,-18 -331,-96 -406,-236 -75,-139 -101,-331 -79,-575l10 -115 -545 -49 34 -367 1603 145c9,81 12,167 10,257 -1,90 -5,168 -11,235zm-315 -4c2,-27 4,-53 5,-79 1,-26 1,-49 1,-68l-469 -42 -11 115c-11,127 -3,224 26,291 29,68 90,105 184,114 45,4 84,-1 115,-15 31,-13 57,-35 78,-64 20,-28 36,-64 47,-108 11,-43 19,-91 24,-144zm-1630 1796c60,-7 120,-15 183,-25 63,-9 125,-18 187,-27l121 -627c-55,-31 -109,-63 -164,-95 -55,-31 -108,-61 -160,-90l72 -375c161,94 310,182 446,264 136,83 264,163 384,240 119,76 233,151 339,224 107,73 211,147 312,223l-66 342c-122,31 -245,61 -372,90 -126,29 -259,56 -399,83 -140,27 -288,54 -445,80 -157,26 -328,52 -512,80l74 -387zm1325 -195c-22,-12 -52,-30 -88,-54 -37,-23 -80,-50 -129,-79 -49,-30 -103,-64 -161,-100 -58,-37 -120,-75 -185,-113l-88 458c74,-11 146,-22 213,-33 68,-10 130,-21 187,-32 56,-10 106,-19 149,-27 43,-8 77,-15 102,-20zm131 1173l-87 357 -1587 -389 87 -357 1587 389zm-1588 771c-6,16 -13,35 -20,57 -7,21 -16,47 -25,77 -52,177 -47,321 17,432 63,112 173,191 330,238 164,49 301,45 409,-11 109,-56 189,-172 242,-349 7,-24 14,-49 21,-75 7,-25 12,-50 16,-74l-990 -295zm193 1167c-135,-40 -247,-96 -335,-169 -89,-72 -154,-157 -198,-254 -43,-97 -64,-207 -64,-328 0,-121 21,-251 62,-390 19,-63 44,-136 74,-219 30,-83 66,-162 107,-239l1525 455c-9,86 -24,174 -45,263 -21,90 -41,167 -60,230 -40,134 -91,251 -154,351 -63,100 -138,180 -226,239 -89,59 -189,95 -303,107 -113,12 -241,-3 -383,-46z"/>
  <path class="fil3" d="M12967 43407c7,-62 12,-132 15,-208 3,-76 3,-155 2,-237 -2,-81 -8,-162 -16,-242 -9,-80 -22,-156 -39,-225l-429 542 -289 -228 1013 -1281 289 228 -381 482c136,-20 275,-42 419,-66 144,-25 277,-48 400,-70l342 271c-169,35 -336,65 -500,91 -164,26 -333,49 -507,69 35,167 53,347 56,539 2,193 -8,395 -32,606l-343 -271zm510 403l887 -1373 927 599 -168 260 -618 -399 -174 269 549 354 -164 254 -549 -355 -213 331 663 429 -167 259 -973 -628zm1197 781l820 -1414 954 554 -155 267 -636 -369 -161 278 565 327 -151 261 -565 -327 -198 340 683 397 -155 267 -1001 -581zm2437 -536c216,112 363,236 439,372 76,136 70,291 -20,464 -90,174 -214,270 -371,287 -158,16 -345,-32 -563,-144l-102 -53 -252 485 -327 -169 741 -1430c78,23 159,52 241,88 82,36 154,69 214,100zm-123 289c-24,-12 -48,-23 -72,-34 -23,-10 -44,-19 -62,-27l-216 419 102 53c113,59 206,88 280,86 73,-1 131,-43 174,-127 21,-40 31,-78 30,-112 -1,-34 -11,-66 -29,-96 -19,-30 -47,-59 -83,-85 -35,-27 -77,-52 -124,-77zm971 135l335 153 -681 1486 -334 -154 680 -1485zm1031 2165c-39,-212 -87,-423 -143,-636 -56,-212 -124,-417 -202,-615l-349 1012 -343 -119 533 -1544 283 97c32,66 66,145 100,237 35,92 70,189 103,291 34,102 66,207 97,315 31,108 60,211 85,310l315 -911 345 119 -532 1544 -292 -100zm1792 -855c-165,-48 -297,-36 -397,34 -99,70 -172,184 -218,342 -23,77 -34,150 -34,218 0,68 11,129 34,185 23,56 58,104 105,145 48,41 107,72 180,93 39,11 73,20 101,27 29,6 54,10 76,12l159 -546 353 103 -226 777c-47,4 -120,2 -219,-6 -99,-9 -217,-33 -354,-73 -118,-34 -220,-83 -305,-147 -85,-64 -152,-141 -200,-230 -47,-89 -75,-190 -82,-302 -8,-112 7,-233 45,-362 38,-132 92,-242 162,-331 71,-90 151,-159 243,-208 91,-50 190,-79 296,-87 107,-9 214,3 323,35 74,21 139,45 196,73 57,27 105,53 144,78 39,26 71,49 95,71 24,22 41,38 51,49l-185 253c-40,-39 -89,-78 -147,-115 -57,-37 -122,-66 -196,-88zm2498 244l-58 309 -484 -91 -242 1298 -362 -67 242 -1298 -484 -90 57 -308 1331 247zm1053 106l366 31 -137 1628 -367 -31 59 -691 -616 -52 -58 691 -367 -31 138 -1628 366 31 -52 622 615 52 53 -622zm605 1686l56 -1633 1102 37 -10 309 -735 -25 -11 320 653 22 -11 302 -652 -22 -14 394 790 26 -11 309 -1157 -39zm3062 -365l21 315 -1089 73 -109 -1630 367 -24 88 1315 722 -49zm64 -1328l366 -43 192 1623 -366 43 -192 -1623zm1494 85c-169,28 -283,96 -343,202 -59,107 -75,242 -47,404 13,79 35,149 64,211 30,61 67,111 112,152 45,40 98,68 158,84 60,16 128,18 202,5 40,-7 75,-13 103,-20 28,-6 53,-14 74,-22l-95 -560 362 -62 136 797c-41,25 -107,55 -200,91 -93,35 -210,65 -351,89 -121,21 -233,21 -338,0 -105,-20 -198,-60 -280,-120 -82,-59 -150,-137 -206,-235 -56,-97 -95,-212 -118,-346 -22,-135 -22,-257 2,-368 25,-111 67,-209 128,-293 60,-85 136,-154 229,-208 92,-54 193,-90 305,-109 76,-13 145,-20 208,-20 63,0 118,2 164,8 47,6 85,13 116,22 31,9 54,16 68,22l-56 308c-54,-18 -115,-31 -182,-39 -68,-9 -139,-6 -215,7zm1677 -634l359 -80 355 1595 -359 80 -151 -677 -603 135 151 676 -359 80 -355 -1595 359 -80 135 610 603 -134 -135 -610zm1712 -532l98 298 -468 154 415 1254 -349 115 -415 -1253 -468 154 -98 -297 1285 -425zm1048 1047c49,-18 87,-38 115,-58 29,-21 50,-41 63,-63 14,-21 21,-42 21,-64 0,-22 -5,-45 -14,-68 -19,-50 -59,-83 -118,-97 -60,-15 -154,-20 -283,-13 -57,1 -115,0 -173,-3 -59,-4 -115,-15 -168,-34 -53,-19 -101,-48 -145,-88 -44,-39 -79,-94 -107,-165 -27,-70 -38,-138 -34,-205 5,-67 24,-129 57,-188 33,-58 80,-111 140,-159 61,-48 135,-88 221,-122 103,-40 196,-63 279,-70 83,-7 154,-6 213,1l5 309c-51,-6 -105,-7 -164,-3 -58,3 -124,19 -198,47 -82,32 -136,66 -164,103 -27,36 -31,78 -13,125 11,28 26,49 47,63 21,14 46,24 76,30 30,6 63,9 100,9 36,0 76,0 119,-2 91,-1 171,1 240,7 70,6 132,20 185,43 54,24 100,57 139,101 39,44 73,103 101,176 55,142 48,272 -21,389 -70,117 -205,214 -406,292 -67,26 -130,45 -187,58 -57,13 -109,22 -155,26 -47,5 -87,6 -123,5 -35,-2 -65,-5 -90,-9l-9 -310c55,8 120,8 194,2 75,-6 160,-27 257,-65zm1381 -1191c36,71 78,131 124,180 47,49 97,85 151,110 54,25 110,36 169,35 60,-2 120,-18 182,-50 60,-30 109,-69 146,-116 37,-47 61,-99 73,-157 12,-58 13,-120 1,-187 -11,-66 -35,-135 -71,-207 -37,-71 -78,-132 -125,-181 -47,-49 -98,-86 -151,-111 -54,-25 -111,-36 -171,-34 -60,2 -120,18 -180,49 -62,31 -111,70 -147,117 -36,48 -60,100 -72,158 -12,58 -12,121 0,188 12,67 36,136 71,206zm1113 -563c63,125 100,244 111,358 11,113 0,218 -32,315 -33,96 -85,183 -158,260 -73,77 -160,142 -263,194 -99,50 -201,81 -306,94 -105,12 -206,3 -304,-27 -99,-31 -191,-84 -276,-159 -86,-76 -160,-176 -224,-301 -63,-125 -99,-245 -107,-359 -9,-115 4,-221 38,-319 34,-98 87,-186 158,-262 71,-77 156,-140 252,-189 100,-50 202,-81 307,-94 104,-12 206,-3 305,28 98,32 190,85 276,161 86,75 160,175 223,300zm1558 -16c-189,-101 -384,-196 -585,-284 -201,-88 -404,-164 -607,-226l573 903 -306 195 -876 -1379 253 -161c71,16 154,39 247,69 94,30 191,64 292,101 101,37 204,78 307,121 104,43 202,85 296,126l-517 -814 308 -196 876 1380 -261 165z"/>
 </g>
</svg>
