<?xml version="1.0" encoding="UTF-8"?>
<!DOCTYPE svg PUBLIC "-//W3C//DTD SVG 1.1//EN" "http://www.w3.org/Graphics/SVG/1.1/DTD/svg11.dtd">
<!-- Creator: CorelDRAW X6 -->
<svg xmlns="http://www.w3.org/2000/svg" xml:space="preserve" width="7.38856in" height="7.38856in" version="1.1" style="shape-rendering:geometricPrecision; text-rendering:geometricPrecision; image-rendering:optimizeQuality; fill-rule:evenodd; clip-rule:evenodd"
viewBox="0 0 73658 73658"
 xmlns:xlink="http://www.w3.org/1999/xlink">
 <defs>
  <style type="text/css">
   <![CDATA[
    .fil2 {fill:#00A39E}
    .fil1 {fill:#5E0C7B}
    .fil0 {fill:#DE0029}
   ]]>
  </style>
 </defs>
 <g id="Layer_x0020_1">
  <metadata id="CorelCorpID_0Corel-Layer"/>
  <path class="fil0" d="M20352 51957c4089,4451 9957,7242 16477,7242 9155,0 17024,-5501 20487,-13377l2292 10315 9832 -2184c-6165,11715 -18454,19705 -32611,19705 -12010,0 -22676,-5750 -29399,-14646l3194 -10143 9728 3088z"/>
  <path class="fil1" d="M31647 15064c-9856,2338 -17188,11195 -17188,21765 0,4400 1271,8503 3465,11963l-8909 -2805 -3215 10209 -100 319c-3609,-5694 -5700,-12446 -5700,-19686 0,-18809 14100,-34323 32306,-36552l7081 7722 -7740 7065z"/>
  <path class="fil2" d="M36829 0c20340,0 36829,16489 36829,36829 0,5100 -1037,9959 -2912,14375l-9447 2098 -2591 -11797c321,-1508 491,-3072 491,-4676 0,-12354 -10016,-22370 -22370,-22370 -391,0 -780,11 -1166,30l7025 -6443 -7233 -7888 -115 -126c494,-19 990,-32 1489,-32z"/>
 </g>
</svg>
