<?xml version="1.0" encoding="UTF-8"?>
<!DOCTYPE svg PUBLIC "-//W3C//DTD SVG 1.1//EN" "http://www.w3.org/Graphics/SVG/1.1/DTD/svg11.dtd">
<!-- Creator: CorelDRAW X6 -->
<svg xmlns="http://www.w3.org/2000/svg" xml:space="preserve" width="7.38856in" height="7.38856in" version="1.1" style="shape-rendering:geometricPrecision; text-rendering:geometricPrecision; image-rendering:optimizeQuality; fill-rule:evenodd; clip-rule:evenodd"
viewBox="0 0 52260 52260"
 xmlns:xlink="http://www.w3.org/1999/xlink">
 <defs>
  <style type="text/css">
   <![CDATA[
    .fil1 {fill:#1E1824}
    .fil2 {fill:#211B27}
    .fil0 {fill:#27212D}
   ]]>
  </style>
 </defs>
 <g id="Layer_x0020_1">
  <metadata id="CorelCorpID_0Corel-Layer"/>
  <path class="fil0" d="M14440 36864c2901,3158 7064,5138 11690,5138 6496,0 12079,-3903 14536,-9491l1626 7318 6976 -1549c-4374,8312 -13093,13980 -23138,13980 -8521,0 -16088,-4079 -20858,-10391l2266 -7196 6902 2191z"/>
  <path class="fil1" d="M22453 10688c-6992,1659 -12194,7943 -12194,15442 0,3122 902,6033 2458,8488l-6321 -1990 -2281 7243 -71 227c-2561,-4041 -4044,-8831 -4044,-13968 0,-13345 10004,-24352 22921,-25934l5024 5479 -5492 5013z"/>
  <path class="fil2" d="M26130 0c14431,0 26130,11699 26130,26130 0,3619 -735,7066 -2065,10199l-6703 1489 -1839 -8370c228,-1070 349,-2180 349,-3318 0,-8765 -7106,-15871 -15872,-15871 -277,0 -553,7 -827,21l4984 -4571 -5132 -5597 -81 -89c350,-14 702,-23 1056,-23z"/>
 </g>
</svg>
