<?xml version="1.0" encoding="UTF-8"?>
<!DOCTYPE svg PUBLIC "-//W3C//DTD SVG 1.1//EN" "http://www.w3.org/Graphics/SVG/1.1/DTD/svg11.dtd">
<!-- Creator: CorelDRAW X6 -->
<svg xmlns="http://www.w3.org/2000/svg" xml:space="preserve" width="7.38856in" height="7.38856in" version="1.1" style="shape-rendering:geometricPrecision; text-rendering:geometricPrecision; image-rendering:optimizeQuality; fill-rule:evenodd; clip-rule:evenodd"
viewBox="0 0 73658 73658"
 xmlns:xlink="http://www.w3.org/1999/xlink">
 <defs>
  <style type="text/css">
   <![CDATA[
    .fil2 {fill:#00A39E}
    .fil1 {fill:#5E0C7B}
    .fil0 {fill:#DE0029}
    .fil3 {fill:#FEFEFE;fill-rule:nonzero}
   ]]>
  </style>
 </defs>
 <g id="Layer_x0020_1">
  <metadata id="CorelCorpID_0Corel-Layer"/>
  <path class="fil0" d="M20352 51957c4089,4451 9957,7242 16477,7242 9155,0 17024,-5501 20487,-13377l2292 10315 9832 -2184c-6165,11715 -18454,19705 -32611,19705 -12010,0 -22676,-5750 -29399,-14646l3194 -10143 9728 3088z"/>
  <path class="fil1" d="M31647 15064c-9856,2338 -17188,11195 -17188,21765 0,4400 1271,8503 3465,11963l-8909 -2805 -3215 10209 -100 319c-3609,-5694 -5700,-12446 -5700,-19686 0,-18809 14100,-34323 32306,-36552l7081 7722 -7740 7065z"/>
  <path class="fil2" d="M36829 0c20340,0 36829,16489 36829,36829 0,5100 -1037,9959 -2912,14375l-9447 2098 -2591 -11797c321,-1508 491,-3072 491,-4676 0,-12354 -10016,-22370 -22370,-22370 -391,0 -780,11 -1166,30l7025 -6443 -7233 -7888 -115 -126c494,-19 990,-32 1489,-32z"/>
  <path class="fil3" d="M7532 39439c-166,-75 -332,-145 -497,-211 -166,-67 -331,-126 -497,-179l-64 -568c261,98 514,201 760,309 247,108 495,224 745,348l875 -99 58 515 -868 98c-217,176 -434,345 -652,507 -218,161 -443,319 -676,472l-67 -598c150,-88 298,-182 445,-280 147,-99 293,-204 438,-314zm89 -1774c113,-1 215,-16 305,-45 91,-29 169,-70 233,-122 65,-53 115,-117 149,-193 35,-76 52,-162 51,-260 -1,-95 -20,-181 -56,-257 -37,-76 -88,-139 -154,-191 -66,-51 -144,-90 -235,-117 -91,-26 -193,-39 -306,-38 -113,1 -216,16 -307,45 -92,29 -170,69 -235,122 -65,53 -114,118 -149,195 -34,76 -51,162 -50,258 1,97 20,183 57,258 38,75 90,138 155,190 66,51 145,90 238,117 92,26 193,39 304,38zm-19 -1758c197,-2 371,25 521,82 150,57 276,136 378,237 102,101 179,221 232,361 52,141 79,291 81,453 2,157 -22,306 -71,446 -50,140 -124,263 -224,368 -100,106 -224,189 -373,250 -149,62 -322,94 -519,96 -197,2 -371,-27 -521,-87 -150,-61 -277,-143 -380,-247 -103,-104 -181,-225 -233,-363 -53,-138 -80,-283 -81,-436 -2,-158 22,-306 71,-446 49,-140 124,-263 225,-368 101,-106 226,-189 375,-250 149,-62 322,-94 519,-96zm1282 -1339c-14,161 -49,298 -105,411 -56,113 -128,204 -215,272 -87,69 -188,117 -303,143 -115,27 -239,34 -374,22l-1426 -129 46 -516 1384 124c92,9 172,5 239,-10 67,-15 123,-39 167,-71 44,-33 77,-75 99,-125 23,-50 37,-106 42,-168 11,-126 -18,-231 -88,-317 -70,-85 -198,-136 -383,-153l-1384 -124 47 -517 1426 129c135,12 257,42 366,90 109,47 200,114 274,198 74,84 127,188 160,311 34,124 43,267 28,430zm488 -3755c-84,10 -169,21 -258,35 -88,13 -176,26 -264,39l-170 883c77,44 154,89 231,134 78,44 153,86 227,126l-102 529c-228,-133 -437,-257 -629,-373 -192,-116 -372,-228 -541,-337 -169,-108 -328,-213 -479,-316 -150,-102 -297,-207 -439,-313l93 -483c171,-44 346,-87 524,-127 178,-40 366,-79 563,-118 196,-38 406,-75 627,-112 221,-36 462,-73 722,-112l-105 545zm-1867 275c31,17 73,42 124,76 53,32 113,70 182,112 69,42 144,89 227,141 82,51 169,104 260,159l124 -647c-104,16 -205,31 -300,47 -96,15 -183,30 -263,45 -80,15 -150,28 -211,39 -61,11 -108,20 -143,28zm-9 -2424c98,-331 233,-567 403,-708 171,-141 380,-175 628,-101 155,47 271,120 346,220 75,99 121,225 136,375 68,-28 146,-56 231,-84 86,-27 175,-54 266,-78 92,-25 187,-47 284,-67 97,-19 191,-36 284,-50l-166 555c-84,19 -170,38 -257,58 -86,19 -171,40 -254,63 -83,22 -163,46 -238,70 -75,24 -145,50 -208,77l-74 245 806 241 -148 496 -2175 -648c11,-115 30,-231 56,-350 26,-118 52,-223 80,-314zm432 98c-11,36 -20,69 -26,98 -7,29 -13,57 -18,83l599 179 41 -141c56,-186 73,-327 50,-422 -23,-94 -90,-158 -203,-192 -108,-32 -197,-14 -267,54 -70,68 -129,182 -176,341zm2248 -907l-2171 -766 517 -1467 411 145 -345 978 426 150 306 -868 401 142 -306 868 523 184 371 -1050 410 145 -543 1539zm-229 -4442c-102,219 -115,406 -39,560 76,154 219,280 430,379 102,47 201,79 295,93 95,15 184,13 266,-7 83,-20 158,-59 225,-116 66,-56 122,-133 167,-229 25,-53 45,-98 60,-136 15,-38 27,-72 34,-103l-726 -339 219 -470 1033 482c-4,67 -23,168 -56,305 -33,136 -92,295 -177,478 -73,156 -164,287 -271,392 -108,105 -229,181 -364,228 -134,48 -280,64 -438,51 -157,-14 -322,-61 -495,-142 -174,-81 -316,-181 -426,-298 -109,-117 -188,-244 -237,-382 -50,-138 -68,-282 -57,-432 11,-150 51,-297 118,-442 46,-98 94,-184 144,-257 50,-73 97,-134 141,-184 44,-49 83,-88 119,-116 35,-29 62,-49 79,-61l313 312c-64,48 -128,108 -192,180 -64,71 -119,156 -165,254zm2286 -266l-1983 -1171 791 -1339 375 221 -527 893 389 230 468 -793 366 217 -468 792 478 282 566 -958 375 221 -830 1405zm160 -4478l357 260 -409 562 1504 1095 -305 419 -1504 -1095 -409 561 -357 -260 1123 -1542zm1383 -1757l345 277 -436 541 1450 1167 -325 404 -1449 -1167 -436 541 -344 -277 1195 -1486zm305 -322l343 -388 1724 1528 -344 388 -1723 -1528zm3532 -332c-288,-91 -583,-172 -885,-242 -302,-70 -601,-123 -900,-157l1029 1104 -374 349 -1570 -1685 308 -287c104,3 224,14 361,31 138,17 281,39 431,65 149,25 301,55 456,87 155,33 302,66 442,99l-926 -994 376 -351 1570 1685 -318 296zm341 -2830c-184,156 -274,320 -269,492 4,171 82,346 232,524 73,86 150,155 229,208 80,53 162,88 245,104 84,17 168,13 252,-10 85,-24 167,-70 249,-139 44,-37 80,-70 110,-98 30,-28 55,-55 74,-80l-517 -611 395 -335 737 870c-32,59 -91,143 -178,253 -87,110 -207,230 -361,360 -132,112 -269,192 -411,243 -141,50 -283,69 -425,55 -142,-13 -282,-59 -419,-137 -137,-78 -268,-190 -391,-336 -124,-147 -212,-296 -262,-448 -50,-152 -69,-301 -56,-447 13,-146 56,-285 129,-416 73,-132 170,-249 292,-352 83,-70 163,-128 239,-173 76,-46 144,-82 204,-108 61,-27 113,-46 157,-57 44,-11 77,-18 97,-21l155 413c-79,17 -162,45 -250,83 -88,39 -174,93 -257,163zm2176 -2112c291,-182 547,-271 767,-266 220,5 402,124 548,357 147,235 174,454 81,657 -93,203 -286,396 -579,579l-138 86 408 654 -439 275 -1203 -1926c85,-78 178,-155 280,-229 103,-75 194,-137 275,-187zm262 357c-32,20 -63,40 -92,62 -30,21 -56,39 -77,55l352 564 138 -86c152,-95 254,-187 305,-277 51,-89 42,-190 -29,-303 -34,-55 -72,-94 -114,-117 -42,-23 -88,-34 -138,-33 -50,1 -104,14 -162,38 -58,25 -119,57 -183,97zm3355 212c-62,-58 -126,-116 -193,-175 -67,-59 -133,-118 -200,-177l-785 439c16,87 32,175 47,263 16,88 32,172 49,254l-470 263c-45,-259 -85,-499 -120,-721 -35,-221 -65,-431 -91,-630 -26,-199 -48,-389 -67,-570 -18,-182 -32,-361 -43,-538l429 -240c144,103 289,209 435,319 146,110 296,228 452,354 156,126 319,262 490,408 171,146 354,306 551,480l-484 271zm-1413 -1251c6,35 14,83 22,144 9,61 19,131 31,211 12,80 25,168 39,264 13,96 28,197 45,302l575 -322c-79,-70 -156,-137 -229,-200 -73,-63 -141,-120 -204,-172 -63,-51 -118,-96 -166,-136 -47,-39 -85,-69 -113,-91zm1152 -1187l464 -231 1025 2063 -465 230 -1024 -2062zm2298 1009c24,-6 51,-15 81,-25 31,-11 67,-24 108,-39 242,-92 399,-222 470,-388 70,-167 65,-358 -17,-573 -86,-226 -206,-376 -362,-449 -156,-74 -355,-65 -598,27 -33,13 -67,26 -102,41 -34,14 -67,29 -96,45l516 1361zm1142 -1215c71,186 104,360 98,521 -5,161 -44,307 -116,438 -72,132 -176,250 -312,353 -136,104 -299,192 -490,264 -87,33 -190,68 -308,105 -119,37 -239,65 -359,85l-796 -2097c104,-64 215,-122 334,-175 118,-53 221,-96 308,-129 184,-70 359,-113 525,-129 166,-15 320,1 461,49 142,48 268,131 378,248 111,117 203,272 277,467zm20292 1477c2,-84 4,-171 3,-260 1,-89 1,-178 1,-267l-848 -299c-55,70 -111,139 -167,209 -55,70 -108,138 -158,205l-508 -179c165,-206 318,-394 461,-567 144,-173 282,-334 414,-485 132,-151 260,-293 384,-427 123,-133 249,-262 375,-387l463 163c19,176 35,355 48,537 14,182 25,373 33,574 9,200 14,412 18,637 4,224 5,468 4,731l-523 -185zm5 -1887c-22,28 -53,65 -94,112 -40,47 -86,101 -138,163 -51,62 -109,129 -172,203 -64,74 -129,152 -197,233l621 220c1,-106 0,-208 -1,-305 -1,-96 -3,-185 -6,-266 -2,-81 -5,-153 -7,-214 -2,-62 -4,-110 -6,-146zm2367 415c313,146 527,314 642,503 114,189 117,401 7,636 -68,147 -157,250 -267,310 -110,60 -241,86 -392,79 18,72 35,152 49,241 15,89 28,181 39,275 11,94 19,191 24,290 5,99 8,195 8,288l-525 -245c-6,-86 -13,-174 -19,-262 -7,-89 -15,-176 -25,-261 -10,-86 -22,-168 -35,-246 -12,-78 -28,-150 -45,-217l-232 -109 -356 762 -470 -219 961 -2057c111,28 224,64 337,107 113,43 213,84 299,125zm-160 413c-34,-16 -65,-29 -93,-40 -28,-11 -55,-21 -80,-30l-264 566 133 62c176,83 313,119 410,111 97,-9 170,-66 220,-172 48,-103 43,-194 -14,-273 -57,-79 -161,-154 -312,-224zm3174 1243l-225 381 -598 -354 -946 1602 -447 -263 947 -1602 -598 -354 225 -380 1642 970zm374 238l433 285 -1266 1924 -433 -285 1266 -1924zm353 2550c59,43 112,73 157,92 46,18 87,27 122,27 36,0 67,-9 93,-25 26,-17 49,-40 70,-68 44,-61 53,-133 25,-215 -28,-82 -95,-197 -201,-345 -45,-66 -88,-135 -129,-207 -40,-72 -70,-147 -87,-224 -18,-78 -20,-157 -7,-240 13,-82 51,-166 114,-252 63,-86 135,-151 218,-197 82,-45 170,-71 265,-76 94,-5 193,10 296,45 103,35 207,92 313,169 125,91 224,183 295,277 72,93 126,177 162,253l-362 242c-32,-65 -73,-130 -121,-197 -49,-67 -118,-133 -208,-199 -100,-73 -182,-111 -246,-116 -64,-4 -117,23 -159,80 -25,34 -37,69 -38,104 -1,35 6,72 22,113 16,40 38,82 65,125 27,43 59,90 93,140 71,106 129,203 176,290 46,87 76,171 89,252 14,82 9,162 -13,242 -23,79 -66,164 -132,253 -126,174 -285,264 -477,271 -191,7 -410,-78 -655,-257 -82,-60 -153,-119 -212,-177 -59,-58 -109,-113 -150,-165 -40,-51 -73,-98 -98,-141 -25,-43 -45,-81 -59,-113l360 -247c34,71 82,148 146,231 64,84 155,169 273,255zm3529 344l-276 344 -542 -435 -1166 1450 -404 -325 1166 -1450 -541 -435 277 -345 1486 1196zm-489 2195c52,51 99,89 142,114 43,24 82,39 117,44 35,5 67,1 95,-12 28,-13 54,-32 79,-57 53,-54 71,-124 55,-209 -16,-85 -66,-209 -149,-370 -35,-72 -68,-147 -98,-224 -30,-77 -48,-155 -55,-234 -6,-79 3,-158 28,-238 25,-79 74,-157 149,-233 74,-76 155,-131 243,-164 88,-33 179,-46 273,-38 94,9 190,38 287,87 97,50 192,121 286,212 111,108 195,213 253,316 58,103 99,194 123,274l-392 188c-23,-69 -54,-140 -92,-213 -39,-73 -98,-148 -177,-226 -89,-86 -165,-136 -227,-149 -63,-14 -119,5 -169,56 -29,30 -47,62 -53,97 -6,34 -4,73 6,115 10,42 26,86 47,133 21,47 45,97 72,152 55,115 99,219 132,312 33,93 51,180 53,263 2,82 -14,161 -48,236 -33,76 -89,153 -166,233 -150,154 -320,220 -511,200 -191,-20 -395,-136 -612,-348 -73,-72 -134,-140 -185,-206 -50,-66 -91,-127 -124,-184 -33,-57 -59,-108 -77,-154 -19,-46 -33,-86 -43,-121l392 -193c23,75 60,159 112,250 51,92 129,189 234,291zm2190 2969c44,-72 90,-146 134,-223 46,-77 91,-153 136,-230l-581 -686c-83,32 -166,64 -249,96 -84,33 -163,65 -241,97l-348 -411c246,-94 474,-180 685,-257 211,-76 411,-146 601,-209 190,-64 373,-122 547,-175 174,-53 348,-101 519,-145l318 375c-73,161 -149,324 -230,488 -80,164 -167,334 -261,511 -94,178 -196,364 -306,559 -110,196 -232,407 -365,633l-359 -423zm957 -1627c-33,13 -79,30 -137,50 -58,20 -125,43 -202,71 -75,27 -159,56 -251,88 -92,31 -188,66 -287,102l425 503c54,-91 105,-179 152,-263 49,-84 92,-162 130,-233 39,-71 73,-134 102,-189 30,-54 52,-97 68,-129zm1872 1519c197,284 297,537 301,758 4,221 -101,406 -314,553 -133,93 -262,137 -387,133 -125,-3 -251,-46 -378,-128 -20,71 -47,149 -79,233 -32,84 -67,170 -105,257 -38,87 -79,175 -125,263 -45,88 -91,172 -138,253l-330 -476c38,-78 76,-157 115,-236 39,-81 76,-160 110,-239 34,-79 65,-156 94,-229 28,-74 51,-145 70,-211l-146 -211 -691 480 -296 -426 1865 -1294c83,80 162,167 238,262 77,94 142,180 196,258zm-346 277c-22,-31 -42,-58 -61,-82 -18,-23 -36,-45 -53,-65l-514 356 84 120c111,160 210,261 298,302 88,42 181,29 277,-38 93,-65 135,-145 125,-243 -9,-97 -61,-214 -156,-350zm-708 2330l1953 -1220 824 1320 -369 230 -549 -879 -384 239 488 781 -361 225 -487 -781 -471 294 590 945 -370 230 -864 -1384zm3614 2696c-96,-222 -228,-355 -393,-400 -166,-44 -356,-20 -569,73 -103,45 -192,98 -266,160 -73,61 -130,129 -169,204 -40,76 -61,157 -62,245 -2,88 19,180 61,278 23,52 44,97 63,134 18,36 36,68 55,93l734 -320 207 475 -1044 456c-47,-47 -111,-128 -191,-243 -81,-114 -161,-264 -242,-449 -69,-158 -108,-312 -115,-463 -8,-150 15,-291 69,-423 53,-132 137,-253 251,-362 115,-109 259,-202 433,-278 177,-78 345,-118 505,-123 160,-5 308,20 444,74 137,54 257,135 362,243 105,108 190,235 254,381 43,99 76,192 98,278 21,86 36,161 44,227 8,65 11,121 10,166 -2,46 -5,79 -8,100l-440 29c6,-80 3,-168 -8,-263 -12,-96 -39,-193 -83,-292zm-1268 1874l2153 -817 552 1454 -407 154 -368 -969 -423 160 327 861 -398 151 -326 -861 -519 197 395 1041 -407 154 -579 -1525zm3371 2938l-427 115 -181 -671 -1797 484 -134 -500 1796 -484 -180 -671 426 -115 497 1842zm489 2188l-432 93 -147 -679 -1819 394 -110 -507 1819 -393 -147 -679 432 -93 404 1864zm51 446l84 512 -2272 373 -84 -512 2272 -373zm-1981 2951c254,-165 504,-341 750,-529 245,-189 476,-387 692,-596l-1506 93 -31 -510 2298 -142 26 421c-68,77 -153,164 -254,259 -100,95 -208,192 -323,291 -115,99 -234,198 -358,297 -123,98 -243,191 -357,278l1357 -84 31 514 -2298 142 -27 -434zm1971 2067c-3,-241 -72,-415 -207,-521 -135,-106 -319,-158 -552,-155 -113,1 -215,16 -307,43 -92,28 -170,69 -236,123 -66,53 -117,121 -152,201 -36,80 -53,173 -52,279 0,58 2,107 5,148 2,41 7,77 14,108l801 -9 6 519 -1140 12c-25,-62 -52,-161 -81,-298 -30,-137 -45,-306 -48,-508 -1,-173 23,-330 75,-471 52,-141 128,-262 229,-363 100,-101 225,-179 373,-235 147,-56 316,-85 507,-87 193,-2 364,26 513,84 149,58 275,139 380,242 104,102 183,224 238,364 55,140 83,290 85,449 1,109 -5,207 -19,295 -13,87 -29,163 -47,226 -18,64 -37,116 -56,157 -20,41 -35,71 -46,89l-417 -145c37,-72 69,-153 95,-246 27,-92 40,-192 39,-301zm266 2924c-31,342 -115,599 -251,771 -137,172 -342,246 -616,221 -276,-24 -466,-135 -572,-332 -106,-196 -143,-466 -112,-810l14 -163 -767 -69 46 -516 2261 204c12,114 16,235 14,361 -3,127 -8,238 -17,333zm-443 -7c3,-37 6,-75 7,-111 1,-37 1,-68 2,-95l-662 -60 -15 162c-16,179 -4,316 36,411 41,95 127,148 259,160 64,6 118,-1 162,-21 44,-19 81,-49 110,-90 30,-40 52,-91 68,-152 15,-61 26,-129 33,-204zm-2297 2532c83,-11 169,-22 257,-35 89,-13 177,-26 265,-39l170 -883c-77,-44 -155,-89 -232,-134 -77,-44 -152,-86 -226,-126l102 -529c227,132 437,256 629,372 192,117 372,229 541,337 168,109 328,214 479,317 150,102 296,207 438,313l-93 483c-171,44 -345,86 -523,127 -178,40 -366,79 -563,117 -197,38 -406,75 -627,112 -222,37 -462,74 -722,113l105 -545zm1867 -275c-31,-18 -73,-43 -125,-76 -52,-32 -112,-70 -182,-112 -68,-42 -144,-89 -226,-141 -82,-52 -169,-105 -260,-159l-125 646c105,-15 205,-31 301,-46 95,-15 183,-30 263,-45 80,-15 150,-28 211,-39 60,-11 108,-21 143,-28zm185 1653l-124 503 -2236 -548 123 -503 2237 548zm-2238 1087c-9,23 -19,50 -29,80 -10,30 -22,67 -34,109 -74,249 -67,452 23,609 89,157 244,269 465,335 231,69 424,64 577,-16 153,-79 266,-243 341,-491 10,-34 20,-69 29,-105 10,-37 18,-72 23,-105l-1395 -416zm272 1645c-191,-57 -349,-136 -473,-238 -125,-102 -217,-221 -278,-359 -61,-137 -91,-291 -91,-462 0,-171 29,-354 88,-549 26,-90 61,-192 104,-309 43,-117 93,-229 150,-337l2150 642c-13,120 -34,244 -64,371 -30,126 -58,234 -84,323 -57,189 -129,354 -217,495 -89,141 -195,254 -319,337 -125,83 -267,133 -427,150 -160,17 -339,-4 -539,-64z"/>
  <path class="fil3" d="M18276 61179c9,-87 17,-185 21,-293 4,-107 5,-218 3,-333 -3,-115 -10,-229 -23,-342 -12,-113 -31,-219 -55,-317l-605 765 -406 -322 1428 -1806 407 321 -537 679c191,-27 388,-58 591,-92 203,-35 390,-68 563,-99l483 382c-239,49 -474,92 -705,129 -231,37 -470,69 -716,97 50,235 76,489 80,760 3,272 -12,556 -46,854l-483 -383zm719 568l1250 -1934 1306 844 -236 366 -871 -563 -245 380 773 499 -231 357 -773 -499 -301 466 935 604 -236 366 -1371 -886zm1687 1101l1156 -1992 1345 780 -219 377 -896 -520 -227 391 796 462 -213 367 -797 -461 -278 480 963 558 -219 377 -1411 -819zm3435 -755c305,158 511,333 619,524 108,192 98,410 -28,654 -127,246 -302,381 -524,404 -221,24 -486,-44 -793,-203l-144 -74 -355 684 -460 -238 1043 -2016c111,33 224,74 340,124 117,50 217,97 302,141zm-174 408c-34,-18 -67,-34 -100,-48 -34,-15 -63,-28 -88,-38l-305 590 144 75c160,83 291,123 394,121 103,-1 185,-61 246,-179 30,-57 44,-110 43,-158 -2,-48 -16,-93 -42,-135 -27,-43 -65,-83 -116,-120 -50,-38 -109,-74 -176,-108zm1369 189l472 216 -959 2094 -471 -216 958 -2094zm1453 3051c-55,-297 -122,-596 -201,-895 -80,-299 -175,-588 -284,-868l-492 1426 -484 -166 751 -2177 399 137c45,93 92,204 141,334 49,129 98,266 145,410 48,144 93,292 137,444 44,153 84,298 120,437l443 -1285 487 168 -751 2177 -411 -142zm2526 -1204c-232,-67 -418,-51 -559,47 -141,99 -243,260 -308,483 -32,109 -48,211 -48,307 0,95 16,182 49,261 32,79 81,147 148,204 66,58 150,101 253,131 55,16 103,29 142,38 40,9 76,15 108,17l224 -769 497 145 -318 1095c-66,6 -169,3 -309,-9 -140,-12 -306,-46 -500,-102 -166,-48 -309,-118 -429,-208 -120,-90 -214,-198 -281,-324 -67,-126 -106,-267 -117,-425 -11,-158 10,-328 64,-511 54,-185 130,-341 229,-466 99,-126 213,-224 341,-294 129,-70 268,-110 418,-122 150,-12 302,4 455,49 104,30 196,65 276,103 80,38 148,75 203,111 56,36 100,69 134,99 34,31 58,54 72,70l-260 357c-57,-56 -127,-110 -207,-163 -81,-52 -173,-93 -277,-124zm3520 344l-81 435 -682 -127 -341 1829 -510 -95 341 -1829 -683 -127 81 -435 1875 349zm1485 149l516 43 -193 2295 -517 -44 82 -973 -867 -73 -83 973 -516 -43 194 -2295 516 43 -74 878 868 73 74 -877zm853 2376l78 -2301 1554 52 -15 435 -1036 -35 -15 452 920 31 -15 425 -919 -31 -19 555 1112 37 -14 435 -1631 -55zm4316 -514l30 444 -1535 104 -155 -2298 517 -35 125 1853 1018 -68zm90 -1871l515 -61 270 2287 -514 61 -271 -2287zm2105 119c-238,40 -399,135 -483,285 -83,151 -105,340 -66,570 19,111 49,210 90,296 42,86 95,158 158,214 64,57 138,96 223,119 84,23 179,25 284,7 57,-9 105,-19 145,-28 40,-9 75,-19 105,-31l-135 -789 511 -87 191 1123c-57,35 -151,77 -281,128 -131,50 -296,92 -495,126 -170,29 -329,29 -477,0 -147,-29 -279,-85 -394,-169 -115,-84 -212,-194 -291,-332 -78,-137 -133,-299 -165,-487 -32,-190 -32,-363 3,-520 34,-156 93,-294 179,-413 85,-119 193,-216 323,-292 129,-76 273,-128 430,-154 107,-18 205,-28 294,-28 88,-1 165,3 231,11 65,8 120,18 164,31 43,13 75,23 94,31l-78 435c-76,-25 -162,-44 -257,-56 -95,-12 -196,-9 -303,10zm2364 -893l506 -113 500 2248 -506 113 -213 -954 -849 189 212 954 -506 112 -500 -2248 506 -112 191 859 850 -189 -191 -859zm2413 -750l138 419 -659 218 584 1767 -492 163 -584 -1767 -660 218 -139 -420 1812 -598zm1477 1476c68,-27 122,-54 162,-83 40,-28 70,-58 89,-88 20,-30 29,-60 29,-91 0,-31 -6,-63 -19,-96 -27,-70 -83,-116 -167,-136 -84,-21 -217,-28 -399,-19 -80,3 -161,1 -244,-4 -82,-4 -161,-20 -236,-47 -74,-27 -142,-69 -204,-124 -62,-56 -112,-133 -151,-232 -38,-100 -54,-196 -48,-290 7,-94 33,-182 80,-264 46,-82 112,-157 198,-225 86,-67 189,-125 311,-172 145,-56 276,-89 393,-98 117,-10 217,-10 300,1l8 435c-72,-8 -149,-9 -232,-4 -82,4 -175,26 -278,66 -116,45 -193,93 -231,145 -39,52 -45,110 -19,177 15,39 37,68 66,88 29,20 65,34 107,42 43,9 90,13 141,14 51,0 107,-1 168,-3 128,-2 240,1 339,10 98,8 185,28 260,61 76,32 141,80 196,141 55,62 102,145 142,248 78,201 67,383 -30,548 -98,165 -288,302 -571,412 -95,37 -183,64 -264,82 -81,19 -154,31 -219,37 -66,6 -123,8 -173,6 -49,-2 -92,-6 -127,-11l-12 -437c77,10 169,11 273,3 105,-9 226,-40 362,-92zm1947 -1679c51,100 109,185 175,254 65,68 136,120 212,155 76,35 156,51 239,48 83,-2 168,-25 255,-69 85,-43 154,-98 206,-164 52,-66 87,-140 104,-222 17,-81 17,-169 1,-263 -16,-93 -50,-190 -101,-291 -51,-101 -110,-186 -176,-256 -66,-69 -137,-122 -213,-156 -76,-35 -156,-51 -240,-48 -84,2 -169,25 -254,68 -87,44 -156,100 -207,166 -50,67 -84,141 -101,223 -17,82 -17,170 0,264 16,95 50,192 100,291zm1569 -794c88,176 140,344 156,504 15,160 -1,308 -46,444 -46,136 -120,258 -222,367 -103,109 -226,200 -370,273 -141,71 -285,115 -432,133 -148,17 -291,5 -429,-38 -139,-43 -268,-118 -389,-224 -121,-107 -226,-248 -315,-424 -89,-176 -139,-345 -151,-506 -13,-162 5,-312 53,-450 48,-138 123,-262 223,-370 101,-108 219,-196 356,-265 140,-71 284,-115 432,-133 147,-17 290,-4 429,40 139,44 269,119 390,226 121,106 226,247 315,423zm2196 -22c-267,-143 -542,-277 -826,-401 -283,-124 -569,-230 -856,-318l809 1273 -432 274 -1234 -1944 356 -226c101,23 217,55 349,97 132,43 269,90 411,143 143,52 287,109 433,170 146,60 285,120 416,178l-728 -1147 435 -276 1234 1944 -367 233z"/>
 </g>
</svg>
